# Zoomer visual mesh, local link coordinates in metres
v -0.0228053 -0.0243421 -0.0065628
v -0.0228053 -0.0274445 -0.0034604
v -0.0252863 -0.0243421 -0.0034604
v -0.0228053 -0.0258912 -0.0061483
v -0.0240442 -0.0243421 -0.0061483
v -0.0239917 -0.0258257 -0.0057457
v -0.0240442 -0.0270300 -0.0034604
v -0.0228053 -0.0270300 -0.0050096
v -0.0239917 -0.0266274 -0.0049440
v -0.0249548 -0.0243421 -0.0050096
v -0.0249548 -0.0258912 -0.0034604
v -0.0246329 -0.0258257 -0.0049440
v -0.0228053 -0.0274445 0.0058469
v -0.0228053 -0.0243421 0.0089493
v -0.0252863 -0.0243421 0.0058469
v -0.0228053 -0.0270300 0.0073960
v -0.0240442 -0.0270300 0.0058469
v -0.0239917 -0.0266274 0.0073305
v -0.0240442 -0.0243421 0.0085348
v -0.0228053 -0.0258912 0.0085348
v -0.0239917 -0.0258257 0.0081322
v -0.0249548 -0.0258912 0.0058469
v -0.0249548 -0.0243421 0.0073960
v -0.0246329 -0.0258257 0.0073305
v -0.0228053 0.0243421 -0.0065628
v -0.0252863 0.0243421 -0.0034604
v -0.0228053 0.0274445 -0.0034604
v -0.0240442 0.0243421 -0.0061483
v -0.0228053 0.0258912 -0.0061483
v -0.0239917 0.0258257 -0.0057457
v -0.0249548 0.0258912 -0.0034604
v -0.0249548 0.0243421 -0.0050096
v -0.0246329 0.0258257 -0.0049440
v -0.0228053 0.0270300 -0.0050096
v -0.0240442 0.0270300 -0.0034604
v -0.0239917 0.0266274 -0.0049440
v -0.0228053 0.0243421 0.0089493
v -0.0228053 0.0274445 0.0058469
v -0.0252863 0.0243421 0.0058469
v -0.0228053 0.0258912 0.0085348
v -0.0240442 0.0243421 0.0085348
v -0.0239917 0.0258257 0.0081322
v -0.0240442 0.0270300 0.0058469
v -0.0228053 0.0270300 0.0073960
v -0.0239917 0.0266274 0.0073305
v -0.0249548 0.0243421 0.0073960
v -0.0249548 0.0258912 0.0058469
v -0.0246329 0.0258257 0.0073305
v 0.0228053 -0.0243421 -0.0065628
v 0.0252863 -0.0243421 -0.0034604
v 0.0228053 -0.0274445 -0.0034604
v 0.0240442 -0.0243421 -0.0061483
v 0.0228053 -0.0258912 -0.0061483
v 0.0239917 -0.0258257 -0.0057457
v 0.0249548 -0.0258912 -0.0034604
v 0.0249548 -0.0243421 -0.0050096
v 0.0246329 -0.0258257 -0.0049440
v 0.0228053 -0.0270300 -0.0050096
v 0.0240442 -0.0270300 -0.0034604
v 0.0239917 -0.0266274 -0.0049440
v 0.0228053 -0.0243421 0.0089493
v 0.0228053 -0.0274445 0.0058469
v 0.0252863 -0.0243421 0.0058469
v 0.0228053 -0.0258912 0.0085348
v 0.0240442 -0.0243421 0.0085348
v 0.0239917 -0.0258257 0.0081322
v 0.0240442 -0.0270300 0.0058469
v 0.0228053 -0.0270300 0.0073960
v 0.0239917 -0.0266274 0.0073305
v 0.0249548 -0.0243421 0.0073960
v 0.0249548 -0.0258912 0.0058469
v 0.0246329 -0.0258257 0.0073305
v 0.0228053 0.0243421 -0.0065628
v 0.0228053 0.0274445 -0.0034604
v 0.0252863 0.0243421 -0.0034604
v 0.0228053 0.0258912 -0.0061483
v 0.0240442 0.0243421 -0.0061483
v 0.0239917 0.0258257 -0.0057457
v 0.0240442 0.0270300 -0.0034604
v 0.0228053 0.0270300 -0.0050096
v 0.0239917 0.0266274 -0.0049440
v 0.0249548 0.0243421 -0.0050096
v 0.0249548 0.0258912 -0.0034604
v 0.0246329 0.0258257 -0.0049440
v 0.0228053 0.0243421 0.0089493
v 0.0252863 0.0243421 0.0058469
v 0.0228053 0.0274445 0.0058469
v 0.0240442 0.0243421 0.0085348
v 0.0228053 0.0258912 0.0085348
v 0.0239917 0.0258257 0.0081322
v 0.0249548 0.0258912 0.0058469
v 0.0249548 0.0243421 0.0073960
v 0.0246329 0.0258257 0.0073305
v 0.0228053 0.0270300 0.0073960
v 0.0240442 0.0270300 0.0058469
v 0.0239917 0.0266274 0.0073305
v 0.0000000 0.0064425 0.0208817
v 0.0000000 0.0069208 0.0213590
v 0.0000000 0.0066816 0.0209456
v 0.0000000 0.0068567 0.0211203
v -0.0000000 0.0064425 0.0745774
v 0.0000000 0.0069208 0.0741001
v -0.0000000 0.0066816 0.0745134
v -0.0000000 0.0068567 0.0743387
v 0.0006725 0.0063873 0.0208817
v 0.0007224 0.0068616 0.0213590
v 0.0006974 0.0066245 0.0209456
v 0.0007157 0.0067980 0.0211203
v 0.0006725 0.0063873 0.0745774
v 0.0007224 0.0068616 0.0741001
v 0.0006974 0.0066245 0.0745134
v 0.0007157 0.0067980 0.0743387
v 0.0013334 0.0062229 0.0208817
v 0.0014324 0.0066850 0.0213590
v 0.0013829 0.0064540 0.0209456
v 0.0014191 0.0066231 0.0211203
v 0.0013334 0.0062229 0.0745774
v 0.0014324 0.0066850 0.0741001
v 0.0013829 0.0064540 0.0745134
v 0.0014191 0.0066231 0.0743387
v 0.0019715 0.0059521 0.0208817
v 0.0021179 0.0063940 0.0213590
v 0.0020447 0.0061730 0.0209456
v 0.0020983 0.0063348 0.0211203
v 0.0019715 0.0059521 0.0745774
v 0.0021179 0.0063940 0.0741001
v 0.0020447 0.0061730 0.0745134
v 0.0020983 0.0063348 0.0743387
v 0.0025759 0.0055793 0.0208817
v 0.0027672 0.0059936 0.0213590
v 0.0026716 0.0057865 0.0209456
v 0.0027416 0.0059381 0.0211203
v 0.0025759 0.0055793 0.0745774
v 0.0027672 0.0059936 0.0741001
v 0.0026716 0.0057865 0.0745134
v 0.0027416 0.0059381 0.0743387
v 0.0031362 0.0051111 0.0208817
v 0.0033691 0.0054906 0.0213590
v 0.0032527 0.0053009 0.0209456
v 0.0033379 0.0054398 0.0211203
v 0.0031362 0.0051111 0.0745774
v 0.0033691 0.0054906 0.0741001
v 0.0032527 0.0053009 0.0745134
v 0.0033379 0.0054398 0.0743387
v 0.0036429 0.0045555 0.0208817
v 0.0039134 0.0048937 0.0213590
v 0.0037781 0.0047246 0.0209456
v 0.0038771 0.0048484 0.0211203
v 0.0036429 0.0045555 0.0745774
v 0.0039134 0.0048937 0.0741001
v 0.0037781 0.0047246 0.0745134
v 0.0038771 0.0048484 0.0743387
v 0.0040872 0.0039219 0.0208817
v 0.0043907 0.0042131 0.0213590
v 0.0042390 0.0040675 0.0209456
v 0.0043500 0.0041741 0.0211203
v 0.0040872 0.0039219 0.0745774
v 0.0043907 0.0042131 0.0741001
v 0.0042390 0.0040675 0.0745134
v 0.0043500 0.0041741 0.0743387
v 0.0044616 0.0032212 0.0208817
v 0.0047929 0.0034604 0.0213590
v 0.0046273 0.0033408 0.0209456
v 0.0047485 0.0034283 0.0211203
v 0.0044616 0.0032212 0.0745774
v 0.0047929 0.0034604 0.0741001
v 0.0046273 0.0033408 0.0745134
v 0.0047485 0.0034283 0.0743387
v 0.0047597 0.0024654 0.0208817
v 0.0051131 0.0026485 0.0213590
v 0.0049364 0.0025569 0.0209456
v 0.0050657 0.0026239 0.0211203
v 0.0047597 0.0024654 0.0745774
v 0.0051131 0.0026485 0.0741001
v 0.0049364 0.0025569 0.0745134
v 0.0050657 0.0026239 0.0743387
v 0.0049763 0.0016674 0.0208817
v 0.0053458 0.0017912 0.0213590
v 0.0051610 0.0017293 0.0209456
v 0.0052963 0.0017746 0.0211203
v 0.0049763 0.0016674 0.0745774
v 0.0053458 0.0017912 0.0741001
v 0.0051610 0.0017293 0.0745134
v 0.0052963 0.0017746 0.0743387
v 0.0051078 0.0008409 0.0208817
v 0.0054870 0.0009033 0.0213590
v 0.0052974 0.0008721 0.0209456
v 0.0054362 0.0008950 0.0211203
v 0.0051078 0.0008409 0.0745774
v 0.0054870 0.0009033 0.0741001
v 0.0052974 0.0008721 0.0745134
v 0.0054362 0.0008950 0.0743387
v 0.0051519 -0.0000000 0.0208817
v 0.0055344 0.0000000 0.0213590
v 0.0053431 -0.0000000 0.0209456
v 0.0054831 -0.0000000 0.0211203
v 0.0051519 0.0000000 0.0745774
v 0.0055344 0.0000000 0.0741001
v 0.0053431 0.0000000 0.0745134
v 0.0054831 0.0000000 0.0743387
v 0.0051078 -0.0008409 0.0208817
v 0.0054870 -0.0009033 0.0213590
v 0.0052974 -0.0008721 0.0209456
v 0.0054362 -0.0008950 0.0211203
v 0.0051078 -0.0008409 0.0745774
v 0.0054870 -0.0009033 0.0741001
v 0.0052974 -0.0008721 0.0745134
v 0.0054362 -0.0008950 0.0743387
v 0.0049763 -0.0016674 0.0208817
v 0.0053458 -0.0017912 0.0213590
v 0.0051610 -0.0017293 0.0209456
v 0.0052963 -0.0017746 0.0211203
v 0.0049763 -0.0016674 0.0745774
v 0.0053458 -0.0017912 0.0741001
v 0.0051610 -0.0017293 0.0745134
v 0.0052963 -0.0017746 0.0743387
v 0.0047597 -0.0024654 0.0208817
v 0.0051131 -0.0026485 0.0213590
v 0.0049364 -0.0025569 0.0209456
v 0.0050657 -0.0026239 0.0211203
v 0.0047597 -0.0024654 0.0745774
v 0.0051131 -0.0026485 0.0741001
v 0.0049364 -0.0025569 0.0745134
v 0.0050657 -0.0026239 0.0743387
v 0.0044616 -0.0032212 0.0208817
v 0.0047929 -0.0034604 0.0213590
v 0.0046273 -0.0033408 0.0209456
v 0.0047485 -0.0034283 0.0211203
v 0.0044616 -0.0032212 0.0745774
v 0.0047929 -0.0034604 0.0741001
v 0.0046273 -0.0033408 0.0745134
v 0.0047485 -0.0034283 0.0743387
v 0.0040872 -0.0039219 0.0208817
v 0.0043907 -0.0042131 0.0213590
v 0.0042390 -0.0040675 0.0209456
v 0.0043500 -0.0041741 0.0211203
v 0.0040872 -0.0039219 0.0745774
v 0.0043907 -0.0042131 0.0741001
v 0.0042390 -0.0040675 0.0745134
v 0.0043500 -0.0041741 0.0743387
v 0.0036429 -0.0045555 0.0208817
v 0.0039134 -0.0048937 0.0213590
v 0.0037781 -0.0047246 0.0209456
v 0.0038771 -0.0048484 0.0211203
v 0.0036429 -0.0045555 0.0745774
v 0.0039134 -0.0048937 0.0741001
v 0.0037781 -0.0047246 0.0745134
v 0.0038771 -0.0048484 0.0743387
v 0.0031362 -0.0051111 0.0208817
v 0.0033691 -0.0054906 0.0213590
v 0.0032527 -0.0053009 0.0209456
v 0.0033379 -0.0054398 0.0211203
v 0.0031362 -0.0051111 0.0745774
v 0.0033691 -0.0054906 0.0741001
v 0.0032527 -0.0053009 0.0745134
v 0.0033379 -0.0054398 0.0743387
v 0.0025759 -0.0055793 0.0208817
v 0.0027672 -0.0059936 0.0213590
v 0.0026716 -0.0057865 0.0209456
v 0.0027416 -0.0059381 0.0211203
v 0.0025759 -0.0055793 0.0745774
v 0.0027672 -0.0059936 0.0741001
v 0.0026716 -0.0057865 0.0745134
v 0.0027416 -0.0059381 0.0743387
v 0.0019715 -0.0059521 0.0208817
v 0.0021179 -0.0063940 0.0213590
v 0.0020447 -0.0061730 0.0209456
v 0.0020983 -0.0063348 0.0211203
v 0.0019715 -0.0059521 0.0745774
v 0.0021179 -0.0063940 0.0741001
v 0.0020447 -0.0061730 0.0745134
v 0.0020983 -0.0063348 0.0743387
v 0.0013334 -0.0062229 0.0208817
v 0.0014324 -0.0066850 0.0213590
v 0.0013829 -0.0064540 0.0209456
v 0.0014191 -0.0066231 0.0211203
v 0.0013334 -0.0062229 0.0745774
v 0.0014324 -0.0066850 0.0741001
v 0.0013829 -0.0064540 0.0745134
v 0.0014191 -0.0066231 0.0743387
v 0.0006725 -0.0063873 0.0208817
v 0.0007224 -0.0068616 0.0213590
v 0.0006974 -0.0066245 0.0209456
v 0.0007157 -0.0067980 0.0211203
v 0.0006725 -0.0063873 0.0745774
v 0.0007224 -0.0068616 0.0741001
v 0.0006974 -0.0066245 0.0745134
v 0.0007157 -0.0067980 0.0743387
v -0.0000000 -0.0064425 0.0208817
v 0.0000000 -0.0069208 0.0213590
v -0.0000000 -0.0066816 0.0209456
v -0.0000000 -0.0068567 0.0211203
v 0.0000000 -0.0064425 0.0745774
v 0.0000000 -0.0069208 0.0741001
v 0.0000000 -0.0066816 0.0745134
v 0.0000000 -0.0068567 0.0743387
v -0.0006725 -0.0063873 0.0208817
v -0.0007224 -0.0068616 0.0213590
v -0.0006974 -0.0066245 0.0209456
v -0.0007157 -0.0067980 0.0211203
v -0.0006725 -0.0063873 0.0745774
v -0.0007224 -0.0068616 0.0741001
v -0.0006974 -0.0066245 0.0745134
v -0.0007157 -0.0067980 0.0743387
v -0.0013334 -0.0062229 0.0208817
v -0.0014324 -0.0066850 0.0213590
v -0.0013829 -0.0064540 0.0209456
v -0.0014191 -0.0066231 0.0211203
v -0.0013334 -0.0062229 0.0745774
v -0.0014324 -0.0066850 0.0741001
v -0.0013829 -0.0064540 0.0745134
v -0.0014191 -0.0066231 0.0743387
v -0.0019715 -0.0059521 0.0208817
v -0.0021179 -0.0063940 0.0213590
v -0.0020447 -0.0061730 0.0209456
v -0.0020983 -0.0063348 0.0211203
v -0.0019715 -0.0059521 0.0745774
v -0.0021179 -0.0063940 0.0741001
v -0.0020447 -0.0061730 0.0745134
v -0.0020983 -0.0063348 0.0743387
v -0.0025759 -0.0055793 0.0208817
v -0.0027672 -0.0059936 0.0213590
v -0.0026716 -0.0057865 0.0209456
v -0.0027416 -0.0059381 0.0211203
v -0.0025759 -0.0055793 0.0745774
v -0.0027672 -0.0059936 0.0741001
v -0.0026716 -0.0057865 0.0745134
v -0.0027416 -0.0059381 0.0743387
v -0.0031362 -0.0051111 0.0208817
v -0.0033691 -0.0054906 0.0213590
v -0.0032527 -0.0053009 0.0209456
v -0.0033379 -0.0054398 0.0211203
v -0.0031362 -0.0051111 0.0745774
v -0.0033691 -0.0054906 0.0741001
v -0.0032527 -0.0053009 0.0745134
v -0.0033379 -0.0054398 0.0743387
v -0.0036429 -0.0045555 0.0208817
v -0.0039134 -0.0048937 0.0213590
v -0.0037781 -0.0047246 0.0209456
v -0.0038771 -0.0048484 0.0211203
v -0.0036429 -0.0045555 0.0745774
v -0.0039134 -0.0048937 0.0741001
v -0.0037781 -0.0047246 0.0745134
v -0.0038771 -0.0048484 0.0743387
v -0.0040872 -0.0039219 0.0208817
v -0.0043907 -0.0042131 0.0213590
v -0.0042390 -0.0040675 0.0209456
v -0.0043500 -0.0041741 0.0211203
v -0.0040872 -0.0039219 0.0745774
v -0.0043907 -0.0042131 0.0741001
v -0.0042390 -0.0040675 0.0745134
v -0.0043500 -0.0041741 0.0743387
v -0.0044616 -0.0032212 0.0208817
v -0.0047929 -0.0034604 0.0213590
v -0.0046273 -0.0033408 0.0209456
v -0.0047485 -0.0034283 0.0211203
v -0.0044616 -0.0032212 0.0745774
v -0.0047929 -0.0034604 0.0741001
v -0.0046273 -0.0033408 0.0745134
v -0.0047485 -0.0034283 0.0743387
v -0.0047597 -0.0024654 0.0208817
v -0.0051131 -0.0026485 0.0213590
v -0.0049364 -0.0025569 0.0209456
v -0.0050657 -0.0026239 0.0211203
v -0.0047597 -0.0024654 0.0745774
v -0.0051131 -0.0026485 0.0741001
v -0.0049364 -0.0025569 0.0745134
v -0.0050657 -0.0026239 0.0743387
v -0.0049763 -0.0016674 0.0208817
v -0.0053458 -0.0017912 0.0213590
v -0.0051610 -0.0017293 0.0209456
v -0.0052963 -0.0017746 0.0211203
v -0.0049763 -0.0016674 0.0745774
v -0.0053458 -0.0017912 0.0741001
v -0.0051610 -0.0017293 0.0745134
v -0.0052963 -0.0017746 0.0743387
v -0.0051078 -0.0008409 0.0208817
v -0.0054870 -0.0009033 0.0213590
v -0.0052974 -0.0008721 0.0209456
v -0.0054362 -0.0008950 0.0211203
v -0.0051078 -0.0008409 0.0745774
v -0.0054870 -0.0009033 0.0741001
v -0.0052974 -0.0008721 0.0745134
v -0.0054362 -0.0008950 0.0743387
v -0.0051519 0.0000000 0.0208817
v -0.0055344 0.0000000 0.0213590
v -0.0053431 0.0000000 0.0209456
v -0.0054831 0.0000000 0.0211203
v -0.0051519 -0.0000000 0.0745774
v -0.0055344 0.0000000 0.0741001
v -0.0053431 -0.0000000 0.0745134
v -0.0054831 -0.0000000 0.0743387
v -0.0051078 0.0008409 0.0208817
v -0.0054870 0.0009033 0.0213590
v -0.0052974 0.0008721 0.0209456
v -0.0054362 0.0008950 0.0211203
v -0.0051078 0.0008409 0.0745774
v -0.0054870 0.0009033 0.0741001
v -0.0052974 0.0008721 0.0745134
v -0.0054362 0.0008950 0.0743387
v -0.0049763 0.0016674 0.0208817
v -0.0053458 0.0017912 0.0213590
v -0.0051610 0.0017293 0.0209456
v -0.0052963 0.0017746 0.0211203
v -0.0049763 0.0016674 0.0745774
v -0.0053458 0.0017912 0.0741001
v -0.0051610 0.0017293 0.0745134
v -0.0052963 0.0017746 0.0743387
v -0.0047597 0.0024654 0.0208817
v -0.0051131 0.0026485 0.0213590
v -0.0049364 0.0025569 0.0209456
v -0.0050657 0.0026239 0.0211203
v -0.0047597 0.0024654 0.0745774
v -0.0051131 0.0026485 0.0741001
v -0.0049364 0.0025569 0.0745134
v -0.0050657 0.0026239 0.0743387
v -0.0044616 0.0032212 0.0208817
v -0.0047929 0.0034604 0.0213590
v -0.0046273 0.0033408 0.0209456
v -0.0047485 0.0034283 0.0211203
v -0.0044616 0.0032212 0.0745774
v -0.0047929 0.0034604 0.0741001
v -0.0046273 0.0033408 0.0745134
v -0.0047485 0.0034283 0.0743387
v -0.0040872 0.0039219 0.0208817
v -0.0043907 0.0042131 0.0213590
v -0.0042390 0.0040675 0.0209456
v -0.0043500 0.0041741 0.0211203
v -0.0040872 0.0039219 0.0745774
v -0.0043907 0.0042131 0.0741001
v -0.0042390 0.0040675 0.0745134
v -0.0043500 0.0041741 0.0743387
v -0.0036429 0.0045555 0.0208817
v -0.0039134 0.0048937 0.0213590
v -0.0037781 0.0047246 0.0209456
v -0.0038771 0.0048484 0.0211203
v -0.0036429 0.0045555 0.0745774
v -0.0039134 0.0048937 0.0741001
v -0.0037781 0.0047246 0.0745134
v -0.0038771 0.0048484 0.0743387
v -0.0031362 0.0051111 0.0208817
v -0.0033691 0.0054906 0.0213590
v -0.0032527 0.0053009 0.0209456
v -0.0033379 0.0054398 0.0211203
v -0.0031362 0.0051111 0.0745774
v -0.0033691 0.0054906 0.0741001
v -0.0032527 0.0053009 0.0745134
v -0.0033379 0.0054398 0.0743387
v -0.0025759 0.0055793 0.0208817
v -0.0027672 0.0059936 0.0213590
v -0.0026716 0.0057865 0.0209456
v -0.0027416 0.0059381 0.0211203
v -0.0025759 0.0055793 0.0745774
v -0.0027672 0.0059936 0.0741001
v -0.0026716 0.0057865 0.0745134
v -0.0027416 0.0059381 0.0743387
v -0.0019715 0.0059521 0.0208817
v -0.0021179 0.0063940 0.0213590
v -0.0020447 0.0061730 0.0209456
v -0.0020983 0.0063348 0.0211203
v -0.0019715 0.0059521 0.0745774
v -0.0021179 0.0063940 0.0741001
v -0.0020447 0.0061730 0.0745134
v -0.0020983 0.0063348 0.0743387
v -0.0013334 0.0062229 0.0208817
v -0.0014324 0.0066850 0.0213590
v -0.0013829 0.0064540 0.0209456
v -0.0014191 0.0066231 0.0211203
v -0.0013334 0.0062229 0.0745774
v -0.0014324 0.0066850 0.0741001
v -0.0013829 0.0064540 0.0745134
v -0.0014191 0.0066231 0.0743387
v -0.0006725 0.0063873 0.0208817
v -0.0007224 0.0068616 0.0213590
v -0.0006974 0.0066245 0.0209456
v -0.0007157 0.0067980 0.0211203
v -0.0006725 0.0063873 0.0745774
v -0.0007224 0.0068616 0.0741001
v -0.0006974 0.0066245 0.0745134
v -0.0007157 0.0067980 0.0743387
f 1 4 6
f 1 6 5
f 4 8 9
f 4 9 6
f 2 7 9
f 2 9 8
f 7 11 12
f 7 12 9
f 3 10 12
f 3 12 11
f 10 5 6
f 10 6 12
f 6 9 12
f 13 16 18
f 13 18 17
f 16 20 21
f 16 21 18
f 14 19 21
f 14 21 20
f 19 23 24
f 19 24 21
f 15 22 24
f 15 24 23
f 22 17 18
f 22 18 24
f 18 21 24
f 25 28 30
f 25 30 29
f 28 32 33
f 28 33 30
f 26 31 33
f 26 33 32
f 31 35 36
f 31 36 33
f 27 34 36
f 27 36 35
f 34 29 30
f 34 30 36
f 30 33 36
f 37 40 42
f 37 42 41
f 40 44 45
f 40 45 42
f 38 43 45
f 38 45 44
f 43 47 48
f 43 48 45
f 39 46 48
f 39 48 47
f 46 41 42
f 46 42 48
f 42 45 48
f 49 52 54
f 49 54 53
f 52 56 57
f 52 57 54
f 50 55 57
f 50 57 56
f 55 59 60
f 55 60 57
f 51 58 60
f 51 60 59
f 58 53 54
f 58 54 60
f 54 57 60
f 61 64 66
f 61 66 65
f 64 68 69
f 64 69 66
f 62 67 69
f 62 69 68
f 67 71 72
f 67 72 69
f 63 70 72
f 63 72 71
f 70 65 66
f 70 66 72
f 66 69 72
f 73 76 78
f 73 78 77
f 76 80 81
f 76 81 78
f 74 79 81
f 74 81 80
f 79 83 84
f 79 84 81
f 75 82 84
f 75 84 83
f 82 77 78
f 82 78 84
f 78 81 84
f 85 88 90
f 85 90 89
f 88 92 93
f 88 93 90
f 86 91 93
f 86 93 92
f 91 95 96
f 91 96 93
f 87 94 96
f 87 96 95
f 94 89 90
f 94 90 96
f 90 93 96
f 25 1 5
f 25 5 28
f 28 5 10
f 28 10 32
f 32 10 3
f 32 3 26
f 2 13 17
f 2 17 7
f 7 17 22
f 7 22 11
f 11 22 15
f 11 15 3
f 14 37 41
f 14 41 19
f 19 41 46
f 19 46 23
f 23 46 39
f 23 39 15
f 38 27 35
f 38 35 43
f 43 35 31
f 43 31 47
f 47 31 26
f 47 26 39
f 73 25 29
f 73 29 76
f 76 29 34
f 76 34 80
f 80 34 27
f 80 27 74
f 37 85 89
f 37 89 40
f 40 89 94
f 40 94 44
f 44 94 87
f 44 87 38
f 86 75 83
f 86 83 91
f 91 83 79
f 91 79 95
f 95 79 74
f 95 74 87
f 49 73 77
f 49 77 52
f 52 77 82
f 52 82 56
f 56 82 75
f 56 75 50
f 85 61 65
f 85 65 88
f 88 65 70
f 88 70 92
f 92 70 63
f 92 63 86
f 62 51 59
f 62 59 67
f 67 59 55
f 67 55 71
f 71 55 50
f 71 50 63
f 1 49 53
f 1 53 4
f 4 53 58
f 4 58 8
f 8 58 51
f 8 51 2
f 61 14 20
f 61 20 64
f 64 20 16
f 64 16 68
f 68 16 13
f 68 13 62
f 25 73 49
f 25 49 1
f 3 15 39
f 3 39 26
f 51 62 13
f 51 13 2
f 85 37 14
f 85 14 61
f 27 38 87
f 27 87 74
f 75 86 63
f 75 63 50
f 98 106 108
f 98 108 100
f 100 108 107
f 100 107 99
f 99 107 105
f 99 105 97
f 110 102 104
f 110 104 112
f 112 104 103
f 112 103 111
f 111 103 101
f 111 101 109
f 106 114 116
f 106 116 108
f 108 116 115
f 108 115 107
f 107 115 113
f 107 113 105
f 118 110 112
f 118 112 120
f 120 112 111
f 120 111 119
f 119 111 109
f 119 109 117
f 114 122 124
f 114 124 116
f 116 124 123
f 116 123 115
f 115 123 121
f 115 121 113
f 126 118 120
f 126 120 128
f 128 120 119
f 128 119 127
f 127 119 117
f 127 117 125
f 122 130 132
f 122 132 124
f 124 132 131
f 124 131 123
f 123 131 129
f 123 129 121
f 134 126 128
f 134 128 136
f 136 128 127
f 136 127 135
f 135 127 125
f 135 125 133
f 130 138 140
f 130 140 132
f 132 140 139
f 132 139 131
f 131 139 137
f 131 137 129
f 142 134 136
f 142 136 144
f 144 136 135
f 144 135 143
f 143 135 133
f 143 133 141
f 138 146 148
f 138 148 140
f 140 148 147
f 140 147 139
f 139 147 145
f 139 145 137
f 150 142 144
f 150 144 152
f 152 144 143
f 152 143 151
f 151 143 141
f 151 141 149
f 146 154 156
f 146 156 148
f 148 156 155
f 148 155 147
f 147 155 153
f 147 153 145
f 158 150 152
f 158 152 160
f 160 152 151
f 160 151 159
f 159 151 149
f 159 149 157
f 154 162 164
f 154 164 156
f 156 164 163
f 156 163 155
f 155 163 161
f 155 161 153
f 166 158 160
f 166 160 168
f 168 160 159
f 168 159 167
f 167 159 157
f 167 157 165
f 162 170 172
f 162 172 164
f 164 172 171
f 164 171 163
f 163 171 169
f 163 169 161
f 174 166 168
f 174 168 176
f 176 168 167
f 176 167 175
f 175 167 165
f 175 165 173
f 170 178 180
f 170 180 172
f 172 180 179
f 172 179 171
f 171 179 177
f 171 177 169
f 182 174 176
f 182 176 184
f 184 176 175
f 184 175 183
f 183 175 173
f 183 173 181
f 178 186 188
f 178 188 180
f 180 188 187
f 180 187 179
f 179 187 185
f 179 185 177
f 190 182 184
f 190 184 192
f 192 184 183
f 192 183 191
f 191 183 181
f 191 181 189
f 186 194 196
f 186 196 188
f 188 196 195
f 188 195 187
f 187 195 193
f 187 193 185
f 198 190 192
f 198 192 200
f 200 192 191
f 200 191 199
f 199 191 189
f 199 189 197
f 194 202 204
f 194 204 196
f 196 204 203
f 196 203 195
f 195 203 201
f 195 201 193
f 206 198 200
f 206 200 208
f 208 200 199
f 208 199 207
f 207 199 197
f 207 197 205
f 202 210 212
f 202 212 204
f 204 212 211
f 204 211 203
f 203 211 209
f 203 209 201
f 214 206 208
f 214 208 216
f 216 208 207
f 216 207 215
f 215 207 205
f 215 205 213
f 210 218 220
f 210 220 212
f 212 220 219
f 212 219 211
f 211 219 217
f 211 217 209
f 222 214 216
f 222 216 224
f 224 216 215
f 224 215 223
f 223 215 213
f 223 213 221
f 218 226 228
f 218 228 220
f 220 228 227
f 220 227 219
f 219 227 225
f 219 225 217
f 230 222 224
f 230 224 232
f 232 224 223
f 232 223 231
f 231 223 221
f 231 221 229
f 226 234 236
f 226 236 228
f 228 236 235
f 228 235 227
f 227 235 233
f 227 233 225
f 238 230 232
f 238 232 240
f 240 232 231
f 240 231 239
f 239 231 229
f 239 229 237
f 234 242 244
f 234 244 236
f 236 244 243
f 236 243 235
f 235 243 241
f 235 241 233
f 246 238 240
f 246 240 248
f 248 240 239
f 248 239 247
f 247 239 237
f 247 237 245
f 242 250 252
f 242 252 244
f 244 252 251
f 244 251 243
f 243 251 249
f 243 249 241
f 254 246 248
f 254 248 256
f 256 248 247
f 256 247 255
f 255 247 245
f 255 245 253
f 250 258 260
f 250 260 252
f 252 260 259
f 252 259 251
f 251 259 257
f 251 257 249
f 262 254 256
f 262 256 264
f 264 256 255
f 264 255 263
f 263 255 253
f 263 253 261
f 258 266 268
f 258 268 260
f 260 268 267
f 260 267 259
f 259 267 265
f 259 265 257
f 270 262 264
f 270 264 272
f 272 264 263
f 272 263 271
f 271 263 261
f 271 261 269
f 266 274 276
f 266 276 268
f 268 276 275
f 268 275 267
f 267 275 273
f 267 273 265
f 278 270 272
f 278 272 280
f 280 272 271
f 280 271 279
f 279 271 269
f 279 269 277
f 274 282 284
f 274 284 276
f 276 284 283
f 276 283 275
f 275 283 281
f 275 281 273
f 286 278 280
f 286 280 288
f 288 280 279
f 288 279 287
f 287 279 277
f 287 277 285
f 282 290 292
f 282 292 284
f 284 292 291
f 284 291 283
f 283 291 289
f 283 289 281
f 294 286 288
f 294 288 296
f 296 288 287
f 296 287 295
f 295 287 285
f 295 285 293
f 290 298 300
f 290 300 292
f 292 300 299
f 292 299 291
f 291 299 297
f 291 297 289
f 302 294 296
f 302 296 304
f 304 296 295
f 304 295 303
f 303 295 293
f 303 293 301
f 298 306 308
f 298 308 300
f 300 308 307
f 300 307 299
f 299 307 305
f 299 305 297
f 310 302 304
f 310 304 312
f 312 304 303
f 312 303 311
f 311 303 301
f 311 301 309
f 306 314 316
f 306 316 308
f 308 316 315
f 308 315 307
f 307 315 313
f 307 313 305
f 318 310 312
f 318 312 320
f 320 312 311
f 320 311 319
f 319 311 309
f 319 309 317
f 314 322 324
f 314 324 316
f 316 324 323
f 316 323 315
f 315 323 321
f 315 321 313
f 326 318 320
f 326 320 328
f 328 320 319
f 328 319 327
f 327 319 317
f 327 317 325
f 322 330 332
f 322 332 324
f 324 332 331
f 324 331 323
f 323 331 329
f 323 329 321
f 334 326 328
f 334 328 336
f 336 328 327
f 336 327 335
f 335 327 325
f 335 325 333
f 330 338 340
f 330 340 332
f 332 340 339
f 332 339 331
f 331 339 337
f 331 337 329
f 342 334 336
f 342 336 344
f 344 336 335
f 344 335 343
f 343 335 333
f 343 333 341
f 338 346 348
f 338 348 340
f 340 348 347
f 340 347 339
f 339 347 345
f 339 345 337
f 350 342 344
f 350 344 352
f 352 344 343
f 352 343 351
f 351 343 341
f 351 341 349
f 346 354 356
f 346 356 348
f 348 356 355
f 348 355 347
f 347 355 353
f 347 353 345
f 358 350 352
f 358 352 360
f 360 352 351
f 360 351 359
f 359 351 349
f 359 349 357
f 354 362 364
f 354 364 356
f 356 364 363
f 356 363 355
f 355 363 361
f 355 361 353
f 366 358 360
f 366 360 368
f 368 360 359
f 368 359 367
f 367 359 357
f 367 357 365
f 362 370 372
f 362 372 364
f 364 372 371
f 364 371 363
f 363 371 369
f 363 369 361
f 374 366 368
f 374 368 376
f 376 368 367
f 376 367 375
f 375 367 365
f 375 365 373
f 370 378 380
f 370 380 372
f 372 380 379
f 372 379 371
f 371 379 377
f 371 377 369
f 382 374 376
f 382 376 384
f 384 376 375
f 384 375 383
f 383 375 373
f 383 373 381
f 378 386 388
f 378 388 380
f 380 388 387
f 380 387 379
f 379 387 385
f 379 385 377
f 390 382 384
f 390 384 392
f 392 384 383
f 392 383 391
f 391 383 381
f 391 381 389
f 386 394 396
f 386 396 388
f 388 396 395
f 388 395 387
f 387 395 393
f 387 393 385
f 398 390 392
f 398 392 400
f 400 392 391
f 400 391 399
f 399 391 389
f 399 389 397
f 394 402 404
f 394 404 396
f 396 404 403
f 396 403 395
f 395 403 401
f 395 401 393
f 406 398 400
f 406 400 408
f 408 400 399
f 408 399 407
f 407 399 397
f 407 397 405
f 402 410 412
f 402 412 404
f 404 412 411
f 404 411 403
f 403 411 409
f 403 409 401
f 414 406 408
f 414 408 416
f 416 408 407
f 416 407 415
f 415 407 405
f 415 405 413
f 410 418 420
f 410 420 412
f 412 420 419
f 412 419 411
f 411 419 417
f 411 417 409
f 422 414 416
f 422 416 424
f 424 416 415
f 424 415 423
f 423 415 413
f 423 413 421
f 418 426 428
f 418 428 420
f 420 428 427
f 420 427 419
f 419 427 425
f 419 425 417
f 430 422 424
f 430 424 432
f 432 424 423
f 432 423 431
f 431 423 421
f 431 421 429
f 426 434 436
f 426 436 428
f 428 436 435
f 428 435 427
f 427 435 433
f 427 433 425
f 438 430 432
f 438 432 440
f 440 432 431
f 440 431 439
f 439 431 429
f 439 429 437
f 434 442 444
f 434 444 436
f 436 444 443
f 436 443 435
f 435 443 441
f 435 441 433
f 446 438 440
f 446 440 448
f 448 440 439
f 448 439 447
f 447 439 437
f 447 437 445
f 442 450 452
f 442 452 444
f 444 452 451
f 444 451 443
f 443 451 449
f 443 449 441
f 454 446 448
f 454 448 456
f 456 448 447
f 456 447 455
f 455 447 445
f 455 445 453
f 450 458 460
f 450 460 452
f 452 460 459
f 452 459 451
f 451 459 457
f 451 457 449
f 462 454 456
f 462 456 464
f 464 456 455
f 464 455 463
f 463 455 453
f 463 453 461
f 458 466 468
f 458 468 460
f 460 468 467
f 460 467 459
f 459 467 465
f 459 465 457
f 470 462 464
f 470 464 472
f 472 464 463
f 472 463 471
f 471 463 461
f 471 461 469
f 466 474 476
f 466 476 468
f 468 476 475
f 468 475 467
f 467 475 473
f 467 473 465
f 478 470 472
f 478 472 480
f 480 472 471
f 480 471 479
f 479 471 469
f 479 469 477
f 474 98 100
f 474 100 476
f 476 100 99
f 476 99 475
f 475 99 97
f 475 97 473
f 102 478 480
f 102 480 104
f 104 480 479
f 104 479 103
f 103 479 477
f 103 477 101
f 473 97 105
f 105 113 121
f 121 129 137
f 137 145 153
f 153 161 169
f 169 177 185
f 185 193 201
f 201 209 217
f 217 225 233
f 233 241 249
f 249 257 265
f 265 273 281
f 281 289 297
f 297 305 313
f 313 321 329
f 329 337 345
f 345 353 361
f 361 369 377
f 377 385 393
f 393 401 409
f 409 417 425
f 425 433 441
f 441 449 457
f 457 465 473
f 473 105 121
f 121 137 153
f 153 169 185
f 185 201 217
f 217 233 249
f 249 265 281
f 281 297 313
f 313 329 345
f 345 361 377
f 377 393 409
f 409 425 441
f 441 457 473
f 473 121 153
f 153 185 217
f 217 249 281
f 281 313 345
f 345 377 409
f 409 441 473
f 473 153 217
f 217 281 345
f 345 409 473
f 217 345 473
f 98 102 110
f 98 110 106
f 474 478 102
f 474 102 98
f 117 109 101
f 101 477 469
f 469 461 453
f 453 445 437
f 437 429 421
f 421 413 405
f 405 397 389
f 389 381 373
f 373 365 357
f 357 349 341
f 341 333 325
f 325 317 309
f 309 301 293
f 293 285 277
f 277 269 261
f 261 253 245
f 245 237 229
f 229 221 213
f 213 205 197
f 197 189 181
f 181 173 165
f 165 157 149
f 149 141 133
f 133 125 117
f 117 101 469
f 469 453 437
f 437 421 405
f 405 389 373
f 373 357 341
f 341 325 309
f 309 293 277
f 277 261 245
f 245 229 213
f 213 197 181
f 181 165 149
f 149 133 117
f 117 469 437
f 437 405 373
f 373 341 309
f 309 277 245
f 245 213 181
f 181 149 117
f 117 437 373
f 373 309 245
f 245 181 117
f 373 245 117
f 106 110 118
f 106 118 114
f 114 118 126
f 114 126 122
f 122 126 134
f 122 134 130
f 130 134 142
f 130 142 138
f 138 142 150
f 138 150 146
f 146 150 158
f 146 158 154
f 154 158 166
f 154 166 162
f 162 166 174
f 162 174 170
f 170 174 182
f 170 182 178
f 178 182 190
f 178 190 186
f 186 190 198
f 186 198 194
f 194 198 206
f 194 206 202
f 202 206 214
f 202 214 210
f 210 214 222
f 210 222 218
f 218 222 230
f 218 230 226
f 226 230 238
f 226 238 234
f 234 238 246
f 234 246 242
f 242 246 254
f 242 254 250
f 250 254 262
f 250 262 258
f 258 262 270
f 258 270 266
f 266 270 278
f 266 278 274
f 274 278 286
f 274 286 282
f 282 286 294
f 282 294 290
f 290 294 302
f 290 302 298
f 298 302 310
f 298 310 306
f 306 310 318
f 306 318 314
f 314 318 326
f 314 326 322
f 322 326 334
f 322 334 330
f 330 334 342
f 330 342 338
f 338 342 350
f 338 350 346
f 346 350 358
f 346 358 354
f 354 358 366
f 354 366 362
f 362 366 374
f 362 374 370
f 370 374 382
f 370 382 378
f 378 382 390
f 378 390 386
f 386 390 398
f 386 398 394
f 394 398 406
f 394 406 402
f 402 406 414
f 402 414 410
f 410 414 422
f 410 422 418
f 418 422 430
f 418 430 426
f 426 430 438
f 426 438 434
f 434 438 446
f 434 446 442
f 442 446 454
f 442 454 450
f 450 454 462
f 450 462 458
f 458 462 470
f 458 470 466
f 466 470 478
f 466 478 474
