# Zoomer visual mesh, local link coordinates in metres
v -0.0182729 -0.0097846 0.0180776
v -0.0182729 -0.0100232 0.0183162
v -0.0184637 -0.0097846 0.0183162
v -0.0182729 -0.0099037 0.0181094
v -0.0183682 -0.0097846 0.0181094
v -0.0183642 -0.0098987 0.0181404
v -0.0183682 -0.0099913 0.0183162
v -0.0182729 -0.0099913 0.0181970
v -0.0183642 -0.0099603 0.0182021
v -0.0184382 -0.0097846 0.0181970
v -0.0184382 -0.0099037 0.0183162
v -0.0184135 -0.0098987 0.0182021
v -0.0182729 -0.0100232 0.0186742
v -0.0182729 -0.0097846 0.0189128
v -0.0184637 -0.0097846 0.0186742
v -0.0182729 -0.0099913 0.0187934
v -0.0183682 -0.0099913 0.0186742
v -0.0183642 -0.0099603 0.0187883
v -0.0183682 -0.0097846 0.0188809
v -0.0182729 -0.0099037 0.0188809
v -0.0183642 -0.0098987 0.0188500
v -0.0184382 -0.0099037 0.0186742
v -0.0184382 -0.0097846 0.0187934
v -0.0184135 -0.0098987 0.0187883
v -0.0182729 -0.0093073 0.0180776
v -0.0184637 -0.0093073 0.0183162
v -0.0182729 -0.0090686 0.0183162
v -0.0183682 -0.0093073 0.0181094
v -0.0182729 -0.0091881 0.0181094
v -0.0183642 -0.0091931 0.0181404
v -0.0184382 -0.0091881 0.0183162
v -0.0184382 -0.0093073 0.0181970
v -0.0184135 -0.0091931 0.0182021
v -0.0182729 -0.0091005 0.0181970
v -0.0183682 -0.0091005 0.0183162
v -0.0183642 -0.0091315 0.0182021
v -0.0182729 -0.0093073 0.0189128
v -0.0182729 -0.0090686 0.0186742
v -0.0184637 -0.0093073 0.0186742
v -0.0182729 -0.0091881 0.0188809
v -0.0183682 -0.0093073 0.0188809
v -0.0183642 -0.0091931 0.0188500
v -0.0183682 -0.0091005 0.0186742
v -0.0182729 -0.0091005 0.0187934
v -0.0183642 -0.0091315 0.0187883
v -0.0184382 -0.0093073 0.0187934
v -0.0184382 -0.0091881 0.0186742
v -0.0184135 -0.0091931 0.0187883
v -0.0118798 -0.0097846 0.0180776
v -0.0116889 -0.0097846 0.0183162
v -0.0118798 -0.0100232 0.0183162
v -0.0117845 -0.0097846 0.0181094
v -0.0118798 -0.0099037 0.0181094
v -0.0117885 -0.0098987 0.0181404
v -0.0117144 -0.0099037 0.0183162
v -0.0117144 -0.0097846 0.0181970
v -0.0117392 -0.0098987 0.0182021
v -0.0118798 -0.0099913 0.0181970
v -0.0117845 -0.0099913 0.0183162
v -0.0117885 -0.0099603 0.0182021
v -0.0118798 -0.0097846 0.0189128
v -0.0118798 -0.0100232 0.0186742
v -0.0116889 -0.0097846 0.0186742
v -0.0118798 -0.0099037 0.0188809
v -0.0117845 -0.0097846 0.0188809
v -0.0117885 -0.0098987 0.0188500
v -0.0117845 -0.0099913 0.0186742
v -0.0118798 -0.0099913 0.0187934
v -0.0117885 -0.0099603 0.0187883
v -0.0117144 -0.0097846 0.0187934
v -0.0117144 -0.0099037 0.0186742
v -0.0117392 -0.0098987 0.0187883
v -0.0118798 -0.0093073 0.0180776
v -0.0118798 -0.0090686 0.0183162
v -0.0116889 -0.0093073 0.0183162
v -0.0118798 -0.0091881 0.0181094
v -0.0117845 -0.0093073 0.0181094
v -0.0117885 -0.0091931 0.0181404
v -0.0117845 -0.0091005 0.0183162
v -0.0118798 -0.0091005 0.0181970
v -0.0117885 -0.0091315 0.0182021
v -0.0117144 -0.0093073 0.0181970
v -0.0117144 -0.0091881 0.0183162
v -0.0117392 -0.0091931 0.0182021
v -0.0118798 -0.0093073 0.0189128
v -0.0116889 -0.0093073 0.0186742
v -0.0118798 -0.0090686 0.0186742
v -0.0117845 -0.0093073 0.0188809
v -0.0118798 -0.0091881 0.0188809
v -0.0117885 -0.0091931 0.0188500
v -0.0117144 -0.0091881 0.0186742
v -0.0117144 -0.0093073 0.0187934
v -0.0117392 -0.0091931 0.0187883
v -0.0118798 -0.0091005 0.0187934
v -0.0117845 -0.0091005 0.0186742
v -0.0117885 -0.0091315 0.0187883
v -0.0182729 -0.0050116 0.0180776
v -0.0182729 -0.0052502 0.0183162
v -0.0184637 -0.0050116 0.0183162
v -0.0182729 -0.0051308 0.0181094
v -0.0183682 -0.0050116 0.0181094
v -0.0183642 -0.0051257 0.0181404
v -0.0183682 -0.0052184 0.0183162
v -0.0182729 -0.0052184 0.0181970
v -0.0183642 -0.0051874 0.0182021
v -0.0184382 -0.0050116 0.0181970
v -0.0184382 -0.0051308 0.0183162
v -0.0184135 -0.0051257 0.0182021
v -0.0182729 -0.0052502 0.0186742
v -0.0182729 -0.0050116 0.0189128
v -0.0184637 -0.0050116 0.0186742
v -0.0182729 -0.0052184 0.0187934
v -0.0183682 -0.0052184 0.0186742
v -0.0183642 -0.0051874 0.0187883
v -0.0183682 -0.0050116 0.0188809
v -0.0182729 -0.0051308 0.0188809
v -0.0183642 -0.0051257 0.0188500
v -0.0184382 -0.0051308 0.0186742
v -0.0184382 -0.0050116 0.0187934
v -0.0184135 -0.0051257 0.0187883
v -0.0182729 -0.0045343 0.0180776
v -0.0184637 -0.0045343 0.0183162
v -0.0182729 -0.0042957 0.0183162
v -0.0183682 -0.0045343 0.0181094
v -0.0182729 -0.0044151 0.0181094
v -0.0183642 -0.0044202 0.0181404
v -0.0184382 -0.0044151 0.0183162
v -0.0184382 -0.0045343 0.0181970
v -0.0184135 -0.0044202 0.0182021
v -0.0182729 -0.0043275 0.0181970
v -0.0183682 -0.0043275 0.0183162
v -0.0183642 -0.0043585 0.0182021
v -0.0182729 -0.0045343 0.0189128
v -0.0182729 -0.0042957 0.0186742
v -0.0184637 -0.0045343 0.0186742
v -0.0182729 -0.0044151 0.0188809
v -0.0183682 -0.0045343 0.0188809
v -0.0183642 -0.0044202 0.0188500
v -0.0183682 -0.0043275 0.0186742
v -0.0182729 -0.0043275 0.0187934
v -0.0183642 -0.0043585 0.0187883
v -0.0184382 -0.0045343 0.0187934
v -0.0184382 -0.0044151 0.0186742
v -0.0184135 -0.0044202 0.0187883
v -0.0118798 -0.0050116 0.0180776
v -0.0116889 -0.0050116 0.0183162
v -0.0118798 -0.0052502 0.0183162
v -0.0117845 -0.0050116 0.0181094
v -0.0118798 -0.0051308 0.0181094
v -0.0117885 -0.0051257 0.0181404
v -0.0117144 -0.0051308 0.0183162
v -0.0117144 -0.0050116 0.0181970
v -0.0117392 -0.0051257 0.0182021
v -0.0118798 -0.0052184 0.0181970
v -0.0117845 -0.0052184 0.0183162
v -0.0117885 -0.0051874 0.0182021
v -0.0118798 -0.0050116 0.0189128
v -0.0118798 -0.0052502 0.0186742
v -0.0116889 -0.0050116 0.0186742
v -0.0118798 -0.0051308 0.0188809
v -0.0117845 -0.0050116 0.0188809
v -0.0117885 -0.0051257 0.0188500
v -0.0117845 -0.0052184 0.0186742
v -0.0118798 -0.0052184 0.0187934
v -0.0117885 -0.0051874 0.0187883
v -0.0117144 -0.0050116 0.0187934
v -0.0117144 -0.0051308 0.0186742
v -0.0117392 -0.0051257 0.0187883
v -0.0118798 -0.0045343 0.0180776
v -0.0118798 -0.0042957 0.0183162
v -0.0116889 -0.0045343 0.0183162
v -0.0118798 -0.0044151 0.0181094
v -0.0117845 -0.0045343 0.0181094
v -0.0117885 -0.0044202 0.0181404
v -0.0117845 -0.0043275 0.0183162
v -0.0118798 -0.0043275 0.0181970
v -0.0117885 -0.0043585 0.0182021
v -0.0117144 -0.0045343 0.0181970
v -0.0117144 -0.0044151 0.0183162
v -0.0117392 -0.0044202 0.0182021
v -0.0118798 -0.0045343 0.0189128
v -0.0116889 -0.0045343 0.0186742
v -0.0118798 -0.0042957 0.0186742
v -0.0117845 -0.0045343 0.0188809
v -0.0118798 -0.0044151 0.0188809
v -0.0117885 -0.0044202 0.0188500
v -0.0117144 -0.0044151 0.0186742
v -0.0117144 -0.0045343 0.0187934
v -0.0117392 -0.0044202 0.0187883
v -0.0118798 -0.0043275 0.0187934
v -0.0117845 -0.0043275 0.0186742
v -0.0117885 -0.0043585 0.0187883
v -0.0182729 -0.0002386 0.0180776
v -0.0182729 -0.0004773 0.0183162
v -0.0184637 -0.0002386 0.0183162
v -0.0182729 -0.0003578 0.0181094
v -0.0183682 -0.0002386 0.0181094
v -0.0183642 -0.0003528 0.0181404
v -0.0183682 -0.0004454 0.0183162
v -0.0182729 -0.0004454 0.0181970
v -0.0183642 -0.0004144 0.0182021
v -0.0184382 -0.0002386 0.0181970
v -0.0184382 -0.0003578 0.0183162
v -0.0184135 -0.0003528 0.0182021
v -0.0182729 -0.0004773 0.0186742
v -0.0182729 -0.0002386 0.0189128
v -0.0184637 -0.0002386 0.0186742
v -0.0182729 -0.0004454 0.0187934
v -0.0183682 -0.0004454 0.0186742
v -0.0183642 -0.0004144 0.0187883
v -0.0183682 -0.0002386 0.0188809
v -0.0182729 -0.0003578 0.0188809
v -0.0183642 -0.0003528 0.0188500
v -0.0184382 -0.0003578 0.0186742
v -0.0184382 -0.0002386 0.0187934
v -0.0184135 -0.0003528 0.0187883
v -0.0182729 0.0002386 0.0180776
v -0.0184637 0.0002386 0.0183162
v -0.0182729 0.0004773 0.0183162
v -0.0183682 0.0002386 0.0181094
v -0.0182729 0.0003578 0.0181094
v -0.0183642 0.0003528 0.0181404
v -0.0184382 0.0003578 0.0183162
v -0.0184382 0.0002386 0.0181970
v -0.0184135 0.0003528 0.0182021
v -0.0182729 0.0004454 0.0181970
v -0.0183682 0.0004454 0.0183162
v -0.0183642 0.0004144 0.0182021
v -0.0182729 0.0002386 0.0189128
v -0.0182729 0.0004773 0.0186742
v -0.0184637 0.0002386 0.0186742
v -0.0182729 0.0003578 0.0188809
v -0.0183682 0.0002386 0.0188809
v -0.0183642 0.0003528 0.0188500
v -0.0183682 0.0004454 0.0186742
v -0.0182729 0.0004454 0.0187934
v -0.0183642 0.0004144 0.0187883
v -0.0184382 0.0002386 0.0187934
v -0.0184382 0.0003578 0.0186742
v -0.0184135 0.0003528 0.0187883
v -0.0118798 -0.0002386 0.0180776
v -0.0116889 -0.0002386 0.0183162
v -0.0118798 -0.0004773 0.0183162
v -0.0117845 -0.0002386 0.0181094
v -0.0118798 -0.0003578 0.0181094
v -0.0117885 -0.0003528 0.0181404
v -0.0117144 -0.0003578 0.0183162
v -0.0117144 -0.0002386 0.0181970
v -0.0117392 -0.0003528 0.0182021
v -0.0118798 -0.0004454 0.0181970
v -0.0117845 -0.0004454 0.0183162
v -0.0117885 -0.0004144 0.0182021
v -0.0118798 -0.0002386 0.0189128
v -0.0118798 -0.0004773 0.0186742
v -0.0116889 -0.0002386 0.0186742
v -0.0118798 -0.0003578 0.0188809
v -0.0117845 -0.0002386 0.0188809
v -0.0117885 -0.0003528 0.0188500
v -0.0117845 -0.0004454 0.0186742
v -0.0118798 -0.0004454 0.0187934
v -0.0117885 -0.0004144 0.0187883
v -0.0117144 -0.0002386 0.0187934
v -0.0117144 -0.0003578 0.0186742
v -0.0117392 -0.0003528 0.0187883
v -0.0118798 0.0002386 0.0180776
v -0.0118798 0.0004773 0.0183162
v -0.0116889 0.0002386 0.0183162
v -0.0118798 0.0003578 0.0181094
v -0.0117845 0.0002386 0.0181094
v -0.0117885 0.0003528 0.0181404
v -0.0117845 0.0004454 0.0183162
v -0.0118798 0.0004454 0.0181970
v -0.0117885 0.0004144 0.0182021
v -0.0117144 0.0002386 0.0181970
v -0.0117144 0.0003578 0.0183162
v -0.0117392 0.0003528 0.0182021
v -0.0118798 0.0002386 0.0189128
v -0.0116889 0.0002386 0.0186742
v -0.0118798 0.0004773 0.0186742
v -0.0117845 0.0002386 0.0188809
v -0.0118798 0.0003578 0.0188809
v -0.0117885 0.0003528 0.0188500
v -0.0117144 0.0003578 0.0186742
v -0.0117144 0.0002386 0.0187934
v -0.0117392 0.0003528 0.0187883
v -0.0118798 0.0004454 0.0187934
v -0.0117845 0.0004454 0.0186742
v -0.0117885 0.0004144 0.0187883
v -0.0182729 0.0045343 0.0180776
v -0.0182729 0.0042957 0.0183162
v -0.0184637 0.0045343 0.0183162
v -0.0182729 0.0044151 0.0181094
v -0.0183682 0.0045343 0.0181094
v -0.0183642 0.0044202 0.0181404
v -0.0183682 0.0043275 0.0183162
v -0.0182729 0.0043275 0.0181970
v -0.0183642 0.0043585 0.0182021
v -0.0184382 0.0045343 0.0181970
v -0.0184382 0.0044151 0.0183162
v -0.0184135 0.0044202 0.0182021
v -0.0182729 0.0042957 0.0186742
v -0.0182729 0.0045343 0.0189128
v -0.0184637 0.0045343 0.0186742
v -0.0182729 0.0043275 0.0187934
v -0.0183682 0.0043275 0.0186742
v -0.0183642 0.0043585 0.0187883
v -0.0183682 0.0045343 0.0188809
v -0.0182729 0.0044151 0.0188809
v -0.0183642 0.0044202 0.0188500
v -0.0184382 0.0044151 0.0186742
v -0.0184382 0.0045343 0.0187934
v -0.0184135 0.0044202 0.0187883
v -0.0182729 0.0050116 0.0180776
v -0.0184637 0.0050116 0.0183162
v -0.0182729 0.0052502 0.0183162
v -0.0183682 0.0050116 0.0181094
v -0.0182729 0.0051308 0.0181094
v -0.0183642 0.0051257 0.0181404
v -0.0184382 0.0051308 0.0183162
v -0.0184382 0.0050116 0.0181970
v -0.0184135 0.0051257 0.0182021
v -0.0182729 0.0052184 0.0181970
v -0.0183682 0.0052184 0.0183162
v -0.0183642 0.0051874 0.0182021
v -0.0182729 0.0050116 0.0189128
v -0.0182729 0.0052502 0.0186742
v -0.0184637 0.0050116 0.0186742
v -0.0182729 0.0051308 0.0188809
v -0.0183682 0.0050116 0.0188809
v -0.0183642 0.0051257 0.0188500
v -0.0183682 0.0052184 0.0186742
v -0.0182729 0.0052184 0.0187934
v -0.0183642 0.0051874 0.0187883
v -0.0184382 0.0050116 0.0187934
v -0.0184382 0.0051308 0.0186742
v -0.0184135 0.0051257 0.0187883
v -0.0118798 0.0045343 0.0180776
v -0.0116889 0.0045343 0.0183162
v -0.0118798 0.0042957 0.0183162
v -0.0117845 0.0045343 0.0181094
v -0.0118798 0.0044151 0.0181094
v -0.0117885 0.0044202 0.0181404
v -0.0117144 0.0044151 0.0183162
v -0.0117144 0.0045343 0.0181970
v -0.0117392 0.0044202 0.0182021
v -0.0118798 0.0043275 0.0181970
v -0.0117845 0.0043275 0.0183162
v -0.0117885 0.0043585 0.0182021
v -0.0118798 0.0045343 0.0189128
v -0.0118798 0.0042957 0.0186742
v -0.0116889 0.0045343 0.0186742
v -0.0118798 0.0044151 0.0188809
v -0.0117845 0.0045343 0.0188809
v -0.0117885 0.0044202 0.0188500
v -0.0117845 0.0043275 0.0186742
v -0.0118798 0.0043275 0.0187934
v -0.0117885 0.0043585 0.0187883
v -0.0117144 0.0045343 0.0187934
v -0.0117144 0.0044151 0.0186742
v -0.0117392 0.0044202 0.0187883
v -0.0118798 0.0050116 0.0180776
v -0.0118798 0.0052502 0.0183162
v -0.0116889 0.0050116 0.0183162
v -0.0118798 0.0051308 0.0181094
v -0.0117845 0.0050116 0.0181094
v -0.0117885 0.0051257 0.0181404
v -0.0117845 0.0052184 0.0183162
v -0.0118798 0.0052184 0.0181970
v -0.0117885 0.0051874 0.0182021
v -0.0117144 0.0050116 0.0181970
v -0.0117144 0.0051308 0.0183162
v -0.0117392 0.0051257 0.0182021
v -0.0118798 0.0050116 0.0189128
v -0.0116889 0.0050116 0.0186742
v -0.0118798 0.0052502 0.0186742
v -0.0117845 0.0050116 0.0188809
v -0.0118798 0.0051308 0.0188809
v -0.0117885 0.0051257 0.0188500
v -0.0117144 0.0051308 0.0186742
v -0.0117144 0.0050116 0.0187934
v -0.0117392 0.0051257 0.0187883
v -0.0118798 0.0052184 0.0187934
v -0.0117845 0.0052184 0.0186742
v -0.0117885 0.0051874 0.0187883
v -0.0182729 0.0093073 0.0180776
v -0.0182729 0.0090686 0.0183162
v -0.0184637 0.0093073 0.0183162
v -0.0182729 0.0091881 0.0181094
v -0.0183682 0.0093073 0.0181094
v -0.0183642 0.0091931 0.0181404
v -0.0183682 0.0091005 0.0183162
v -0.0182729 0.0091005 0.0181970
v -0.0183642 0.0091315 0.0182021
v -0.0184382 0.0093073 0.0181970
v -0.0184382 0.0091881 0.0183162
v -0.0184135 0.0091931 0.0182021
v -0.0182729 0.0090686 0.0186742
v -0.0182729 0.0093073 0.0189128
v -0.0184637 0.0093073 0.0186742
v -0.0182729 0.0091005 0.0187934
v -0.0183682 0.0091005 0.0186742
v -0.0183642 0.0091315 0.0187883
v -0.0183682 0.0093073 0.0188809
v -0.0182729 0.0091881 0.0188809
v -0.0183642 0.0091931 0.0188500
v -0.0184382 0.0091881 0.0186742
v -0.0184382 0.0093073 0.0187934
v -0.0184135 0.0091931 0.0187883
v -0.0182729 0.0097846 0.0180776
v -0.0184637 0.0097846 0.0183162
v -0.0182729 0.0100232 0.0183162
v -0.0183682 0.0097846 0.0181094
v -0.0182729 0.0099037 0.0181094
v -0.0183642 0.0098987 0.0181404
v -0.0184382 0.0099037 0.0183162
v -0.0184382 0.0097846 0.0181970
v -0.0184135 0.0098987 0.0182021
v -0.0182729 0.0099913 0.0181970
v -0.0183682 0.0099913 0.0183162
v -0.0183642 0.0099603 0.0182021
v -0.0182729 0.0097846 0.0189128
v -0.0182729 0.0100232 0.0186742
v -0.0184637 0.0097846 0.0186742
v -0.0182729 0.0099037 0.0188809
v -0.0183682 0.0097846 0.0188809
v -0.0183642 0.0098987 0.0188500
v -0.0183682 0.0099913 0.0186742
v -0.0182729 0.0099913 0.0187934
v -0.0183642 0.0099603 0.0187883
v -0.0184382 0.0097846 0.0187934
v -0.0184382 0.0099037 0.0186742
v -0.0184135 0.0098987 0.0187883
v -0.0118798 0.0093073 0.0180776
v -0.0116889 0.0093073 0.0183162
v -0.0118798 0.0090686 0.0183162
v -0.0117845 0.0093073 0.0181094
v -0.0118798 0.0091881 0.0181094
v -0.0117885 0.0091931 0.0181404
v -0.0117144 0.0091881 0.0183162
v -0.0117144 0.0093073 0.0181970
v -0.0117392 0.0091931 0.0182021
v -0.0118798 0.0091005 0.0181970
v -0.0117845 0.0091005 0.0183162
v -0.0117885 0.0091315 0.0182021
v -0.0118798 0.0093073 0.0189128
v -0.0118798 0.0090686 0.0186742
v -0.0116889 0.0093073 0.0186742
v -0.0118798 0.0091881 0.0188809
v -0.0117845 0.0093073 0.0188809
v -0.0117885 0.0091931 0.0188500
v -0.0117845 0.0091005 0.0186742
v -0.0118798 0.0091005 0.0187934
v -0.0117885 0.0091315 0.0187883
v -0.0117144 0.0093073 0.0187934
v -0.0117144 0.0091881 0.0186742
v -0.0117392 0.0091931 0.0187883
v -0.0118798 0.0097846 0.0180776
v -0.0118798 0.0100232 0.0183162
v -0.0116889 0.0097846 0.0183162
v -0.0118798 0.0099037 0.0181094
v -0.0117845 0.0097846 0.0181094
v -0.0117885 0.0098987 0.0181404
v -0.0117845 0.0099913 0.0183162
v -0.0118798 0.0099913 0.0181970
v -0.0117885 0.0099603 0.0182021
v -0.0117144 0.0097846 0.0181970
v -0.0117144 0.0099037 0.0183162
v -0.0117392 0.0098987 0.0182021
v -0.0118798 0.0097846 0.0189128
v -0.0116889 0.0097846 0.0186742
v -0.0118798 0.0100232 0.0186742
v -0.0117845 0.0097846 0.0188809
v -0.0118798 0.0099037 0.0188809
v -0.0117885 0.0098987 0.0188500
v -0.0117144 0.0099037 0.0186742
v -0.0117144 0.0097846 0.0187934
v -0.0117392 0.0098987 0.0187883
v -0.0118798 0.0099913 0.0187934
v -0.0117845 0.0099913 0.0186742
v -0.0117885 0.0099603 0.0187883
v 0.0118798 -0.0097846 0.0180776
v 0.0118798 -0.0100232 0.0183162
v 0.0116889 -0.0097846 0.0183162
v 0.0118798 -0.0099037 0.0181094
v 0.0117845 -0.0097846 0.0181094
v 0.0117885 -0.0098987 0.0181404
v 0.0117845 -0.0099913 0.0183162
v 0.0118798 -0.0099913 0.0181970
v 0.0117885 -0.0099603 0.0182021
v 0.0117144 -0.0097846 0.0181970
v 0.0117144 -0.0099037 0.0183162
v 0.0117392 -0.0098987 0.0182021
v 0.0118798 -0.0100232 0.0186742
v 0.0118798 -0.0097846 0.0189128
v 0.0116889 -0.0097846 0.0186742
v 0.0118798 -0.0099913 0.0187934
v 0.0117845 -0.0099913 0.0186742
v 0.0117885 -0.0099603 0.0187883
v 0.0117845 -0.0097846 0.0188809
v 0.0118798 -0.0099037 0.0188809
v 0.0117885 -0.0098987 0.0188500
v 0.0117144 -0.0099037 0.0186742
v 0.0117144 -0.0097846 0.0187934
v 0.0117392 -0.0098987 0.0187883
v 0.0118798 -0.0093073 0.0180776
v 0.0116889 -0.0093073 0.0183162
v 0.0118798 -0.0090686 0.0183162
v 0.0117845 -0.0093073 0.0181094
v 0.0118798 -0.0091881 0.0181094
v 0.0117885 -0.0091931 0.0181404
v 0.0117144 -0.0091881 0.0183162
v 0.0117144 -0.0093073 0.0181970
v 0.0117392 -0.0091931 0.0182021
v 0.0118798 -0.0091005 0.0181970
v 0.0117845 -0.0091005 0.0183162
v 0.0117885 -0.0091315 0.0182021
v 0.0118798 -0.0093073 0.0189128
v 0.0118798 -0.0090686 0.0186742
v 0.0116889 -0.0093073 0.0186742
v 0.0118798 -0.0091881 0.0188809
v 0.0117845 -0.0093073 0.0188809
v 0.0117885 -0.0091931 0.0188500
v 0.0117845 -0.0091005 0.0186742
v 0.0118798 -0.0091005 0.0187934
v 0.0117885 -0.0091315 0.0187883
v 0.0117144 -0.0093073 0.0187934
v 0.0117144 -0.0091881 0.0186742
v 0.0117392 -0.0091931 0.0187883
v 0.0182729 -0.0097846 0.0180776
v 0.0184637 -0.0097846 0.0183162
v 0.0182729 -0.0100232 0.0183162
v 0.0183682 -0.0097846 0.0181094
v 0.0182729 -0.0099037 0.0181094
v 0.0183642 -0.0098987 0.0181404
v 0.0184382 -0.0099037 0.0183162
v 0.0184382 -0.0097846 0.0181970
v 0.0184135 -0.0098987 0.0182021
v 0.0182729 -0.0099913 0.0181970
v 0.0183682 -0.0099913 0.0183162
v 0.0183642 -0.0099603 0.0182021
v 0.0182729 -0.0097846 0.0189128
v 0.0182729 -0.0100232 0.0186742
v 0.0184637 -0.0097846 0.0186742
v 0.0182729 -0.0099037 0.0188809
v 0.0183682 -0.0097846 0.0188809
v 0.0183642 -0.0098987 0.0188500
v 0.0183682 -0.0099913 0.0186742
v 0.0182729 -0.0099913 0.0187934
v 0.0183642 -0.0099603 0.0187883
v 0.0184382 -0.0097846 0.0187934
v 0.0184382 -0.0099037 0.0186742
v 0.0184135 -0.0098987 0.0187883
v 0.0182729 -0.0093073 0.0180776
v 0.0182729 -0.0090686 0.0183162
v 0.0184637 -0.0093073 0.0183162
v 0.0182729 -0.0091881 0.0181094
v 0.0183682 -0.0093073 0.0181094
v 0.0183642 -0.0091931 0.0181404
v 0.0183682 -0.0091005 0.0183162
v 0.0182729 -0.0091005 0.0181970
v 0.0183642 -0.0091315 0.0182021
v 0.0184382 -0.0093073 0.0181970
v 0.0184382 -0.0091881 0.0183162
v 0.0184135 -0.0091931 0.0182021
v 0.0182729 -0.0093073 0.0189128
v 0.0184637 -0.0093073 0.0186742
v 0.0182729 -0.0090686 0.0186742
v 0.0183682 -0.0093073 0.0188809
v 0.0182729 -0.0091881 0.0188809
v 0.0183642 -0.0091931 0.0188500
v 0.0184382 -0.0091881 0.0186742
v 0.0184382 -0.0093073 0.0187934
v 0.0184135 -0.0091931 0.0187883
v 0.0182729 -0.0091005 0.0187934
v 0.0183682 -0.0091005 0.0186742
v 0.0183642 -0.0091315 0.0187883
v 0.0118798 -0.0050116 0.0180776
v 0.0118798 -0.0052502 0.0183162
v 0.0116889 -0.0050116 0.0183162
v 0.0118798 -0.0051308 0.0181094
v 0.0117845 -0.0050116 0.0181094
v 0.0117885 -0.0051257 0.0181404
v 0.0117845 -0.0052184 0.0183162
v 0.0118798 -0.0052184 0.0181970
v 0.0117885 -0.0051874 0.0182021
v 0.0117144 -0.0050116 0.0181970
v 0.0117144 -0.0051308 0.0183162
v 0.0117392 -0.0051257 0.0182021
v 0.0118798 -0.0052502 0.0186742
v 0.0118798 -0.0050116 0.0189128
v 0.0116889 -0.0050116 0.0186742
v 0.0118798 -0.0052184 0.0187934
v 0.0117845 -0.0052184 0.0186742
v 0.0117885 -0.0051874 0.0187883
v 0.0117845 -0.0050116 0.0188809
v 0.0118798 -0.0051308 0.0188809
v 0.0117885 -0.0051257 0.0188500
v 0.0117144 -0.0051308 0.0186742
v 0.0117144 -0.0050116 0.0187934
v 0.0117392 -0.0051257 0.0187883
v 0.0118798 -0.0045343 0.0180776
v 0.0116889 -0.0045343 0.0183162
v 0.0118798 -0.0042957 0.0183162
v 0.0117845 -0.0045343 0.0181094
v 0.0118798 -0.0044151 0.0181094
v 0.0117885 -0.0044202 0.0181404
v 0.0117144 -0.0044151 0.0183162
v 0.0117144 -0.0045343 0.0181970
v 0.0117392 -0.0044202 0.0182021
v 0.0118798 -0.0043275 0.0181970
v 0.0117845 -0.0043275 0.0183162
v 0.0117885 -0.0043585 0.0182021
v 0.0118798 -0.0045343 0.0189128
v 0.0118798 -0.0042957 0.0186742
v 0.0116889 -0.0045343 0.0186742
v 0.0118798 -0.0044151 0.0188809
v 0.0117845 -0.0045343 0.0188809
v 0.0117885 -0.0044202 0.0188500
v 0.0117845 -0.0043275 0.0186742
v 0.0118798 -0.0043275 0.0187934
v 0.0117885 -0.0043585 0.0187883
v 0.0117144 -0.0045343 0.0187934
v 0.0117144 -0.0044151 0.0186742
v 0.0117392 -0.0044202 0.0187883
v 0.0182729 -0.0050116 0.0180776
v 0.0184637 -0.0050116 0.0183162
v 0.0182729 -0.0052502 0.0183162
v 0.0183682 -0.0050116 0.0181094
v 0.0182729 -0.0051308 0.0181094
v 0.0183642 -0.0051257 0.0181404
v 0.0184382 -0.0051308 0.0183162
v 0.0184382 -0.0050116 0.0181970
v 0.0184135 -0.0051257 0.0182021
v 0.0182729 -0.0052184 0.0181970
v 0.0183682 -0.0052184 0.0183162
v 0.0183642 -0.0051874 0.0182021
v 0.0182729 -0.0050116 0.0189128
v 0.0182729 -0.0052502 0.0186742
v 0.0184637 -0.0050116 0.0186742
v 0.0182729 -0.0051308 0.0188809
v 0.0183682 -0.0050116 0.0188809
v 0.0183642 -0.0051257 0.0188500
v 0.0183682 -0.0052184 0.0186742
v 0.0182729 -0.0052184 0.0187934
v 0.0183642 -0.0051874 0.0187883
v 0.0184382 -0.0050116 0.0187934
v 0.0184382 -0.0051308 0.0186742
v 0.0184135 -0.0051257 0.0187883
v 0.0182729 -0.0045343 0.0180776
v 0.0182729 -0.0042957 0.0183162
v 0.0184637 -0.0045343 0.0183162
v 0.0182729 -0.0044151 0.0181094
v 0.0183682 -0.0045343 0.0181094
v 0.0183642 -0.0044202 0.0181404
v 0.0183682 -0.0043275 0.0183162
v 0.0182729 -0.0043275 0.0181970
v 0.0183642 -0.0043585 0.0182021
v 0.0184382 -0.0045343 0.0181970
v 0.0184382 -0.0044151 0.0183162
v 0.0184135 -0.0044202 0.0182021
v 0.0182729 -0.0045343 0.0189128
v 0.0184637 -0.0045343 0.0186742
v 0.0182729 -0.0042957 0.0186742
v 0.0183682 -0.0045343 0.0188809
v 0.0182729 -0.0044151 0.0188809
v 0.0183642 -0.0044202 0.0188500
v 0.0184382 -0.0044151 0.0186742
v 0.0184382 -0.0045343 0.0187934
v 0.0184135 -0.0044202 0.0187883
v 0.0182729 -0.0043275 0.0187934
v 0.0183682 -0.0043275 0.0186742
v 0.0183642 -0.0043585 0.0187883
v 0.0118798 -0.0002386 0.0180776
v 0.0118798 -0.0004773 0.0183162
v 0.0116889 -0.0002386 0.0183162
v 0.0118798 -0.0003578 0.0181094
v 0.0117845 -0.0002386 0.0181094
v 0.0117885 -0.0003528 0.0181404
v 0.0117845 -0.0004454 0.0183162
v 0.0118798 -0.0004454 0.0181970
v 0.0117885 -0.0004144 0.0182021
v 0.0117144 -0.0002386 0.0181970
v 0.0117144 -0.0003578 0.0183162
v 0.0117392 -0.0003528 0.0182021
v 0.0118798 -0.0004773 0.0186742
v 0.0118798 -0.0002386 0.0189128
v 0.0116889 -0.0002386 0.0186742
v 0.0118798 -0.0004454 0.0187934
v 0.0117845 -0.0004454 0.0186742
v 0.0117885 -0.0004144 0.0187883
v 0.0117845 -0.0002386 0.0188809
v 0.0118798 -0.0003578 0.0188809
v 0.0117885 -0.0003528 0.0188500
v 0.0117144 -0.0003578 0.0186742
v 0.0117144 -0.0002386 0.0187934
v 0.0117392 -0.0003528 0.0187883
v 0.0118798 0.0002386 0.0180776
v 0.0116889 0.0002386 0.0183162
v 0.0118798 0.0004773 0.0183162
v 0.0117845 0.0002386 0.0181094
v 0.0118798 0.0003578 0.0181094
v 0.0117885 0.0003528 0.0181404
v 0.0117144 0.0003578 0.0183162
v 0.0117144 0.0002386 0.0181970
v 0.0117392 0.0003528 0.0182021
v 0.0118798 0.0004454 0.0181970
v 0.0117845 0.0004454 0.0183162
v 0.0117885 0.0004144 0.0182021
v 0.0118798 0.0002386 0.0189128
v 0.0118798 0.0004773 0.0186742
v 0.0116889 0.0002386 0.0186742
v 0.0118798 0.0003578 0.0188809
v 0.0117845 0.0002386 0.0188809
v 0.0117885 0.0003528 0.0188500
v 0.0117845 0.0004454 0.0186742
v 0.0118798 0.0004454 0.0187934
v 0.0117885 0.0004144 0.0187883
v 0.0117144 0.0002386 0.0187934
v 0.0117144 0.0003578 0.0186742
v 0.0117392 0.0003528 0.0187883
v 0.0182729 -0.0002386 0.0180776
v 0.0184637 -0.0002386 0.0183162
v 0.0182729 -0.0004773 0.0183162
v 0.0183682 -0.0002386 0.0181094
v 0.0182729 -0.0003578 0.0181094
v 0.0183642 -0.0003528 0.0181404
v 0.0184382 -0.0003578 0.0183162
v 0.0184382 -0.0002386 0.0181970
v 0.0184135 -0.0003528 0.0182021
v 0.0182729 -0.0004454 0.0181970
v 0.0183682 -0.0004454 0.0183162
v 0.0183642 -0.0004144 0.0182021
v 0.0182729 -0.0002386 0.0189128
v 0.0182729 -0.0004773 0.0186742
v 0.0184637 -0.0002386 0.0186742
v 0.0182729 -0.0003578 0.0188809
v 0.0183682 -0.0002386 0.0188809
v 0.0183642 -0.0003528 0.0188500
v 0.0183682 -0.0004454 0.0186742
v 0.0182729 -0.0004454 0.0187934
v 0.0183642 -0.0004144 0.0187883
v 0.0184382 -0.0002386 0.0187934
v 0.0184382 -0.0003578 0.0186742
v 0.0184135 -0.0003528 0.0187883
v 0.0182729 0.0002386 0.0180776
v 0.0182729 0.0004773 0.0183162
v 0.0184637 0.0002386 0.0183162
v 0.0182729 0.0003578 0.0181094
v 0.0183682 0.0002386 0.0181094
v 0.0183642 0.0003528 0.0181404
v 0.0183682 0.0004454 0.0183162
v 0.0182729 0.0004454 0.0181970
v 0.0183642 0.0004144 0.0182021
v 0.0184382 0.0002386 0.0181970
v 0.0184382 0.0003578 0.0183162
v 0.0184135 0.0003528 0.0182021
v 0.0182729 0.0002386 0.0189128
v 0.0184637 0.0002386 0.0186742
v 0.0182729 0.0004773 0.0186742
v 0.0183682 0.0002386 0.0188809
v 0.0182729 0.0003578 0.0188809
v 0.0183642 0.0003528 0.0188500
v 0.0184382 0.0003578 0.0186742
v 0.0184382 0.0002386 0.0187934
v 0.0184135 0.0003528 0.0187883
v 0.0182729 0.0004454 0.0187934
v 0.0183682 0.0004454 0.0186742
v 0.0183642 0.0004144 0.0187883
v 0.0118798 0.0045343 0.0180776
v 0.0118798 0.0042957 0.0183162
v 0.0116889 0.0045343 0.0183162
v 0.0118798 0.0044151 0.0181094
v 0.0117845 0.0045343 0.0181094
v 0.0117885 0.0044202 0.0181404
v 0.0117845 0.0043275 0.0183162
v 0.0118798 0.0043275 0.0181970
v 0.0117885 0.0043585 0.0182021
v 0.0117144 0.0045343 0.0181970
v 0.0117144 0.0044151 0.0183162
v 0.0117392 0.0044202 0.0182021
v 0.0118798 0.0042957 0.0186742
v 0.0118798 0.0045343 0.0189128
v 0.0116889 0.0045343 0.0186742
v 0.0118798 0.0043275 0.0187934
v 0.0117845 0.0043275 0.0186742
v 0.0117885 0.0043585 0.0187883
v 0.0117845 0.0045343 0.0188809
v 0.0118798 0.0044151 0.0188809
v 0.0117885 0.0044202 0.0188500
v 0.0117144 0.0044151 0.0186742
v 0.0117144 0.0045343 0.0187934
v 0.0117392 0.0044202 0.0187883
v 0.0118798 0.0050116 0.0180776
v 0.0116889 0.0050116 0.0183162
v 0.0118798 0.0052502 0.0183162
v 0.0117845 0.0050116 0.0181094
v 0.0118798 0.0051308 0.0181094
v 0.0117885 0.0051257 0.0181404
v 0.0117144 0.0051308 0.0183162
v 0.0117144 0.0050116 0.0181970
v 0.0117392 0.0051257 0.0182021
v 0.0118798 0.0052184 0.0181970
v 0.0117845 0.0052184 0.0183162
v 0.0117885 0.0051874 0.0182021
v 0.0118798 0.0050116 0.0189128
v 0.0118798 0.0052502 0.0186742
v 0.0116889 0.0050116 0.0186742
v 0.0118798 0.0051308 0.0188809
v 0.0117845 0.0050116 0.0188809
v 0.0117885 0.0051257 0.0188500
v 0.0117845 0.0052184 0.0186742
v 0.0118798 0.0052184 0.0187934
v 0.0117885 0.0051874 0.0187883
v 0.0117144 0.0050116 0.0187934
v 0.0117144 0.0051308 0.0186742
v 0.0117392 0.0051257 0.0187883
v 0.0182729 0.0045343 0.0180776
v 0.0184637 0.0045343 0.0183162
v 0.0182729 0.0042957 0.0183162
v 0.0183682 0.0045343 0.0181094
v 0.0182729 0.0044151 0.0181094
v 0.0183642 0.0044202 0.0181404
v 0.0184382 0.0044151 0.0183162
v 0.0184382 0.0045343 0.0181970
v 0.0184135 0.0044202 0.0182021
v 0.0182729 0.0043275 0.0181970
v 0.0183682 0.0043275 0.0183162
v 0.0183642 0.0043585 0.0182021
v 0.0182729 0.0045343 0.0189128
v 0.0182729 0.0042957 0.0186742
v 0.0184637 0.0045343 0.0186742
v 0.0182729 0.0044151 0.0188809
v 0.0183682 0.0045343 0.0188809
v 0.0183642 0.0044202 0.0188500
v 0.0183682 0.0043275 0.0186742
v 0.0182729 0.0043275 0.0187934
v 0.0183642 0.0043585 0.0187883
v 0.0184382 0.0045343 0.0187934
v 0.0184382 0.0044151 0.0186742
v 0.0184135 0.0044202 0.0187883
v 0.0182729 0.0050116 0.0180776
v 0.0182729 0.0052502 0.0183162
v 0.0184637 0.0050116 0.0183162
v 0.0182729 0.0051308 0.0181094
v 0.0183682 0.0050116 0.0181094
v 0.0183642 0.0051257 0.0181404
v 0.0183682 0.0052184 0.0183162
v 0.0182729 0.0052184 0.0181970
v 0.0183642 0.0051874 0.0182021
v 0.0184382 0.0050116 0.0181970
v 0.0184382 0.0051308 0.0183162
v 0.0184135 0.0051257 0.0182021
v 0.0182729 0.0050116 0.0189128
v 0.0184637 0.0050116 0.0186742
v 0.0182729 0.0052502 0.0186742
v 0.0183682 0.0050116 0.0188809
v 0.0182729 0.0051308 0.0188809
v 0.0183642 0.0051257 0.0188500
v 0.0184382 0.0051308 0.0186742
v 0.0184382 0.0050116 0.0187934
v 0.0184135 0.0051257 0.0187883
v 0.0182729 0.0052184 0.0187934
v 0.0183682 0.0052184 0.0186742
v 0.0183642 0.0051874 0.0187883
v 0.0118798 0.0093073 0.0180776
v 0.0118798 0.0090686 0.0183162
v 0.0116889 0.0093073 0.0183162
v 0.0118798 0.0091881 0.0181094
v 0.0117845 0.0093073 0.0181094
v 0.0117885 0.0091931 0.0181404
v 0.0117845 0.0091005 0.0183162
v 0.0118798 0.0091005 0.0181970
v 0.0117885 0.0091315 0.0182021
v 0.0117144 0.0093073 0.0181970
v 0.0117144 0.0091881 0.0183162
v 0.0117392 0.0091931 0.0182021
v 0.0118798 0.0090686 0.0186742
v 0.0118798 0.0093073 0.0189128
v 0.0116889 0.0093073 0.0186742
v 0.0118798 0.0091005 0.0187934
v 0.0117845 0.0091005 0.0186742
v 0.0117885 0.0091315 0.0187883
v 0.0117845 0.0093073 0.0188809
v 0.0118798 0.0091881 0.0188809
v 0.0117885 0.0091931 0.0188500
v 0.0117144 0.0091881 0.0186742
v 0.0117144 0.0093073 0.0187934
v 0.0117392 0.0091931 0.0187883
v 0.0118798 0.0097846 0.0180776
v 0.0116889 0.0097846 0.0183162
v 0.0118798 0.0100232 0.0183162
v 0.0117845 0.0097846 0.0181094
v 0.0118798 0.0099037 0.0181094
v 0.0117885 0.0098987 0.0181404
v 0.0117144 0.0099037 0.0183162
v 0.0117144 0.0097846 0.0181970
v 0.0117392 0.0098987 0.0182021
v 0.0118798 0.0099913 0.0181970
v 0.0117845 0.0099913 0.0183162
v 0.0117885 0.0099603 0.0182021
v 0.0118798 0.0097846 0.0189128
v 0.0118798 0.0100232 0.0186742
v 0.0116889 0.0097846 0.0186742
v 0.0118798 0.0099037 0.0188809
v 0.0117845 0.0097846 0.0188809
v 0.0117885 0.0098987 0.0188500
v 0.0117845 0.0099913 0.0186742
v 0.0118798 0.0099913 0.0187934
v 0.0117885 0.0099603 0.0187883
v 0.0117144 0.0097846 0.0187934
v 0.0117144 0.0099037 0.0186742
v 0.0117392 0.0098987 0.0187883
v 0.0182729 0.0093073 0.0180776
v 0.0184637 0.0093073 0.0183162
v 0.0182729 0.0090686 0.0183162
v 0.0183682 0.0093073 0.0181094
v 0.0182729 0.0091881 0.0181094
v 0.0183642 0.0091931 0.0181404
v 0.0184382 0.0091881 0.0183162
v 0.0184382 0.0093073 0.0181970
v 0.0184135 0.0091931 0.0182021
v 0.0182729 0.0091005 0.0181970
v 0.0183682 0.0091005 0.0183162
v 0.0183642 0.0091315 0.0182021
v 0.0182729 0.0093073 0.0189128
v 0.0182729 0.0090686 0.0186742
v 0.0184637 0.0093073 0.0186742
v 0.0182729 0.0091881 0.0188809
v 0.0183682 0.0093073 0.0188809
v 0.0183642 0.0091931 0.0188500
v 0.0183682 0.0091005 0.0186742
v 0.0182729 0.0091005 0.0187934
v 0.0183642 0.0091315 0.0187883
v 0.0184382 0.0093073 0.0187934
v 0.0184382 0.0091881 0.0186742
v 0.0184135 0.0091931 0.0187883
v 0.0182729 0.0097846 0.0180776
v 0.0182729 0.0100232 0.0183162
v 0.0184637 0.0097846 0.0183162
v 0.0182729 0.0099037 0.0181094
v 0.0183682 0.0097846 0.0181094
v 0.0183642 0.0098987 0.0181404
v 0.0183682 0.0099913 0.0183162
v 0.0182729 0.0099913 0.0181970
v 0.0183642 0.0099603 0.0182021
v 0.0184382 0.0097846 0.0181970
v 0.0184382 0.0099037 0.0183162
v 0.0184135 0.0098987 0.0182021
v 0.0182729 0.0097846 0.0189128
v 0.0184637 0.0097846 0.0186742
v 0.0182729 0.0100232 0.0186742
v 0.0183682 0.0097846 0.0188809
v 0.0182729 0.0099037 0.0188809
v 0.0183642 0.0098987 0.0188500
v 0.0184382 0.0099037 0.0186742
v 0.0184382 0.0097846 0.0187934
v 0.0184135 0.0098987 0.0187883
v 0.0182729 0.0099913 0.0187934
v 0.0183682 0.0099913 0.0186742
v 0.0183642 0.0099603 0.0187883
f 1 4 6
f 1 6 5
f 4 8 9
f 4 9 6
f 2 7 9
f 2 9 8
f 7 11 12
f 7 12 9
f 3 10 12
f 3 12 11
f 10 5 6
f 10 6 12
f 6 9 12
f 13 16 18
f 13 18 17
f 16 20 21
f 16 21 18
f 14 19 21
f 14 21 20
f 19 23 24
f 19 24 21
f 15 22 24
f 15 24 23
f 22 17 18
f 22 18 24
f 18 21 24
f 25 28 30
f 25 30 29
f 28 32 33
f 28 33 30
f 26 31 33
f 26 33 32
f 31 35 36
f 31 36 33
f 27 34 36
f 27 36 35
f 34 29 30
f 34 30 36
f 30 33 36
f 37 40 42
f 37 42 41
f 40 44 45
f 40 45 42
f 38 43 45
f 38 45 44
f 43 47 48
f 43 48 45
f 39 46 48
f 39 48 47
f 46 41 42
f 46 42 48
f 42 45 48
f 49 52 54
f 49 54 53
f 52 56 57
f 52 57 54
f 50 55 57
f 50 57 56
f 55 59 60
f 55 60 57
f 51 58 60
f 51 60 59
f 58 53 54
f 58 54 60
f 54 57 60
f 61 64 66
f 61 66 65
f 64 68 69
f 64 69 66
f 62 67 69
f 62 69 68
f 67 71 72
f 67 72 69
f 63 70 72
f 63 72 71
f 70 65 66
f 70 66 72
f 66 69 72
f 73 76 78
f 73 78 77
f 76 80 81
f 76 81 78
f 74 79 81
f 74 81 80
f 79 83 84
f 79 84 81
f 75 82 84
f 75 84 83
f 82 77 78
f 82 78 84
f 78 81 84
f 85 88 90
f 85 90 89
f 88 92 93
f 88 93 90
f 86 91 93
f 86 93 92
f 91 95 96
f 91 96 93
f 87 94 96
f 87 96 95
f 94 89 90
f 94 90 96
f 90 93 96
f 25 1 5
f 25 5 28
f 28 5 10
f 28 10 32
f 32 10 3
f 32 3 26
f 2 13 17
f 2 17 7
f 7 17 22
f 7 22 11
f 11 22 15
f 11 15 3
f 14 37 41
f 14 41 19
f 19 41 46
f 19 46 23
f 23 46 39
f 23 39 15
f 38 27 35
f 38 35 43
f 43 35 31
f 43 31 47
f 47 31 26
f 47 26 39
f 73 25 29
f 73 29 76
f 76 29 34
f 76 34 80
f 80 34 27
f 80 27 74
f 37 85 89
f 37 89 40
f 40 89 94
f 40 94 44
f 44 94 87
f 44 87 38
f 86 75 83
f 86 83 91
f 91 83 79
f 91 79 95
f 95 79 74
f 95 74 87
f 49 73 77
f 49 77 52
f 52 77 82
f 52 82 56
f 56 82 75
f 56 75 50
f 85 61 65
f 85 65 88
f 88 65 70
f 88 70 92
f 92 70 63
f 92 63 86
f 62 51 59
f 62 59 67
f 67 59 55
f 67 55 71
f 71 55 50
f 71 50 63
f 1 49 53
f 1 53 4
f 4 53 58
f 4 58 8
f 8 58 51
f 8 51 2
f 61 14 20
f 61 20 64
f 64 20 16
f 64 16 68
f 68 16 13
f 68 13 62
f 25 73 49
f 25 49 1
f 3 15 39
f 3 39 26
f 51 62 13
f 51 13 2
f 85 37 14
f 85 14 61
f 27 38 87
f 27 87 74
f 75 86 63
f 75 63 50
f 97 100 102
f 97 102 101
f 100 104 105
f 100 105 102
f 98 103 105
f 98 105 104
f 103 107 108
f 103 108 105
f 99 106 108
f 99 108 107
f 106 101 102
f 106 102 108
f 102 105 108
f 109 112 114
f 109 114 113
f 112 116 117
f 112 117 114
f 110 115 117
f 110 117 116
f 115 119 120
f 115 120 117
f 111 118 120
f 111 120 119
f 118 113 114
f 118 114 120
f 114 117 120
f 121 124 126
f 121 126 125
f 124 128 129
f 124 129 126
f 122 127 129
f 122 129 128
f 127 131 132
f 127 132 129
f 123 130 132
f 123 132 131
f 130 125 126
f 130 126 132
f 126 129 132
f 133 136 138
f 133 138 137
f 136 140 141
f 136 141 138
f 134 139 141
f 134 141 140
f 139 143 144
f 139 144 141
f 135 142 144
f 135 144 143
f 142 137 138
f 142 138 144
f 138 141 144
f 145 148 150
f 145 150 149
f 148 152 153
f 148 153 150
f 146 151 153
f 146 153 152
f 151 155 156
f 151 156 153
f 147 154 156
f 147 156 155
f 154 149 150
f 154 150 156
f 150 153 156
f 157 160 162
f 157 162 161
f 160 164 165
f 160 165 162
f 158 163 165
f 158 165 164
f 163 167 168
f 163 168 165
f 159 166 168
f 159 168 167
f 166 161 162
f 166 162 168
f 162 165 168
f 169 172 174
f 169 174 173
f 172 176 177
f 172 177 174
f 170 175 177
f 170 177 176
f 175 179 180
f 175 180 177
f 171 178 180
f 171 180 179
f 178 173 174
f 178 174 180
f 174 177 180
f 181 184 186
f 181 186 185
f 184 188 189
f 184 189 186
f 182 187 189
f 182 189 188
f 187 191 192
f 187 192 189
f 183 190 192
f 183 192 191
f 190 185 186
f 190 186 192
f 186 189 192
f 121 97 101
f 121 101 124
f 124 101 106
f 124 106 128
f 128 106 99
f 128 99 122
f 98 109 113
f 98 113 103
f 103 113 118
f 103 118 107
f 107 118 111
f 107 111 99
f 110 133 137
f 110 137 115
f 115 137 142
f 115 142 119
f 119 142 135
f 119 135 111
f 134 123 131
f 134 131 139
f 139 131 127
f 139 127 143
f 143 127 122
f 143 122 135
f 169 121 125
f 169 125 172
f 172 125 130
f 172 130 176
f 176 130 123
f 176 123 170
f 133 181 185
f 133 185 136
f 136 185 190
f 136 190 140
f 140 190 183
f 140 183 134
f 182 171 179
f 182 179 187
f 187 179 175
f 187 175 191
f 191 175 170
f 191 170 183
f 145 169 173
f 145 173 148
f 148 173 178
f 148 178 152
f 152 178 171
f 152 171 146
f 181 157 161
f 181 161 184
f 184 161 166
f 184 166 188
f 188 166 159
f 188 159 182
f 158 147 155
f 158 155 163
f 163 155 151
f 163 151 167
f 167 151 146
f 167 146 159
f 97 145 149
f 97 149 100
f 100 149 154
f 100 154 104
f 104 154 147
f 104 147 98
f 157 110 116
f 157 116 160
f 160 116 112
f 160 112 164
f 164 112 109
f 164 109 158
f 121 169 145
f 121 145 97
f 99 111 135
f 99 135 122
f 147 158 109
f 147 109 98
f 181 133 110
f 181 110 157
f 123 134 183
f 123 183 170
f 171 182 159
f 171 159 146
f 193 196 198
f 193 198 197
f 196 200 201
f 196 201 198
f 194 199 201
f 194 201 200
f 199 203 204
f 199 204 201
f 195 202 204
f 195 204 203
f 202 197 198
f 202 198 204
f 198 201 204
f 205 208 210
f 205 210 209
f 208 212 213
f 208 213 210
f 206 211 213
f 206 213 212
f 211 215 216
f 211 216 213
f 207 214 216
f 207 216 215
f 214 209 210
f 214 210 216
f 210 213 216
f 217 220 222
f 217 222 221
f 220 224 225
f 220 225 222
f 218 223 225
f 218 225 224
f 223 227 228
f 223 228 225
f 219 226 228
f 219 228 227
f 226 221 222
f 226 222 228
f 222 225 228
f 229 232 234
f 229 234 233
f 232 236 237
f 232 237 234
f 230 235 237
f 230 237 236
f 235 239 240
f 235 240 237
f 231 238 240
f 231 240 239
f 238 233 234
f 238 234 240
f 234 237 240
f 241 244 246
f 241 246 245
f 244 248 249
f 244 249 246
f 242 247 249
f 242 249 248
f 247 251 252
f 247 252 249
f 243 250 252
f 243 252 251
f 250 245 246
f 250 246 252
f 246 249 252
f 253 256 258
f 253 258 257
f 256 260 261
f 256 261 258
f 254 259 261
f 254 261 260
f 259 263 264
f 259 264 261
f 255 262 264
f 255 264 263
f 262 257 258
f 262 258 264
f 258 261 264
f 265 268 270
f 265 270 269
f 268 272 273
f 268 273 270
f 266 271 273
f 266 273 272
f 271 275 276
f 271 276 273
f 267 274 276
f 267 276 275
f 274 269 270
f 274 270 276
f 270 273 276
f 277 280 282
f 277 282 281
f 280 284 285
f 280 285 282
f 278 283 285
f 278 285 284
f 283 287 288
f 283 288 285
f 279 286 288
f 279 288 287
f 286 281 282
f 286 282 288
f 282 285 288
f 217 193 197
f 217 197 220
f 220 197 202
f 220 202 224
f 224 202 195
f 224 195 218
f 194 205 209
f 194 209 199
f 199 209 214
f 199 214 203
f 203 214 207
f 203 207 195
f 206 229 233
f 206 233 211
f 211 233 238
f 211 238 215
f 215 238 231
f 215 231 207
f 230 219 227
f 230 227 235
f 235 227 223
f 235 223 239
f 239 223 218
f 239 218 231
f 265 217 221
f 265 221 268
f 268 221 226
f 268 226 272
f 272 226 219
f 272 219 266
f 229 277 281
f 229 281 232
f 232 281 286
f 232 286 236
f 236 286 279
f 236 279 230
f 278 267 275
f 278 275 283
f 283 275 271
f 283 271 287
f 287 271 266
f 287 266 279
f 241 265 269
f 241 269 244
f 244 269 274
f 244 274 248
f 248 274 267
f 248 267 242
f 277 253 257
f 277 257 280
f 280 257 262
f 280 262 284
f 284 262 255
f 284 255 278
f 254 243 251
f 254 251 259
f 259 251 247
f 259 247 263
f 263 247 242
f 263 242 255
f 193 241 245
f 193 245 196
f 196 245 250
f 196 250 200
f 200 250 243
f 200 243 194
f 253 206 212
f 253 212 256
f 256 212 208
f 256 208 260
f 260 208 205
f 260 205 254
f 217 265 241
f 217 241 193
f 195 207 231
f 195 231 218
f 243 254 205
f 243 205 194
f 277 229 206
f 277 206 253
f 219 230 279
f 219 279 266
f 267 278 255
f 267 255 242
f 289 292 294
f 289 294 293
f 292 296 297
f 292 297 294
f 290 295 297
f 290 297 296
f 295 299 300
f 295 300 297
f 291 298 300
f 291 300 299
f 298 293 294
f 298 294 300
f 294 297 300
f 301 304 306
f 301 306 305
f 304 308 309
f 304 309 306
f 302 307 309
f 302 309 308
f 307 311 312
f 307 312 309
f 303 310 312
f 303 312 311
f 310 305 306
f 310 306 312
f 306 309 312
f 313 316 318
f 313 318 317
f 316 320 321
f 316 321 318
f 314 319 321
f 314 321 320
f 319 323 324
f 319 324 321
f 315 322 324
f 315 324 323
f 322 317 318
f 322 318 324
f 318 321 324
f 325 328 330
f 325 330 329
f 328 332 333
f 328 333 330
f 326 331 333
f 326 333 332
f 331 335 336
f 331 336 333
f 327 334 336
f 327 336 335
f 334 329 330
f 334 330 336
f 330 333 336
f 337 340 342
f 337 342 341
f 340 344 345
f 340 345 342
f 338 343 345
f 338 345 344
f 343 347 348
f 343 348 345
f 339 346 348
f 339 348 347
f 346 341 342
f 346 342 348
f 342 345 348
f 349 352 354
f 349 354 353
f 352 356 357
f 352 357 354
f 350 355 357
f 350 357 356
f 355 359 360
f 355 360 357
f 351 358 360
f 351 360 359
f 358 353 354
f 358 354 360
f 354 357 360
f 361 364 366
f 361 366 365
f 364 368 369
f 364 369 366
f 362 367 369
f 362 369 368
f 367 371 372
f 367 372 369
f 363 370 372
f 363 372 371
f 370 365 366
f 370 366 372
f 366 369 372
f 373 376 378
f 373 378 377
f 376 380 381
f 376 381 378
f 374 379 381
f 374 381 380
f 379 383 384
f 379 384 381
f 375 382 384
f 375 384 383
f 382 377 378
f 382 378 384
f 378 381 384
f 313 289 293
f 313 293 316
f 316 293 298
f 316 298 320
f 320 298 291
f 320 291 314
f 290 301 305
f 290 305 295
f 295 305 310
f 295 310 299
f 299 310 303
f 299 303 291
f 302 325 329
f 302 329 307
f 307 329 334
f 307 334 311
f 311 334 327
f 311 327 303
f 326 315 323
f 326 323 331
f 331 323 319
f 331 319 335
f 335 319 314
f 335 314 327
f 361 313 317
f 361 317 364
f 364 317 322
f 364 322 368
f 368 322 315
f 368 315 362
f 325 373 377
f 325 377 328
f 328 377 382
f 328 382 332
f 332 382 375
f 332 375 326
f 374 363 371
f 374 371 379
f 379 371 367
f 379 367 383
f 383 367 362
f 383 362 375
f 337 361 365
f 337 365 340
f 340 365 370
f 340 370 344
f 344 370 363
f 344 363 338
f 373 349 353
f 373 353 376
f 376 353 358
f 376 358 380
f 380 358 351
f 380 351 374
f 350 339 347
f 350 347 355
f 355 347 343
f 355 343 359
f 359 343 338
f 359 338 351
f 289 337 341
f 289 341 292
f 292 341 346
f 292 346 296
f 296 346 339
f 296 339 290
f 349 302 308
f 349 308 352
f 352 308 304
f 352 304 356
f 356 304 301
f 356 301 350
f 313 361 337
f 313 337 289
f 291 303 327
f 291 327 314
f 339 350 301
f 339 301 290
f 373 325 302
f 373 302 349
f 315 326 375
f 315 375 362
f 363 374 351
f 363 351 338
f 385 388 390
f 385 390 389
f 388 392 393
f 388 393 390
f 386 391 393
f 386 393 392
f 391 395 396
f 391 396 393
f 387 394 396
f 387 396 395
f 394 389 390
f 394 390 396
f 390 393 396
f 397 400 402
f 397 402 401
f 400 404 405
f 400 405 402
f 398 403 405
f 398 405 404
f 403 407 408
f 403 408 405
f 399 406 408
f 399 408 407
f 406 401 402
f 406 402 408
f 402 405 408
f 409 412 414
f 409 414 413
f 412 416 417
f 412 417 414
f 410 415 417
f 410 417 416
f 415 419 420
f 415 420 417
f 411 418 420
f 411 420 419
f 418 413 414
f 418 414 420
f 414 417 420
f 421 424 426
f 421 426 425
f 424 428 429
f 424 429 426
f 422 427 429
f 422 429 428
f 427 431 432
f 427 432 429
f 423 430 432
f 423 432 431
f 430 425 426
f 430 426 432
f 426 429 432
f 433 436 438
f 433 438 437
f 436 440 441
f 436 441 438
f 434 439 441
f 434 441 440
f 439 443 444
f 439 444 441
f 435 442 444
f 435 444 443
f 442 437 438
f 442 438 444
f 438 441 444
f 445 448 450
f 445 450 449
f 448 452 453
f 448 453 450
f 446 451 453
f 446 453 452
f 451 455 456
f 451 456 453
f 447 454 456
f 447 456 455
f 454 449 450
f 454 450 456
f 450 453 456
f 457 460 462
f 457 462 461
f 460 464 465
f 460 465 462
f 458 463 465
f 458 465 464
f 463 467 468
f 463 468 465
f 459 466 468
f 459 468 467
f 466 461 462
f 466 462 468
f 462 465 468
f 469 472 474
f 469 474 473
f 472 476 477
f 472 477 474
f 470 475 477
f 470 477 476
f 475 479 480
f 475 480 477
f 471 478 480
f 471 480 479
f 478 473 474
f 478 474 480
f 474 477 480
f 409 385 389
f 409 389 412
f 412 389 394
f 412 394 416
f 416 394 387
f 416 387 410
f 386 397 401
f 386 401 391
f 391 401 406
f 391 406 395
f 395 406 399
f 395 399 387
f 398 421 425
f 398 425 403
f 403 425 430
f 403 430 407
f 407 430 423
f 407 423 399
f 422 411 419
f 422 419 427
f 427 419 415
f 427 415 431
f 431 415 410
f 431 410 423
f 457 409 413
f 457 413 460
f 460 413 418
f 460 418 464
f 464 418 411
f 464 411 458
f 421 469 473
f 421 473 424
f 424 473 478
f 424 478 428
f 428 478 471
f 428 471 422
f 470 459 467
f 470 467 475
f 475 467 463
f 475 463 479
f 479 463 458
f 479 458 471
f 433 457 461
f 433 461 436
f 436 461 466
f 436 466 440
f 440 466 459
f 440 459 434
f 469 445 449
f 469 449 472
f 472 449 454
f 472 454 476
f 476 454 447
f 476 447 470
f 446 435 443
f 446 443 451
f 451 443 439
f 451 439 455
f 455 439 434
f 455 434 447
f 385 433 437
f 385 437 388
f 388 437 442
f 388 442 392
f 392 442 435
f 392 435 386
f 445 398 404
f 445 404 448
f 448 404 400
f 448 400 452
f 452 400 397
f 452 397 446
f 409 457 433
f 409 433 385
f 387 399 423
f 387 423 410
f 435 446 397
f 435 397 386
f 469 421 398
f 469 398 445
f 411 422 471
f 411 471 458
f 459 470 447
f 459 447 434
f 481 484 486
f 481 486 485
f 484 488 489
f 484 489 486
f 482 487 489
f 482 489 488
f 487 491 492
f 487 492 489
f 483 490 492
f 483 492 491
f 490 485 486
f 490 486 492
f 486 489 492
f 493 496 498
f 493 498 497
f 496 500 501
f 496 501 498
f 494 499 501
f 494 501 500
f 499 503 504
f 499 504 501
f 495 502 504
f 495 504 503
f 502 497 498
f 502 498 504
f 498 501 504
f 505 508 510
f 505 510 509
f 508 512 513
f 508 513 510
f 506 511 513
f 506 513 512
f 511 515 516
f 511 516 513
f 507 514 516
f 507 516 515
f 514 509 510
f 514 510 516
f 510 513 516
f 517 520 522
f 517 522 521
f 520 524 525
f 520 525 522
f 518 523 525
f 518 525 524
f 523 527 528
f 523 528 525
f 519 526 528
f 519 528 527
f 526 521 522
f 526 522 528
f 522 525 528
f 529 532 534
f 529 534 533
f 532 536 537
f 532 537 534
f 530 535 537
f 530 537 536
f 535 539 540
f 535 540 537
f 531 538 540
f 531 540 539
f 538 533 534
f 538 534 540
f 534 537 540
f 541 544 546
f 541 546 545
f 544 548 549
f 544 549 546
f 542 547 549
f 542 549 548
f 547 551 552
f 547 552 549
f 543 550 552
f 543 552 551
f 550 545 546
f 550 546 552
f 546 549 552
f 553 556 558
f 553 558 557
f 556 560 561
f 556 561 558
f 554 559 561
f 554 561 560
f 559 563 564
f 559 564 561
f 555 562 564
f 555 564 563
f 562 557 558
f 562 558 564
f 558 561 564
f 565 568 570
f 565 570 569
f 568 572 573
f 568 573 570
f 566 571 573
f 566 573 572
f 571 575 576
f 571 576 573
f 567 574 576
f 567 576 575
f 574 569 570
f 574 570 576
f 570 573 576
f 505 481 485
f 505 485 508
f 508 485 490
f 508 490 512
f 512 490 483
f 512 483 506
f 482 493 497
f 482 497 487
f 487 497 502
f 487 502 491
f 491 502 495
f 491 495 483
f 494 517 521
f 494 521 499
f 499 521 526
f 499 526 503
f 503 526 519
f 503 519 495
f 518 507 515
f 518 515 523
f 523 515 511
f 523 511 527
f 527 511 506
f 527 506 519
f 553 505 509
f 553 509 556
f 556 509 514
f 556 514 560
f 560 514 507
f 560 507 554
f 517 565 569
f 517 569 520
f 520 569 574
f 520 574 524
f 524 574 567
f 524 567 518
f 566 555 563
f 566 563 571
f 571 563 559
f 571 559 575
f 575 559 554
f 575 554 567
f 529 553 557
f 529 557 532
f 532 557 562
f 532 562 536
f 536 562 555
f 536 555 530
f 565 541 545
f 565 545 568
f 568 545 550
f 568 550 572
f 572 550 543
f 572 543 566
f 542 531 539
f 542 539 547
f 547 539 535
f 547 535 551
f 551 535 530
f 551 530 543
f 481 529 533
f 481 533 484
f 484 533 538
f 484 538 488
f 488 538 531
f 488 531 482
f 541 494 500
f 541 500 544
f 544 500 496
f 544 496 548
f 548 496 493
f 548 493 542
f 505 553 529
f 505 529 481
f 483 495 519
f 483 519 506
f 531 542 493
f 531 493 482
f 565 517 494
f 565 494 541
f 507 518 567
f 507 567 554
f 555 566 543
f 555 543 530
f 577 580 582
f 577 582 581
f 580 584 585
f 580 585 582
f 578 583 585
f 578 585 584
f 583 587 588
f 583 588 585
f 579 586 588
f 579 588 587
f 586 581 582
f 586 582 588
f 582 585 588
f 589 592 594
f 589 594 593
f 592 596 597
f 592 597 594
f 590 595 597
f 590 597 596
f 595 599 600
f 595 600 597
f 591 598 600
f 591 600 599
f 598 593 594
f 598 594 600
f 594 597 600
f 601 604 606
f 601 606 605
f 604 608 609
f 604 609 606
f 602 607 609
f 602 609 608
f 607 611 612
f 607 612 609
f 603 610 612
f 603 612 611
f 610 605 606
f 610 606 612
f 606 609 612
f 613 616 618
f 613 618 617
f 616 620 621
f 616 621 618
f 614 619 621
f 614 621 620
f 619 623 624
f 619 624 621
f 615 622 624
f 615 624 623
f 622 617 618
f 622 618 624
f 618 621 624
f 625 628 630
f 625 630 629
f 628 632 633
f 628 633 630
f 626 631 633
f 626 633 632
f 631 635 636
f 631 636 633
f 627 634 636
f 627 636 635
f 634 629 630
f 634 630 636
f 630 633 636
f 637 640 642
f 637 642 641
f 640 644 645
f 640 645 642
f 638 643 645
f 638 645 644
f 643 647 648
f 643 648 645
f 639 646 648
f 639 648 647
f 646 641 642
f 646 642 648
f 642 645 648
f 649 652 654
f 649 654 653
f 652 656 657
f 652 657 654
f 650 655 657
f 650 657 656
f 655 659 660
f 655 660 657
f 651 658 660
f 651 660 659
f 658 653 654
f 658 654 660
f 654 657 660
f 661 664 666
f 661 666 665
f 664 668 669
f 664 669 666
f 662 667 669
f 662 669 668
f 667 671 672
f 667 672 669
f 663 670 672
f 663 672 671
f 670 665 666
f 670 666 672
f 666 669 672
f 601 577 581
f 601 581 604
f 604 581 586
f 604 586 608
f 608 586 579
f 608 579 602
f 578 589 593
f 578 593 583
f 583 593 598
f 583 598 587
f 587 598 591
f 587 591 579
f 590 613 617
f 590 617 595
f 595 617 622
f 595 622 599
f 599 622 615
f 599 615 591
f 614 603 611
f 614 611 619
f 619 611 607
f 619 607 623
f 623 607 602
f 623 602 615
f 649 601 605
f 649 605 652
f 652 605 610
f 652 610 656
f 656 610 603
f 656 603 650
f 613 661 665
f 613 665 616
f 616 665 670
f 616 670 620
f 620 670 663
f 620 663 614
f 662 651 659
f 662 659 667
f 667 659 655
f 667 655 671
f 671 655 650
f 671 650 663
f 625 649 653
f 625 653 628
f 628 653 658
f 628 658 632
f 632 658 651
f 632 651 626
f 661 637 641
f 661 641 664
f 664 641 646
f 664 646 668
f 668 646 639
f 668 639 662
f 638 627 635
f 638 635 643
f 643 635 631
f 643 631 647
f 647 631 626
f 647 626 639
f 577 625 629
f 577 629 580
f 580 629 634
f 580 634 584
f 584 634 627
f 584 627 578
f 637 590 596
f 637 596 640
f 640 596 592
f 640 592 644
f 644 592 589
f 644 589 638
f 601 649 625
f 601 625 577
f 579 591 615
f 579 615 602
f 627 638 589
f 627 589 578
f 661 613 590
f 661 590 637
f 603 614 663
f 603 663 650
f 651 662 639
f 651 639 626
f 673 676 678
f 673 678 677
f 676 680 681
f 676 681 678
f 674 679 681
f 674 681 680
f 679 683 684
f 679 684 681
f 675 682 684
f 675 684 683
f 682 677 678
f 682 678 684
f 678 681 684
f 685 688 690
f 685 690 689
f 688 692 693
f 688 693 690
f 686 691 693
f 686 693 692
f 691 695 696
f 691 696 693
f 687 694 696
f 687 696 695
f 694 689 690
f 694 690 696
f 690 693 696
f 697 700 702
f 697 702 701
f 700 704 705
f 700 705 702
f 698 703 705
f 698 705 704
f 703 707 708
f 703 708 705
f 699 706 708
f 699 708 707
f 706 701 702
f 706 702 708
f 702 705 708
f 709 712 714
f 709 714 713
f 712 716 717
f 712 717 714
f 710 715 717
f 710 717 716
f 715 719 720
f 715 720 717
f 711 718 720
f 711 720 719
f 718 713 714
f 718 714 720
f 714 717 720
f 721 724 726
f 721 726 725
f 724 728 729
f 724 729 726
f 722 727 729
f 722 729 728
f 727 731 732
f 727 732 729
f 723 730 732
f 723 732 731
f 730 725 726
f 730 726 732
f 726 729 732
f 733 736 738
f 733 738 737
f 736 740 741
f 736 741 738
f 734 739 741
f 734 741 740
f 739 743 744
f 739 744 741
f 735 742 744
f 735 744 743
f 742 737 738
f 742 738 744
f 738 741 744
f 745 748 750
f 745 750 749
f 748 752 753
f 748 753 750
f 746 751 753
f 746 753 752
f 751 755 756
f 751 756 753
f 747 754 756
f 747 756 755
f 754 749 750
f 754 750 756
f 750 753 756
f 757 760 762
f 757 762 761
f 760 764 765
f 760 765 762
f 758 763 765
f 758 765 764
f 763 767 768
f 763 768 765
f 759 766 768
f 759 768 767
f 766 761 762
f 766 762 768
f 762 765 768
f 697 673 677
f 697 677 700
f 700 677 682
f 700 682 704
f 704 682 675
f 704 675 698
f 674 685 689
f 674 689 679
f 679 689 694
f 679 694 683
f 683 694 687
f 683 687 675
f 686 709 713
f 686 713 691
f 691 713 718
f 691 718 695
f 695 718 711
f 695 711 687
f 710 699 707
f 710 707 715
f 715 707 703
f 715 703 719
f 719 703 698
f 719 698 711
f 745 697 701
f 745 701 748
f 748 701 706
f 748 706 752
f 752 706 699
f 752 699 746
f 709 757 761
f 709 761 712
f 712 761 766
f 712 766 716
f 716 766 759
f 716 759 710
f 758 747 755
f 758 755 763
f 763 755 751
f 763 751 767
f 767 751 746
f 767 746 759
f 721 745 749
f 721 749 724
f 724 749 754
f 724 754 728
f 728 754 747
f 728 747 722
f 757 733 737
f 757 737 760
f 760 737 742
f 760 742 764
f 764 742 735
f 764 735 758
f 734 723 731
f 734 731 739
f 739 731 727
f 739 727 743
f 743 727 722
f 743 722 735
f 673 721 725
f 673 725 676
f 676 725 730
f 676 730 680
f 680 730 723
f 680 723 674
f 733 686 692
f 733 692 736
f 736 692 688
f 736 688 740
f 740 688 685
f 740 685 734
f 697 745 721
f 697 721 673
f 675 687 711
f 675 711 698
f 723 734 685
f 723 685 674
f 757 709 686
f 757 686 733
f 699 710 759
f 699 759 746
f 747 758 735
f 747 735 722
f 769 772 774
f 769 774 773
f 772 776 777
f 772 777 774
f 770 775 777
f 770 777 776
f 775 779 780
f 775 780 777
f 771 778 780
f 771 780 779
f 778 773 774
f 778 774 780
f 774 777 780
f 781 784 786
f 781 786 785
f 784 788 789
f 784 789 786
f 782 787 789
f 782 789 788
f 787 791 792
f 787 792 789
f 783 790 792
f 783 792 791
f 790 785 786
f 790 786 792
f 786 789 792
f 793 796 798
f 793 798 797
f 796 800 801
f 796 801 798
f 794 799 801
f 794 801 800
f 799 803 804
f 799 804 801
f 795 802 804
f 795 804 803
f 802 797 798
f 802 798 804
f 798 801 804
f 805 808 810
f 805 810 809
f 808 812 813
f 808 813 810
f 806 811 813
f 806 813 812
f 811 815 816
f 811 816 813
f 807 814 816
f 807 816 815
f 814 809 810
f 814 810 816
f 810 813 816
f 817 820 822
f 817 822 821
f 820 824 825
f 820 825 822
f 818 823 825
f 818 825 824
f 823 827 828
f 823 828 825
f 819 826 828
f 819 828 827
f 826 821 822
f 826 822 828
f 822 825 828
f 829 832 834
f 829 834 833
f 832 836 837
f 832 837 834
f 830 835 837
f 830 837 836
f 835 839 840
f 835 840 837
f 831 838 840
f 831 840 839
f 838 833 834
f 838 834 840
f 834 837 840
f 841 844 846
f 841 846 845
f 844 848 849
f 844 849 846
f 842 847 849
f 842 849 848
f 847 851 852
f 847 852 849
f 843 850 852
f 843 852 851
f 850 845 846
f 850 846 852
f 846 849 852
f 853 856 858
f 853 858 857
f 856 860 861
f 856 861 858
f 854 859 861
f 854 861 860
f 859 863 864
f 859 864 861
f 855 862 864
f 855 864 863
f 862 857 858
f 862 858 864
f 858 861 864
f 793 769 773
f 793 773 796
f 796 773 778
f 796 778 800
f 800 778 771
f 800 771 794
f 770 781 785
f 770 785 775
f 775 785 790
f 775 790 779
f 779 790 783
f 779 783 771
f 782 805 809
f 782 809 787
f 787 809 814
f 787 814 791
f 791 814 807
f 791 807 783
f 806 795 803
f 806 803 811
f 811 803 799
f 811 799 815
f 815 799 794
f 815 794 807
f 841 793 797
f 841 797 844
f 844 797 802
f 844 802 848
f 848 802 795
f 848 795 842
f 805 853 857
f 805 857 808
f 808 857 862
f 808 862 812
f 812 862 855
f 812 855 806
f 854 843 851
f 854 851 859
f 859 851 847
f 859 847 863
f 863 847 842
f 863 842 855
f 817 841 845
f 817 845 820
f 820 845 850
f 820 850 824
f 824 850 843
f 824 843 818
f 853 829 833
f 853 833 856
f 856 833 838
f 856 838 860
f 860 838 831
f 860 831 854
f 830 819 827
f 830 827 835
f 835 827 823
f 835 823 839
f 839 823 818
f 839 818 831
f 769 817 821
f 769 821 772
f 772 821 826
f 772 826 776
f 776 826 819
f 776 819 770
f 829 782 788
f 829 788 832
f 832 788 784
f 832 784 836
f 836 784 781
f 836 781 830
f 793 841 817
f 793 817 769
f 771 783 807
f 771 807 794
f 819 830 781
f 819 781 770
f 853 805 782
f 853 782 829
f 795 806 855
f 795 855 842
f 843 854 831
f 843 831 818
f 865 868 870
f 865 870 869
f 868 872 873
f 868 873 870
f 866 871 873
f 866 873 872
f 871 875 876
f 871 876 873
f 867 874 876
f 867 876 875
f 874 869 870
f 874 870 876
f 870 873 876
f 877 880 882
f 877 882 881
f 880 884 885
f 880 885 882
f 878 883 885
f 878 885 884
f 883 887 888
f 883 888 885
f 879 886 888
f 879 888 887
f 886 881 882
f 886 882 888
f 882 885 888
f 889 892 894
f 889 894 893
f 892 896 897
f 892 897 894
f 890 895 897
f 890 897 896
f 895 899 900
f 895 900 897
f 891 898 900
f 891 900 899
f 898 893 894
f 898 894 900
f 894 897 900
f 901 904 906
f 901 906 905
f 904 908 909
f 904 909 906
f 902 907 909
f 902 909 908
f 907 911 912
f 907 912 909
f 903 910 912
f 903 912 911
f 910 905 906
f 910 906 912
f 906 909 912
f 913 916 918
f 913 918 917
f 916 920 921
f 916 921 918
f 914 919 921
f 914 921 920
f 919 923 924
f 919 924 921
f 915 922 924
f 915 924 923
f 922 917 918
f 922 918 924
f 918 921 924
f 925 928 930
f 925 930 929
f 928 932 933
f 928 933 930
f 926 931 933
f 926 933 932
f 931 935 936
f 931 936 933
f 927 934 936
f 927 936 935
f 934 929 930
f 934 930 936
f 930 933 936
f 937 940 942
f 937 942 941
f 940 944 945
f 940 945 942
f 938 943 945
f 938 945 944
f 943 947 948
f 943 948 945
f 939 946 948
f 939 948 947
f 946 941 942
f 946 942 948
f 942 945 948
f 949 952 954
f 949 954 953
f 952 956 957
f 952 957 954
f 950 955 957
f 950 957 956
f 955 959 960
f 955 960 957
f 951 958 960
f 951 960 959
f 958 953 954
f 958 954 960
f 954 957 960
f 889 865 869
f 889 869 892
f 892 869 874
f 892 874 896
f 896 874 867
f 896 867 890
f 866 877 881
f 866 881 871
f 871 881 886
f 871 886 875
f 875 886 879
f 875 879 867
f 878 901 905
f 878 905 883
f 883 905 910
f 883 910 887
f 887 910 903
f 887 903 879
f 902 891 899
f 902 899 907
f 907 899 895
f 907 895 911
f 911 895 890
f 911 890 903
f 937 889 893
f 937 893 940
f 940 893 898
f 940 898 944
f 944 898 891
f 944 891 938
f 901 949 953
f 901 953 904
f 904 953 958
f 904 958 908
f 908 958 951
f 908 951 902
f 950 939 947
f 950 947 955
f 955 947 943
f 955 943 959
f 959 943 938
f 959 938 951
f 913 937 941
f 913 941 916
f 916 941 946
f 916 946 920
f 920 946 939
f 920 939 914
f 949 925 929
f 949 929 952
f 952 929 934
f 952 934 956
f 956 934 927
f 956 927 950
f 926 915 923
f 926 923 931
f 931 923 919
f 931 919 935
f 935 919 914
f 935 914 927
f 865 913 917
f 865 917 868
f 868 917 922
f 868 922 872
f 872 922 915
f 872 915 866
f 925 878 884
f 925 884 928
f 928 884 880
f 928 880 932
f 932 880 877
f 932 877 926
f 889 937 913
f 889 913 865
f 867 879 903
f 867 903 890
f 915 926 877
f 915 877 866
f 949 901 878
f 949 878 925
f 891 902 951
f 891 951 938
f 939 950 927
f 939 927 914
