# Zoomer visual mesh, local link coordinates in metres
v -0.0067748 -0.0046536 0.0244130
v -0.0067748 -0.0049400 0.0247000
v -0.0067748 -0.0046920 0.0245565
v -0.0067748 -0.0047968 0.0246616
v -0.0067748 -0.0060855 0.0244130
v -0.0067748 -0.0057991 0.0247000
v -0.0067748 -0.0060471 0.0245565
v -0.0067748 -0.0059423 0.0246616
v -0.0065930 -0.0046536 0.0243981
v -0.0065631 -0.0049400 0.0246827
v -0.0065781 -0.0046920 0.0245404
v -0.0065671 -0.0047968 0.0246446
v -0.0065930 -0.0060855 0.0243981
v -0.0065631 -0.0057991 0.0246827
v -0.0065781 -0.0060471 0.0245404
v -0.0065671 -0.0059423 0.0246446
v -0.0064144 -0.0046536 0.0243537
v -0.0063550 -0.0049400 0.0246309
v -0.0063847 -0.0046920 0.0244923
v -0.0063629 -0.0047968 0.0245938
v -0.0064144 -0.0060855 0.0243537
v -0.0063550 -0.0057991 0.0246309
v -0.0063847 -0.0060471 0.0244923
v -0.0063629 -0.0059423 0.0245938
v -0.0062419 -0.0046536 0.0242805
v -0.0061540 -0.0049400 0.0245456
v -0.0061980 -0.0046920 0.0244131
v -0.0061658 -0.0047968 0.0245101
v -0.0062419 -0.0060855 0.0242805
v -0.0061540 -0.0057991 0.0245456
v -0.0061980 -0.0060471 0.0244131
v -0.0061658 -0.0059423 0.0245101
v -0.0060785 -0.0046536 0.0241797
v -0.0059637 -0.0049400 0.0244283
v -0.0060211 -0.0046920 0.0243040
v -0.0059791 -0.0047968 0.0243950
v -0.0060785 -0.0060855 0.0241797
v -0.0059637 -0.0057991 0.0244283
v -0.0060211 -0.0060471 0.0243040
v -0.0059791 -0.0059423 0.0243950
v -0.0059270 -0.0046536 0.0240532
v -0.0057873 -0.0049400 0.0242809
v -0.0058572 -0.0046920 0.0241670
v -0.0058060 -0.0047968 0.0242504
v -0.0059270 -0.0060855 0.0240532
v -0.0057873 -0.0057991 0.0242809
v -0.0058572 -0.0060471 0.0241670
v -0.0058060 -0.0059423 0.0242504
v -0.0057901 -0.0046536 0.0239030
v -0.0056278 -0.0049400 0.0241059
v -0.0057089 -0.0046920 0.0240044
v -0.0056495 -0.0047968 0.0240787
v -0.0057901 -0.0060855 0.0239030
v -0.0056278 -0.0057991 0.0241059
v -0.0057089 -0.0060471 0.0240044
v -0.0056495 -0.0059423 0.0240787
v -0.0056700 -0.0046536 0.0237317
v -0.0054879 -0.0049400 0.0239064
v -0.0055789 -0.0046920 0.0238191
v -0.0055123 -0.0047968 0.0238830
v -0.0056700 -0.0060855 0.0237317
v -0.0054879 -0.0057991 0.0239064
v -0.0055789 -0.0060471 0.0238191
v -0.0055123 -0.0059423 0.0238830
v -0.0055687 -0.0046536 0.0235423
v -0.0053700 -0.0049400 0.0236858
v -0.0054694 -0.0046920 0.0236140
v -0.0053966 -0.0047968 0.0236666
v -0.0055687 -0.0060855 0.0235423
v -0.0053700 -0.0057991 0.0236858
v -0.0054694 -0.0060471 0.0236140
v -0.0053966 -0.0059423 0.0236666
v -0.0054882 -0.0046536 0.0233380
v -0.0052761 -0.0049400 0.0234478
v -0.0053822 -0.0046920 0.0233929
v -0.0053046 -0.0047968 0.0234331
v -0.0054882 -0.0060855 0.0233380
v -0.0052761 -0.0057991 0.0234478
v -0.0053822 -0.0060471 0.0233929
v -0.0053046 -0.0059423 0.0234331
v -0.0054296 -0.0046536 0.0231223
v -0.0052079 -0.0049400 0.0231966
v -0.0053188 -0.0046920 0.0231594
v -0.0052376 -0.0047968 0.0231866
v -0.0054296 -0.0060855 0.0231223
v -0.0052079 -0.0057991 0.0231966
v -0.0053188 -0.0060471 0.0231594
v -0.0052376 -0.0059423 0.0231866
v -0.0053941 -0.0046536 0.0228988
v -0.0051665 -0.0049400 0.0229363
v -0.0052803 -0.0046920 0.0229176
v -0.0051970 -0.0047968 0.0229313
v -0.0053941 -0.0060855 0.0228988
v -0.0051665 -0.0057991 0.0229363
v -0.0052803 -0.0060471 0.0229176
v -0.0051970 -0.0059423 0.0229313
v -0.0053822 -0.0046536 0.0226715
v -0.0051527 -0.0049400 0.0226715
v -0.0052674 -0.0046920 0.0226715
v -0.0051834 -0.0047968 0.0226715
v -0.0053822 -0.0060855 0.0226715
v -0.0051527 -0.0057991 0.0226715
v -0.0052674 -0.0060471 0.0226715
v -0.0051834 -0.0059423 0.0226715
v -0.0053941 -0.0046536 0.0224442
v -0.0051665 -0.0049400 0.0224068
v -0.0052803 -0.0046920 0.0224255
v -0.0051970 -0.0047968 0.0224118
v -0.0053941 -0.0060855 0.0224442
v -0.0051665 -0.0057991 0.0224068
v -0.0052803 -0.0060471 0.0224255
v -0.0051970 -0.0059423 0.0224118
v -0.0054296 -0.0046536 0.0222208
v -0.0052079 -0.0049400 0.0221465
v -0.0053188 -0.0046920 0.0221837
v -0.0052376 -0.0047968 0.0221565
v -0.0054296 -0.0060855 0.0222208
v -0.0052079 -0.0057991 0.0221465
v -0.0053188 -0.0060471 0.0221837
v -0.0052376 -0.0059423 0.0221565
v -0.0054882 -0.0046536 0.0220051
v -0.0052761 -0.0049400 0.0218953
v -0.0053822 -0.0046920 0.0219502
v -0.0053046 -0.0047968 0.0219100
v -0.0054882 -0.0060855 0.0220051
v -0.0052761 -0.0057991 0.0218953
v -0.0053822 -0.0060471 0.0219502
v -0.0053046 -0.0059423 0.0219100
v -0.0055687 -0.0046536 0.0218008
v -0.0053700 -0.0049400 0.0216573
v -0.0054694 -0.0046920 0.0217290
v -0.0053966 -0.0047968 0.0216765
v -0.0055687 -0.0060855 0.0218008
v -0.0053700 -0.0057991 0.0216573
v -0.0054694 -0.0060471 0.0217290
v -0.0053966 -0.0059423 0.0216765
v -0.0056700 -0.0046536 0.0216114
v -0.0054879 -0.0049400 0.0214367
v -0.0055789 -0.0046920 0.0215240
v -0.0055123 -0.0047968 0.0214601
v -0.0056700 -0.0060855 0.0216114
v -0.0054879 -0.0057991 0.0214367
v -0.0055789 -0.0060471 0.0215240
v -0.0055123 -0.0059423 0.0214601
v -0.0057901 -0.0046536 0.0214401
v -0.0056278 -0.0049400 0.0212372
v -0.0057089 -0.0046920 0.0213386
v -0.0056495 -0.0047968 0.0212644
v -0.0057901 -0.0060855 0.0214401
v -0.0056278 -0.0057991 0.0212372
v -0.0057089 -0.0060471 0.0213386
v -0.0056495 -0.0059423 0.0212644
v -0.0059270 -0.0046536 0.0212899
v -0.0057873 -0.0049400 0.0210622
v -0.0058572 -0.0046920 0.0211761
v -0.0058060 -0.0047968 0.0210927
v -0.0059270 -0.0060855 0.0212899
v -0.0057873 -0.0057991 0.0210622
v -0.0058572 -0.0060471 0.0211761
v -0.0058060 -0.0059423 0.0210927
v -0.0060785 -0.0046536 0.0211633
v -0.0059637 -0.0049400 0.0209148
v -0.0060211 -0.0046920 0.0210391
v -0.0059791 -0.0047968 0.0209481
v -0.0060785 -0.0060855 0.0211633
v -0.0059637 -0.0057991 0.0209148
v -0.0060211 -0.0060471 0.0210391
v -0.0059791 -0.0059423 0.0209481
v -0.0062419 -0.0046536 0.0210626
v -0.0061540 -0.0049400 0.0207974
v -0.0061980 -0.0046920 0.0209300
v -0.0061658 -0.0047968 0.0208330
v -0.0062419 -0.0060855 0.0210626
v -0.0061540 -0.0057991 0.0207974
v -0.0061980 -0.0060471 0.0209300
v -0.0061658 -0.0059423 0.0208330
v -0.0064144 -0.0046536 0.0209894
v -0.0063550 -0.0049400 0.0207122
v -0.0063847 -0.0046920 0.0208508
v -0.0063629 -0.0047968 0.0207493
v -0.0064144 -0.0060855 0.0209894
v -0.0063550 -0.0057991 0.0207122
v -0.0063847 -0.0060471 0.0208508
v -0.0063629 -0.0059423 0.0207493
v -0.0065930 -0.0046536 0.0209449
v -0.0065631 -0.0049400 0.0206604
v -0.0065781 -0.0046920 0.0208027
v -0.0065671 -0.0047968 0.0206985
v -0.0065930 -0.0060855 0.0209449
v -0.0065631 -0.0057991 0.0206604
v -0.0065781 -0.0060471 0.0208027
v -0.0065671 -0.0059423 0.0206985
v -0.0067748 -0.0046536 0.0209300
v -0.0067748 -0.0049400 0.0206430
v -0.0067748 -0.0046920 0.0207865
v -0.0067748 -0.0047968 0.0206815
v -0.0067748 -0.0060855 0.0209300
v -0.0067748 -0.0057991 0.0206430
v -0.0067748 -0.0060471 0.0207865
v -0.0067748 -0.0059423 0.0206815
v -0.0069566 -0.0046536 0.0209449
v -0.0069865 -0.0049400 0.0206604
v -0.0069716 -0.0046920 0.0208027
v -0.0069825 -0.0047968 0.0206985
v -0.0069566 -0.0060855 0.0209449
v -0.0069865 -0.0057991 0.0206604
v -0.0069716 -0.0060471 0.0208027
v -0.0069825 -0.0059423 0.0206985
v -0.0071353 -0.0046536 0.0209894
v -0.0071946 -0.0049400 0.0207122
v -0.0071650 -0.0046920 0.0208508
v -0.0071867 -0.0047968 0.0207493
v -0.0071353 -0.0060855 0.0209894
v -0.0071946 -0.0057991 0.0207122
v -0.0071650 -0.0060471 0.0208508
v -0.0071867 -0.0059423 0.0207493
v -0.0073077 -0.0046536 0.0210626
v -0.0073956 -0.0049400 0.0207974
v -0.0073517 -0.0046920 0.0209300
v -0.0073838 -0.0047968 0.0208330
v -0.0073077 -0.0060855 0.0210626
v -0.0073956 -0.0057991 0.0207974
v -0.0073517 -0.0060471 0.0209300
v -0.0073838 -0.0059423 0.0208330
v -0.0074711 -0.0046536 0.0211633
v -0.0075859 -0.0049400 0.0209148
v -0.0075285 -0.0046920 0.0210391
v -0.0075705 -0.0047968 0.0209481
v -0.0074711 -0.0060855 0.0211633
v -0.0075859 -0.0057991 0.0209148
v -0.0075285 -0.0060471 0.0210391
v -0.0075705 -0.0059423 0.0209481
v -0.0076226 -0.0046536 0.0212899
v -0.0077623 -0.0049400 0.0210622
v -0.0076924 -0.0046920 0.0211761
v -0.0077436 -0.0047968 0.0210927
v -0.0076226 -0.0060855 0.0212899
v -0.0077623 -0.0057991 0.0210622
v -0.0076924 -0.0060471 0.0211761
v -0.0077436 -0.0059423 0.0210927
v -0.0077596 -0.0046536 0.0214401
v -0.0079218 -0.0049400 0.0212372
v -0.0078407 -0.0046920 0.0213386
v -0.0079001 -0.0047968 0.0212644
v -0.0077596 -0.0060855 0.0214401
v -0.0079218 -0.0057991 0.0212372
v -0.0078407 -0.0060471 0.0213386
v -0.0079001 -0.0059423 0.0212644
v -0.0078797 -0.0046536 0.0216114
v -0.0080617 -0.0049400 0.0214367
v -0.0079707 -0.0046920 0.0215240
v -0.0080373 -0.0047968 0.0214601
v -0.0078797 -0.0060855 0.0216114
v -0.0080617 -0.0057991 0.0214367
v -0.0079707 -0.0060471 0.0215240
v -0.0080373 -0.0059423 0.0214601
v -0.0079809 -0.0046536 0.0218008
v -0.0081796 -0.0049400 0.0216573
v -0.0080802 -0.0046920 0.0217290
v -0.0081530 -0.0047968 0.0216765
v -0.0079809 -0.0060855 0.0218008
v -0.0081796 -0.0057991 0.0216573
v -0.0080802 -0.0060471 0.0217290
v -0.0081530 -0.0059423 0.0216765
v -0.0080614 -0.0046536 0.0220051
v -0.0082735 -0.0049400 0.0218953
v -0.0081675 -0.0046920 0.0219502
v -0.0082451 -0.0047968 0.0219100
v -0.0080614 -0.0060855 0.0220051
v -0.0082735 -0.0057991 0.0218953
v -0.0081675 -0.0060471 0.0219502
v -0.0082451 -0.0059423 0.0219100
v -0.0081200 -0.0046536 0.0222208
v -0.0083417 -0.0049400 0.0221465
v -0.0082308 -0.0046920 0.0221837
v -0.0083120 -0.0047968 0.0221565
v -0.0081200 -0.0060855 0.0222208
v -0.0083417 -0.0057991 0.0221465
v -0.0082308 -0.0060471 0.0221837
v -0.0083120 -0.0059423 0.0221565
v -0.0081555 -0.0046536 0.0224442
v -0.0083831 -0.0049400 0.0224068
v -0.0082693 -0.0046920 0.0224255
v -0.0083526 -0.0047968 0.0224118
v -0.0081555 -0.0060855 0.0224442
v -0.0083831 -0.0057991 0.0224068
v -0.0082693 -0.0060471 0.0224255
v -0.0083526 -0.0059423 0.0224118
v -0.0081674 -0.0046536 0.0226715
v -0.0083969 -0.0049400 0.0226715
v -0.0082822 -0.0046920 0.0226715
v -0.0083662 -0.0047968 0.0226715
v -0.0081674 -0.0060855 0.0226715
v -0.0083969 -0.0057991 0.0226715
v -0.0082822 -0.0060471 0.0226715
v -0.0083662 -0.0059423 0.0226715
v -0.0081555 -0.0046536 0.0228988
v -0.0083831 -0.0049400 0.0229363
v -0.0082693 -0.0046920 0.0229176
v -0.0083526 -0.0047968 0.0229313
v -0.0081555 -0.0060855 0.0228988
v -0.0083831 -0.0057991 0.0229363
v -0.0082693 -0.0060471 0.0229176
v -0.0083526 -0.0059423 0.0229313
v -0.0081200 -0.0046536 0.0231223
v -0.0083417 -0.0049400 0.0231966
v -0.0082308 -0.0046920 0.0231594
v -0.0083120 -0.0047968 0.0231866
v -0.0081200 -0.0060855 0.0231223
v -0.0083417 -0.0057991 0.0231966
v -0.0082308 -0.0060471 0.0231594
v -0.0083120 -0.0059423 0.0231866
v -0.0080614 -0.0046536 0.0233380
v -0.0082735 -0.0049400 0.0234478
v -0.0081675 -0.0046920 0.0233929
v -0.0082451 -0.0047968 0.0234331
v -0.0080614 -0.0060855 0.0233380
v -0.0082735 -0.0057991 0.0234478
v -0.0081675 -0.0060471 0.0233929
v -0.0082451 -0.0059423 0.0234331
v -0.0079809 -0.0046536 0.0235423
v -0.0081796 -0.0049400 0.0236858
v -0.0080802 -0.0046920 0.0236140
v -0.0081530 -0.0047968 0.0236666
v -0.0079809 -0.0060855 0.0235423
v -0.0081796 -0.0057991 0.0236858
v -0.0080802 -0.0060471 0.0236140
v -0.0081530 -0.0059423 0.0236666
v -0.0078797 -0.0046536 0.0237317
v -0.0080617 -0.0049400 0.0239064
v -0.0079707 -0.0046920 0.0238191
v -0.0080373 -0.0047968 0.0238830
v -0.0078797 -0.0060855 0.0237317
v -0.0080617 -0.0057991 0.0239064
v -0.0079707 -0.0060471 0.0238191
v -0.0080373 -0.0059423 0.0238830
v -0.0077596 -0.0046536 0.0239030
v -0.0079218 -0.0049400 0.0241059
v -0.0078407 -0.0046920 0.0240044
v -0.0079001 -0.0047968 0.0240787
v -0.0077596 -0.0060855 0.0239030
v -0.0079218 -0.0057991 0.0241059
v -0.0078407 -0.0060471 0.0240044
v -0.0079001 -0.0059423 0.0240787
v -0.0076226 -0.0046536 0.0240532
v -0.0077623 -0.0049400 0.0242809
v -0.0076924 -0.0046920 0.0241670
v -0.0077436 -0.0047968 0.0242504
v -0.0076226 -0.0060855 0.0240532
v -0.0077623 -0.0057991 0.0242809
v -0.0076924 -0.0060471 0.0241670
v -0.0077436 -0.0059423 0.0242504
v -0.0074711 -0.0046536 0.0241797
v -0.0075859 -0.0049400 0.0244283
v -0.0075285 -0.0046920 0.0243040
v -0.0075705 -0.0047968 0.0243950
v -0.0074711 -0.0060855 0.0241797
v -0.0075859 -0.0057991 0.0244283
v -0.0075285 -0.0060471 0.0243040
v -0.0075705 -0.0059423 0.0243950
v -0.0073077 -0.0046536 0.0242805
v -0.0073956 -0.0049400 0.0245456
v -0.0073517 -0.0046920 0.0244131
v -0.0073838 -0.0047968 0.0245101
v -0.0073077 -0.0060855 0.0242805
v -0.0073956 -0.0057991 0.0245456
v -0.0073517 -0.0060471 0.0244131
v -0.0073838 -0.0059423 0.0245101
v -0.0071353 -0.0046536 0.0243537
v -0.0071946 -0.0049400 0.0246309
v -0.0071650 -0.0046920 0.0244923
v -0.0071867 -0.0047968 0.0245938
v -0.0071353 -0.0060855 0.0243537
v -0.0071946 -0.0057991 0.0246309
v -0.0071650 -0.0060471 0.0244923
v -0.0071867 -0.0059423 0.0245938
v -0.0069566 -0.0046536 0.0243981
v -0.0069865 -0.0049400 0.0246827
v -0.0069716 -0.0046920 0.0245404
v -0.0069825 -0.0047968 0.0246446
v -0.0069566 -0.0060855 0.0243981
v -0.0069865 -0.0057991 0.0246827
v -0.0069716 -0.0060471 0.0245404
v -0.0069825 -0.0059423 0.0246446
v 0.0067748 -0.0046536 0.0244130
v 0.0067748 -0.0049400 0.0247000
v 0.0067748 -0.0046920 0.0245565
v 0.0067748 -0.0047968 0.0246616
v 0.0067748 -0.0060855 0.0244130
v 0.0067748 -0.0057991 0.0247000
v 0.0067748 -0.0060471 0.0245565
v 0.0067748 -0.0059423 0.0246616
v 0.0069566 -0.0046536 0.0243981
v 0.0069865 -0.0049400 0.0246827
v 0.0069716 -0.0046920 0.0245404
v 0.0069825 -0.0047968 0.0246446
v 0.0069566 -0.0060855 0.0243981
v 0.0069865 -0.0057991 0.0246827
v 0.0069716 -0.0060471 0.0245404
v 0.0069825 -0.0059423 0.0246446
v 0.0071353 -0.0046536 0.0243537
v 0.0071946 -0.0049400 0.0246309
v 0.0071650 -0.0046920 0.0244923
v 0.0071867 -0.0047968 0.0245938
v 0.0071353 -0.0060855 0.0243537
v 0.0071946 -0.0057991 0.0246309
v 0.0071650 -0.0060471 0.0244923
v 0.0071867 -0.0059423 0.0245938
v 0.0073077 -0.0046536 0.0242805
v 0.0073956 -0.0049400 0.0245456
v 0.0073517 -0.0046920 0.0244131
v 0.0073838 -0.0047968 0.0245101
v 0.0073077 -0.0060855 0.0242805
v 0.0073956 -0.0057991 0.0245456
v 0.0073517 -0.0060471 0.0244131
v 0.0073838 -0.0059423 0.0245101
v 0.0074711 -0.0046536 0.0241797
v 0.0075859 -0.0049400 0.0244283
v 0.0075285 -0.0046920 0.0243040
v 0.0075705 -0.0047968 0.0243950
v 0.0074711 -0.0060855 0.0241797
v 0.0075859 -0.0057991 0.0244283
v 0.0075285 -0.0060471 0.0243040
v 0.0075705 -0.0059423 0.0243950
v 0.0076226 -0.0046536 0.0240532
v 0.0077623 -0.0049400 0.0242809
v 0.0076924 -0.0046920 0.0241670
v 0.0077436 -0.0047968 0.0242504
v 0.0076226 -0.0060855 0.0240532
v 0.0077623 -0.0057991 0.0242809
v 0.0076924 -0.0060471 0.0241670
v 0.0077436 -0.0059423 0.0242504
v 0.0077596 -0.0046536 0.0239030
v 0.0079218 -0.0049400 0.0241059
v 0.0078407 -0.0046920 0.0240044
v 0.0079001 -0.0047968 0.0240787
v 0.0077596 -0.0060855 0.0239030
v 0.0079218 -0.0057991 0.0241059
v 0.0078407 -0.0060471 0.0240044
v 0.0079001 -0.0059423 0.0240787
v 0.0078797 -0.0046536 0.0237317
v 0.0080617 -0.0049400 0.0239064
v 0.0079707 -0.0046920 0.0238191
v 0.0080373 -0.0047968 0.0238830
v 0.0078797 -0.0060855 0.0237317
v 0.0080617 -0.0057991 0.0239064
v 0.0079707 -0.0060471 0.0238191
v 0.0080373 -0.0059423 0.0238830
v 0.0079809 -0.0046536 0.0235423
v 0.0081796 -0.0049400 0.0236858
v 0.0080802 -0.0046920 0.0236140
v 0.0081530 -0.0047968 0.0236666
v 0.0079809 -0.0060855 0.0235423
v 0.0081796 -0.0057991 0.0236858
v 0.0080802 -0.0060471 0.0236140
v 0.0081530 -0.0059423 0.0236666
v 0.0080614 -0.0046536 0.0233380
v 0.0082735 -0.0049400 0.0234478
v 0.0081675 -0.0046920 0.0233929
v 0.0082451 -0.0047968 0.0234331
v 0.0080614 -0.0060855 0.0233380
v 0.0082735 -0.0057991 0.0234478
v 0.0081675 -0.0060471 0.0233929
v 0.0082451 -0.0059423 0.0234331
v 0.0081200 -0.0046536 0.0231223
v 0.0083417 -0.0049400 0.0231966
v 0.0082308 -0.0046920 0.0231594
v 0.0083120 -0.0047968 0.0231866
v 0.0081200 -0.0060855 0.0231223
v 0.0083417 -0.0057991 0.0231966
v 0.0082308 -0.0060471 0.0231594
v 0.0083120 -0.0059423 0.0231866
v 0.0081555 -0.0046536 0.0228988
v 0.0083831 -0.0049400 0.0229363
v 0.0082693 -0.0046920 0.0229176
v 0.0083526 -0.0047968 0.0229313
v 0.0081555 -0.0060855 0.0228988
v 0.0083831 -0.0057991 0.0229363
v 0.0082693 -0.0060471 0.0229176
v 0.0083526 -0.0059423 0.0229313
v 0.0081674 -0.0046536 0.0226715
v 0.0083969 -0.0049400 0.0226715
v 0.0082822 -0.0046920 0.0226715
v 0.0083662 -0.0047968 0.0226715
v 0.0081674 -0.0060855 0.0226715
v 0.0083969 -0.0057991 0.0226715
v 0.0082822 -0.0060471 0.0226715
v 0.0083662 -0.0059423 0.0226715
v 0.0081555 -0.0046536 0.0224442
v 0.0083831 -0.0049400 0.0224068
v 0.0082693 -0.0046920 0.0224255
v 0.0083526 -0.0047968 0.0224118
v 0.0081555 -0.0060855 0.0224442
v 0.0083831 -0.0057991 0.0224068
v 0.0082693 -0.0060471 0.0224255
v 0.0083526 -0.0059423 0.0224118
v 0.0081200 -0.0046536 0.0222208
v 0.0083417 -0.0049400 0.0221465
v 0.0082308 -0.0046920 0.0221837
v 0.0083120 -0.0047968 0.0221565
v 0.0081200 -0.0060855 0.0222208
v 0.0083417 -0.0057991 0.0221465
v 0.0082308 -0.0060471 0.0221837
v 0.0083120 -0.0059423 0.0221565
v 0.0080614 -0.0046536 0.0220051
v 0.0082735 -0.0049400 0.0218953
v 0.0081675 -0.0046920 0.0219502
v 0.0082451 -0.0047968 0.0219100
v 0.0080614 -0.0060855 0.0220051
v 0.0082735 -0.0057991 0.0218953
v 0.0081675 -0.0060471 0.0219502
v 0.0082451 -0.0059423 0.0219100
v 0.0079809 -0.0046536 0.0218008
v 0.0081796 -0.0049400 0.0216573
v 0.0080802 -0.0046920 0.0217290
v 0.0081530 -0.0047968 0.0216765
v 0.0079809 -0.0060855 0.0218008
v 0.0081796 -0.0057991 0.0216573
v 0.0080802 -0.0060471 0.0217290
v 0.0081530 -0.0059423 0.0216765
v 0.0078797 -0.0046536 0.0216114
v 0.0080617 -0.0049400 0.0214367
v 0.0079707 -0.0046920 0.0215240
v 0.0080373 -0.0047968 0.0214601
v 0.0078797 -0.0060855 0.0216114
v 0.0080617 -0.0057991 0.0214367
v 0.0079707 -0.0060471 0.0215240
v 0.0080373 -0.0059423 0.0214601
v 0.0077596 -0.0046536 0.0214401
v 0.0079218 -0.0049400 0.0212372
v 0.0078407 -0.0046920 0.0213386
v 0.0079001 -0.0047968 0.0212644
v 0.0077596 -0.0060855 0.0214401
v 0.0079218 -0.0057991 0.0212372
v 0.0078407 -0.0060471 0.0213386
v 0.0079001 -0.0059423 0.0212644
v 0.0076226 -0.0046536 0.0212899
v 0.0077623 -0.0049400 0.0210622
v 0.0076924 -0.0046920 0.0211761
v 0.0077436 -0.0047968 0.0210927
v 0.0076226 -0.0060855 0.0212899
v 0.0077623 -0.0057991 0.0210622
v 0.0076924 -0.0060471 0.0211761
v 0.0077436 -0.0059423 0.0210927
v 0.0074711 -0.0046536 0.0211633
v 0.0075859 -0.0049400 0.0209148
v 0.0075285 -0.0046920 0.0210391
v 0.0075705 -0.0047968 0.0209481
v 0.0074711 -0.0060855 0.0211633
v 0.0075859 -0.0057991 0.0209148
v 0.0075285 -0.0060471 0.0210391
v 0.0075705 -0.0059423 0.0209481
v 0.0073077 -0.0046536 0.0210626
v 0.0073956 -0.0049400 0.0207974
v 0.0073517 -0.0046920 0.0209300
v 0.0073838 -0.0047968 0.0208330
v 0.0073077 -0.0060855 0.0210626
v 0.0073956 -0.0057991 0.0207974
v 0.0073517 -0.0060471 0.0209300
v 0.0073838 -0.0059423 0.0208330
v 0.0071353 -0.0046536 0.0209894
v 0.0071946 -0.0049400 0.0207122
v 0.0071650 -0.0046920 0.0208508
v 0.0071867 -0.0047968 0.0207493
v 0.0071353 -0.0060855 0.0209894
v 0.0071946 -0.0057991 0.0207122
v 0.0071650 -0.0060471 0.0208508
v 0.0071867 -0.0059423 0.0207493
v 0.0069566 -0.0046536 0.0209449
v 0.0069865 -0.0049400 0.0206604
v 0.0069716 -0.0046920 0.0208027
v 0.0069825 -0.0047968 0.0206985
v 0.0069566 -0.0060855 0.0209449
v 0.0069865 -0.0057991 0.0206604
v 0.0069716 -0.0060471 0.0208027
v 0.0069825 -0.0059423 0.0206985
v 0.0067748 -0.0046536 0.0209300
v 0.0067748 -0.0049400 0.0206430
v 0.0067748 -0.0046920 0.0207865
v 0.0067748 -0.0047968 0.0206815
v 0.0067748 -0.0060855 0.0209300
v 0.0067748 -0.0057991 0.0206430
v 0.0067748 -0.0060471 0.0207865
v 0.0067748 -0.0059423 0.0206815
v 0.0065930 -0.0046536 0.0209449
v 0.0065631 -0.0049400 0.0206604
v 0.0065781 -0.0046920 0.0208027
v 0.0065671 -0.0047968 0.0206985
v 0.0065930 -0.0060855 0.0209449
v 0.0065631 -0.0057991 0.0206604
v 0.0065781 -0.0060471 0.0208027
v 0.0065671 -0.0059423 0.0206985
v 0.0064144 -0.0046536 0.0209894
v 0.0063550 -0.0049400 0.0207122
v 0.0063847 -0.0046920 0.0208508
v 0.0063629 -0.0047968 0.0207493
v 0.0064144 -0.0060855 0.0209894
v 0.0063550 -0.0057991 0.0207122
v 0.0063847 -0.0060471 0.0208508
v 0.0063629 -0.0059423 0.0207493
v 0.0062419 -0.0046536 0.0210626
v 0.0061540 -0.0049400 0.0207974
v 0.0061980 -0.0046920 0.0209300
v 0.0061658 -0.0047968 0.0208330
v 0.0062419 -0.0060855 0.0210626
v 0.0061540 -0.0057991 0.0207974
v 0.0061980 -0.0060471 0.0209300
v 0.0061658 -0.0059423 0.0208330
v 0.0060785 -0.0046536 0.0211633
v 0.0059637 -0.0049400 0.0209148
v 0.0060211 -0.0046920 0.0210391
v 0.0059791 -0.0047968 0.0209481
v 0.0060785 -0.0060855 0.0211633
v 0.0059637 -0.0057991 0.0209148
v 0.0060211 -0.0060471 0.0210391
v 0.0059791 -0.0059423 0.0209481
v 0.0059270 -0.0046536 0.0212899
v 0.0057873 -0.0049400 0.0210622
v 0.0058572 -0.0046920 0.0211761
v 0.0058060 -0.0047968 0.0210927
v 0.0059270 -0.0060855 0.0212899
v 0.0057873 -0.0057991 0.0210622
v 0.0058572 -0.0060471 0.0211761
v 0.0058060 -0.0059423 0.0210927
v 0.0057901 -0.0046536 0.0214401
v 0.0056278 -0.0049400 0.0212372
v 0.0057089 -0.0046920 0.0213386
v 0.0056495 -0.0047968 0.0212644
v 0.0057901 -0.0060855 0.0214401
v 0.0056278 -0.0057991 0.0212372
v 0.0057089 -0.0060471 0.0213386
v 0.0056495 -0.0059423 0.0212644
v 0.0056700 -0.0046536 0.0216114
v 0.0054879 -0.0049400 0.0214367
v 0.0055789 -0.0046920 0.0215240
v 0.0055123 -0.0047968 0.0214601
v 0.0056700 -0.0060855 0.0216114
v 0.0054879 -0.0057991 0.0214367
v 0.0055789 -0.0060471 0.0215240
v 0.0055123 -0.0059423 0.0214601
v 0.0055687 -0.0046536 0.0218008
v 0.0053700 -0.0049400 0.0216573
v 0.0054694 -0.0046920 0.0217290
v 0.0053966 -0.0047968 0.0216765
v 0.0055687 -0.0060855 0.0218008
v 0.0053700 -0.0057991 0.0216573
v 0.0054694 -0.0060471 0.0217290
v 0.0053966 -0.0059423 0.0216765
v 0.0054882 -0.0046536 0.0220051
v 0.0052761 -0.0049400 0.0218953
v 0.0053822 -0.0046920 0.0219502
v 0.0053046 -0.0047968 0.0219100
v 0.0054882 -0.0060855 0.0220051
v 0.0052761 -0.0057991 0.0218953
v 0.0053822 -0.0060471 0.0219502
v 0.0053046 -0.0059423 0.0219100
v 0.0054296 -0.0046536 0.0222208
v 0.0052079 -0.0049400 0.0221465
v 0.0053188 -0.0046920 0.0221837
v 0.0052376 -0.0047968 0.0221565
v 0.0054296 -0.0060855 0.0222208
v 0.0052079 -0.0057991 0.0221465
v 0.0053188 -0.0060471 0.0221837
v 0.0052376 -0.0059423 0.0221565
v 0.0053941 -0.0046536 0.0224442
v 0.0051665 -0.0049400 0.0224068
v 0.0052803 -0.0046920 0.0224255
v 0.0051970 -0.0047968 0.0224118
v 0.0053941 -0.0060855 0.0224442
v 0.0051665 -0.0057991 0.0224068
v 0.0052803 -0.0060471 0.0224255
v 0.0051970 -0.0059423 0.0224118
v 0.0053822 -0.0046536 0.0226715
v 0.0051527 -0.0049400 0.0226715
v 0.0052674 -0.0046920 0.0226715
v 0.0051834 -0.0047968 0.0226715
v 0.0053822 -0.0060855 0.0226715
v 0.0051527 -0.0057991 0.0226715
v 0.0052674 -0.0060471 0.0226715
v 0.0051834 -0.0059423 0.0226715
v 0.0053941 -0.0046536 0.0228988
v 0.0051665 -0.0049400 0.0229363
v 0.0052803 -0.0046920 0.0229176
v 0.0051970 -0.0047968 0.0229313
v 0.0053941 -0.0060855 0.0228988
v 0.0051665 -0.0057991 0.0229363
v 0.0052803 -0.0060471 0.0229176
v 0.0051970 -0.0059423 0.0229313
v 0.0054296 -0.0046536 0.0231223
v 0.0052079 -0.0049400 0.0231966
v 0.0053188 -0.0046920 0.0231594
v 0.0052376 -0.0047968 0.0231866
v 0.0054296 -0.0060855 0.0231223
v 0.0052079 -0.0057991 0.0231966
v 0.0053188 -0.0060471 0.0231594
v 0.0052376 -0.0059423 0.0231866
v 0.0054882 -0.0046536 0.0233380
v 0.0052761 -0.0049400 0.0234478
v 0.0053822 -0.0046920 0.0233929
v 0.0053046 -0.0047968 0.0234331
v 0.0054882 -0.0060855 0.0233380
v 0.0052761 -0.0057991 0.0234478
v 0.0053822 -0.0060471 0.0233929
v 0.0053046 -0.0059423 0.0234331
v 0.0055687 -0.0046536 0.0235423
v 0.0053700 -0.0049400 0.0236858
v 0.0054694 -0.0046920 0.0236140
v 0.0053966 -0.0047968 0.0236666
v 0.0055687 -0.0060855 0.0235423
v 0.0053700 -0.0057991 0.0236858
v 0.0054694 -0.0060471 0.0236140
v 0.0053966 -0.0059423 0.0236666
v 0.0056700 -0.0046536 0.0237317
v 0.0054879 -0.0049400 0.0239064
v 0.0055789 -0.0046920 0.0238191
v 0.0055123 -0.0047968 0.0238830
v 0.0056700 -0.0060855 0.0237317
v 0.0054879 -0.0057991 0.0239064
v 0.0055789 -0.0060471 0.0238191
v 0.0055123 -0.0059423 0.0238830
v 0.0057901 -0.0046536 0.0239030
v 0.0056278 -0.0049400 0.0241059
v 0.0057089 -0.0046920 0.0240044
v 0.0056495 -0.0047968 0.0240787
v 0.0057901 -0.0060855 0.0239030
v 0.0056278 -0.0057991 0.0241059
v 0.0057089 -0.0060471 0.0240044
v 0.0056495 -0.0059423 0.0240787
v 0.0059270 -0.0046536 0.0240532
v 0.0057873 -0.0049400 0.0242809
v 0.0058572 -0.0046920 0.0241670
v 0.0058060 -0.0047968 0.0242504
v 0.0059270 -0.0060855 0.0240532
v 0.0057873 -0.0057991 0.0242809
v 0.0058572 -0.0060471 0.0241670
v 0.0058060 -0.0059423 0.0242504
v 0.0060785 -0.0046536 0.0241797
v 0.0059637 -0.0049400 0.0244283
v 0.0060211 -0.0046920 0.0243040
v 0.0059791 -0.0047968 0.0243950
v 0.0060785 -0.0060855 0.0241797
v 0.0059637 -0.0057991 0.0244283
v 0.0060211 -0.0060471 0.0243040
v 0.0059791 -0.0059423 0.0243950
v 0.0062419 -0.0046536 0.0242805
v 0.0061540 -0.0049400 0.0245456
v 0.0061980 -0.0046920 0.0244131
v 0.0061658 -0.0047968 0.0245101
v 0.0062419 -0.0060855 0.0242805
v 0.0061540 -0.0057991 0.0245456
v 0.0061980 -0.0060471 0.0244131
v 0.0061658 -0.0059423 0.0245101
v 0.0064144 -0.0046536 0.0243537
v 0.0063550 -0.0049400 0.0246309
v 0.0063847 -0.0046920 0.0244923
v 0.0063629 -0.0047968 0.0245938
v 0.0064144 -0.0060855 0.0243537
v 0.0063550 -0.0057991 0.0246309
v 0.0063847 -0.0060471 0.0244923
v 0.0063629 -0.0059423 0.0245938
v 0.0065930 -0.0046536 0.0243981
v 0.0065631 -0.0049400 0.0246827
v 0.0065781 -0.0046920 0.0245404
v 0.0065671 -0.0047968 0.0246446
v 0.0065930 -0.0060855 0.0243981
v 0.0065631 -0.0057991 0.0246827
v 0.0065781 -0.0060471 0.0245404
v 0.0065671 -0.0059423 0.0246446
f 2 10 12
f 2 12 4
f 4 12 11
f 4 11 3
f 3 11 9
f 3 9 1
f 14 6 8
f 14 8 16
f 16 8 7
f 16 7 15
f 15 7 5
f 15 5 13
f 10 18 20
f 10 20 12
f 12 20 19
f 12 19 11
f 11 19 17
f 11 17 9
f 22 14 16
f 22 16 24
f 24 16 15
f 24 15 23
f 23 15 13
f 23 13 21
f 18 26 28
f 18 28 20
f 20 28 27
f 20 27 19
f 19 27 25
f 19 25 17
f 30 22 24
f 30 24 32
f 32 24 23
f 32 23 31
f 31 23 21
f 31 21 29
f 26 34 36
f 26 36 28
f 28 36 35
f 28 35 27
f 27 35 33
f 27 33 25
f 38 30 32
f 38 32 40
f 40 32 31
f 40 31 39
f 39 31 29
f 39 29 37
f 34 42 44
f 34 44 36
f 36 44 43
f 36 43 35
f 35 43 41
f 35 41 33
f 46 38 40
f 46 40 48
f 48 40 39
f 48 39 47
f 47 39 37
f 47 37 45
f 42 50 52
f 42 52 44
f 44 52 51
f 44 51 43
f 43 51 49
f 43 49 41
f 54 46 48
f 54 48 56
f 56 48 47
f 56 47 55
f 55 47 45
f 55 45 53
f 50 58 60
f 50 60 52
f 52 60 59
f 52 59 51
f 51 59 57
f 51 57 49
f 62 54 56
f 62 56 64
f 64 56 55
f 64 55 63
f 63 55 53
f 63 53 61
f 58 66 68
f 58 68 60
f 60 68 67
f 60 67 59
f 59 67 65
f 59 65 57
f 70 62 64
f 70 64 72
f 72 64 63
f 72 63 71
f 71 63 61
f 71 61 69
f 66 74 76
f 66 76 68
f 68 76 75
f 68 75 67
f 67 75 73
f 67 73 65
f 78 70 72
f 78 72 80
f 80 72 71
f 80 71 79
f 79 71 69
f 79 69 77
f 74 82 84
f 74 84 76
f 76 84 83
f 76 83 75
f 75 83 81
f 75 81 73
f 86 78 80
f 86 80 88
f 88 80 79
f 88 79 87
f 87 79 77
f 87 77 85
f 82 90 92
f 82 92 84
f 84 92 91
f 84 91 83
f 83 91 89
f 83 89 81
f 94 86 88
f 94 88 96
f 96 88 87
f 96 87 95
f 95 87 85
f 95 85 93
f 90 98 100
f 90 100 92
f 92 100 99
f 92 99 91
f 91 99 97
f 91 97 89
f 102 94 96
f 102 96 104
f 104 96 95
f 104 95 103
f 103 95 93
f 103 93 101
f 98 106 108
f 98 108 100
f 100 108 107
f 100 107 99
f 99 107 105
f 99 105 97
f 110 102 104
f 110 104 112
f 112 104 103
f 112 103 111
f 111 103 101
f 111 101 109
f 106 114 116
f 106 116 108
f 108 116 115
f 108 115 107
f 107 115 113
f 107 113 105
f 118 110 112
f 118 112 120
f 120 112 111
f 120 111 119
f 119 111 109
f 119 109 117
f 114 122 124
f 114 124 116
f 116 124 123
f 116 123 115
f 115 123 121
f 115 121 113
f 126 118 120
f 126 120 128
f 128 120 119
f 128 119 127
f 127 119 117
f 127 117 125
f 122 130 132
f 122 132 124
f 124 132 131
f 124 131 123
f 123 131 129
f 123 129 121
f 134 126 128
f 134 128 136
f 136 128 127
f 136 127 135
f 135 127 125
f 135 125 133
f 130 138 140
f 130 140 132
f 132 140 139
f 132 139 131
f 131 139 137
f 131 137 129
f 142 134 136
f 142 136 144
f 144 136 135
f 144 135 143
f 143 135 133
f 143 133 141
f 138 146 148
f 138 148 140
f 140 148 147
f 140 147 139
f 139 147 145
f 139 145 137
f 150 142 144
f 150 144 152
f 152 144 143
f 152 143 151
f 151 143 141
f 151 141 149
f 146 154 156
f 146 156 148
f 148 156 155
f 148 155 147
f 147 155 153
f 147 153 145
f 158 150 152
f 158 152 160
f 160 152 151
f 160 151 159
f 159 151 149
f 159 149 157
f 154 162 164
f 154 164 156
f 156 164 163
f 156 163 155
f 155 163 161
f 155 161 153
f 166 158 160
f 166 160 168
f 168 160 159
f 168 159 167
f 167 159 157
f 167 157 165
f 162 170 172
f 162 172 164
f 164 172 171
f 164 171 163
f 163 171 169
f 163 169 161
f 174 166 168
f 174 168 176
f 176 168 167
f 176 167 175
f 175 167 165
f 175 165 173
f 170 178 180
f 170 180 172
f 172 180 179
f 172 179 171
f 171 179 177
f 171 177 169
f 182 174 176
f 182 176 184
f 184 176 175
f 184 175 183
f 183 175 173
f 183 173 181
f 178 186 188
f 178 188 180
f 180 188 187
f 180 187 179
f 179 187 185
f 179 185 177
f 190 182 184
f 190 184 192
f 192 184 183
f 192 183 191
f 191 183 181
f 191 181 189
f 186 194 196
f 186 196 188
f 188 196 195
f 188 195 187
f 187 195 193
f 187 193 185
f 198 190 192
f 198 192 200
f 200 192 191
f 200 191 199
f 199 191 189
f 199 189 197
f 194 202 204
f 194 204 196
f 196 204 203
f 196 203 195
f 195 203 201
f 195 201 193
f 206 198 200
f 206 200 208
f 208 200 199
f 208 199 207
f 207 199 197
f 207 197 205
f 202 210 212
f 202 212 204
f 204 212 211
f 204 211 203
f 203 211 209
f 203 209 201
f 214 206 208
f 214 208 216
f 216 208 207
f 216 207 215
f 215 207 205
f 215 205 213
f 210 218 220
f 210 220 212
f 212 220 219
f 212 219 211
f 211 219 217
f 211 217 209
f 222 214 216
f 222 216 224
f 224 216 215
f 224 215 223
f 223 215 213
f 223 213 221
f 218 226 228
f 218 228 220
f 220 228 227
f 220 227 219
f 219 227 225
f 219 225 217
f 230 222 224
f 230 224 232
f 232 224 223
f 232 223 231
f 231 223 221
f 231 221 229
f 226 234 236
f 226 236 228
f 228 236 235
f 228 235 227
f 227 235 233
f 227 233 225
f 238 230 232
f 238 232 240
f 240 232 231
f 240 231 239
f 239 231 229
f 239 229 237
f 234 242 244
f 234 244 236
f 236 244 243
f 236 243 235
f 235 243 241
f 235 241 233
f 246 238 240
f 246 240 248
f 248 240 239
f 248 239 247
f 247 239 237
f 247 237 245
f 242 250 252
f 242 252 244
f 244 252 251
f 244 251 243
f 243 251 249
f 243 249 241
f 254 246 248
f 254 248 256
f 256 248 247
f 256 247 255
f 255 247 245
f 255 245 253
f 250 258 260
f 250 260 252
f 252 260 259
f 252 259 251
f 251 259 257
f 251 257 249
f 262 254 256
f 262 256 264
f 264 256 255
f 264 255 263
f 263 255 253
f 263 253 261
f 258 266 268
f 258 268 260
f 260 268 267
f 260 267 259
f 259 267 265
f 259 265 257
f 270 262 264
f 270 264 272
f 272 264 263
f 272 263 271
f 271 263 261
f 271 261 269
f 266 274 276
f 266 276 268
f 268 276 275
f 268 275 267
f 267 275 273
f 267 273 265
f 278 270 272
f 278 272 280
f 280 272 271
f 280 271 279
f 279 271 269
f 279 269 277
f 274 282 284
f 274 284 276
f 276 284 283
f 276 283 275
f 275 283 281
f 275 281 273
f 286 278 280
f 286 280 288
f 288 280 279
f 288 279 287
f 287 279 277
f 287 277 285
f 282 290 292
f 282 292 284
f 284 292 291
f 284 291 283
f 283 291 289
f 283 289 281
f 294 286 288
f 294 288 296
f 296 288 287
f 296 287 295
f 295 287 285
f 295 285 293
f 290 298 300
f 290 300 292
f 292 300 299
f 292 299 291
f 291 299 297
f 291 297 289
f 302 294 296
f 302 296 304
f 304 296 295
f 304 295 303
f 303 295 293
f 303 293 301
f 298 306 308
f 298 308 300
f 300 308 307
f 300 307 299
f 299 307 305
f 299 305 297
f 310 302 304
f 310 304 312
f 312 304 303
f 312 303 311
f 311 303 301
f 311 301 309
f 306 314 316
f 306 316 308
f 308 316 315
f 308 315 307
f 307 315 313
f 307 313 305
f 318 310 312
f 318 312 320
f 320 312 311
f 320 311 319
f 319 311 309
f 319 309 317
f 314 322 324
f 314 324 316
f 316 324 323
f 316 323 315
f 315 323 321
f 315 321 313
f 326 318 320
f 326 320 328
f 328 320 319
f 328 319 327
f 327 319 317
f 327 317 325
f 322 330 332
f 322 332 324
f 324 332 331
f 324 331 323
f 323 331 329
f 323 329 321
f 334 326 328
f 334 328 336
f 336 328 327
f 336 327 335
f 335 327 325
f 335 325 333
f 330 338 340
f 330 340 332
f 332 340 339
f 332 339 331
f 331 339 337
f 331 337 329
f 342 334 336
f 342 336 344
f 344 336 335
f 344 335 343
f 343 335 333
f 343 333 341
f 338 346 348
f 338 348 340
f 340 348 347
f 340 347 339
f 339 347 345
f 339 345 337
f 350 342 344
f 350 344 352
f 352 344 343
f 352 343 351
f 351 343 341
f 351 341 349
f 346 354 356
f 346 356 348
f 348 356 355
f 348 355 347
f 347 355 353
f 347 353 345
f 358 350 352
f 358 352 360
f 360 352 351
f 360 351 359
f 359 351 349
f 359 349 357
f 354 362 364
f 354 364 356
f 356 364 363
f 356 363 355
f 355 363 361
f 355 361 353
f 366 358 360
f 366 360 368
f 368 360 359
f 368 359 367
f 367 359 357
f 367 357 365
f 362 370 372
f 362 372 364
f 364 372 371
f 364 371 363
f 363 371 369
f 363 369 361
f 374 366 368
f 374 368 376
f 376 368 367
f 376 367 375
f 375 367 365
f 375 365 373
f 370 378 380
f 370 380 372
f 372 380 379
f 372 379 371
f 371 379 377
f 371 377 369
f 382 374 376
f 382 376 384
f 384 376 375
f 384 375 383
f 383 375 373
f 383 373 381
f 378 2 4
f 378 4 380
f 380 4 3
f 380 3 379
f 379 3 1
f 379 1 377
f 6 382 384
f 6 384 8
f 8 384 383
f 8 383 7
f 7 383 381
f 7 381 5
f 377 1 9
f 9 17 25
f 25 33 41
f 41 49 57
f 57 65 73
f 73 81 89
f 89 97 105
f 105 113 121
f 121 129 137
f 137 145 153
f 153 161 169
f 169 177 185
f 185 193 201
f 201 209 217
f 217 225 233
f 233 241 249
f 249 257 265
f 265 273 281
f 281 289 297
f 297 305 313
f 313 321 329
f 329 337 345
f 345 353 361
f 361 369 377
f 377 9 25
f 25 41 57
f 57 73 89
f 89 105 121
f 121 137 153
f 153 169 185
f 185 201 217
f 217 233 249
f 249 265 281
f 281 297 313
f 313 329 345
f 345 361 377
f 377 25 57
f 57 89 121
f 121 153 185
f 185 217 249
f 249 281 313
f 313 345 377
f 377 57 121
f 121 185 249
f 249 313 377
f 121 249 377
f 2 6 14
f 2 14 10
f 378 382 6
f 378 6 2
f 21 13 5
f 5 381 373
f 373 365 357
f 357 349 341
f 341 333 325
f 325 317 309
f 309 301 293
f 293 285 277
f 277 269 261
f 261 253 245
f 245 237 229
f 229 221 213
f 213 205 197
f 197 189 181
f 181 173 165
f 165 157 149
f 149 141 133
f 133 125 117
f 117 109 101
f 101 93 85
f 85 77 69
f 69 61 53
f 53 45 37
f 37 29 21
f 21 5 373
f 373 357 341
f 341 325 309
f 309 293 277
f 277 261 245
f 245 229 213
f 213 197 181
f 181 165 149
f 149 133 117
f 117 101 85
f 85 69 53
f 53 37 21
f 21 373 341
f 341 309 277
f 277 245 213
f 213 181 149
f 149 117 85
f 85 53 21
f 21 341 277
f 277 213 149
f 149 85 21
f 277 149 21
f 10 14 22
f 10 22 18
f 18 22 30
f 18 30 26
f 26 30 38
f 26 38 34
f 34 38 46
f 34 46 42
f 42 46 54
f 42 54 50
f 50 54 62
f 50 62 58
f 58 62 70
f 58 70 66
f 66 70 78
f 66 78 74
f 74 78 86
f 74 86 82
f 82 86 94
f 82 94 90
f 90 94 102
f 90 102 98
f 98 102 110
f 98 110 106
f 106 110 118
f 106 118 114
f 114 118 126
f 114 126 122
f 122 126 134
f 122 134 130
f 130 134 142
f 130 142 138
f 138 142 150
f 138 150 146
f 146 150 158
f 146 158 154
f 154 158 166
f 154 166 162
f 162 166 174
f 162 174 170
f 170 174 182
f 170 182 178
f 178 182 190
f 178 190 186
f 186 190 198
f 186 198 194
f 194 198 206
f 194 206 202
f 202 206 214
f 202 214 210
f 210 214 222
f 210 222 218
f 218 222 230
f 218 230 226
f 226 230 238
f 226 238 234
f 234 238 246
f 234 246 242
f 242 246 254
f 242 254 250
f 250 254 262
f 250 262 258
f 258 262 270
f 258 270 266
f 266 270 278
f 266 278 274
f 274 278 286
f 274 286 282
f 282 286 294
f 282 294 290
f 290 294 302
f 290 302 298
f 298 302 310
f 298 310 306
f 306 310 318
f 306 318 314
f 314 318 326
f 314 326 322
f 322 326 334
f 322 334 330
f 330 334 342
f 330 342 338
f 338 342 350
f 338 350 346
f 346 350 358
f 346 358 354
f 354 358 366
f 354 366 362
f 362 366 374
f 362 374 370
f 370 374 382
f 370 382 378
f 386 394 396
f 386 396 388
f 388 396 395
f 388 395 387
f 387 395 393
f 387 393 385
f 398 390 392
f 398 392 400
f 400 392 391
f 400 391 399
f 399 391 389
f 399 389 397
f 394 402 404
f 394 404 396
f 396 404 403
f 396 403 395
f 395 403 401
f 395 401 393
f 406 398 400
f 406 400 408
f 408 400 399
f 408 399 407
f 407 399 397
f 407 397 405
f 402 410 412
f 402 412 404
f 404 412 411
f 404 411 403
f 403 411 409
f 403 409 401
f 414 406 408
f 414 408 416
f 416 408 407
f 416 407 415
f 415 407 405
f 415 405 413
f 410 418 420
f 410 420 412
f 412 420 419
f 412 419 411
f 411 419 417
f 411 417 409
f 422 414 416
f 422 416 424
f 424 416 415
f 424 415 423
f 423 415 413
f 423 413 421
f 418 426 428
f 418 428 420
f 420 428 427
f 420 427 419
f 419 427 425
f 419 425 417
f 430 422 424
f 430 424 432
f 432 424 423
f 432 423 431
f 431 423 421
f 431 421 429
f 426 434 436
f 426 436 428
f 428 436 435
f 428 435 427
f 427 435 433
f 427 433 425
f 438 430 432
f 438 432 440
f 440 432 431
f 440 431 439
f 439 431 429
f 439 429 437
f 434 442 444
f 434 444 436
f 436 444 443
f 436 443 435
f 435 443 441
f 435 441 433
f 446 438 440
f 446 440 448
f 448 440 439
f 448 439 447
f 447 439 437
f 447 437 445
f 442 450 452
f 442 452 444
f 444 452 451
f 444 451 443
f 443 451 449
f 443 449 441
f 454 446 448
f 454 448 456
f 456 448 447
f 456 447 455
f 455 447 445
f 455 445 453
f 450 458 460
f 450 460 452
f 452 460 459
f 452 459 451
f 451 459 457
f 451 457 449
f 462 454 456
f 462 456 464
f 464 456 455
f 464 455 463
f 463 455 453
f 463 453 461
f 458 466 468
f 458 468 460
f 460 468 467
f 460 467 459
f 459 467 465
f 459 465 457
f 470 462 464
f 470 464 472
f 472 464 463
f 472 463 471
f 471 463 461
f 471 461 469
f 466 474 476
f 466 476 468
f 468 476 475
f 468 475 467
f 467 475 473
f 467 473 465
f 478 470 472
f 478 472 480
f 480 472 471
f 480 471 479
f 479 471 469
f 479 469 477
f 474 482 484
f 474 484 476
f 476 484 483
f 476 483 475
f 475 483 481
f 475 481 473
f 486 478 480
f 486 480 488
f 488 480 479
f 488 479 487
f 487 479 477
f 487 477 485
f 482 490 492
f 482 492 484
f 484 492 491
f 484 491 483
f 483 491 489
f 483 489 481
f 494 486 488
f 494 488 496
f 496 488 487
f 496 487 495
f 495 487 485
f 495 485 493
f 490 498 500
f 490 500 492
f 492 500 499
f 492 499 491
f 491 499 497
f 491 497 489
f 502 494 496
f 502 496 504
f 504 496 495
f 504 495 503
f 503 495 493
f 503 493 501
f 498 506 508
f 498 508 500
f 500 508 507
f 500 507 499
f 499 507 505
f 499 505 497
f 510 502 504
f 510 504 512
f 512 504 503
f 512 503 511
f 511 503 501
f 511 501 509
f 506 514 516
f 506 516 508
f 508 516 515
f 508 515 507
f 507 515 513
f 507 513 505
f 518 510 512
f 518 512 520
f 520 512 511
f 520 511 519
f 519 511 509
f 519 509 517
f 514 522 524
f 514 524 516
f 516 524 523
f 516 523 515
f 515 523 521
f 515 521 513
f 526 518 520
f 526 520 528
f 528 520 519
f 528 519 527
f 527 519 517
f 527 517 525
f 522 530 532
f 522 532 524
f 524 532 531
f 524 531 523
f 523 531 529
f 523 529 521
f 534 526 528
f 534 528 536
f 536 528 527
f 536 527 535
f 535 527 525
f 535 525 533
f 530 538 540
f 530 540 532
f 532 540 539
f 532 539 531
f 531 539 537
f 531 537 529
f 542 534 536
f 542 536 544
f 544 536 535
f 544 535 543
f 543 535 533
f 543 533 541
f 538 546 548
f 538 548 540
f 540 548 547
f 540 547 539
f 539 547 545
f 539 545 537
f 550 542 544
f 550 544 552
f 552 544 543
f 552 543 551
f 551 543 541
f 551 541 549
f 546 554 556
f 546 556 548
f 548 556 555
f 548 555 547
f 547 555 553
f 547 553 545
f 558 550 552
f 558 552 560
f 560 552 551
f 560 551 559
f 559 551 549
f 559 549 557
f 554 562 564
f 554 564 556
f 556 564 563
f 556 563 555
f 555 563 561
f 555 561 553
f 566 558 560
f 566 560 568
f 568 560 559
f 568 559 567
f 567 559 557
f 567 557 565
f 562 570 572
f 562 572 564
f 564 572 571
f 564 571 563
f 563 571 569
f 563 569 561
f 574 566 568
f 574 568 576
f 576 568 567
f 576 567 575
f 575 567 565
f 575 565 573
f 570 578 580
f 570 580 572
f 572 580 579
f 572 579 571
f 571 579 577
f 571 577 569
f 582 574 576
f 582 576 584
f 584 576 575
f 584 575 583
f 583 575 573
f 583 573 581
f 578 586 588
f 578 588 580
f 580 588 587
f 580 587 579
f 579 587 585
f 579 585 577
f 590 582 584
f 590 584 592
f 592 584 583
f 592 583 591
f 591 583 581
f 591 581 589
f 586 594 596
f 586 596 588
f 588 596 595
f 588 595 587
f 587 595 593
f 587 593 585
f 598 590 592
f 598 592 600
f 600 592 591
f 600 591 599
f 599 591 589
f 599 589 597
f 594 602 604
f 594 604 596
f 596 604 603
f 596 603 595
f 595 603 601
f 595 601 593
f 606 598 600
f 606 600 608
f 608 600 599
f 608 599 607
f 607 599 597
f 607 597 605
f 602 610 612
f 602 612 604
f 604 612 611
f 604 611 603
f 603 611 609
f 603 609 601
f 614 606 608
f 614 608 616
f 616 608 607
f 616 607 615
f 615 607 605
f 615 605 613
f 610 618 620
f 610 620 612
f 612 620 619
f 612 619 611
f 611 619 617
f 611 617 609
f 622 614 616
f 622 616 624
f 624 616 615
f 624 615 623
f 623 615 613
f 623 613 621
f 618 626 628
f 618 628 620
f 620 628 627
f 620 627 619
f 619 627 625
f 619 625 617
f 630 622 624
f 630 624 632
f 632 624 623
f 632 623 631
f 631 623 621
f 631 621 629
f 626 634 636
f 626 636 628
f 628 636 635
f 628 635 627
f 627 635 633
f 627 633 625
f 638 630 632
f 638 632 640
f 640 632 631
f 640 631 639
f 639 631 629
f 639 629 637
f 634 642 644
f 634 644 636
f 636 644 643
f 636 643 635
f 635 643 641
f 635 641 633
f 646 638 640
f 646 640 648
f 648 640 639
f 648 639 647
f 647 639 637
f 647 637 645
f 642 650 652
f 642 652 644
f 644 652 651
f 644 651 643
f 643 651 649
f 643 649 641
f 654 646 648
f 654 648 656
f 656 648 647
f 656 647 655
f 655 647 645
f 655 645 653
f 650 658 660
f 650 660 652
f 652 660 659
f 652 659 651
f 651 659 657
f 651 657 649
f 662 654 656
f 662 656 664
f 664 656 655
f 664 655 663
f 663 655 653
f 663 653 661
f 658 666 668
f 658 668 660
f 660 668 667
f 660 667 659
f 659 667 665
f 659 665 657
f 670 662 664
f 670 664 672
f 672 664 663
f 672 663 671
f 671 663 661
f 671 661 669
f 666 674 676
f 666 676 668
f 668 676 675
f 668 675 667
f 667 675 673
f 667 673 665
f 678 670 672
f 678 672 680
f 680 672 671
f 680 671 679
f 679 671 669
f 679 669 677
f 674 682 684
f 674 684 676
f 676 684 683
f 676 683 675
f 675 683 681
f 675 681 673
f 686 678 680
f 686 680 688
f 688 680 679
f 688 679 687
f 687 679 677
f 687 677 685
f 682 690 692
f 682 692 684
f 684 692 691
f 684 691 683
f 683 691 689
f 683 689 681
f 694 686 688
f 694 688 696
f 696 688 687
f 696 687 695
f 695 687 685
f 695 685 693
f 690 698 700
f 690 700 692
f 692 700 699
f 692 699 691
f 691 699 697
f 691 697 689
f 702 694 696
f 702 696 704
f 704 696 695
f 704 695 703
f 703 695 693
f 703 693 701
f 698 706 708
f 698 708 700
f 700 708 707
f 700 707 699
f 699 707 705
f 699 705 697
f 710 702 704
f 710 704 712
f 712 704 703
f 712 703 711
f 711 703 701
f 711 701 709
f 706 714 716
f 706 716 708
f 708 716 715
f 708 715 707
f 707 715 713
f 707 713 705
f 718 710 712
f 718 712 720
f 720 712 711
f 720 711 719
f 719 711 709
f 719 709 717
f 714 722 724
f 714 724 716
f 716 724 723
f 716 723 715
f 715 723 721
f 715 721 713
f 726 718 720
f 726 720 728
f 728 720 719
f 728 719 727
f 727 719 717
f 727 717 725
f 722 730 732
f 722 732 724
f 724 732 731
f 724 731 723
f 723 731 729
f 723 729 721
f 734 726 728
f 734 728 736
f 736 728 727
f 736 727 735
f 735 727 725
f 735 725 733
f 730 738 740
f 730 740 732
f 732 740 739
f 732 739 731
f 731 739 737
f 731 737 729
f 742 734 736
f 742 736 744
f 744 736 735
f 744 735 743
f 743 735 733
f 743 733 741
f 738 746 748
f 738 748 740
f 740 748 747
f 740 747 739
f 739 747 745
f 739 745 737
f 750 742 744
f 750 744 752
f 752 744 743
f 752 743 751
f 751 743 741
f 751 741 749
f 746 754 756
f 746 756 748
f 748 756 755
f 748 755 747
f 747 755 753
f 747 753 745
f 758 750 752
f 758 752 760
f 760 752 751
f 760 751 759
f 759 751 749
f 759 749 757
f 754 762 764
f 754 764 756
f 756 764 763
f 756 763 755
f 755 763 761
f 755 761 753
f 766 758 760
f 766 760 768
f 768 760 759
f 768 759 767
f 767 759 757
f 767 757 765
f 762 386 388
f 762 388 764
f 764 388 387
f 764 387 763
f 763 387 385
f 763 385 761
f 390 766 768
f 390 768 392
f 392 768 767
f 392 767 391
f 391 767 765
f 391 765 389
f 761 385 393
f 393 401 409
f 409 417 425
f 425 433 441
f 441 449 457
f 457 465 473
f 473 481 489
f 489 497 505
f 505 513 521
f 521 529 537
f 537 545 553
f 553 561 569
f 569 577 585
f 585 593 601
f 601 609 617
f 617 625 633
f 633 641 649
f 649 657 665
f 665 673 681
f 681 689 697
f 697 705 713
f 713 721 729
f 729 737 745
f 745 753 761
f 761 393 409
f 409 425 441
f 441 457 473
f 473 489 505
f 505 521 537
f 537 553 569
f 569 585 601
f 601 617 633
f 633 649 665
f 665 681 697
f 697 713 729
f 729 745 761
f 761 409 441
f 441 473 505
f 505 537 569
f 569 601 633
f 633 665 697
f 697 729 761
f 761 441 505
f 505 569 633
f 633 697 761
f 505 633 761
f 386 390 398
f 386 398 394
f 762 766 390
f 762 390 386
f 405 397 389
f 389 765 757
f 757 749 741
f 741 733 725
f 725 717 709
f 709 701 693
f 693 685 677
f 677 669 661
f 661 653 645
f 645 637 629
f 629 621 613
f 613 605 597
f 597 589 581
f 581 573 565
f 565 557 549
f 549 541 533
f 533 525 517
f 517 509 501
f 501 493 485
f 485 477 469
f 469 461 453
f 453 445 437
f 437 429 421
f 421 413 405
f 405 389 757
f 757 741 725
f 725 709 693
f 693 677 661
f 661 645 629
f 629 613 597
f 597 581 565
f 565 549 533
f 533 517 501
f 501 485 469
f 469 453 437
f 437 421 405
f 405 757 725
f 725 693 661
f 661 629 597
f 597 565 533
f 533 501 469
f 469 437 405
f 405 725 661
f 661 597 533
f 533 469 405
f 661 533 405
f 394 398 406
f 394 406 402
f 402 406 414
f 402 414 410
f 410 414 422
f 410 422 418
f 418 422 430
f 418 430 426
f 426 430 438
f 426 438 434
f 434 438 446
f 434 446 442
f 442 446 454
f 442 454 450
f 450 454 462
f 450 462 458
f 458 462 470
f 458 470 466
f 466 470 478
f 466 478 474
f 474 478 486
f 474 486 482
f 482 486 494
f 482 494 490
f 490 494 502
f 490 502 498
f 498 502 510
f 498 510 506
f 506 510 518
f 506 518 514
f 514 518 526
f 514 526 522
f 522 526 534
f 522 534 530
f 530 534 542
f 530 542 538
f 538 542 550
f 538 550 546
f 546 550 558
f 546 558 554
f 554 558 566
f 554 566 562
f 562 566 574
f 562 574 570
f 570 574 582
f 570 582 578
f 578 582 590
f 578 590 586
f 586 590 598
f 586 598 594
f 594 598 606
f 594 606 602
f 602 606 614
f 602 614 610
f 610 614 622
f 610 622 618
f 618 622 630
f 618 630 626
f 626 630 638
f 626 638 634
f 634 638 646
f 634 646 642
f 642 646 654
f 642 654 650
f 650 654 662
f 650 662 658
f 658 662 670
f 658 670 666
f 666 670 678
f 666 678 674
f 674 678 686
f 674 686 682
f 682 686 694
f 682 694 690
f 690 694 702
f 690 702 698
f 698 702 710
f 698 710 706
f 706 710 718
f 706 718 714
f 714 718 726
f 714 726 722
f 722 726 734
f 722 734 730
f 730 734 742
f 730 742 738
f 738 742 750
f 738 750 746
f 746 750 758
f 746 758 754
f 754 758 766
f 754 766 762
