# Zoomer visual mesh, local link coordinates in metres
v 0.0222328 0.0000000 0.0025058
v 0.0220324 0.0000000 0.0032773
v 0.0215076 0.0000000 0.0037541
v 0.0208589 0.0000000 0.0037541
v 0.0203340 0.0000000 0.0032773
v 0.0201336 0.0000000 0.0025058
v 0.0203340 0.0000000 0.0017343
v 0.0208589 0.0000000 0.0012575
v 0.0215076 0.0000000 0.0012575
v 0.0220324 0.0000000 0.0017343
v 0.0220426 0.0036289 0.0025058
v 0.0218439 0.0035962 0.0032773
v 0.0213236 0.0035106 0.0037541
v 0.0206804 0.0034047 0.0037541
v 0.0201601 0.0033190 0.0032773
v 0.0199613 0.0032863 0.0025058
v 0.0201601 0.0033190 0.0017343
v 0.0206804 0.0034047 0.0012575
v 0.0213236 0.0035106 0.0012575
v 0.0218439 0.0035962 0.0017343
v 0.0214753 0.0071958 0.0025058
v 0.0212816 0.0071309 0.0032773
v 0.0207747 0.0069611 0.0037541
v 0.0201481 0.0067511 0.0037541
v 0.0196412 0.0065813 0.0032773
v 0.0194476 0.0065164 0.0025058
v 0.0196412 0.0065813 0.0017343
v 0.0201481 0.0067511 0.0012575
v 0.0207747 0.0069611 0.0012575
v 0.0212816 0.0071309 0.0017343
v 0.0205405 0.0106395 0.0025058
v 0.0203553 0.0105436 0.0032773
v 0.0198704 0.0102925 0.0037541
v 0.0192711 0.0099820 0.0037541
v 0.0187862 0.0097309 0.0032773
v 0.0186010 0.0096349 0.0025058
v 0.0187862 0.0097309 0.0017343
v 0.0192711 0.0099820 0.0012575
v 0.0198704 0.0102925 0.0012575
v 0.0203553 0.0105436 0.0017343
v 0.0192542 0.0139012 0.0025058
v 0.0190806 0.0137759 0.0032773
v 0.0186261 0.0134478 0.0037541
v 0.0180643 0.0130421 0.0037541
v 0.0176098 0.0127140 0.0032773
v 0.0174362 0.0125887 0.0025058
v 0.0176098 0.0127140 0.0017343
v 0.0180643 0.0130421 0.0012575
v 0.0186261 0.0134478 0.0012575
v 0.0190806 0.0137759 0.0017343
v 0.0176385 0.0169251 0.0025058
v 0.0174795 0.0167725 0.0032773
v 0.0170631 0.0163729 0.0037541
v 0.0165484 0.0158791 0.0037541
v 0.0161321 0.0154796 0.0032773
v 0.0159731 0.0153270 0.0025058
v 0.0161321 0.0154796 0.0017343
v 0.0165484 0.0158791 0.0012575
v 0.0170631 0.0163729 0.0012575
v 0.0174795 0.0167725 0.0017343
v 0.0157210 0.0196593 0.0025058
v 0.0155792 0.0194820 0.0032773
v 0.0152081 0.0190180 0.0037541
v 0.0147494 0.0184444 0.0037541
v 0.0143783 0.0179803 0.0032773
v 0.0142366 0.0178031 0.0025058
v 0.0143783 0.0179803 0.0017343
v 0.0147494 0.0184444 0.0012575
v 0.0152081 0.0190180 0.0012575
v 0.0155792 0.0194820 0.0017343
v 0.0135345 0.0220572 0.0025058
v 0.0134125 0.0218583 0.0032773
v 0.0130930 0.0213376 0.0037541
v 0.0126981 0.0206941 0.0037541
v 0.0123786 0.0201734 0.0032773
v 0.0122566 0.0199745 0.0025058
v 0.0123786 0.0201734 0.0017343
v 0.0126981 0.0206941 0.0012575
v 0.0130930 0.0213376 0.0012575
v 0.0134125 0.0218583 0.0017343
v 0.0111164 0.0240776 0.0025058
v 0.0110162 0.0238605 0.0032773
v 0.0107538 0.0232922 0.0037541
v 0.0104294 0.0225897 0.0037541
v 0.0101670 0.0220213 0.0032773
v 0.0100668 0.0218042 0.0025058
v 0.0101670 0.0220213 0.0017343
v 0.0104294 0.0225897 0.0012575
v 0.0107538 0.0232922 0.0012575
v 0.0110162 0.0238605 0.0017343
v 0.0085081 0.0256861 0.0025058
v 0.0084314 0.0254545 0.0032773
v 0.0082306 0.0248482 0.0037541
v 0.0079823 0.0240987 0.0037541
v 0.0077815 0.0234924 0.0032773
v 0.0077048 0.0232608 0.0025058
v 0.0077815 0.0234924 0.0017343
v 0.0079823 0.0240987 0.0012575
v 0.0082306 0.0248482 0.0012575
v 0.0084314 0.0254545 0.0017343
v 0.0057543 0.0268551 0.0025058
v 0.0057024 0.0266130 0.0032773
v 0.0055666 0.0259791 0.0037541
v 0.0053987 0.0251955 0.0037541
v 0.0052628 0.0245616 0.0032773
v 0.0052110 0.0243194 0.0025058
v 0.0052628 0.0245616 0.0017343
v 0.0053987 0.0251955 0.0012575
v 0.0055666 0.0259791 0.0012575
v 0.0057024 0.0266130 0.0017343
v 0.0029020 0.0275646 0.0025058
v 0.0028758 0.0273161 0.0032773
v 0.0028073 0.0266654 0.0037541
v 0.0027226 0.0258611 0.0037541
v 0.0026541 0.0252105 0.0032773
v 0.0026280 0.0249619 0.0025058
v 0.0026541 0.0252105 0.0017343
v 0.0027226 0.0258611 0.0012575
v 0.0028073 0.0266654 0.0012575
v 0.0028758 0.0273161 0.0017343
v 0.0000000 0.0278025 0.0025058
v 0.0000000 0.0275518 0.0032773
v 0.0000000 0.0268955 0.0037541
v 0.0000000 0.0260843 0.0037541
v 0.0000000 0.0254280 0.0032773
v 0.0000000 0.0251773 0.0025058
v 0.0000000 0.0254280 0.0017343
v 0.0000000 0.0260843 0.0012575
v 0.0000000 0.0268955 0.0012575
v 0.0000000 0.0275518 0.0017343
v -0.0029020 0.0275646 0.0025058
v -0.0028758 0.0273161 0.0032773
v -0.0028073 0.0266654 0.0037541
v -0.0027226 0.0258611 0.0037541
v -0.0026541 0.0252105 0.0032773
v -0.0026280 0.0249619 0.0025058
v -0.0026541 0.0252105 0.0017343
v -0.0027226 0.0258611 0.0012575
v -0.0028073 0.0266654 0.0012575
v -0.0028758 0.0273161 0.0017343
v -0.0057543 0.0268551 0.0025058
v -0.0057024 0.0266130 0.0032773
v -0.0055666 0.0259791 0.0037541
v -0.0053987 0.0251955 0.0037541
v -0.0052628 0.0245616 0.0032773
v -0.0052110 0.0243194 0.0025058
v -0.0052628 0.0245616 0.0017343
v -0.0053987 0.0251955 0.0012575
v -0.0055666 0.0259791 0.0012575
v -0.0057024 0.0266130 0.0017343
v -0.0085081 0.0256861 0.0025058
v -0.0084314 0.0254545 0.0032773
v -0.0082306 0.0248482 0.0037541
v -0.0079823 0.0240987 0.0037541
v -0.0077815 0.0234924 0.0032773
v -0.0077048 0.0232608 0.0025058
v -0.0077815 0.0234924 0.0017343
v -0.0079823 0.0240987 0.0012575
v -0.0082306 0.0248482 0.0012575
v -0.0084314 0.0254545 0.0017343
v -0.0111164 0.0240776 0.0025058
v -0.0110162 0.0238605 0.0032773
v -0.0107538 0.0232922 0.0037541
v -0.0104294 0.0225897 0.0037541
v -0.0101670 0.0220213 0.0032773
v -0.0100668 0.0218042 0.0025058
v -0.0101670 0.0220213 0.0017343
v -0.0104294 0.0225897 0.0012575
v -0.0107538 0.0232922 0.0012575
v -0.0110162 0.0238605 0.0017343
v -0.0135345 0.0220572 0.0025058
v -0.0134125 0.0218583 0.0032773
v -0.0130930 0.0213376 0.0037541
v -0.0126981 0.0206941 0.0037541
v -0.0123786 0.0201734 0.0032773
v -0.0122566 0.0199745 0.0025058
v -0.0123786 0.0201734 0.0017343
v -0.0126981 0.0206941 0.0012575
v -0.0130930 0.0213376 0.0012575
v -0.0134125 0.0218583 0.0017343
v -0.0157210 0.0196593 0.0025058
v -0.0155792 0.0194820 0.0032773
v -0.0152081 0.0190180 0.0037541
v -0.0147494 0.0184444 0.0037541
v -0.0143783 0.0179803 0.0032773
v -0.0142366 0.0178031 0.0025058
v -0.0143783 0.0179803 0.0017343
v -0.0147494 0.0184444 0.0012575
v -0.0152081 0.0190180 0.0012575
v -0.0155792 0.0194820 0.0017343
v -0.0176385 0.0169251 0.0025058
v -0.0174794 0.0167725 0.0032773
v -0.0170631 0.0163729 0.0037541
v -0.0165484 0.0158791 0.0037541
v -0.0161321 0.0154796 0.0032773
v -0.0159730 0.0153270 0.0025058
v -0.0161321 0.0154796 0.0017343
v -0.0165484 0.0158791 0.0012575
v -0.0170631 0.0163729 0.0012575
v -0.0174794 0.0167725 0.0017343
v -0.0192542 0.0139012 0.0025058
v -0.0190806 0.0137759 0.0032773
v -0.0186261 0.0134478 0.0037541
v -0.0180643 0.0130422 0.0037541
v -0.0176098 0.0127140 0.0032773
v -0.0174362 0.0125887 0.0025058
v -0.0176098 0.0127140 0.0017343
v -0.0180643 0.0130422 0.0012575
v -0.0186261 0.0134478 0.0012575
v -0.0190806 0.0137759 0.0017343
v -0.0205405 0.0106395 0.0025058
v -0.0203553 0.0105436 0.0032773
v -0.0198704 0.0102925 0.0037541
v -0.0192711 0.0099820 0.0037541
v -0.0187862 0.0097309 0.0032773
v -0.0186010 0.0096349 0.0025058
v -0.0187862 0.0097309 0.0017343
v -0.0192711 0.0099820 0.0012575
v -0.0198704 0.0102925 0.0012575
v -0.0203553 0.0105436 0.0017343
v -0.0214753 0.0071958 0.0025058
v -0.0212816 0.0071309 0.0032773
v -0.0207747 0.0069611 0.0037541
v -0.0201481 0.0067511 0.0037541
v -0.0196412 0.0065812 0.0032773
v -0.0194476 0.0065164 0.0025058
v -0.0196412 0.0065812 0.0017343
v -0.0201481 0.0067511 0.0012575
v -0.0207747 0.0069611 0.0012575
v -0.0212816 0.0071309 0.0017343
v -0.0220426 0.0036290 0.0025058
v -0.0218439 0.0035962 0.0032773
v -0.0213236 0.0035106 0.0037541
v -0.0206804 0.0034047 0.0037541
v -0.0201601 0.0033190 0.0032773
v -0.0199613 0.0032863 0.0025058
v -0.0201601 0.0033190 0.0017343
v -0.0206804 0.0034047 0.0012575
v -0.0213236 0.0035106 0.0012575
v -0.0218439 0.0035962 0.0017343
v -0.0222328 0.0000000 0.0025058
v -0.0220324 0.0000000 0.0032773
v -0.0215076 0.0000000 0.0037541
v -0.0208589 0.0000000 0.0037541
v -0.0203340 0.0000000 0.0032773
v -0.0201336 0.0000000 0.0025058
v -0.0203340 0.0000000 0.0017343
v -0.0208589 0.0000000 0.0012575
v -0.0215076 0.0000000 0.0012575
v -0.0220324 0.0000000 0.0017343
v -0.0220426 -0.0036290 0.0025058
v -0.0218439 -0.0035962 0.0032773
v -0.0213236 -0.0035106 0.0037541
v -0.0206804 -0.0034047 0.0037541
v -0.0201601 -0.0033190 0.0032773
v -0.0199613 -0.0032863 0.0025058
v -0.0201601 -0.0033190 0.0017343
v -0.0206804 -0.0034047 0.0012575
v -0.0213236 -0.0035106 0.0012575
v -0.0218439 -0.0035962 0.0017343
v -0.0214753 -0.0071958 0.0025058
v -0.0212816 -0.0071309 0.0032773
v -0.0207747 -0.0069611 0.0037541
v -0.0201481 -0.0067511 0.0037541
v -0.0196412 -0.0065812 0.0032773
v -0.0194476 -0.0065164 0.0025058
v -0.0196412 -0.0065812 0.0017343
v -0.0201481 -0.0067511 0.0012575
v -0.0207747 -0.0069611 0.0012575
v -0.0212816 -0.0071309 0.0017343
v -0.0205405 -0.0106395 0.0025058
v -0.0203553 -0.0105436 0.0032773
v -0.0198704 -0.0102925 0.0037541
v -0.0192711 -0.0099820 0.0037541
v -0.0187862 -0.0097309 0.0032773
v -0.0186010 -0.0096349 0.0025058
v -0.0187862 -0.0097309 0.0017343
v -0.0192711 -0.0099820 0.0012575
v -0.0198704 -0.0102925 0.0012575
v -0.0203553 -0.0105436 0.0017343
v -0.0192542 -0.0139012 0.0025058
v -0.0190806 -0.0137759 0.0032773
v -0.0186261 -0.0134477 0.0037541
v -0.0180643 -0.0130421 0.0037541
v -0.0176098 -0.0127140 0.0032773
v -0.0174362 -0.0125887 0.0025058
v -0.0176098 -0.0127140 0.0017343
v -0.0180643 -0.0130421 0.0012575
v -0.0186261 -0.0134477 0.0012575
v -0.0190806 -0.0137759 0.0017343
v -0.0176385 -0.0169251 0.0025058
v -0.0174794 -0.0167725 0.0032773
v -0.0170631 -0.0163729 0.0037541
v -0.0165484 -0.0158791 0.0037541
v -0.0161321 -0.0154796 0.0032773
v -0.0159730 -0.0153270 0.0025058
v -0.0161321 -0.0154796 0.0017343
v -0.0165484 -0.0158791 0.0012575
v -0.0170631 -0.0163729 0.0012575
v -0.0174794 -0.0167725 0.0017343
v -0.0157210 -0.0196593 0.0025058
v -0.0155792 -0.0194820 0.0032773
v -0.0152081 -0.0190180 0.0037541
v -0.0147494 -0.0184444 0.0037541
v -0.0143783 -0.0179803 0.0032773
v -0.0142366 -0.0178031 0.0025058
v -0.0143783 -0.0179803 0.0017343
v -0.0147494 -0.0184444 0.0012575
v -0.0152081 -0.0190180 0.0012575
v -0.0155792 -0.0194820 0.0017343
v -0.0135345 -0.0220572 0.0025058
v -0.0134125 -0.0218583 0.0032773
v -0.0130930 -0.0213376 0.0037541
v -0.0126981 -0.0206940 0.0037541
v -0.0123786 -0.0201734 0.0032773
v -0.0122566 -0.0199745 0.0025058
v -0.0123786 -0.0201734 0.0017343
v -0.0126981 -0.0206940 0.0012575
v -0.0130930 -0.0213376 0.0012575
v -0.0134125 -0.0218583 0.0017343
v -0.0111164 -0.0240776 0.0025058
v -0.0110162 -0.0238605 0.0032773
v -0.0107538 -0.0232922 0.0037541
v -0.0104294 -0.0225897 0.0037541
v -0.0101670 -0.0220213 0.0032773
v -0.0100668 -0.0218042 0.0025058
v -0.0101670 -0.0220213 0.0017343
v -0.0104294 -0.0225897 0.0012575
v -0.0107538 -0.0232922 0.0012575
v -0.0110162 -0.0238605 0.0017343
v -0.0085081 -0.0256861 0.0025058
v -0.0084314 -0.0254545 0.0032773
v -0.0082306 -0.0248482 0.0037541
v -0.0079823 -0.0240987 0.0037541
v -0.0077815 -0.0234924 0.0032773
v -0.0077048 -0.0232608 0.0025058
v -0.0077815 -0.0234924 0.0017343
v -0.0079823 -0.0240987 0.0012575
v -0.0082306 -0.0248482 0.0012575
v -0.0084314 -0.0254545 0.0017343
v -0.0057543 -0.0268551 0.0025058
v -0.0057024 -0.0266130 0.0032773
v -0.0055666 -0.0259791 0.0037541
v -0.0053987 -0.0251955 0.0037541
v -0.0052628 -0.0245616 0.0032773
v -0.0052110 -0.0243194 0.0025058
v -0.0052628 -0.0245616 0.0017343
v -0.0053987 -0.0251955 0.0012575
v -0.0055666 -0.0259791 0.0012575
v -0.0057024 -0.0266130 0.0017343
v -0.0029020 -0.0275646 0.0025058
v -0.0028758 -0.0273161 0.0032773
v -0.0028073 -0.0266654 0.0037541
v -0.0027226 -0.0258611 0.0037541
v -0.0026541 -0.0252105 0.0032773
v -0.0026280 -0.0249619 0.0025058
v -0.0026541 -0.0252105 0.0017343
v -0.0027226 -0.0258611 0.0012575
v -0.0028073 -0.0266654 0.0012575
v -0.0028758 -0.0273161 0.0017343
v 0.0000000 -0.0278025 0.0025058
v 0.0000000 -0.0275518 0.0032773
v 0.0000000 -0.0268955 0.0037541
v 0.0000000 -0.0260843 0.0037541
v 0.0000000 -0.0254280 0.0032773
v 0.0000000 -0.0251773 0.0025058
v 0.0000000 -0.0254280 0.0017343
v 0.0000000 -0.0260843 0.0012575
v 0.0000000 -0.0268955 0.0012575
v 0.0000000 -0.0275518 0.0017343
v 0.0029020 -0.0275646 0.0025058
v 0.0028758 -0.0273161 0.0032773
v 0.0028073 -0.0266654 0.0037541
v 0.0027226 -0.0258611 0.0037541
v 0.0026541 -0.0252105 0.0032773
v 0.0026280 -0.0249619 0.0025058
v 0.0026541 -0.0252105 0.0017343
v 0.0027226 -0.0258611 0.0012575
v 0.0028073 -0.0266654 0.0012575
v 0.0028758 -0.0273161 0.0017343
v 0.0057543 -0.0268551 0.0025058
v 0.0057024 -0.0266130 0.0032773
v 0.0055666 -0.0259791 0.0037541
v 0.0053987 -0.0251955 0.0037541
v 0.0052628 -0.0245616 0.0032773
v 0.0052109 -0.0243194 0.0025058
v 0.0052628 -0.0245616 0.0017343
v 0.0053987 -0.0251955 0.0012575
v 0.0055666 -0.0259791 0.0012575
v 0.0057024 -0.0266130 0.0017343
v 0.0085081 -0.0256861 0.0025058
v 0.0084314 -0.0254545 0.0032773
v 0.0082306 -0.0248482 0.0037541
v 0.0079823 -0.0240987 0.0037541
v 0.0077815 -0.0234924 0.0032773
v 0.0077048 -0.0232608 0.0025058
v 0.0077815 -0.0234924 0.0017343
v 0.0079823 -0.0240987 0.0012575
v 0.0082306 -0.0248482 0.0012575
v 0.0084314 -0.0254545 0.0017343
v 0.0111164 -0.0240776 0.0025058
v 0.0110162 -0.0238605 0.0032773
v 0.0107538 -0.0232922 0.0037541
v 0.0104294 -0.0225897 0.0037541
v 0.0101670 -0.0220213 0.0032773
v 0.0100668 -0.0218042 0.0025058
v 0.0101670 -0.0220213 0.0017343
v 0.0104294 -0.0225897 0.0012575
v 0.0107538 -0.0232922 0.0012575
v 0.0110162 -0.0238605 0.0017343
v 0.0135345 -0.0220572 0.0025058
v 0.0134124 -0.0218583 0.0032773
v 0.0130930 -0.0213376 0.0037541
v 0.0126981 -0.0206941 0.0037541
v 0.0123786 -0.0201734 0.0032773
v 0.0122565 -0.0199745 0.0025058
v 0.0123786 -0.0201734 0.0017343
v 0.0126981 -0.0206941 0.0012575
v 0.0130930 -0.0213376 0.0012575
v 0.0134124 -0.0218583 0.0017343
v 0.0157210 -0.0196593 0.0025058
v 0.0155792 -0.0194821 0.0032773
v 0.0152081 -0.0190180 0.0037541
v 0.0147494 -0.0184444 0.0037541
v 0.0143783 -0.0179803 0.0032773
v 0.0142366 -0.0178031 0.0025058
v 0.0143783 -0.0179803 0.0017343
v 0.0147494 -0.0184444 0.0012575
v 0.0152081 -0.0190180 0.0012575
v 0.0155792 -0.0194821 0.0017343
v 0.0176385 -0.0169251 0.0025058
v 0.0174795 -0.0167725 0.0032773
v 0.0170631 -0.0163729 0.0037541
v 0.0165484 -0.0158791 0.0037541
v 0.0161321 -0.0154796 0.0032773
v 0.0159731 -0.0153270 0.0025058
v 0.0161321 -0.0154796 0.0017343
v 0.0165484 -0.0158791 0.0012575
v 0.0170631 -0.0163729 0.0012575
v 0.0174795 -0.0167725 0.0017343
v 0.0192542 -0.0139012 0.0025058
v 0.0190806 -0.0137759 0.0032773
v 0.0186261 -0.0134478 0.0037541
v 0.0180643 -0.0130421 0.0037541
v 0.0176098 -0.0127140 0.0032773
v 0.0174362 -0.0125887 0.0025058
v 0.0176098 -0.0127140 0.0017343
v 0.0180643 -0.0130421 0.0012575
v 0.0186261 -0.0134478 0.0012575
v 0.0190806 -0.0137759 0.0017343
v 0.0205404 -0.0106395 0.0025058
v 0.0203552 -0.0105436 0.0032773
v 0.0198704 -0.0102925 0.0037541
v 0.0192711 -0.0099820 0.0037541
v 0.0187862 -0.0097309 0.0032773
v 0.0186010 -0.0096350 0.0025058
v 0.0187862 -0.0097309 0.0017343
v 0.0192711 -0.0099820 0.0012575
v 0.0198704 -0.0102925 0.0012575
v 0.0203552 -0.0105436 0.0017343
v 0.0214753 -0.0071958 0.0025058
v 0.0212816 -0.0071309 0.0032773
v 0.0207747 -0.0069611 0.0037541
v 0.0201481 -0.0067511 0.0037541
v 0.0196412 -0.0065812 0.0032773
v 0.0194476 -0.0065164 0.0025058
v 0.0196412 -0.0065812 0.0017343
v 0.0201481 -0.0067511 0.0012575
v 0.0207747 -0.0069611 0.0012575
v 0.0212816 -0.0071309 0.0017343
v 0.0220426 -0.0036289 0.0025058
v 0.0218439 -0.0035962 0.0032773
v 0.0213236 -0.0035106 0.0037541
v 0.0206804 -0.0034047 0.0037541
v 0.0201601 -0.0033190 0.0032773
v 0.0199613 -0.0032863 0.0025058
v 0.0201601 -0.0033190 0.0017343
v 0.0206804 -0.0034047 0.0012575
v 0.0213236 -0.0035106 0.0012575
v 0.0218439 -0.0035962 0.0017343
v -0.0067748 -0.0002688 0.0168939
v -0.0067748 -0.0000974 0.0171886
v -0.0067748 -0.0001600 0.0169570
v -0.0067748 -0.0000972 0.0170649
v -0.0067748 -0.0015813 0.0216669
v -0.0067748 -0.0012835 0.0215013
v -0.0067748 -0.0014556 0.0216683
v -0.0067748 -0.0013465 0.0216077
v -0.0065571 -0.0003210 0.0168796
v -0.0064827 -0.0001675 0.0171693
v -0.0065199 -0.0002211 0.0169402
v -0.0064927 -0.0001649 0.0170462
v -0.0065571 -0.0016335 0.0216525
v -0.0064827 -0.0013535 0.0214820
v -0.0065199 -0.0015167 0.0216515
v -0.0064927 -0.0014142 0.0215891
v -0.0063726 -0.0004697 0.0168387
v -0.0062350 -0.0003670 0.0171144
v -0.0063038 -0.0003952 0.0168923
v -0.0062535 -0.0003576 0.0169933
v -0.0063726 -0.0017822 0.0216117
v -0.0062350 -0.0015530 0.0214272
v -0.0063038 -0.0016908 0.0216036
v -0.0062535 -0.0016069 0.0215361
v -0.0062493 -0.0006921 0.0167775
v -0.0060696 -0.0006656 0.0170323
v -0.0061594 -0.0006557 0.0168207
v -0.0060936 -0.0006460 0.0169139
v -0.0062493 -0.0020047 0.0215505
v -0.0060696 -0.0018516 0.0213451
v -0.0061594 -0.0019513 0.0215320
v -0.0060936 -0.0018953 0.0214568
v -0.0062060 -0.0009546 0.0167053
v -0.0060115 -0.0010179 0.0169354
v -0.0061087 -0.0009631 0.0167362
v -0.0060375 -0.0009862 0.0168204
v -0.0062060 -0.0022672 0.0214783
v -0.0060115 -0.0022039 0.0212482
v -0.0061087 -0.0022587 0.0214475
v -0.0060375 -0.0022355 0.0213632
v -0.0062493 -0.0012170 0.0166332
v -0.0060696 -0.0013701 0.0168386
v -0.0061594 -0.0012704 0.0166516
v -0.0060936 -0.0013264 0.0167268
v -0.0062493 -0.0025296 0.0214061
v -0.0060696 -0.0025561 0.0211513
v -0.0061594 -0.0025660 0.0213629
v -0.0060936 -0.0025757 0.0212697
v -0.0063726 -0.0014395 0.0165720
v -0.0062350 -0.0016687 0.0167565
v -0.0063038 -0.0015310 0.0165800
v -0.0062535 -0.0016148 0.0166475
v -0.0063726 -0.0027521 0.0213449
v -0.0062350 -0.0028547 0.0210692
v -0.0063038 -0.0028266 0.0212913
v -0.0062535 -0.0028641 0.0211904
v -0.0065571 -0.0015882 0.0165311
v -0.0064827 -0.0018682 0.0167016
v -0.0065199 -0.0017050 0.0165321
v -0.0064927 -0.0018075 0.0165945
v -0.0065571 -0.0029008 0.0213041
v -0.0064827 -0.0030542 0.0210143
v -0.0065199 -0.0030007 0.0212434
v -0.0064927 -0.0030568 0.0211374
v -0.0067748 -0.0016404 0.0165167
v -0.0067748 -0.0019383 0.0166823
v -0.0067748 -0.0017662 0.0165153
v -0.0067748 -0.0018752 0.0165759
v -0.0067748 -0.0029530 0.0212897
v -0.0067748 -0.0031243 0.0209951
v -0.0067748 -0.0030618 0.0212266
v -0.0067748 -0.0031245 0.0211188
v -0.0069925 -0.0015882 0.0165311
v -0.0070669 -0.0018682 0.0167016
v -0.0070297 -0.0017050 0.0165321
v -0.0070570 -0.0018075 0.0165945
v -0.0069925 -0.0029008 0.0213041
v -0.0070669 -0.0030542 0.0210143
v -0.0070297 -0.0030007 0.0212434
v -0.0070570 -0.0030568 0.0211374
v -0.0071770 -0.0014395 0.0165720
v -0.0073146 -0.0016687 0.0167565
v -0.0072458 -0.0015310 0.0165800
v -0.0072962 -0.0016148 0.0166475
v -0.0071770 -0.0027521 0.0213449
v -0.0073146 -0.0028547 0.0210692
v -0.0072458 -0.0028266 0.0212913
v -0.0072962 -0.0028641 0.0211904
v -0.0073003 -0.0012170 0.0166332
v -0.0074801 -0.0013701 0.0168386
v -0.0073902 -0.0012704 0.0166516
v -0.0074560 -0.0013264 0.0167268
v -0.0073003 -0.0025296 0.0214061
v -0.0074801 -0.0025561 0.0211513
v -0.0073902 -0.0025660 0.0213629
v -0.0074560 -0.0025757 0.0212697
v -0.0073436 -0.0009546 0.0167053
v -0.0075382 -0.0010179 0.0169354
v -0.0074409 -0.0009631 0.0167362
v -0.0075121 -0.0009862 0.0168204
v -0.0073436 -0.0022672 0.0214783
v -0.0075382 -0.0022039 0.0212482
v -0.0074409 -0.0022587 0.0214475
v -0.0075121 -0.0022355 0.0213632
v -0.0073003 -0.0006921 0.0167775
v -0.0074801 -0.0006656 0.0170323
v -0.0073902 -0.0006557 0.0168207
v -0.0074560 -0.0006460 0.0169139
v -0.0073003 -0.0020047 0.0215505
v -0.0074801 -0.0018516 0.0213451
v -0.0073902 -0.0019513 0.0215320
v -0.0074560 -0.0018953 0.0214568
v -0.0071770 -0.0004697 0.0168387
v -0.0073146 -0.0003670 0.0171144
v -0.0072458 -0.0003952 0.0168923
v -0.0072962 -0.0003576 0.0169933
v -0.0071770 -0.0017822 0.0216117
v -0.0073146 -0.0015530 0.0214272
v -0.0072458 -0.0016908 0.0216036
v -0.0072962 -0.0016069 0.0215361
v -0.0069925 -0.0003210 0.0168796
v -0.0070669 -0.0001675 0.0171693
v -0.0070297 -0.0002211 0.0169402
v -0.0070570 -0.0001649 0.0170462
v -0.0069925 -0.0016335 0.0216525
v -0.0070669 -0.0013535 0.0214820
v -0.0070297 -0.0015167 0.0216515
v -0.0070570 -0.0014142 0.0215891
v 0.0067748 -0.0002688 0.0168939
v 0.0067748 -0.0000974 0.0171886
v 0.0067748 -0.0001600 0.0169570
v 0.0067748 -0.0000972 0.0170649
v 0.0067748 -0.0015813 0.0216669
v 0.0067748 -0.0012835 0.0215013
v 0.0067748 -0.0014556 0.0216683
v 0.0067748 -0.0013465 0.0216077
v 0.0069925 -0.0003210 0.0168796
v 0.0070669 -0.0001675 0.0171693
v 0.0070297 -0.0002211 0.0169402
v 0.0070570 -0.0001649 0.0170462
v 0.0069925 -0.0016335 0.0216525
v 0.0070669 -0.0013535 0.0214820
v 0.0070297 -0.0015167 0.0216515
v 0.0070570 -0.0014142 0.0215891
v 0.0071770 -0.0004697 0.0168387
v 0.0073146 -0.0003670 0.0171144
v 0.0072458 -0.0003952 0.0168923
v 0.0072962 -0.0003576 0.0169933
v 0.0071770 -0.0017822 0.0216117
v 0.0073146 -0.0015530 0.0214272
v 0.0072458 -0.0016908 0.0216036
v 0.0072962 -0.0016069 0.0215361
v 0.0073003 -0.0006921 0.0167775
v 0.0074801 -0.0006656 0.0170323
v 0.0073902 -0.0006557 0.0168207
v 0.0074560 -0.0006460 0.0169139
v 0.0073003 -0.0020047 0.0215505
v 0.0074801 -0.0018516 0.0213451
v 0.0073902 -0.0019513 0.0215320
v 0.0074560 -0.0018953 0.0214568
v 0.0073436 -0.0009546 0.0167053
v 0.0075382 -0.0010179 0.0169354
v 0.0074409 -0.0009631 0.0167362
v 0.0075121 -0.0009862 0.0168204
v 0.0073436 -0.0022672 0.0214783
v 0.0075382 -0.0022039 0.0212482
v 0.0074409 -0.0022587 0.0214475
v 0.0075121 -0.0022355 0.0213632
v 0.0073003 -0.0012170 0.0166332
v 0.0074801 -0.0013701 0.0168386
v 0.0073902 -0.0012704 0.0166516
v 0.0074560 -0.0013264 0.0167268
v 0.0073003 -0.0025296 0.0214061
v 0.0074801 -0.0025561 0.0211513
v 0.0073902 -0.0025660 0.0213629
v 0.0074560 -0.0025757 0.0212697
v 0.0071770 -0.0014395 0.0165720
v 0.0073146 -0.0016687 0.0167565
v 0.0072458 -0.0015310 0.0165800
v 0.0072962 -0.0016148 0.0166475
v 0.0071770 -0.0027521 0.0213449
v 0.0073146 -0.0028547 0.0210692
v 0.0072458 -0.0028266 0.0212913
v 0.0072962 -0.0028641 0.0211904
v 0.0069925 -0.0015882 0.0165311
v 0.0070669 -0.0018682 0.0167016
v 0.0070297 -0.0017050 0.0165321
v 0.0070570 -0.0018075 0.0165945
v 0.0069925 -0.0029008 0.0213041
v 0.0070669 -0.0030542 0.0210143
v 0.0070297 -0.0030007 0.0212434
v 0.0070570 -0.0030568 0.0211374
v 0.0067748 -0.0016404 0.0165167
v 0.0067748 -0.0019383 0.0166823
v 0.0067748 -0.0017662 0.0165153
v 0.0067748 -0.0018752 0.0165759
v 0.0067748 -0.0029530 0.0212897
v 0.0067748 -0.0031243 0.0209951
v 0.0067748 -0.0030618 0.0212266
v 0.0067748 -0.0031245 0.0211188
v 0.0065571 -0.0015882 0.0165311
v 0.0064827 -0.0018682 0.0167016
v 0.0065199 -0.0017050 0.0165321
v 0.0064927 -0.0018075 0.0165945
v 0.0065571 -0.0029008 0.0213041
v 0.0064827 -0.0030542 0.0210143
v 0.0065199 -0.0030007 0.0212434
v 0.0064927 -0.0030568 0.0211374
v 0.0063726 -0.0014395 0.0165720
v 0.0062350 -0.0016687 0.0167565
v 0.0063038 -0.0015310 0.0165800
v 0.0062535 -0.0016148 0.0166475
v 0.0063726 -0.0027521 0.0213449
v 0.0062350 -0.0028547 0.0210692
v 0.0063038 -0.0028266 0.0212913
v 0.0062535 -0.0028641 0.0211904
v 0.0062493 -0.0012170 0.0166332
v 0.0060696 -0.0013701 0.0168386
v 0.0061594 -0.0012704 0.0166516
v 0.0060936 -0.0013264 0.0167268
v 0.0062493 -0.0025296 0.0214061
v 0.0060696 -0.0025561 0.0211513
v 0.0061594 -0.0025660 0.0213629
v 0.0060936 -0.0025757 0.0212697
v 0.0062060 -0.0009546 0.0167053
v 0.0060115 -0.0010179 0.0169354
v 0.0061087 -0.0009631 0.0167362
v 0.0060375 -0.0009862 0.0168204
v 0.0062060 -0.0022672 0.0214783
v 0.0060115 -0.0022039 0.0212482
v 0.0061087 -0.0022587 0.0214475
v 0.0060375 -0.0022355 0.0213632
v 0.0062493 -0.0006921 0.0167775
v 0.0060696 -0.0006656 0.0170323
v 0.0061594 -0.0006557 0.0168207
v 0.0060936 -0.0006460 0.0169139
v 0.0062493 -0.0020047 0.0215505
v 0.0060696 -0.0018516 0.0213451
v 0.0061594 -0.0019513 0.0215320
v 0.0060936 -0.0018953 0.0214568
v 0.0063726 -0.0004697 0.0168387
v 0.0062350 -0.0003670 0.0171144
v 0.0063038 -0.0003952 0.0168923
v 0.0062535 -0.0003576 0.0169933
v 0.0063726 -0.0017822 0.0216117
v 0.0062350 -0.0015530 0.0214272
v 0.0063038 -0.0016908 0.0216036
v 0.0062535 -0.0016069 0.0215361
v 0.0065571 -0.0003210 0.0168796
v 0.0064827 -0.0001675 0.0171693
v 0.0065199 -0.0002211 0.0169402
v 0.0064927 -0.0001649 0.0170462
v 0.0065571 -0.0016335 0.0216525
v 0.0064827 -0.0013535 0.0214820
v 0.0065199 -0.0015167 0.0216515
v 0.0064927 -0.0014142 0.0215891
v -0.0013836 -0.0100829 0.0070401
v -0.0013836 -0.0104408 0.0073981
v -0.0016698 -0.0100829 0.0073981
v -0.0013836 -0.0102616 0.0070879
v -0.0015265 -0.0100829 0.0070879
v -0.0015205 -0.0102540 0.0071344
v -0.0015265 -0.0103930 0.0073981
v -0.0013836 -0.0103930 0.0072193
v -0.0015205 -0.0103466 0.0072269
v -0.0016316 -0.0100829 0.0072193
v -0.0016316 -0.0102616 0.0073981
v -0.0015945 -0.0102540 0.0072269
v -0.0013836 -0.0104408 0.0090686
v -0.0013836 -0.0100829 0.0094266
v -0.0016698 -0.0100829 0.0090686
v -0.0013836 -0.0103930 0.0092474
v -0.0015265 -0.0103930 0.0090686
v -0.0015205 -0.0103466 0.0092398
v -0.0015265 -0.0100829 0.0093788
v -0.0013836 -0.0102616 0.0093788
v -0.0015205 -0.0102540 0.0093323
v -0.0016316 -0.0102616 0.0090686
v -0.0016316 -0.0100829 0.0092474
v -0.0015945 -0.0102540 0.0092398
v -0.0013836 -0.0092476 0.0070401
v -0.0016698 -0.0092476 0.0073981
v -0.0013836 -0.0088896 0.0073981
v -0.0015265 -0.0092476 0.0070879
v -0.0013836 -0.0090688 0.0070879
v -0.0015205 -0.0090764 0.0071344
v -0.0016316 -0.0090688 0.0073981
v -0.0016316 -0.0092476 0.0072193
v -0.0015945 -0.0090764 0.0072269
v -0.0013836 -0.0089374 0.0072193
v -0.0015265 -0.0089374 0.0073981
v -0.0015205 -0.0089839 0.0072269
v -0.0013836 -0.0092476 0.0094266
v -0.0013836 -0.0088896 0.0090686
v -0.0016698 -0.0092476 0.0090686
v -0.0013836 -0.0090688 0.0093788
v -0.0015265 -0.0092476 0.0093788
v -0.0015205 -0.0090764 0.0093323
v -0.0015265 -0.0089374 0.0090686
v -0.0013836 -0.0089374 0.0092474
v -0.0015205 -0.0089839 0.0092398
v -0.0016316 -0.0092476 0.0092474
v -0.0016316 -0.0090688 0.0090686
v -0.0015945 -0.0090764 0.0092398
v 0.0013836 -0.0100829 0.0070401
v 0.0016698 -0.0100829 0.0073981
v 0.0013836 -0.0104408 0.0073981
v 0.0015265 -0.0100829 0.0070879
v 0.0013836 -0.0102616 0.0070879
v 0.0015205 -0.0102540 0.0071344
v 0.0016316 -0.0102616 0.0073981
v 0.0016316 -0.0100829 0.0072193
v 0.0015945 -0.0102540 0.0072269
v 0.0013836 -0.0103930 0.0072193
v 0.0015265 -0.0103930 0.0073981
v 0.0015205 -0.0103466 0.0072269
v 0.0013836 -0.0100829 0.0094266
v 0.0013836 -0.0104408 0.0090686
v 0.0016698 -0.0100829 0.0090686
v 0.0013836 -0.0102616 0.0093788
v 0.0015265 -0.0100829 0.0093788
v 0.0015205 -0.0102540 0.0093323
v 0.0015265 -0.0103930 0.0090686
v 0.0013836 -0.0103930 0.0092474
v 0.0015205 -0.0103466 0.0092398
v 0.0016316 -0.0100829 0.0092474
v 0.0016316 -0.0102616 0.0090686
v 0.0015945 -0.0102540 0.0092398
v 0.0013836 -0.0092476 0.0070401
v 0.0013836 -0.0088896 0.0073981
v 0.0016698 -0.0092476 0.0073981
v 0.0013836 -0.0090688 0.0070879
v 0.0015265 -0.0092476 0.0070879
v 0.0015205 -0.0090764 0.0071344
v 0.0015265 -0.0089374 0.0073981
v 0.0013836 -0.0089374 0.0072193
v 0.0015205 -0.0089839 0.0072269
v 0.0016316 -0.0092476 0.0072193
v 0.0016316 -0.0090688 0.0073981
v 0.0015945 -0.0090764 0.0072269
v 0.0013836 -0.0092476 0.0094266
v 0.0016698 -0.0092476 0.0090686
v 0.0013836 -0.0088896 0.0090686
v 0.0015265 -0.0092476 0.0093788
v 0.0013836 -0.0090688 0.0093788
v 0.0015205 -0.0090764 0.0093323
v 0.0016316 -0.0090688 0.0090686
v 0.0016316 -0.0092476 0.0092474
v 0.0015945 -0.0090764 0.0092398
v 0.0013836 -0.0089374 0.0092474
v 0.0015265 -0.0089374 0.0090686
v 0.0015205 -0.0089839 0.0092398
f 1 11 12
f 1 12 2
f 2 12 13
f 2 13 3
f 3 13 14
f 3 14 4
f 4 14 15
f 4 15 5
f 5 15 16
f 5 16 6
f 6 16 17
f 6 17 7
f 7 17 18
f 7 18 8
f 8 18 19
f 8 19 9
f 9 19 20
f 9 20 10
f 10 20 11
f 10 11 1
f 11 21 22
f 11 22 12
f 12 22 23
f 12 23 13
f 13 23 24
f 13 24 14
f 14 24 25
f 14 25 15
f 15 25 26
f 15 26 16
f 16 26 27
f 16 27 17
f 17 27 28
f 17 28 18
f 18 28 29
f 18 29 19
f 19 29 30
f 19 30 20
f 20 30 21
f 20 21 11
f 21 31 32
f 21 32 22
f 22 32 33
f 22 33 23
f 23 33 34
f 23 34 24
f 24 34 35
f 24 35 25
f 25 35 36
f 25 36 26
f 26 36 37
f 26 37 27
f 27 37 38
f 27 38 28
f 28 38 39
f 28 39 29
f 29 39 40
f 29 40 30
f 30 40 31
f 30 31 21
f 31 41 42
f 31 42 32
f 32 42 43
f 32 43 33
f 33 43 44
f 33 44 34
f 34 44 45
f 34 45 35
f 35 45 46
f 35 46 36
f 36 46 47
f 36 47 37
f 37 47 48
f 37 48 38
f 38 48 49
f 38 49 39
f 39 49 50
f 39 50 40
f 40 50 41
f 40 41 31
f 41 51 52
f 41 52 42
f 42 52 53
f 42 53 43
f 43 53 54
f 43 54 44
f 44 54 55
f 44 55 45
f 45 55 56
f 45 56 46
f 46 56 57
f 46 57 47
f 47 57 58
f 47 58 48
f 48 58 59
f 48 59 49
f 49 59 60
f 49 60 50
f 50 60 51
f 50 51 41
f 51 61 62
f 51 62 52
f 52 62 63
f 52 63 53
f 53 63 64
f 53 64 54
f 54 64 65
f 54 65 55
f 55 65 66
f 55 66 56
f 56 66 67
f 56 67 57
f 57 67 68
f 57 68 58
f 58 68 69
f 58 69 59
f 59 69 70
f 59 70 60
f 60 70 61
f 60 61 51
f 61 71 72
f 61 72 62
f 62 72 73
f 62 73 63
f 63 73 74
f 63 74 64
f 64 74 75
f 64 75 65
f 65 75 76
f 65 76 66
f 66 76 77
f 66 77 67
f 67 77 78
f 67 78 68
f 68 78 79
f 68 79 69
f 69 79 80
f 69 80 70
f 70 80 71
f 70 71 61
f 71 81 82
f 71 82 72
f 72 82 83
f 72 83 73
f 73 83 84
f 73 84 74
f 74 84 85
f 74 85 75
f 75 85 86
f 75 86 76
f 76 86 87
f 76 87 77
f 77 87 88
f 77 88 78
f 78 88 89
f 78 89 79
f 79 89 90
f 79 90 80
f 80 90 81
f 80 81 71
f 81 91 92
f 81 92 82
f 82 92 93
f 82 93 83
f 83 93 94
f 83 94 84
f 84 94 95
f 84 95 85
f 85 95 96
f 85 96 86
f 86 96 97
f 86 97 87
f 87 97 98
f 87 98 88
f 88 98 99
f 88 99 89
f 89 99 100
f 89 100 90
f 90 100 91
f 90 91 81
f 91 101 102
f 91 102 92
f 92 102 103
f 92 103 93
f 93 103 104
f 93 104 94
f 94 104 105
f 94 105 95
f 95 105 106
f 95 106 96
f 96 106 107
f 96 107 97
f 97 107 108
f 97 108 98
f 98 108 109
f 98 109 99
f 99 109 110
f 99 110 100
f 100 110 101
f 100 101 91
f 101 111 112
f 101 112 102
f 102 112 113
f 102 113 103
f 103 113 114
f 103 114 104
f 104 114 115
f 104 115 105
f 105 115 116
f 105 116 106
f 106 116 117
f 106 117 107
f 107 117 118
f 107 118 108
f 108 118 119
f 108 119 109
f 109 119 120
f 109 120 110
f 110 120 111
f 110 111 101
f 111 121 122
f 111 122 112
f 112 122 123
f 112 123 113
f 113 123 124
f 113 124 114
f 114 124 125
f 114 125 115
f 115 125 126
f 115 126 116
f 116 126 127
f 116 127 117
f 117 127 128
f 117 128 118
f 118 128 129
f 118 129 119
f 119 129 130
f 119 130 120
f 120 130 121
f 120 121 111
f 121 131 132
f 121 132 122
f 122 132 133
f 122 133 123
f 123 133 134
f 123 134 124
f 124 134 135
f 124 135 125
f 125 135 136
f 125 136 126
f 126 136 137
f 126 137 127
f 127 137 138
f 127 138 128
f 128 138 139
f 128 139 129
f 129 139 140
f 129 140 130
f 130 140 131
f 130 131 121
f 131 141 142
f 131 142 132
f 132 142 143
f 132 143 133
f 133 143 144
f 133 144 134
f 134 144 145
f 134 145 135
f 135 145 146
f 135 146 136
f 136 146 147
f 136 147 137
f 137 147 148
f 137 148 138
f 138 148 149
f 138 149 139
f 139 149 150
f 139 150 140
f 140 150 141
f 140 141 131
f 141 151 152
f 141 152 142
f 142 152 153
f 142 153 143
f 143 153 154
f 143 154 144
f 144 154 155
f 144 155 145
f 145 155 156
f 145 156 146
f 146 156 157
f 146 157 147
f 147 157 158
f 147 158 148
f 148 158 159
f 148 159 149
f 149 159 160
f 149 160 150
f 150 160 151
f 150 151 141
f 151 161 162
f 151 162 152
f 152 162 163
f 152 163 153
f 153 163 164
f 153 164 154
f 154 164 165
f 154 165 155
f 155 165 166
f 155 166 156
f 156 166 167
f 156 167 157
f 157 167 168
f 157 168 158
f 158 168 169
f 158 169 159
f 159 169 170
f 159 170 160
f 160 170 161
f 160 161 151
f 161 171 172
f 161 172 162
f 162 172 173
f 162 173 163
f 163 173 174
f 163 174 164
f 164 174 175
f 164 175 165
f 165 175 176
f 165 176 166
f 166 176 177
f 166 177 167
f 167 177 178
f 167 178 168
f 168 178 179
f 168 179 169
f 169 179 180
f 169 180 170
f 170 180 171
f 170 171 161
f 171 181 182
f 171 182 172
f 172 182 183
f 172 183 173
f 173 183 184
f 173 184 174
f 174 184 185
f 174 185 175
f 175 185 186
f 175 186 176
f 176 186 187
f 176 187 177
f 177 187 188
f 177 188 178
f 178 188 189
f 178 189 179
f 179 189 190
f 179 190 180
f 180 190 181
f 180 181 171
f 181 191 192
f 181 192 182
f 182 192 193
f 182 193 183
f 183 193 194
f 183 194 184
f 184 194 195
f 184 195 185
f 185 195 196
f 185 196 186
f 186 196 197
f 186 197 187
f 187 197 198
f 187 198 188
f 188 198 199
f 188 199 189
f 189 199 200
f 189 200 190
f 190 200 191
f 190 191 181
f 191 201 202
f 191 202 192
f 192 202 203
f 192 203 193
f 193 203 204
f 193 204 194
f 194 204 205
f 194 205 195
f 195 205 206
f 195 206 196
f 196 206 207
f 196 207 197
f 197 207 208
f 197 208 198
f 198 208 209
f 198 209 199
f 199 209 210
f 199 210 200
f 200 210 201
f 200 201 191
f 201 211 212
f 201 212 202
f 202 212 213
f 202 213 203
f 203 213 214
f 203 214 204
f 204 214 215
f 204 215 205
f 205 215 216
f 205 216 206
f 206 216 217
f 206 217 207
f 207 217 218
f 207 218 208
f 208 218 219
f 208 219 209
f 209 219 220
f 209 220 210
f 210 220 211
f 210 211 201
f 211 221 222
f 211 222 212
f 212 222 223
f 212 223 213
f 213 223 224
f 213 224 214
f 214 224 225
f 214 225 215
f 215 225 226
f 215 226 216
f 216 226 227
f 216 227 217
f 217 227 228
f 217 228 218
f 218 228 229
f 218 229 219
f 219 229 230
f 219 230 220
f 220 230 221
f 220 221 211
f 221 231 232
f 221 232 222
f 222 232 233
f 222 233 223
f 223 233 234
f 223 234 224
f 224 234 235
f 224 235 225
f 225 235 236
f 225 236 226
f 226 236 237
f 226 237 227
f 227 237 238
f 227 238 228
f 228 238 239
f 228 239 229
f 229 239 240
f 229 240 230
f 230 240 231
f 230 231 221
f 231 241 242
f 231 242 232
f 232 242 243
f 232 243 233
f 233 243 244
f 233 244 234
f 234 244 245
f 234 245 235
f 235 245 246
f 235 246 236
f 236 246 247
f 236 247 237
f 237 247 248
f 237 248 238
f 238 248 249
f 238 249 239
f 239 249 250
f 239 250 240
f 240 250 241
f 240 241 231
f 241 251 252
f 241 252 242
f 242 252 253
f 242 253 243
f 243 253 254
f 243 254 244
f 244 254 255
f 244 255 245
f 245 255 256
f 245 256 246
f 246 256 257
f 246 257 247
f 247 257 258
f 247 258 248
f 248 258 259
f 248 259 249
f 249 259 260
f 249 260 250
f 250 260 251
f 250 251 241
f 251 261 262
f 251 262 252
f 252 262 263
f 252 263 253
f 253 263 264
f 253 264 254
f 254 264 265
f 254 265 255
f 255 265 266
f 255 266 256
f 256 266 267
f 256 267 257
f 257 267 268
f 257 268 258
f 258 268 269
f 258 269 259
f 259 269 270
f 259 270 260
f 260 270 261
f 260 261 251
f 261 271 272
f 261 272 262
f 262 272 273
f 262 273 263
f 263 273 274
f 263 274 264
f 264 274 275
f 264 275 265
f 265 275 276
f 265 276 266
f 266 276 277
f 266 277 267
f 267 277 278
f 267 278 268
f 268 278 279
f 268 279 269
f 269 279 280
f 269 280 270
f 270 280 271
f 270 271 261
f 271 281 282
f 271 282 272
f 272 282 283
f 272 283 273
f 273 283 284
f 273 284 274
f 274 284 285
f 274 285 275
f 275 285 286
f 275 286 276
f 276 286 287
f 276 287 277
f 277 287 288
f 277 288 278
f 278 288 289
f 278 289 279
f 279 289 290
f 279 290 280
f 280 290 281
f 280 281 271
f 281 291 292
f 281 292 282
f 282 292 293
f 282 293 283
f 283 293 294
f 283 294 284
f 284 294 295
f 284 295 285
f 285 295 296
f 285 296 286
f 286 296 297
f 286 297 287
f 287 297 298
f 287 298 288
f 288 298 299
f 288 299 289
f 289 299 300
f 289 300 290
f 290 300 291
f 290 291 281
f 291 301 302
f 291 302 292
f 292 302 303
f 292 303 293
f 293 303 304
f 293 304 294
f 294 304 305
f 294 305 295
f 295 305 306
f 295 306 296
f 296 306 307
f 296 307 297
f 297 307 308
f 297 308 298
f 298 308 309
f 298 309 299
f 299 309 310
f 299 310 300
f 300 310 301
f 300 301 291
f 301 311 312
f 301 312 302
f 302 312 313
f 302 313 303
f 303 313 314
f 303 314 304
f 304 314 315
f 304 315 305
f 305 315 316
f 305 316 306
f 306 316 317
f 306 317 307
f 307 317 318
f 307 318 308
f 308 318 319
f 308 319 309
f 309 319 320
f 309 320 310
f 310 320 311
f 310 311 301
f 311 321 322
f 311 322 312
f 312 322 323
f 312 323 313
f 313 323 324
f 313 324 314
f 314 324 325
f 314 325 315
f 315 325 326
f 315 326 316
f 316 326 327
f 316 327 317
f 317 327 328
f 317 328 318
f 318 328 329
f 318 329 319
f 319 329 330
f 319 330 320
f 320 330 321
f 320 321 311
f 321 331 332
f 321 332 322
f 322 332 333
f 322 333 323
f 323 333 334
f 323 334 324
f 324 334 335
f 324 335 325
f 325 335 336
f 325 336 326
f 326 336 337
f 326 337 327
f 327 337 338
f 327 338 328
f 328 338 339
f 328 339 329
f 329 339 340
f 329 340 330
f 330 340 331
f 330 331 321
f 331 341 342
f 331 342 332
f 332 342 343
f 332 343 333
f 333 343 344
f 333 344 334
f 334 344 345
f 334 345 335
f 335 345 346
f 335 346 336
f 336 346 347
f 336 347 337
f 337 347 348
f 337 348 338
f 338 348 349
f 338 349 339
f 339 349 350
f 339 350 340
f 340 350 341
f 340 341 331
f 341 351 352
f 341 352 342
f 342 352 353
f 342 353 343
f 343 353 354
f 343 354 344
f 344 354 355
f 344 355 345
f 345 355 356
f 345 356 346
f 346 356 357
f 346 357 347
f 347 357 358
f 347 358 348
f 348 358 359
f 348 359 349
f 349 359 360
f 349 360 350
f 350 360 351
f 350 351 341
f 351 361 362
f 351 362 352
f 352 362 363
f 352 363 353
f 353 363 364
f 353 364 354
f 354 364 365
f 354 365 355
f 355 365 366
f 355 366 356
f 356 366 367
f 356 367 357
f 357 367 368
f 357 368 358
f 358 368 369
f 358 369 359
f 359 369 370
f 359 370 360
f 360 370 361
f 360 361 351
f 361 371 372
f 361 372 362
f 362 372 373
f 362 373 363
f 363 373 374
f 363 374 364
f 364 374 375
f 364 375 365
f 365 375 376
f 365 376 366
f 366 376 377
f 366 377 367
f 367 377 378
f 367 378 368
f 368 378 379
f 368 379 369
f 369 379 380
f 369 380 370
f 370 380 371
f 370 371 361
f 371 381 382
f 371 382 372
f 372 382 383
f 372 383 373
f 373 383 384
f 373 384 374
f 374 384 385
f 374 385 375
f 375 385 386
f 375 386 376
f 376 386 387
f 376 387 377
f 377 387 388
f 377 388 378
f 378 388 389
f 378 389 379
f 379 389 390
f 379 390 380
f 380 390 381
f 380 381 371
f 381 391 392
f 381 392 382
f 382 392 393
f 382 393 383
f 383 393 394
f 383 394 384
f 384 394 395
f 384 395 385
f 385 395 396
f 385 396 386
f 386 396 397
f 386 397 387
f 387 397 398
f 387 398 388
f 388 398 399
f 388 399 389
f 389 399 400
f 389 400 390
f 390 400 391
f 390 391 381
f 391 401 402
f 391 402 392
f 392 402 403
f 392 403 393
f 393 403 404
f 393 404 394
f 394 404 405
f 394 405 395
f 395 405 406
f 395 406 396
f 396 406 407
f 396 407 397
f 397 407 408
f 397 408 398
f 398 408 409
f 398 409 399
f 399 409 410
f 399 410 400
f 400 410 401
f 400 401 391
f 401 411 412
f 401 412 402
f 402 412 413
f 402 413 403
f 403 413 414
f 403 414 404
f 404 414 415
f 404 415 405
f 405 415 416
f 405 416 406
f 406 416 417
f 406 417 407
f 407 417 418
f 407 418 408
f 408 418 419
f 408 419 409
f 409 419 420
f 409 420 410
f 410 420 411
f 410 411 401
f 411 421 422
f 411 422 412
f 412 422 423
f 412 423 413
f 413 423 424
f 413 424 414
f 414 424 425
f 414 425 415
f 415 425 426
f 415 426 416
f 416 426 427
f 416 427 417
f 417 427 428
f 417 428 418
f 418 428 429
f 418 429 419
f 419 429 430
f 419 430 420
f 420 430 421
f 420 421 411
f 421 431 432
f 421 432 422
f 422 432 433
f 422 433 423
f 423 433 434
f 423 434 424
f 424 434 435
f 424 435 425
f 425 435 436
f 425 436 426
f 426 436 437
f 426 437 427
f 427 437 438
f 427 438 428
f 428 438 439
f 428 439 429
f 429 439 440
f 429 440 430
f 430 440 431
f 430 431 421
f 431 441 442
f 431 442 432
f 432 442 443
f 432 443 433
f 433 443 444
f 433 444 434
f 434 444 445
f 434 445 435
f 435 445 446
f 435 446 436
f 436 446 447
f 436 447 437
f 437 447 448
f 437 448 438
f 438 448 449
f 438 449 439
f 439 449 450
f 439 450 440
f 440 450 441
f 440 441 431
f 441 451 452
f 441 452 442
f 442 452 453
f 442 453 443
f 443 453 454
f 443 454 444
f 444 454 455
f 444 455 445
f 445 455 456
f 445 456 446
f 446 456 457
f 446 457 447
f 447 457 458
f 447 458 448
f 448 458 459
f 448 459 449
f 449 459 460
f 449 460 450
f 450 460 451
f 450 451 441
f 451 461 462
f 451 462 452
f 452 462 463
f 452 463 453
f 453 463 464
f 453 464 454
f 454 464 465
f 454 465 455
f 455 465 466
f 455 466 456
f 456 466 467
f 456 467 457
f 457 467 468
f 457 468 458
f 458 468 469
f 458 469 459
f 459 469 470
f 459 470 460
f 460 470 461
f 460 461 451
f 461 471 472
f 461 472 462
f 462 472 473
f 462 473 463
f 463 473 474
f 463 474 464
f 464 474 475
f 464 475 465
f 465 475 476
f 465 476 466
f 466 476 477
f 466 477 467
f 467 477 478
f 467 478 468
f 468 478 479
f 468 479 469
f 469 479 480
f 469 480 470
f 470 480 471
f 470 471 461
f 471 1 2
f 471 2 472
f 472 2 3
f 472 3 473
f 473 3 4
f 473 4 474
f 474 4 5
f 474 5 475
f 475 5 6
f 475 6 476
f 476 6 7
f 476 7 477
f 477 7 8
f 477 8 478
f 478 8 9
f 478 9 479
f 479 9 10
f 479 10 480
f 480 10 1
f 480 1 471
f 482 490 492
f 482 492 484
f 484 492 491
f 484 491 483
f 483 491 489
f 483 489 481
f 494 486 488
f 494 488 496
f 496 488 487
f 496 487 495
f 495 487 485
f 495 485 493
f 490 498 500
f 490 500 492
f 492 500 499
f 492 499 491
f 491 499 497
f 491 497 489
f 502 494 496
f 502 496 504
f 504 496 495
f 504 495 503
f 503 495 493
f 503 493 501
f 498 506 508
f 498 508 500
f 500 508 507
f 500 507 499
f 499 507 505
f 499 505 497
f 510 502 504
f 510 504 512
f 512 504 503
f 512 503 511
f 511 503 501
f 511 501 509
f 506 514 516
f 506 516 508
f 508 516 515
f 508 515 507
f 507 515 513
f 507 513 505
f 518 510 512
f 518 512 520
f 520 512 511
f 520 511 519
f 519 511 509
f 519 509 517
f 514 522 524
f 514 524 516
f 516 524 523
f 516 523 515
f 515 523 521
f 515 521 513
f 526 518 520
f 526 520 528
f 528 520 519
f 528 519 527
f 527 519 517
f 527 517 525
f 522 530 532
f 522 532 524
f 524 532 531
f 524 531 523
f 523 531 529
f 523 529 521
f 534 526 528
f 534 528 536
f 536 528 527
f 536 527 535
f 535 527 525
f 535 525 533
f 530 538 540
f 530 540 532
f 532 540 539
f 532 539 531
f 531 539 537
f 531 537 529
f 542 534 536
f 542 536 544
f 544 536 535
f 544 535 543
f 543 535 533
f 543 533 541
f 538 546 548
f 538 548 540
f 540 548 547
f 540 547 539
f 539 547 545
f 539 545 537
f 550 542 544
f 550 544 552
f 552 544 543
f 552 543 551
f 551 543 541
f 551 541 549
f 546 554 556
f 546 556 548
f 548 556 555
f 548 555 547
f 547 555 553
f 547 553 545
f 558 550 552
f 558 552 560
f 560 552 551
f 560 551 559
f 559 551 549
f 559 549 557
f 554 562 564
f 554 564 556
f 556 564 563
f 556 563 555
f 555 563 561
f 555 561 553
f 566 558 560
f 566 560 568
f 568 560 559
f 568 559 567
f 567 559 557
f 567 557 565
f 562 570 572
f 562 572 564
f 564 572 571
f 564 571 563
f 563 571 569
f 563 569 561
f 574 566 568
f 574 568 576
f 576 568 567
f 576 567 575
f 575 567 565
f 575 565 573
f 570 578 580
f 570 580 572
f 572 580 579
f 572 579 571
f 571 579 577
f 571 577 569
f 582 574 576
f 582 576 584
f 584 576 575
f 584 575 583
f 583 575 573
f 583 573 581
f 578 586 588
f 578 588 580
f 580 588 587
f 580 587 579
f 579 587 585
f 579 585 577
f 590 582 584
f 590 584 592
f 592 584 583
f 592 583 591
f 591 583 581
f 591 581 589
f 586 594 596
f 586 596 588
f 588 596 595
f 588 595 587
f 587 595 593
f 587 593 585
f 598 590 592
f 598 592 600
f 600 592 591
f 600 591 599
f 599 591 589
f 599 589 597
f 594 602 604
f 594 604 596
f 596 604 603
f 596 603 595
f 595 603 601
f 595 601 593
f 606 598 600
f 606 600 608
f 608 600 599
f 608 599 607
f 607 599 597
f 607 597 605
f 602 482 484
f 602 484 604
f 604 484 483
f 604 483 603
f 603 483 481
f 603 481 601
f 486 606 608
f 486 608 488
f 488 608 607
f 488 607 487
f 487 607 605
f 487 605 485
f 601 481 489
f 489 497 505
f 505 513 521
f 521 529 537
f 537 545 553
f 553 561 569
f 569 577 585
f 585 593 601
f 601 489 505
f 505 521 537
f 537 553 569
f 569 585 601
f 601 505 537
f 537 569 601
f 482 486 494
f 482 494 490
f 602 606 486
f 602 486 482
f 501 493 485
f 485 605 597
f 597 589 581
f 581 573 565
f 565 557 549
f 549 541 533
f 533 525 517
f 517 509 501
f 501 485 597
f 597 581 565
f 565 549 533
f 533 517 501
f 501 597 565
f 565 533 501
f 490 494 502
f 490 502 498
f 498 502 510
f 498 510 506
f 506 510 518
f 506 518 514
f 514 518 526
f 514 526 522
f 522 526 534
f 522 534 530
f 530 534 542
f 530 542 538
f 538 542 550
f 538 550 546
f 546 550 558
f 546 558 554
f 554 558 566
f 554 566 562
f 562 566 574
f 562 574 570
f 570 574 582
f 570 582 578
f 578 582 590
f 578 590 586
f 586 590 598
f 586 598 594
f 594 598 606
f 594 606 602
f 610 618 620
f 610 620 612
f 612 620 619
f 612 619 611
f 611 619 617
f 611 617 609
f 622 614 616
f 622 616 624
f 624 616 615
f 624 615 623
f 623 615 613
f 623 613 621
f 618 626 628
f 618 628 620
f 620 628 627
f 620 627 619
f 619 627 625
f 619 625 617
f 630 622 624
f 630 624 632
f 632 624 623
f 632 623 631
f 631 623 621
f 631 621 629
f 626 634 636
f 626 636 628
f 628 636 635
f 628 635 627
f 627 635 633
f 627 633 625
f 638 630 632
f 638 632 640
f 640 632 631
f 640 631 639
f 639 631 629
f 639 629 637
f 634 642 644
f 634 644 636
f 636 644 643
f 636 643 635
f 635 643 641
f 635 641 633
f 646 638 640
f 646 640 648
f 648 640 639
f 648 639 647
f 647 639 637
f 647 637 645
f 642 650 652
f 642 652 644
f 644 652 651
f 644 651 643
f 643 651 649
f 643 649 641
f 654 646 648
f 654 648 656
f 656 648 647
f 656 647 655
f 655 647 645
f 655 645 653
f 650 658 660
f 650 660 652
f 652 660 659
f 652 659 651
f 651 659 657
f 651 657 649
f 662 654 656
f 662 656 664
f 664 656 655
f 664 655 663
f 663 655 653
f 663 653 661
f 658 666 668
f 658 668 660
f 660 668 667
f 660 667 659
f 659 667 665
f 659 665 657
f 670 662 664
f 670 664 672
f 672 664 663
f 672 663 671
f 671 663 661
f 671 661 669
f 666 674 676
f 666 676 668
f 668 676 675
f 668 675 667
f 667 675 673
f 667 673 665
f 678 670 672
f 678 672 680
f 680 672 671
f 680 671 679
f 679 671 669
f 679 669 677
f 674 682 684
f 674 684 676
f 676 684 683
f 676 683 675
f 675 683 681
f 675 681 673
f 686 678 680
f 686 680 688
f 688 680 679
f 688 679 687
f 687 679 677
f 687 677 685
f 682 690 692
f 682 692 684
f 684 692 691
f 684 691 683
f 683 691 689
f 683 689 681
f 694 686 688
f 694 688 696
f 696 688 687
f 696 687 695
f 695 687 685
f 695 685 693
f 690 698 700
f 690 700 692
f 692 700 699
f 692 699 691
f 691 699 697
f 691 697 689
f 702 694 696
f 702 696 704
f 704 696 695
f 704 695 703
f 703 695 693
f 703 693 701
f 698 706 708
f 698 708 700
f 700 708 707
f 700 707 699
f 699 707 705
f 699 705 697
f 710 702 704
f 710 704 712
f 712 704 703
f 712 703 711
f 711 703 701
f 711 701 709
f 706 714 716
f 706 716 708
f 708 716 715
f 708 715 707
f 707 715 713
f 707 713 705
f 718 710 712
f 718 712 720
f 720 712 711
f 720 711 719
f 719 711 709
f 719 709 717
f 714 722 724
f 714 724 716
f 716 724 723
f 716 723 715
f 715 723 721
f 715 721 713
f 726 718 720
f 726 720 728
f 728 720 719
f 728 719 727
f 727 719 717
f 727 717 725
f 722 730 732
f 722 732 724
f 724 732 731
f 724 731 723
f 723 731 729
f 723 729 721
f 734 726 728
f 734 728 736
f 736 728 727
f 736 727 735
f 735 727 725
f 735 725 733
f 730 610 612
f 730 612 732
f 732 612 611
f 732 611 731
f 731 611 609
f 731 609 729
f 614 734 736
f 614 736 616
f 616 736 735
f 616 735 615
f 615 735 733
f 615 733 613
f 729 609 617
f 617 625 633
f 633 641 649
f 649 657 665
f 665 673 681
f 681 689 697
f 697 705 713
f 713 721 729
f 729 617 633
f 633 649 665
f 665 681 697
f 697 713 729
f 729 633 665
f 665 697 729
f 610 614 622
f 610 622 618
f 730 734 614
f 730 614 610
f 629 621 613
f 613 733 725
f 725 717 709
f 709 701 693
f 693 685 677
f 677 669 661
f 661 653 645
f 645 637 629
f 629 613 725
f 725 709 693
f 693 677 661
f 661 645 629
f 629 725 693
f 693 661 629
f 618 622 630
f 618 630 626
f 626 630 638
f 626 638 634
f 634 638 646
f 634 646 642
f 642 646 654
f 642 654 650
f 650 654 662
f 650 662 658
f 658 662 670
f 658 670 666
f 666 670 678
f 666 678 674
f 674 678 686
f 674 686 682
f 682 686 694
f 682 694 690
f 690 694 702
f 690 702 698
f 698 702 710
f 698 710 706
f 706 710 718
f 706 718 714
f 714 718 726
f 714 726 722
f 722 726 734
f 722 734 730
f 737 740 742
f 737 742 741
f 740 744 745
f 740 745 742
f 738 743 745
f 738 745 744
f 743 747 748
f 743 748 745
f 739 746 748
f 739 748 747
f 746 741 742
f 746 742 748
f 742 745 748
f 749 752 754
f 749 754 753
f 752 756 757
f 752 757 754
f 750 755 757
f 750 757 756
f 755 759 760
f 755 760 757
f 751 758 760
f 751 760 759
f 758 753 754
f 758 754 760
f 754 757 760
f 761 764 766
f 761 766 765
f 764 768 769
f 764 769 766
f 762 767 769
f 762 769 768
f 767 771 772
f 767 772 769
f 763 770 772
f 763 772 771
f 770 765 766
f 770 766 772
f 766 769 772
f 773 776 778
f 773 778 777
f 776 780 781
f 776 781 778
f 774 779 781
f 774 781 780
f 779 783 784
f 779 784 781
f 775 782 784
f 775 784 783
f 782 777 778
f 782 778 784
f 778 781 784
f 785 788 790
f 785 790 789
f 788 792 793
f 788 793 790
f 786 791 793
f 786 793 792
f 791 795 796
f 791 796 793
f 787 794 796
f 787 796 795
f 794 789 790
f 794 790 796
f 790 793 796
f 797 800 802
f 797 802 801
f 800 804 805
f 800 805 802
f 798 803 805
f 798 805 804
f 803 807 808
f 803 808 805
f 799 806 808
f 799 808 807
f 806 801 802
f 806 802 808
f 802 805 808
f 809 812 814
f 809 814 813
f 812 816 817
f 812 817 814
f 810 815 817
f 810 817 816
f 815 819 820
f 815 820 817
f 811 818 820
f 811 820 819
f 818 813 814
f 818 814 820
f 814 817 820
f 821 824 826
f 821 826 825
f 824 828 829
f 824 829 826
f 822 827 829
f 822 829 828
f 827 831 832
f 827 832 829
f 823 830 832
f 823 832 831
f 830 825 826
f 830 826 832
f 826 829 832
f 761 737 741
f 761 741 764
f 764 741 746
f 764 746 768
f 768 746 739
f 768 739 762
f 738 749 753
f 738 753 743
f 743 753 758
f 743 758 747
f 747 758 751
f 747 751 739
f 750 773 777
f 750 777 755
f 755 777 782
f 755 782 759
f 759 782 775
f 759 775 751
f 774 763 771
f 774 771 779
f 779 771 767
f 779 767 783
f 783 767 762
f 783 762 775
f 809 761 765
f 809 765 812
f 812 765 770
f 812 770 816
f 816 770 763
f 816 763 810
f 773 821 825
f 773 825 776
f 776 825 830
f 776 830 780
f 780 830 823
f 780 823 774
f 822 811 819
f 822 819 827
f 827 819 815
f 827 815 831
f 831 815 810
f 831 810 823
f 785 809 813
f 785 813 788
f 788 813 818
f 788 818 792
f 792 818 811
f 792 811 786
f 821 797 801
f 821 801 824
f 824 801 806
f 824 806 828
f 828 806 799
f 828 799 822
f 798 787 795
f 798 795 803
f 803 795 791
f 803 791 807
f 807 791 786
f 807 786 799
f 737 785 789
f 737 789 740
f 740 789 794
f 740 794 744
f 744 794 787
f 744 787 738
f 797 750 756
f 797 756 800
f 800 756 752
f 800 752 804
f 804 752 749
f 804 749 798
f 761 809 785
f 761 785 737
f 739 751 775
f 739 775 762
f 787 798 749
f 787 749 738
f 821 773 750
f 821 750 797
f 763 774 823
f 763 823 810
f 811 822 799
f 811 799 786
