# Zoomer visual mesh, local link coordinates in metres
v -0.0081107 -0.0082333 0.0053099
v -0.0081107 -0.0095459 0.0066225
v -0.0091603 -0.0082333 0.0066225
v -0.0081107 -0.0088888 0.0054853
v -0.0086348 -0.0082333 0.0054853
v -0.0086126 -0.0088610 0.0056556
v -0.0086348 -0.0093706 0.0066225
v -0.0081107 -0.0093706 0.0059671
v -0.0086126 -0.0092002 0.0059948
v -0.0090201 -0.0082333 0.0059671
v -0.0090201 -0.0088888 0.0066225
v -0.0088839 -0.0088610 0.0059948
v -0.0081107 -0.0095459 0.0139012
v -0.0081107 -0.0082333 0.0152138
v -0.0091603 -0.0082333 0.0139012
v -0.0081107 -0.0093706 0.0145566
v -0.0086348 -0.0093706 0.0139012
v -0.0086126 -0.0092002 0.0145289
v -0.0086348 -0.0082333 0.0150384
v -0.0081107 -0.0088888 0.0150384
v -0.0086126 -0.0088610 0.0148681
v -0.0090201 -0.0088888 0.0139012
v -0.0090201 -0.0082333 0.0145566
v -0.0088839 -0.0088610 0.0145289
v -0.0081107 -0.0082333 0.0053099
v -0.0091603 -0.0082333 0.0066225
v -0.0081107 -0.0069208 0.0066225
v -0.0086348 -0.0082333 0.0054853
v -0.0081107 -0.0075779 0.0054853
v -0.0086126 -0.0076057 0.0056556
v -0.0090201 -0.0075779 0.0066225
v -0.0090201 -0.0082333 0.0059671
v -0.0088839 -0.0076057 0.0059948
v -0.0081107 -0.0070961 0.0059671
v -0.0086348 -0.0070961 0.0066225
v -0.0086126 -0.0072665 0.0059948
v -0.0081107 -0.0082333 0.0152138
v -0.0081107 -0.0069208 0.0139012
v -0.0091603 -0.0082333 0.0139012
v -0.0081107 -0.0075779 0.0150384
v -0.0086348 -0.0082333 0.0150384
v -0.0086126 -0.0076057 0.0148681
v -0.0086348 -0.0070961 0.0139012
v -0.0081107 -0.0070961 0.0145566
v -0.0086126 -0.0072665 0.0145289
v -0.0090201 -0.0082333 0.0145566
v -0.0090201 -0.0075779 0.0139012
v -0.0088839 -0.0076057 0.0145289
v -0.0046756 -0.0082333 0.0053099
v -0.0036260 -0.0082333 0.0066225
v -0.0046756 -0.0095459 0.0066225
v -0.0041515 -0.0082333 0.0054853
v -0.0046756 -0.0088888 0.0054853
v -0.0041736 -0.0088610 0.0056556
v -0.0037662 -0.0088888 0.0066225
v -0.0037662 -0.0082333 0.0059671
v -0.0039024 -0.0088610 0.0059948
v -0.0046756 -0.0093706 0.0059671
v -0.0041515 -0.0093706 0.0066225
v -0.0041736 -0.0092002 0.0059948
v -0.0046756 -0.0082333 0.0152138
v -0.0046756 -0.0095459 0.0139012
v -0.0036260 -0.0082333 0.0139012
v -0.0046756 -0.0088888 0.0150384
v -0.0041515 -0.0082333 0.0150384
v -0.0041736 -0.0088610 0.0148681
v -0.0041515 -0.0093706 0.0139012
v -0.0046756 -0.0093706 0.0145566
v -0.0041736 -0.0092002 0.0145289
v -0.0037662 -0.0082333 0.0145566
v -0.0037662 -0.0088888 0.0139012
v -0.0039024 -0.0088610 0.0145289
v -0.0046756 -0.0082333 0.0053099
v -0.0046756 -0.0069208 0.0066225
v -0.0036260 -0.0082333 0.0066225
v -0.0046756 -0.0075779 0.0054853
v -0.0041515 -0.0082333 0.0054853
v -0.0041736 -0.0076057 0.0056556
v -0.0041515 -0.0070961 0.0066225
v -0.0046756 -0.0070961 0.0059671
v -0.0041736 -0.0072665 0.0059948
v -0.0037662 -0.0082333 0.0059671
v -0.0037662 -0.0075779 0.0066225
v -0.0039024 -0.0076057 0.0059948
v -0.0046756 -0.0082333 0.0152138
v -0.0036260 -0.0082333 0.0139012
v -0.0046756 -0.0069208 0.0139012
v -0.0041515 -0.0082333 0.0150384
v -0.0046756 -0.0075779 0.0150384
v -0.0041736 -0.0076057 0.0148681
v -0.0037662 -0.0075779 0.0139012
v -0.0037662 -0.0082333 0.0145566
v -0.0039024 -0.0076057 0.0145289
v -0.0046756 -0.0070961 0.0145566
v -0.0041515 -0.0070961 0.0139012
v -0.0041736 -0.0072665 0.0145289
v 0.0046756 -0.0082333 0.0053099
v 0.0046756 -0.0095459 0.0066225
v 0.0036260 -0.0082333 0.0066225
v 0.0046756 -0.0088888 0.0054853
v 0.0041515 -0.0082333 0.0054853
v 0.0041736 -0.0088610 0.0056556
v 0.0041515 -0.0093706 0.0066225
v 0.0046756 -0.0093706 0.0059671
v 0.0041736 -0.0092002 0.0059948
v 0.0037662 -0.0082333 0.0059671
v 0.0037662 -0.0088888 0.0066225
v 0.0039024 -0.0088610 0.0059948
v 0.0046756 -0.0095459 0.0139012
v 0.0046756 -0.0082333 0.0152138
v 0.0036260 -0.0082333 0.0139012
v 0.0046756 -0.0093706 0.0145566
v 0.0041515 -0.0093706 0.0139012
v 0.0041736 -0.0092002 0.0145289
v 0.0041515 -0.0082333 0.0150384
v 0.0046756 -0.0088888 0.0150384
v 0.0041736 -0.0088610 0.0148681
v 0.0037662 -0.0088888 0.0139012
v 0.0037662 -0.0082333 0.0145566
v 0.0039024 -0.0088610 0.0145289
v 0.0046756 -0.0082333 0.0053099
v 0.0036260 -0.0082333 0.0066225
v 0.0046756 -0.0069208 0.0066225
v 0.0041515 -0.0082333 0.0054853
v 0.0046756 -0.0075779 0.0054853
v 0.0041736 -0.0076057 0.0056556
v 0.0037662 -0.0075779 0.0066225
v 0.0037662 -0.0082333 0.0059671
v 0.0039024 -0.0076057 0.0059948
v 0.0046756 -0.0070961 0.0059671
v 0.0041515 -0.0070961 0.0066225
v 0.0041736 -0.0072665 0.0059948
v 0.0046756 -0.0082333 0.0152138
v 0.0046756 -0.0069208 0.0139012
v 0.0036260 -0.0082333 0.0139012
v 0.0046756 -0.0075779 0.0150384
v 0.0041515 -0.0082333 0.0150384
v 0.0041736 -0.0076057 0.0148681
v 0.0041515 -0.0070961 0.0139012
v 0.0046756 -0.0070961 0.0145566
v 0.0041736 -0.0072665 0.0145289
v 0.0037662 -0.0082333 0.0145566
v 0.0037662 -0.0075779 0.0139012
v 0.0039024 -0.0076057 0.0145289
v 0.0081107 -0.0082333 0.0053099
v 0.0091603 -0.0082333 0.0066225
v 0.0081107 -0.0095459 0.0066225
v 0.0086348 -0.0082333 0.0054853
v 0.0081107 -0.0088888 0.0054853
v 0.0086126 -0.0088610 0.0056556
v 0.0090201 -0.0088888 0.0066225
v 0.0090201 -0.0082333 0.0059671
v 0.0088839 -0.0088610 0.0059948
v 0.0081107 -0.0093706 0.0059671
v 0.0086348 -0.0093706 0.0066225
v 0.0086126 -0.0092002 0.0059948
v 0.0081107 -0.0082333 0.0152138
v 0.0081107 -0.0095459 0.0139012
v 0.0091603 -0.0082333 0.0139012
v 0.0081107 -0.0088888 0.0150384
v 0.0086348 -0.0082333 0.0150384
v 0.0086126 -0.0088610 0.0148681
v 0.0086348 -0.0093706 0.0139012
v 0.0081107 -0.0093706 0.0145566
v 0.0086126 -0.0092002 0.0145289
v 0.0090201 -0.0082333 0.0145566
v 0.0090201 -0.0088888 0.0139012
v 0.0088839 -0.0088610 0.0145289
v 0.0081107 -0.0082333 0.0053099
v 0.0081107 -0.0069208 0.0066225
v 0.0091603 -0.0082333 0.0066225
v 0.0081107 -0.0075779 0.0054853
v 0.0086348 -0.0082333 0.0054853
v 0.0086126 -0.0076057 0.0056556
v 0.0086348 -0.0070961 0.0066225
v 0.0081107 -0.0070961 0.0059671
v 0.0086126 -0.0072665 0.0059948
v 0.0090201 -0.0082333 0.0059671
v 0.0090201 -0.0075779 0.0066225
v 0.0088839 -0.0076057 0.0059948
v 0.0081107 -0.0082333 0.0152138
v 0.0091603 -0.0082333 0.0139012
v 0.0081107 -0.0069208 0.0139012
v 0.0086348 -0.0082333 0.0150384
v 0.0081107 -0.0075779 0.0150384
v 0.0086126 -0.0076057 0.0148681
v 0.0090201 -0.0075779 0.0139012
v 0.0090201 -0.0082333 0.0145566
v 0.0088839 -0.0076057 0.0145289
v 0.0081107 -0.0070961 0.0145566
v 0.0086348 -0.0070961 0.0139012
v 0.0086126 -0.0072665 0.0145289
f 1 4 6
f 1 6 5
f 4 8 9
f 4 9 6
f 2 7 9
f 2 9 8
f 7 11 12
f 7 12 9
f 3 10 12
f 3 12 11
f 10 5 6
f 10 6 12
f 6 9 12
f 13 16 18
f 13 18 17
f 16 20 21
f 16 21 18
f 14 19 21
f 14 21 20
f 19 23 24
f 19 24 21
f 15 22 24
f 15 24 23
f 22 17 18
f 22 18 24
f 18 21 24
f 25 28 30
f 25 30 29
f 28 32 33
f 28 33 30
f 26 31 33
f 26 33 32
f 31 35 36
f 31 36 33
f 27 34 36
f 27 36 35
f 34 29 30
f 34 30 36
f 30 33 36
f 37 40 42
f 37 42 41
f 40 44 45
f 40 45 42
f 38 43 45
f 38 45 44
f 43 47 48
f 43 48 45
f 39 46 48
f 39 48 47
f 46 41 42
f 46 42 48
f 42 45 48
f 49 52 54
f 49 54 53
f 52 56 57
f 52 57 54
f 50 55 57
f 50 57 56
f 55 59 60
f 55 60 57
f 51 58 60
f 51 60 59
f 58 53 54
f 58 54 60
f 54 57 60
f 61 64 66
f 61 66 65
f 64 68 69
f 64 69 66
f 62 67 69
f 62 69 68
f 67 71 72
f 67 72 69
f 63 70 72
f 63 72 71
f 70 65 66
f 70 66 72
f 66 69 72
f 73 76 78
f 73 78 77
f 76 80 81
f 76 81 78
f 74 79 81
f 74 81 80
f 79 83 84
f 79 84 81
f 75 82 84
f 75 84 83
f 82 77 78
f 82 78 84
f 78 81 84
f 85 88 90
f 85 90 89
f 88 92 93
f 88 93 90
f 86 91 93
f 86 93 92
f 91 95 96
f 91 96 93
f 87 94 96
f 87 96 95
f 94 89 90
f 94 90 96
f 90 93 96
f 25 1 5
f 25 5 28
f 28 5 10
f 28 10 32
f 32 10 3
f 32 3 26
f 2 13 17
f 2 17 7
f 7 17 22
f 7 22 11
f 11 22 15
f 11 15 3
f 14 37 41
f 14 41 19
f 19 41 46
f 19 46 23
f 23 46 39
f 23 39 15
f 38 27 35
f 38 35 43
f 43 35 31
f 43 31 47
f 47 31 26
f 47 26 39
f 73 25 29
f 73 29 76
f 76 29 34
f 76 34 80
f 80 34 27
f 80 27 74
f 37 85 89
f 37 89 40
f 40 89 94
f 40 94 44
f 44 94 87
f 44 87 38
f 86 75 83
f 86 83 91
f 91 83 79
f 91 79 95
f 95 79 74
f 95 74 87
f 49 73 77
f 49 77 52
f 52 77 82
f 52 82 56
f 56 82 75
f 56 75 50
f 85 61 65
f 85 65 88
f 88 65 70
f 88 70 92
f 92 70 63
f 92 63 86
f 62 51 59
f 62 59 67
f 67 59 55
f 67 55 71
f 71 55 50
f 71 50 63
f 1 49 53
f 1 53 4
f 4 53 58
f 4 58 8
f 8 58 51
f 8 51 2
f 61 14 20
f 61 20 64
f 64 20 16
f 64 16 68
f 68 16 13
f 68 13 62
f 25 73 49
f 25 49 1
f 3 15 39
f 3 39 26
f 51 62 13
f 51 13 2
f 85 37 14
f 85 14 61
f 27 38 87
f 27 87 74
f 75 86 63
f 75 63 50
f 97 100 102
f 97 102 101
f 100 104 105
f 100 105 102
f 98 103 105
f 98 105 104
f 103 107 108
f 103 108 105
f 99 106 108
f 99 108 107
f 106 101 102
f 106 102 108
f 102 105 108
f 109 112 114
f 109 114 113
f 112 116 117
f 112 117 114
f 110 115 117
f 110 117 116
f 115 119 120
f 115 120 117
f 111 118 120
f 111 120 119
f 118 113 114
f 118 114 120
f 114 117 120
f 121 124 126
f 121 126 125
f 124 128 129
f 124 129 126
f 122 127 129
f 122 129 128
f 127 131 132
f 127 132 129
f 123 130 132
f 123 132 131
f 130 125 126
f 130 126 132
f 126 129 132
f 133 136 138
f 133 138 137
f 136 140 141
f 136 141 138
f 134 139 141
f 134 141 140
f 139 143 144
f 139 144 141
f 135 142 144
f 135 144 143
f 142 137 138
f 142 138 144
f 138 141 144
f 145 148 150
f 145 150 149
f 148 152 153
f 148 153 150
f 146 151 153
f 146 153 152
f 151 155 156
f 151 156 153
f 147 154 156
f 147 156 155
f 154 149 150
f 154 150 156
f 150 153 156
f 157 160 162
f 157 162 161
f 160 164 165
f 160 165 162
f 158 163 165
f 158 165 164
f 163 167 168
f 163 168 165
f 159 166 168
f 159 168 167
f 166 161 162
f 166 162 168
f 162 165 168
f 169 172 174
f 169 174 173
f 172 176 177
f 172 177 174
f 170 175 177
f 170 177 176
f 175 179 180
f 175 180 177
f 171 178 180
f 171 180 179
f 178 173 174
f 178 174 180
f 174 177 180
f 181 184 186
f 181 186 185
f 184 188 189
f 184 189 186
f 182 187 189
f 182 189 188
f 187 191 192
f 187 192 189
f 183 190 192
f 183 192 191
f 190 185 186
f 190 186 192
f 186 189 192
f 121 97 101
f 121 101 124
f 124 101 106
f 124 106 128
f 128 106 99
f 128 99 122
f 98 109 113
f 98 113 103
f 103 113 118
f 103 118 107
f 107 118 111
f 107 111 99
f 110 133 137
f 110 137 115
f 115 137 142
f 115 142 119
f 119 142 135
f 119 135 111
f 134 123 131
f 134 131 139
f 139 131 127
f 139 127 143
f 143 127 122
f 143 122 135
f 169 121 125
f 169 125 172
f 172 125 130
f 172 130 176
f 176 130 123
f 176 123 170
f 133 181 185
f 133 185 136
f 136 185 190
f 136 190 140
f 140 190 183
f 140 183 134
f 182 171 179
f 182 179 187
f 187 179 175
f 187 175 191
f 191 175 170
f 191 170 183
f 145 169 173
f 145 173 148
f 148 173 178
f 148 178 152
f 152 178 171
f 152 171 146
f 181 157 161
f 181 161 184
f 184 161 166
f 184 166 188
f 188 166 159
f 188 159 182
f 158 147 155
f 158 155 163
f 163 155 151
f 163 151 167
f 167 151 146
f 167 146 159
f 97 145 149
f 97 149 100
f 100 149 154
f 100 154 104
f 104 154 147
f 104 147 98
f 157 110 116
f 157 116 160
f 160 116 112
f 160 112 164
f 164 112 109
f 164 109 158
f 121 169 145
f 121 145 97
f 99 111 135
f 99 135 122
f 147 158 109
f 147 109 98
f 181 133 110
f 181 110 157
f 123 134 183
f 123 183 170
f 171 182 159
f 171 159 146
