# Zoomer visual mesh, local link coordinates in metres
v -0.0000000 0.0258922 -0.0018495
v 0.0000000 0.0263706 -0.0013722
v -0.0000000 0.0261314 -0.0017856
v -0.0000000 0.0263065 -0.0016109
v 0.0000000 0.0258922 0.0023268
v 0.0000000 0.0263706 0.0018495
v 0.0000000 0.0261314 0.0022629
v 0.0000000 0.0263065 0.0020882
v 0.0027026 0.0256707 -0.0018495
v 0.0027525 0.0261450 -0.0013722
v 0.0027275 0.0259078 -0.0017856
v 0.0027458 0.0260814 -0.0016109
v 0.0027026 0.0256707 0.0023268
v 0.0027525 0.0261450 0.0018495
v 0.0027275 0.0259078 0.0022629
v 0.0027458 0.0260814 0.0020882
v 0.0053589 0.0250100 -0.0018495
v 0.0054579 0.0254720 -0.0013722
v 0.0054084 0.0252410 -0.0017856
v 0.0054447 0.0254101 -0.0016109
v 0.0053589 0.0250100 0.0023268
v 0.0054579 0.0254720 0.0018495
v 0.0054084 0.0252410 0.0022629
v 0.0054447 0.0254101 0.0020882
v 0.0079236 0.0239213 -0.0018495
v 0.0080699 0.0243632 -0.0013722
v 0.0079968 0.0241423 -0.0017856
v 0.0080503 0.0243040 -0.0016109
v 0.0079236 0.0239213 0.0023268
v 0.0080699 0.0243632 0.0018495
v 0.0079968 0.0241423 0.0022629
v 0.0080503 0.0243040 0.0020882
v 0.0103526 0.0224233 -0.0018495
v 0.0105439 0.0228376 -0.0013722
v 0.0104483 0.0226305 -0.0017856
v 0.0105183 0.0227821 -0.0016109
v 0.0103526 0.0224233 0.0023268
v 0.0105439 0.0228376 0.0018495
v 0.0104483 0.0226305 0.0022629
v 0.0105183 0.0227821 0.0020882
v 0.0126046 0.0205417 -0.0018495
v 0.0128374 0.0209212 -0.0013722
v 0.0127210 0.0207314 -0.0017856
v 0.0128062 0.0208703 -0.0016109
v 0.0126046 0.0205417 0.0023268
v 0.0128374 0.0209212 0.0018495
v 0.0127210 0.0207314 0.0022629
v 0.0128062 0.0208703 0.0020882
v 0.0146408 0.0183086 -0.0018495
v 0.0149113 0.0186468 -0.0013722
v 0.0147761 0.0184777 -0.0017856
v 0.0148751 0.0186015 -0.0016109
v 0.0146408 0.0183086 0.0023268
v 0.0149113 0.0186468 0.0018495
v 0.0147761 0.0184777 0.0022629
v 0.0148751 0.0186015 0.0020882
v 0.0164266 0.0157622 -0.0018495
v 0.0167301 0.0160534 -0.0013722
v 0.0165783 0.0159078 -0.0017856
v 0.0166894 0.0160144 -0.0016109
v 0.0164266 0.0157622 0.0023268
v 0.0167301 0.0160534 0.0018495
v 0.0165783 0.0159078 0.0022629
v 0.0166894 0.0160144 0.0020882
v 0.0179313 0.0129461 -0.0018495
v 0.0182626 0.0131853 -0.0013722
v 0.0180969 0.0130657 -0.0017856
v 0.0182182 0.0131532 -0.0016109
v 0.0179313 0.0129461 0.0023268
v 0.0182626 0.0131853 0.0018495
v 0.0180969 0.0130657 0.0022629
v 0.0182182 0.0131532 0.0020882
v 0.0191292 0.0099085 -0.0018495
v 0.0194826 0.0100916 -0.0013722
v 0.0193059 0.0100001 -0.0017856
v 0.0194352 0.0100671 -0.0016109
v 0.0191292 0.0099085 0.0023268
v 0.0194826 0.0100916 0.0018495
v 0.0193059 0.0100001 0.0022629
v 0.0194352 0.0100671 0.0020882
v 0.0199998 0.0067014 -0.0018495
v 0.0203692 0.0068252 -0.0013722
v 0.0201845 0.0067633 -0.0017856
v 0.0203197 0.0068086 -0.0016109
v 0.0199998 0.0067014 0.0023268
v 0.0203692 0.0068252 0.0018495
v 0.0201845 0.0067633 0.0022629
v 0.0203197 0.0068086 0.0020882
v 0.0205282 0.0033796 -0.0018495
v 0.0209074 0.0034420 -0.0013722
v 0.0207178 0.0034108 -0.0017856
v 0.0208566 0.0034337 -0.0016109
v 0.0205282 0.0033796 0.0023268
v 0.0209074 0.0034420 0.0018495
v 0.0207178 0.0034108 0.0022629
v 0.0208566 0.0034337 0.0020882
v 0.0207053 0.0000000 -0.0018495
v 0.0210878 0.0000000 -0.0013722
v 0.0208965 0.0000000 -0.0017856
v 0.0210365 0.0000000 -0.0016109
v 0.0207053 -0.0000000 0.0023268
v 0.0210878 0.0000000 0.0018495
v 0.0208965 -0.0000000 0.0022629
v 0.0210365 -0.0000000 0.0020882
v 0.0205282 -0.0033796 -0.0018495
v 0.0209074 -0.0034420 -0.0013722
v 0.0207178 -0.0034108 -0.0017856
v 0.0208566 -0.0034337 -0.0016109
v 0.0205282 -0.0033796 0.0023268
v 0.0209074 -0.0034420 0.0018495
v 0.0207178 -0.0034108 0.0022629
v 0.0208566 -0.0034337 0.0020882
v 0.0199998 -0.0067014 -0.0018495
v 0.0203692 -0.0068252 -0.0013722
v 0.0201845 -0.0067633 -0.0017856
v 0.0203197 -0.0068086 -0.0016109
v 0.0199998 -0.0067014 0.0023268
v 0.0203692 -0.0068252 0.0018495
v 0.0201845 -0.0067633 0.0022629
v 0.0203197 -0.0068086 0.0020882
v 0.0191292 -0.0099085 -0.0018495
v 0.0194826 -0.0100916 -0.0013722
v 0.0193059 -0.0100001 -0.0017856
v 0.0194352 -0.0100671 -0.0016109
v 0.0191292 -0.0099085 0.0023268
v 0.0194826 -0.0100916 0.0018495
v 0.0193059 -0.0100001 0.0022629
v 0.0194352 -0.0100671 0.0020882
v 0.0179313 -0.0129461 -0.0018495
v 0.0182626 -0.0131853 -0.0013722
v 0.0180969 -0.0130657 -0.0017856
v 0.0182182 -0.0131532 -0.0016109
v 0.0179313 -0.0129461 0.0023268
v 0.0182626 -0.0131853 0.0018495
v 0.0180969 -0.0130657 0.0022629
v 0.0182182 -0.0131532 0.0020882
v 0.0164266 -0.0157622 -0.0018495
v 0.0167301 -0.0160534 -0.0013722
v 0.0165783 -0.0159078 -0.0017856
v 0.0166894 -0.0160144 -0.0016109
v 0.0164266 -0.0157622 0.0023268
v 0.0167301 -0.0160534 0.0018495
v 0.0165783 -0.0159078 0.0022629
v 0.0166894 -0.0160144 0.0020882
v 0.0146408 -0.0183086 -0.0018495
v 0.0149113 -0.0186468 -0.0013722
v 0.0147761 -0.0184777 -0.0017856
v 0.0148751 -0.0186015 -0.0016109
v 0.0146408 -0.0183086 0.0023268
v 0.0149113 -0.0186468 0.0018495
v 0.0147761 -0.0184777 0.0022629
v 0.0148751 -0.0186015 0.0020882
v 0.0126046 -0.0205417 -0.0018495
v 0.0128374 -0.0209212 -0.0013722
v 0.0127210 -0.0207314 -0.0017856
v 0.0128062 -0.0208703 -0.0016109
v 0.0126046 -0.0205417 0.0023268
v 0.0128374 -0.0209212 0.0018495
v 0.0127210 -0.0207314 0.0022629
v 0.0128062 -0.0208703 0.0020882
v 0.0103526 -0.0224233 -0.0018495
v 0.0105439 -0.0228376 -0.0013722
v 0.0104483 -0.0226305 -0.0017856
v 0.0105183 -0.0227821 -0.0016109
v 0.0103526 -0.0224233 0.0023268
v 0.0105439 -0.0228376 0.0018495
v 0.0104483 -0.0226305 0.0022629
v 0.0105183 -0.0227821 0.0020882
v 0.0079236 -0.0239213 -0.0018495
v 0.0080699 -0.0243632 -0.0013722
v 0.0079968 -0.0241423 -0.0017856
v 0.0080503 -0.0243040 -0.0016109
v 0.0079236 -0.0239213 0.0023268
v 0.0080699 -0.0243632 0.0018495
v 0.0079968 -0.0241423 0.0022629
v 0.0080503 -0.0243040 0.0020882
v 0.0053589 -0.0250100 -0.0018495
v 0.0054579 -0.0254720 -0.0013722
v 0.0054084 -0.0252410 -0.0017856
v 0.0054447 -0.0254101 -0.0016109
v 0.0053589 -0.0250100 0.0023268
v 0.0054579 -0.0254720 0.0018495
v 0.0054084 -0.0252410 0.0022629
v 0.0054447 -0.0254101 0.0020882
v 0.0027026 -0.0256707 -0.0018495
v 0.0027525 -0.0261450 -0.0013722
v 0.0027275 -0.0259078 -0.0017856
v 0.0027458 -0.0260814 -0.0016109
v 0.0027026 -0.0256707 0.0023268
v 0.0027525 -0.0261450 0.0018495
v 0.0027275 -0.0259078 0.0022629
v 0.0027458 -0.0260814 0.0020882
v 0.0000000 -0.0258922 -0.0018495
v 0.0000000 -0.0263706 -0.0013722
v 0.0000000 -0.0261314 -0.0017856
v 0.0000000 -0.0263065 -0.0016109
v -0.0000000 -0.0258922 0.0023268
v 0.0000000 -0.0263706 0.0018495
v -0.0000000 -0.0261314 0.0022629
v -0.0000000 -0.0263065 0.0020882
v -0.0027026 -0.0256707 -0.0018495
v -0.0027525 -0.0261450 -0.0013722
v -0.0027275 -0.0259078 -0.0017856
v -0.0027458 -0.0260814 -0.0016109
v -0.0027026 -0.0256707 0.0023268
v -0.0027525 -0.0261450 0.0018495
v -0.0027275 -0.0259078 0.0022629
v -0.0027458 -0.0260814 0.0020882
v -0.0053589 -0.0250100 -0.0018495
v -0.0054579 -0.0254720 -0.0013722
v -0.0054084 -0.0252410 -0.0017856
v -0.0054447 -0.0254101 -0.0016109
v -0.0053589 -0.0250100 0.0023268
v -0.0054579 -0.0254720 0.0018495
v -0.0054084 -0.0252410 0.0022629
v -0.0054447 -0.0254101 0.0020882
v -0.0079236 -0.0239213 -0.0018495
v -0.0080699 -0.0243632 -0.0013722
v -0.0079968 -0.0241423 -0.0017856
v -0.0080503 -0.0243040 -0.0016109
v -0.0079236 -0.0239213 0.0023268
v -0.0080699 -0.0243632 0.0018495
v -0.0079968 -0.0241423 0.0022629
v -0.0080503 -0.0243040 0.0020882
v -0.0103526 -0.0224233 -0.0018495
v -0.0105439 -0.0228376 -0.0013722
v -0.0104483 -0.0226305 -0.0017856
v -0.0105183 -0.0227821 -0.0016109
v -0.0103526 -0.0224233 0.0023268
v -0.0105439 -0.0228376 0.0018495
v -0.0104483 -0.0226305 0.0022629
v -0.0105183 -0.0227821 0.0020882
v -0.0126046 -0.0205417 -0.0018495
v -0.0128374 -0.0209212 -0.0013722
v -0.0127210 -0.0207314 -0.0017856
v -0.0128062 -0.0208703 -0.0016109
v -0.0126046 -0.0205417 0.0023268
v -0.0128374 -0.0209212 0.0018495
v -0.0127210 -0.0207314 0.0022629
v -0.0128062 -0.0208703 0.0020882
v -0.0146408 -0.0183086 -0.0018495
v -0.0149113 -0.0186468 -0.0013722
v -0.0147761 -0.0184777 -0.0017856
v -0.0148751 -0.0186015 -0.0016109
v -0.0146408 -0.0183086 0.0023268
v -0.0149113 -0.0186468 0.0018495
v -0.0147761 -0.0184777 0.0022629
v -0.0148751 -0.0186015 0.0020882
v -0.0164266 -0.0157622 -0.0018495
v -0.0167301 -0.0160534 -0.0013722
v -0.0165783 -0.0159078 -0.0017856
v -0.0166894 -0.0160144 -0.0016109
v -0.0164266 -0.0157622 0.0023268
v -0.0167301 -0.0160534 0.0018495
v -0.0165783 -0.0159078 0.0022629
v -0.0166894 -0.0160144 0.0020882
v -0.0179313 -0.0129461 -0.0018495
v -0.0182626 -0.0131853 -0.0013722
v -0.0180969 -0.0130657 -0.0017856
v -0.0182182 -0.0131532 -0.0016109
v -0.0179313 -0.0129461 0.0023268
v -0.0182626 -0.0131853 0.0018495
v -0.0180969 -0.0130657 0.0022629
v -0.0182182 -0.0131532 0.0020882
v -0.0191292 -0.0099085 -0.0018495
v -0.0194826 -0.0100916 -0.0013722
v -0.0193059 -0.0100001 -0.0017856
v -0.0194352 -0.0100671 -0.0016109
v -0.0191292 -0.0099085 0.0023268
v -0.0194826 -0.0100916 0.0018495
v -0.0193059 -0.0100001 0.0022629
v -0.0194352 -0.0100671 0.0020882
v -0.0199998 -0.0067014 -0.0018495
v -0.0203692 -0.0068252 -0.0013722
v -0.0201845 -0.0067633 -0.0017856
v -0.0203197 -0.0068086 -0.0016109
v -0.0199998 -0.0067014 0.0023268
v -0.0203692 -0.0068252 0.0018495
v -0.0201845 -0.0067633 0.0022629
v -0.0203197 -0.0068086 0.0020882
v -0.0205282 -0.0033796 -0.0018495
v -0.0209074 -0.0034420 -0.0013722
v -0.0207178 -0.0034108 -0.0017856
v -0.0208566 -0.0034337 -0.0016109
v -0.0205282 -0.0033796 0.0023268
v -0.0209074 -0.0034420 0.0018495
v -0.0207178 -0.0034108 0.0022629
v -0.0208566 -0.0034337 0.0020882
v -0.0207053 -0.0000000 -0.0018495
v -0.0210878 0.0000000 -0.0013722
v -0.0208965 -0.0000000 -0.0017856
v -0.0210365 -0.0000000 -0.0016109
v -0.0207053 0.0000000 0.0023268
v -0.0210878 0.0000000 0.0018495
v -0.0208965 0.0000000 0.0022629
v -0.0210365 0.0000000 0.0020882
v -0.0205282 0.0033796 -0.0018495
v -0.0209074 0.0034420 -0.0013722
v -0.0207178 0.0034108 -0.0017856
v -0.0208566 0.0034337 -0.0016109
v -0.0205282 0.0033796 0.0023268
v -0.0209074 0.0034420 0.0018495
v -0.0207178 0.0034108 0.0022629
v -0.0208566 0.0034337 0.0020882
v -0.0199998 0.0067014 -0.0018495
v -0.0203692 0.0068252 -0.0013722
v -0.0201845 0.0067633 -0.0017856
v -0.0203197 0.0068086 -0.0016109
v -0.0199998 0.0067014 0.0023268
v -0.0203692 0.0068252 0.0018495
v -0.0201845 0.0067633 0.0022629
v -0.0203197 0.0068086 0.0020882
v -0.0191292 0.0099085 -0.0018495
v -0.0194826 0.0100916 -0.0013722
v -0.0193059 0.0100001 -0.0017856
v -0.0194352 0.0100671 -0.0016109
v -0.0191292 0.0099085 0.0023268
v -0.0194826 0.0100916 0.0018495
v -0.0193059 0.0100001 0.0022629
v -0.0194352 0.0100671 0.0020882
v -0.0179313 0.0129461 -0.0018495
v -0.0182626 0.0131853 -0.0013722
v -0.0180969 0.0130657 -0.0017856
v -0.0182182 0.0131532 -0.0016109
v -0.0179313 0.0129461 0.0023268
v -0.0182626 0.0131853 0.0018495
v -0.0180969 0.0130657 0.0022629
v -0.0182182 0.0131532 0.0020882
v -0.0164266 0.0157622 -0.0018495
v -0.0167301 0.0160534 -0.0013722
v -0.0165783 0.0159078 -0.0017856
v -0.0166894 0.0160144 -0.0016109
v -0.0164266 0.0157622 0.0023268
v -0.0167301 0.0160534 0.0018495
v -0.0165783 0.0159078 0.0022629
v -0.0166894 0.0160144 0.0020882
v -0.0146408 0.0183086 -0.0018495
v -0.0149113 0.0186468 -0.0013722
v -0.0147761 0.0184777 -0.0017856
v -0.0148751 0.0186015 -0.0016109
v -0.0146408 0.0183086 0.0023268
v -0.0149113 0.0186468 0.0018495
v -0.0147761 0.0184777 0.0022629
v -0.0148751 0.0186015 0.0020882
v -0.0126046 0.0205417 -0.0018495
v -0.0128374 0.0209212 -0.0013722
v -0.0127210 0.0207314 -0.0017856
v -0.0128062 0.0208703 -0.0016109
v -0.0126046 0.0205417 0.0023268
v -0.0128374 0.0209212 0.0018495
v -0.0127210 0.0207314 0.0022629
v -0.0128062 0.0208703 0.0020882
v -0.0103526 0.0224233 -0.0018495
v -0.0105439 0.0228376 -0.0013722
v -0.0104483 0.0226305 -0.0017856
v -0.0105183 0.0227821 -0.0016109
v -0.0103526 0.0224233 0.0023268
v -0.0105439 0.0228376 0.0018495
v -0.0104483 0.0226305 0.0022629
v -0.0105183 0.0227821 0.0020882
v -0.0079236 0.0239213 -0.0018495
v -0.0080699 0.0243632 -0.0013722
v -0.0079968 0.0241423 -0.0017856
v -0.0080503 0.0243040 -0.0016109
v -0.0079236 0.0239213 0.0023268
v -0.0080699 0.0243632 0.0018495
v -0.0079968 0.0241423 0.0022629
v -0.0080503 0.0243040 0.0020882
v -0.0053589 0.0250100 -0.0018495
v -0.0054579 0.0254720 -0.0013722
v -0.0054084 0.0252410 -0.0017856
v -0.0054447 0.0254101 -0.0016109
v -0.0053589 0.0250100 0.0023268
v -0.0054579 0.0254720 0.0018495
v -0.0054084 0.0252410 0.0022629
v -0.0054447 0.0254101 0.0020882
v -0.0027026 0.0256707 -0.0018495
v -0.0027525 0.0261450 -0.0013722
v -0.0027275 0.0259078 -0.0017856
v -0.0027458 0.0260814 -0.0016109
v -0.0027026 0.0256707 0.0023268
v -0.0027525 0.0261450 0.0018495
v -0.0027275 0.0259078 0.0022629
v -0.0027458 0.0260814 0.0020882
v -0.0010019 -0.0107391 0.0073981
v -0.0010019 -0.0108585 0.0075174
v -0.0010973 -0.0107391 0.0075174
v -0.0010019 -0.0107987 0.0074140
v -0.0010496 -0.0107391 0.0074140
v -0.0010475 -0.0107962 0.0074295
v -0.0010496 -0.0108425 0.0075174
v -0.0010019 -0.0108425 0.0074578
v -0.0010475 -0.0108270 0.0074603
v -0.0010846 -0.0107391 0.0074578
v -0.0010846 -0.0107987 0.0075174
v -0.0010722 -0.0107962 0.0074603
v -0.0010019 -0.0108585 0.0089493
v -0.0010019 -0.0107391 0.0090686
v -0.0010973 -0.0107391 0.0089493
v -0.0010019 -0.0108425 0.0090089
v -0.0010496 -0.0108425 0.0089493
v -0.0010475 -0.0108270 0.0090063
v -0.0010496 -0.0107391 0.0090527
v -0.0010019 -0.0107987 0.0090527
v -0.0010475 -0.0107962 0.0090372
v -0.0010846 -0.0107987 0.0089493
v -0.0010846 -0.0107391 0.0090089
v -0.0010722 -0.0107962 0.0090063
v -0.0010019 -0.0105005 0.0073981
v -0.0010973 -0.0105005 0.0075174
v -0.0010019 -0.0103812 0.0075174
v -0.0010496 -0.0105005 0.0074140
v -0.0010019 -0.0104409 0.0074140
v -0.0010475 -0.0104434 0.0074295
v -0.0010846 -0.0104409 0.0075174
v -0.0010846 -0.0105005 0.0074578
v -0.0010722 -0.0104434 0.0074603
v -0.0010019 -0.0103971 0.0074578
v -0.0010496 -0.0103971 0.0075174
v -0.0010475 -0.0104126 0.0074603
v -0.0010019 -0.0105005 0.0090686
v -0.0010019 -0.0103812 0.0089493
v -0.0010973 -0.0105005 0.0089493
v -0.0010019 -0.0104409 0.0090527
v -0.0010496 -0.0105005 0.0090527
v -0.0010475 -0.0104434 0.0090372
v -0.0010496 -0.0103971 0.0089493
v -0.0010019 -0.0103971 0.0090089
v -0.0010475 -0.0104126 0.0090063
v -0.0010846 -0.0105005 0.0090089
v -0.0010846 -0.0104409 0.0089493
v -0.0010722 -0.0104434 0.0090063
v -0.0009065 -0.0107391 0.0073981
v -0.0008111 -0.0107391 0.0075174
v -0.0009065 -0.0108585 0.0075174
v -0.0008588 -0.0107391 0.0074140
v -0.0009065 -0.0107987 0.0074140
v -0.0008609 -0.0107962 0.0074295
v -0.0008238 -0.0107987 0.0075174
v -0.0008238 -0.0107391 0.0074578
v -0.0008362 -0.0107962 0.0074603
v -0.0009065 -0.0108425 0.0074578
v -0.0008588 -0.0108425 0.0075174
v -0.0008609 -0.0108270 0.0074603
v -0.0009065 -0.0107391 0.0090686
v -0.0009065 -0.0108585 0.0089493
v -0.0008111 -0.0107391 0.0089493
v -0.0009065 -0.0107987 0.0090527
v -0.0008588 -0.0107391 0.0090527
v -0.0008609 -0.0107962 0.0090372
v -0.0008588 -0.0108425 0.0089493
v -0.0009065 -0.0108425 0.0090089
v -0.0008609 -0.0108270 0.0090063
v -0.0008238 -0.0107391 0.0090089
v -0.0008238 -0.0107987 0.0089493
v -0.0008362 -0.0107962 0.0090063
v -0.0009065 -0.0105005 0.0073981
v -0.0009065 -0.0103812 0.0075174
v -0.0008111 -0.0105005 0.0075174
v -0.0009065 -0.0104409 0.0074140
v -0.0008588 -0.0105005 0.0074140
v -0.0008609 -0.0104434 0.0074295
v -0.0008588 -0.0103971 0.0075174
v -0.0009065 -0.0103971 0.0074578
v -0.0008609 -0.0104126 0.0074603
v -0.0008238 -0.0105005 0.0074578
v -0.0008238 -0.0104409 0.0075174
v -0.0008362 -0.0104434 0.0074603
v -0.0009065 -0.0105005 0.0090686
v -0.0008111 -0.0105005 0.0089493
v -0.0009065 -0.0103812 0.0089493
v -0.0008588 -0.0105005 0.0090527
v -0.0009065 -0.0104409 0.0090527
v -0.0008609 -0.0104434 0.0090372
v -0.0008238 -0.0104409 0.0089493
v -0.0008238 -0.0105005 0.0090089
v -0.0008362 -0.0104434 0.0090063
v -0.0009065 -0.0103971 0.0090089
v -0.0008588 -0.0103971 0.0089493
v -0.0008609 -0.0104126 0.0090063
v -0.0000477 -0.0107391 0.0073981
v -0.0000477 -0.0108585 0.0075174
v -0.0001431 -0.0107391 0.0075174
v -0.0000477 -0.0107987 0.0074140
v -0.0000954 -0.0107391 0.0074140
v -0.0000933 -0.0107962 0.0074295
v -0.0000954 -0.0108425 0.0075174
v -0.0000477 -0.0108425 0.0074578
v -0.0000933 -0.0108270 0.0074603
v -0.0001304 -0.0107391 0.0074578
v -0.0001304 -0.0107987 0.0075174
v -0.0001180 -0.0107962 0.0074603
v -0.0000477 -0.0108585 0.0089493
v -0.0000477 -0.0107391 0.0090686
v -0.0001431 -0.0107391 0.0089493
v -0.0000477 -0.0108425 0.0090089
v -0.0000954 -0.0108425 0.0089493
v -0.0000933 -0.0108270 0.0090063
v -0.0000954 -0.0107391 0.0090527
v -0.0000477 -0.0107987 0.0090527
v -0.0000933 -0.0107962 0.0090372
v -0.0001304 -0.0107987 0.0089493
v -0.0001304 -0.0107391 0.0090089
v -0.0001180 -0.0107962 0.0090063
v -0.0000477 -0.0105005 0.0073981
v -0.0001431 -0.0105005 0.0075174
v -0.0000477 -0.0103812 0.0075174
v -0.0000954 -0.0105005 0.0074140
v -0.0000477 -0.0104409 0.0074140
v -0.0000933 -0.0104434 0.0074295
v -0.0001304 -0.0104409 0.0075174
v -0.0001304 -0.0105005 0.0074578
v -0.0001180 -0.0104434 0.0074603
v -0.0000477 -0.0103971 0.0074578
v -0.0000954 -0.0103971 0.0075174
v -0.0000933 -0.0104126 0.0074603
v -0.0000477 -0.0105005 0.0090686
v -0.0000477 -0.0103812 0.0089493
v -0.0001431 -0.0105005 0.0089493
v -0.0000477 -0.0104409 0.0090527
v -0.0000954 -0.0105005 0.0090527
v -0.0000933 -0.0104434 0.0090372
v -0.0000954 -0.0103971 0.0089493
v -0.0000477 -0.0103971 0.0090089
v -0.0000933 -0.0104126 0.0090063
v -0.0001304 -0.0105005 0.0090089
v -0.0001304 -0.0104409 0.0089493
v -0.0001180 -0.0104434 0.0090063
v 0.0000477 -0.0107391 0.0073981
v 0.0001431 -0.0107391 0.0075174
v 0.0000477 -0.0108585 0.0075174
v 0.0000954 -0.0107391 0.0074140
v 0.0000477 -0.0107987 0.0074140
v 0.0000933 -0.0107962 0.0074295
v 0.0001304 -0.0107987 0.0075174
v 0.0001304 -0.0107391 0.0074578
v 0.0001180 -0.0107962 0.0074603
v 0.0000477 -0.0108425 0.0074578
v 0.0000954 -0.0108425 0.0075174
v 0.0000933 -0.0108270 0.0074603
v 0.0000477 -0.0107391 0.0090686
v 0.0000477 -0.0108585 0.0089493
v 0.0001431 -0.0107391 0.0089493
v 0.0000477 -0.0107987 0.0090527
v 0.0000954 -0.0107391 0.0090527
v 0.0000933 -0.0107962 0.0090372
v 0.0000954 -0.0108425 0.0089493
v 0.0000477 -0.0108425 0.0090089
v 0.0000933 -0.0108270 0.0090063
v 0.0001304 -0.0107391 0.0090089
v 0.0001304 -0.0107987 0.0089493
v 0.0001180 -0.0107962 0.0090063
v 0.0000477 -0.0105005 0.0073981
v 0.0000477 -0.0103812 0.0075174
v 0.0001431 -0.0105005 0.0075174
v 0.0000477 -0.0104409 0.0074140
v 0.0000954 -0.0105005 0.0074140
v 0.0000933 -0.0104434 0.0074295
v 0.0000954 -0.0103971 0.0075174
v 0.0000477 -0.0103971 0.0074578
v 0.0000933 -0.0104126 0.0074603
v 0.0001304 -0.0105005 0.0074578
v 0.0001304 -0.0104409 0.0075174
v 0.0001180 -0.0104434 0.0074603
v 0.0000477 -0.0105005 0.0090686
v 0.0001431 -0.0105005 0.0089493
v 0.0000477 -0.0103812 0.0089493
v 0.0000954 -0.0105005 0.0090527
v 0.0000477 -0.0104409 0.0090527
v 0.0000933 -0.0104434 0.0090372
v 0.0001304 -0.0104409 0.0089493
v 0.0001304 -0.0105005 0.0090089
v 0.0001180 -0.0104434 0.0090063
v 0.0000477 -0.0103971 0.0090089
v 0.0000954 -0.0103971 0.0089493
v 0.0000933 -0.0104126 0.0090063
v 0.0009065 -0.0107391 0.0073981
v 0.0009065 -0.0108585 0.0075174
v 0.0008111 -0.0107391 0.0075174
v 0.0009065 -0.0107987 0.0074140
v 0.0008588 -0.0107391 0.0074140
v 0.0008609 -0.0107962 0.0074295
v 0.0008588 -0.0108425 0.0075174
v 0.0009065 -0.0108425 0.0074578
v 0.0008609 -0.0108270 0.0074603
v 0.0008238 -0.0107391 0.0074578
v 0.0008238 -0.0107987 0.0075174
v 0.0008362 -0.0107962 0.0074603
v 0.0009065 -0.0108585 0.0089493
v 0.0009065 -0.0107391 0.0090686
v 0.0008111 -0.0107391 0.0089493
v 0.0009065 -0.0108425 0.0090089
v 0.0008588 -0.0108425 0.0089493
v 0.0008609 -0.0108270 0.0090063
v 0.0008588 -0.0107391 0.0090527
v 0.0009065 -0.0107987 0.0090527
v 0.0008609 -0.0107962 0.0090372
v 0.0008238 -0.0107987 0.0089493
v 0.0008238 -0.0107391 0.0090089
v 0.0008362 -0.0107962 0.0090063
v 0.0009065 -0.0105005 0.0073981
v 0.0008111 -0.0105005 0.0075174
v 0.0009065 -0.0103812 0.0075174
v 0.0008588 -0.0105005 0.0074140
v 0.0009065 -0.0104409 0.0074140
v 0.0008609 -0.0104434 0.0074295
v 0.0008238 -0.0104409 0.0075174
v 0.0008238 -0.0105005 0.0074578
v 0.0008362 -0.0104434 0.0074603
v 0.0009065 -0.0103971 0.0074578
v 0.0008588 -0.0103971 0.0075174
v 0.0008609 -0.0104126 0.0074603
v 0.0009065 -0.0105005 0.0090686
v 0.0009065 -0.0103812 0.0089493
v 0.0008111 -0.0105005 0.0089493
v 0.0009065 -0.0104409 0.0090527
v 0.0008588 -0.0105005 0.0090527
v 0.0008609 -0.0104434 0.0090372
v 0.0008588 -0.0103971 0.0089493
v 0.0009065 -0.0103971 0.0090089
v 0.0008609 -0.0104126 0.0090063
v 0.0008238 -0.0105005 0.0090089
v 0.0008238 -0.0104409 0.0089493
v 0.0008362 -0.0104434 0.0090063
v 0.0010019 -0.0107391 0.0073981
v 0.0010973 -0.0107391 0.0075174
v 0.0010019 -0.0108585 0.0075174
v 0.0010496 -0.0107391 0.0074140
v 0.0010019 -0.0107987 0.0074140
v 0.0010475 -0.0107962 0.0074295
v 0.0010846 -0.0107987 0.0075174
v 0.0010846 -0.0107391 0.0074578
v 0.0010722 -0.0107962 0.0074603
v 0.0010019 -0.0108425 0.0074578
v 0.0010496 -0.0108425 0.0075174
v 0.0010475 -0.0108270 0.0074603
v 0.0010019 -0.0107391 0.0090686
v 0.0010019 -0.0108585 0.0089493
v 0.0010973 -0.0107391 0.0089493
v 0.0010019 -0.0107987 0.0090527
v 0.0010496 -0.0107391 0.0090527
v 0.0010475 -0.0107962 0.0090372
v 0.0010496 -0.0108425 0.0089493
v 0.0010019 -0.0108425 0.0090089
v 0.0010475 -0.0108270 0.0090063
v 0.0010846 -0.0107391 0.0090089
v 0.0010846 -0.0107987 0.0089493
v 0.0010722 -0.0107962 0.0090063
v 0.0010019 -0.0105005 0.0073981
v 0.0010019 -0.0103812 0.0075174
v 0.0010973 -0.0105005 0.0075174
v 0.0010019 -0.0104409 0.0074140
v 0.0010496 -0.0105005 0.0074140
v 0.0010475 -0.0104434 0.0074295
v 0.0010496 -0.0103971 0.0075174
v 0.0010019 -0.0103971 0.0074578
v 0.0010475 -0.0104126 0.0074603
v 0.0010846 -0.0105005 0.0074578
v 0.0010846 -0.0104409 0.0075174
v 0.0010722 -0.0104434 0.0074603
v 0.0010019 -0.0105005 0.0090686
v 0.0010973 -0.0105005 0.0089493
v 0.0010019 -0.0103812 0.0089493
v 0.0010496 -0.0105005 0.0090527
v 0.0010019 -0.0104409 0.0090527
v 0.0010475 -0.0104434 0.0090372
v 0.0010846 -0.0104409 0.0089493
v 0.0010846 -0.0105005 0.0090089
v 0.0010722 -0.0104434 0.0090063
v 0.0010019 -0.0103971 0.0090089
v 0.0010496 -0.0103971 0.0089493
v 0.0010475 -0.0104126 0.0090063
f 2 10 12
f 2 12 4
f 4 12 11
f 4 11 3
f 3 11 9
f 3 9 1
f 14 6 8
f 14 8 16
f 16 8 7
f 16 7 15
f 15 7 5
f 15 5 13
f 10 18 20
f 10 20 12
f 12 20 19
f 12 19 11
f 11 19 17
f 11 17 9
f 22 14 16
f 22 16 24
f 24 16 15
f 24 15 23
f 23 15 13
f 23 13 21
f 18 26 28
f 18 28 20
f 20 28 27
f 20 27 19
f 19 27 25
f 19 25 17
f 30 22 24
f 30 24 32
f 32 24 23
f 32 23 31
f 31 23 21
f 31 21 29
f 26 34 36
f 26 36 28
f 28 36 35
f 28 35 27
f 27 35 33
f 27 33 25
f 38 30 32
f 38 32 40
f 40 32 31
f 40 31 39
f 39 31 29
f 39 29 37
f 34 42 44
f 34 44 36
f 36 44 43
f 36 43 35
f 35 43 41
f 35 41 33
f 46 38 40
f 46 40 48
f 48 40 39
f 48 39 47
f 47 39 37
f 47 37 45
f 42 50 52
f 42 52 44
f 44 52 51
f 44 51 43
f 43 51 49
f 43 49 41
f 54 46 48
f 54 48 56
f 56 48 47
f 56 47 55
f 55 47 45
f 55 45 53
f 50 58 60
f 50 60 52
f 52 60 59
f 52 59 51
f 51 59 57
f 51 57 49
f 62 54 56
f 62 56 64
f 64 56 55
f 64 55 63
f 63 55 53
f 63 53 61
f 58 66 68
f 58 68 60
f 60 68 67
f 60 67 59
f 59 67 65
f 59 65 57
f 70 62 64
f 70 64 72
f 72 64 63
f 72 63 71
f 71 63 61
f 71 61 69
f 66 74 76
f 66 76 68
f 68 76 75
f 68 75 67
f 67 75 73
f 67 73 65
f 78 70 72
f 78 72 80
f 80 72 71
f 80 71 79
f 79 71 69
f 79 69 77
f 74 82 84
f 74 84 76
f 76 84 83
f 76 83 75
f 75 83 81
f 75 81 73
f 86 78 80
f 86 80 88
f 88 80 79
f 88 79 87
f 87 79 77
f 87 77 85
f 82 90 92
f 82 92 84
f 84 92 91
f 84 91 83
f 83 91 89
f 83 89 81
f 94 86 88
f 94 88 96
f 96 88 87
f 96 87 95
f 95 87 85
f 95 85 93
f 90 98 100
f 90 100 92
f 92 100 99
f 92 99 91
f 91 99 97
f 91 97 89
f 102 94 96
f 102 96 104
f 104 96 95
f 104 95 103
f 103 95 93
f 103 93 101
f 98 106 108
f 98 108 100
f 100 108 107
f 100 107 99
f 99 107 105
f 99 105 97
f 110 102 104
f 110 104 112
f 112 104 103
f 112 103 111
f 111 103 101
f 111 101 109
f 106 114 116
f 106 116 108
f 108 116 115
f 108 115 107
f 107 115 113
f 107 113 105
f 118 110 112
f 118 112 120
f 120 112 111
f 120 111 119
f 119 111 109
f 119 109 117
f 114 122 124
f 114 124 116
f 116 124 123
f 116 123 115
f 115 123 121
f 115 121 113
f 126 118 120
f 126 120 128
f 128 120 119
f 128 119 127
f 127 119 117
f 127 117 125
f 122 130 132
f 122 132 124
f 124 132 131
f 124 131 123
f 123 131 129
f 123 129 121
f 134 126 128
f 134 128 136
f 136 128 127
f 136 127 135
f 135 127 125
f 135 125 133
f 130 138 140
f 130 140 132
f 132 140 139
f 132 139 131
f 131 139 137
f 131 137 129
f 142 134 136
f 142 136 144
f 144 136 135
f 144 135 143
f 143 135 133
f 143 133 141
f 138 146 148
f 138 148 140
f 140 148 147
f 140 147 139
f 139 147 145
f 139 145 137
f 150 142 144
f 150 144 152
f 152 144 143
f 152 143 151
f 151 143 141
f 151 141 149
f 146 154 156
f 146 156 148
f 148 156 155
f 148 155 147
f 147 155 153
f 147 153 145
f 158 150 152
f 158 152 160
f 160 152 151
f 160 151 159
f 159 151 149
f 159 149 157
f 154 162 164
f 154 164 156
f 156 164 163
f 156 163 155
f 155 163 161
f 155 161 153
f 166 158 160
f 166 160 168
f 168 160 159
f 168 159 167
f 167 159 157
f 167 157 165
f 162 170 172
f 162 172 164
f 164 172 171
f 164 171 163
f 163 171 169
f 163 169 161
f 174 166 168
f 174 168 176
f 176 168 167
f 176 167 175
f 175 167 165
f 175 165 173
f 170 178 180
f 170 180 172
f 172 180 179
f 172 179 171
f 171 179 177
f 171 177 169
f 182 174 176
f 182 176 184
f 184 176 175
f 184 175 183
f 183 175 173
f 183 173 181
f 178 186 188
f 178 188 180
f 180 188 187
f 180 187 179
f 179 187 185
f 179 185 177
f 190 182 184
f 190 184 192
f 192 184 183
f 192 183 191
f 191 183 181
f 191 181 189
f 186 194 196
f 186 196 188
f 188 196 195
f 188 195 187
f 187 195 193
f 187 193 185
f 198 190 192
f 198 192 200
f 200 192 191
f 200 191 199
f 199 191 189
f 199 189 197
f 194 202 204
f 194 204 196
f 196 204 203
f 196 203 195
f 195 203 201
f 195 201 193
f 206 198 200
f 206 200 208
f 208 200 199
f 208 199 207
f 207 199 197
f 207 197 205
f 202 210 212
f 202 212 204
f 204 212 211
f 204 211 203
f 203 211 209
f 203 209 201
f 214 206 208
f 214 208 216
f 216 208 207
f 216 207 215
f 215 207 205
f 215 205 213
f 210 218 220
f 210 220 212
f 212 220 219
f 212 219 211
f 211 219 217
f 211 217 209
f 222 214 216
f 222 216 224
f 224 216 215
f 224 215 223
f 223 215 213
f 223 213 221
f 218 226 228
f 218 228 220
f 220 228 227
f 220 227 219
f 219 227 225
f 219 225 217
f 230 222 224
f 230 224 232
f 232 224 223
f 232 223 231
f 231 223 221
f 231 221 229
f 226 234 236
f 226 236 228
f 228 236 235
f 228 235 227
f 227 235 233
f 227 233 225
f 238 230 232
f 238 232 240
f 240 232 231
f 240 231 239
f 239 231 229
f 239 229 237
f 234 242 244
f 234 244 236
f 236 244 243
f 236 243 235
f 235 243 241
f 235 241 233
f 246 238 240
f 246 240 248
f 248 240 239
f 248 239 247
f 247 239 237
f 247 237 245
f 242 250 252
f 242 252 244
f 244 252 251
f 244 251 243
f 243 251 249
f 243 249 241
f 254 246 248
f 254 248 256
f 256 248 247
f 256 247 255
f 255 247 245
f 255 245 253
f 250 258 260
f 250 260 252
f 252 260 259
f 252 259 251
f 251 259 257
f 251 257 249
f 262 254 256
f 262 256 264
f 264 256 255
f 264 255 263
f 263 255 253
f 263 253 261
f 258 266 268
f 258 268 260
f 260 268 267
f 260 267 259
f 259 267 265
f 259 265 257
f 270 262 264
f 270 264 272
f 272 264 263
f 272 263 271
f 271 263 261
f 271 261 269
f 266 274 276
f 266 276 268
f 268 276 275
f 268 275 267
f 267 275 273
f 267 273 265
f 278 270 272
f 278 272 280
f 280 272 271
f 280 271 279
f 279 271 269
f 279 269 277
f 274 282 284
f 274 284 276
f 276 284 283
f 276 283 275
f 275 283 281
f 275 281 273
f 286 278 280
f 286 280 288
f 288 280 279
f 288 279 287
f 287 279 277
f 287 277 285
f 282 290 292
f 282 292 284
f 284 292 291
f 284 291 283
f 283 291 289
f 283 289 281
f 294 286 288
f 294 288 296
f 296 288 287
f 296 287 295
f 295 287 285
f 295 285 293
f 290 298 300
f 290 300 292
f 292 300 299
f 292 299 291
f 291 299 297
f 291 297 289
f 302 294 296
f 302 296 304
f 304 296 295
f 304 295 303
f 303 295 293
f 303 293 301
f 298 306 308
f 298 308 300
f 300 308 307
f 300 307 299
f 299 307 305
f 299 305 297
f 310 302 304
f 310 304 312
f 312 304 303
f 312 303 311
f 311 303 301
f 311 301 309
f 306 314 316
f 306 316 308
f 308 316 315
f 308 315 307
f 307 315 313
f 307 313 305
f 318 310 312
f 318 312 320
f 320 312 311
f 320 311 319
f 319 311 309
f 319 309 317
f 314 322 324
f 314 324 316
f 316 324 323
f 316 323 315
f 315 323 321
f 315 321 313
f 326 318 320
f 326 320 328
f 328 320 319
f 328 319 327
f 327 319 317
f 327 317 325
f 322 330 332
f 322 332 324
f 324 332 331
f 324 331 323
f 323 331 329
f 323 329 321
f 334 326 328
f 334 328 336
f 336 328 327
f 336 327 335
f 335 327 325
f 335 325 333
f 330 338 340
f 330 340 332
f 332 340 339
f 332 339 331
f 331 339 337
f 331 337 329
f 342 334 336
f 342 336 344
f 344 336 335
f 344 335 343
f 343 335 333
f 343 333 341
f 338 346 348
f 338 348 340
f 340 348 347
f 340 347 339
f 339 347 345
f 339 345 337
f 350 342 344
f 350 344 352
f 352 344 343
f 352 343 351
f 351 343 341
f 351 341 349
f 346 354 356
f 346 356 348
f 348 356 355
f 348 355 347
f 347 355 353
f 347 353 345
f 358 350 352
f 358 352 360
f 360 352 351
f 360 351 359
f 359 351 349
f 359 349 357
f 354 362 364
f 354 364 356
f 356 364 363
f 356 363 355
f 355 363 361
f 355 361 353
f 366 358 360
f 366 360 368
f 368 360 359
f 368 359 367
f 367 359 357
f 367 357 365
f 362 370 372
f 362 372 364
f 364 372 371
f 364 371 363
f 363 371 369
f 363 369 361
f 374 366 368
f 374 368 376
f 376 368 367
f 376 367 375
f 375 367 365
f 375 365 373
f 370 378 380
f 370 380 372
f 372 380 379
f 372 379 371
f 371 379 377
f 371 377 369
f 382 374 376
f 382 376 384
f 384 376 375
f 384 375 383
f 383 375 373
f 383 373 381
f 378 2 4
f 378 4 380
f 380 4 3
f 380 3 379
f 379 3 1
f 379 1 377
f 6 382 384
f 6 384 8
f 8 384 383
f 8 383 7
f 7 383 381
f 7 381 5
f 377 1 9
f 9 17 25
f 25 33 41
f 41 49 57
f 57 65 73
f 73 81 89
f 89 97 105
f 105 113 121
f 121 129 137
f 137 145 153
f 153 161 169
f 169 177 185
f 185 193 201
f 201 209 217
f 217 225 233
f 233 241 249
f 249 257 265
f 265 273 281
f 281 289 297
f 297 305 313
f 313 321 329
f 329 337 345
f 345 353 361
f 361 369 377
f 377 9 25
f 25 41 57
f 57 73 89
f 89 105 121
f 121 137 153
f 153 169 185
f 185 201 217
f 217 233 249
f 249 265 281
f 281 297 313
f 313 329 345
f 345 361 377
f 377 25 57
f 57 89 121
f 121 153 185
f 185 217 249
f 249 281 313
f 313 345 377
f 377 57 121
f 121 185 249
f 249 313 377
f 121 249 377
f 2 6 14
f 2 14 10
f 378 382 6
f 378 6 2
f 21 13 5
f 5 381 373
f 373 365 357
f 357 349 341
f 341 333 325
f 325 317 309
f 309 301 293
f 293 285 277
f 277 269 261
f 261 253 245
f 245 237 229
f 229 221 213
f 213 205 197
f 197 189 181
f 181 173 165
f 165 157 149
f 149 141 133
f 133 125 117
f 117 109 101
f 101 93 85
f 85 77 69
f 69 61 53
f 53 45 37
f 37 29 21
f 21 5 373
f 373 357 341
f 341 325 309
f 309 293 277
f 277 261 245
f 245 229 213
f 213 197 181
f 181 165 149
f 149 133 117
f 117 101 85
f 85 69 53
f 53 37 21
f 21 373 341
f 341 309 277
f 277 245 213
f 213 181 149
f 149 117 85
f 85 53 21
f 21 341 277
f 277 213 149
f 149 85 21
f 277 149 21
f 10 14 22
f 10 22 18
f 18 22 30
f 18 30 26
f 26 30 38
f 26 38 34
f 34 38 46
f 34 46 42
f 42 46 54
f 42 54 50
f 50 54 62
f 50 62 58
f 58 62 70
f 58 70 66
f 66 70 78
f 66 78 74
f 74 78 86
f 74 86 82
f 82 86 94
f 82 94 90
f 90 94 102
f 90 102 98
f 98 102 110
f 98 110 106
f 106 110 118
f 106 118 114
f 114 118 126
f 114 126 122
f 122 126 134
f 122 134 130
f 130 134 142
f 130 142 138
f 138 142 150
f 138 150 146
f 146 150 158
f 146 158 154
f 154 158 166
f 154 166 162
f 162 166 174
f 162 174 170
f 170 174 182
f 170 182 178
f 178 182 190
f 178 190 186
f 186 190 198
f 186 198 194
f 194 198 206
f 194 206 202
f 202 206 214
f 202 214 210
f 210 214 222
f 210 222 218
f 218 222 230
f 218 230 226
f 226 230 238
f 226 238 234
f 234 238 246
f 234 246 242
f 242 246 254
f 242 254 250
f 250 254 262
f 250 262 258
f 258 262 270
f 258 270 266
f 266 270 278
f 266 278 274
f 274 278 286
f 274 286 282
f 282 286 294
f 282 294 290
f 290 294 302
f 290 302 298
f 298 302 310
f 298 310 306
f 306 310 318
f 306 318 314
f 314 318 326
f 314 326 322
f 322 326 334
f 322 334 330
f 330 334 342
f 330 342 338
f 338 342 350
f 338 350 346
f 346 350 358
f 346 358 354
f 354 358 366
f 354 366 362
f 362 366 374
f 362 374 370
f 370 374 382
f 370 382 378
f 385 388 390
f 385 390 389
f 388 392 393
f 388 393 390
f 386 391 393
f 386 393 392
f 391 395 396
f 391 396 393
f 387 394 396
f 387 396 395
f 394 389 390
f 394 390 396
f 390 393 396
f 397 400 402
f 397 402 401
f 400 404 405
f 400 405 402
f 398 403 405
f 398 405 404
f 403 407 408
f 403 408 405
f 399 406 408
f 399 408 407
f 406 401 402
f 406 402 408
f 402 405 408
f 409 412 414
f 409 414 413
f 412 416 417
f 412 417 414
f 410 415 417
f 410 417 416
f 415 419 420
f 415 420 417
f 411 418 420
f 411 420 419
f 418 413 414
f 418 414 420
f 414 417 420
f 421 424 426
f 421 426 425
f 424 428 429
f 424 429 426
f 422 427 429
f 422 429 428
f 427 431 432
f 427 432 429
f 423 430 432
f 423 432 431
f 430 425 426
f 430 426 432
f 426 429 432
f 433 436 438
f 433 438 437
f 436 440 441
f 436 441 438
f 434 439 441
f 434 441 440
f 439 443 444
f 439 444 441
f 435 442 444
f 435 444 443
f 442 437 438
f 442 438 444
f 438 441 444
f 445 448 450
f 445 450 449
f 448 452 453
f 448 453 450
f 446 451 453
f 446 453 452
f 451 455 456
f 451 456 453
f 447 454 456
f 447 456 455
f 454 449 450
f 454 450 456
f 450 453 456
f 457 460 462
f 457 462 461
f 460 464 465
f 460 465 462
f 458 463 465
f 458 465 464
f 463 467 468
f 463 468 465
f 459 466 468
f 459 468 467
f 466 461 462
f 466 462 468
f 462 465 468
f 469 472 474
f 469 474 473
f 472 476 477
f 472 477 474
f 470 475 477
f 470 477 476
f 475 479 480
f 475 480 477
f 471 478 480
f 471 480 479
f 478 473 474
f 478 474 480
f 474 477 480
f 409 385 389
f 409 389 412
f 412 389 394
f 412 394 416
f 416 394 387
f 416 387 410
f 386 397 401
f 386 401 391
f 391 401 406
f 391 406 395
f 395 406 399
f 395 399 387
f 398 421 425
f 398 425 403
f 403 425 430
f 403 430 407
f 407 430 423
f 407 423 399
f 422 411 419
f 422 419 427
f 427 419 415
f 427 415 431
f 431 415 410
f 431 410 423
f 457 409 413
f 457 413 460
f 460 413 418
f 460 418 464
f 464 418 411
f 464 411 458
f 421 469 473
f 421 473 424
f 424 473 478
f 424 478 428
f 428 478 471
f 428 471 422
f 470 459 467
f 470 467 475
f 475 467 463
f 475 463 479
f 479 463 458
f 479 458 471
f 433 457 461
f 433 461 436
f 436 461 466
f 436 466 440
f 440 466 459
f 440 459 434
f 469 445 449
f 469 449 472
f 472 449 454
f 472 454 476
f 476 454 447
f 476 447 470
f 446 435 443
f 446 443 451
f 451 443 439
f 451 439 455
f 455 439 434
f 455 434 447
f 385 433 437
f 385 437 388
f 388 437 442
f 388 442 392
f 392 442 435
f 392 435 386
f 445 398 404
f 445 404 448
f 448 404 400
f 448 400 452
f 452 400 397
f 452 397 446
f 409 457 433
f 409 433 385
f 387 399 423
f 387 423 410
f 435 446 397
f 435 397 386
f 469 421 398
f 469 398 445
f 411 422 471
f 411 471 458
f 459 470 447
f 459 447 434
f 481 484 486
f 481 486 485
f 484 488 489
f 484 489 486
f 482 487 489
f 482 489 488
f 487 491 492
f 487 492 489
f 483 490 492
f 483 492 491
f 490 485 486
f 490 486 492
f 486 489 492
f 493 496 498
f 493 498 497
f 496 500 501
f 496 501 498
f 494 499 501
f 494 501 500
f 499 503 504
f 499 504 501
f 495 502 504
f 495 504 503
f 502 497 498
f 502 498 504
f 498 501 504
f 505 508 510
f 505 510 509
f 508 512 513
f 508 513 510
f 506 511 513
f 506 513 512
f 511 515 516
f 511 516 513
f 507 514 516
f 507 516 515
f 514 509 510
f 514 510 516
f 510 513 516
f 517 520 522
f 517 522 521
f 520 524 525
f 520 525 522
f 518 523 525
f 518 525 524
f 523 527 528
f 523 528 525
f 519 526 528
f 519 528 527
f 526 521 522
f 526 522 528
f 522 525 528
f 529 532 534
f 529 534 533
f 532 536 537
f 532 537 534
f 530 535 537
f 530 537 536
f 535 539 540
f 535 540 537
f 531 538 540
f 531 540 539
f 538 533 534
f 538 534 540
f 534 537 540
f 541 544 546
f 541 546 545
f 544 548 549
f 544 549 546
f 542 547 549
f 542 549 548
f 547 551 552
f 547 552 549
f 543 550 552
f 543 552 551
f 550 545 546
f 550 546 552
f 546 549 552
f 553 556 558
f 553 558 557
f 556 560 561
f 556 561 558
f 554 559 561
f 554 561 560
f 559 563 564
f 559 564 561
f 555 562 564
f 555 564 563
f 562 557 558
f 562 558 564
f 558 561 564
f 565 568 570
f 565 570 569
f 568 572 573
f 568 573 570
f 566 571 573
f 566 573 572
f 571 575 576
f 571 576 573
f 567 574 576
f 567 576 575
f 574 569 570
f 574 570 576
f 570 573 576
f 505 481 485
f 505 485 508
f 508 485 490
f 508 490 512
f 512 490 483
f 512 483 506
f 482 493 497
f 482 497 487
f 487 497 502
f 487 502 491
f 491 502 495
f 491 495 483
f 494 517 521
f 494 521 499
f 499 521 526
f 499 526 503
f 503 526 519
f 503 519 495
f 518 507 515
f 518 515 523
f 523 515 511
f 523 511 527
f 527 511 506
f 527 506 519
f 553 505 509
f 553 509 556
f 556 509 514
f 556 514 560
f 560 514 507
f 560 507 554
f 517 565 569
f 517 569 520
f 520 569 574
f 520 574 524
f 524 574 567
f 524 567 518
f 566 555 563
f 566 563 571
f 571 563 559
f 571 559 575
f 575 559 554
f 575 554 567
f 529 553 557
f 529 557 532
f 532 557 562
f 532 562 536
f 536 562 555
f 536 555 530
f 565 541 545
f 565 545 568
f 568 545 550
f 568 550 572
f 572 550 543
f 572 543 566
f 542 531 539
f 542 539 547
f 547 539 535
f 547 535 551
f 551 535 530
f 551 530 543
f 481 529 533
f 481 533 484
f 484 533 538
f 484 538 488
f 488 538 531
f 488 531 482
f 541 494 500
f 541 500 544
f 544 500 496
f 544 496 548
f 548 496 493
f 548 493 542
f 505 553 529
f 505 529 481
f 483 495 519
f 483 519 506
f 531 542 493
f 531 493 482
f 565 517 494
f 565 494 541
f 507 518 567
f 507 567 554
f 555 566 543
f 555 543 530
f 577 580 582
f 577 582 581
f 580 584 585
f 580 585 582
f 578 583 585
f 578 585 584
f 583 587 588
f 583 588 585
f 579 586 588
f 579 588 587
f 586 581 582
f 586 582 588
f 582 585 588
f 589 592 594
f 589 594 593
f 592 596 597
f 592 597 594
f 590 595 597
f 590 597 596
f 595 599 600
f 595 600 597
f 591 598 600
f 591 600 599
f 598 593 594
f 598 594 600
f 594 597 600
f 601 604 606
f 601 606 605
f 604 608 609
f 604 609 606
f 602 607 609
f 602 609 608
f 607 611 612
f 607 612 609
f 603 610 612
f 603 612 611
f 610 605 606
f 610 606 612
f 606 609 612
f 613 616 618
f 613 618 617
f 616 620 621
f 616 621 618
f 614 619 621
f 614 621 620
f 619 623 624
f 619 624 621
f 615 622 624
f 615 624 623
f 622 617 618
f 622 618 624
f 618 621 624
f 625 628 630
f 625 630 629
f 628 632 633
f 628 633 630
f 626 631 633
f 626 633 632
f 631 635 636
f 631 636 633
f 627 634 636
f 627 636 635
f 634 629 630
f 634 630 636
f 630 633 636
f 637 640 642
f 637 642 641
f 640 644 645
f 640 645 642
f 638 643 645
f 638 645 644
f 643 647 648
f 643 648 645
f 639 646 648
f 639 648 647
f 646 641 642
f 646 642 648
f 642 645 648
f 649 652 654
f 649 654 653
f 652 656 657
f 652 657 654
f 650 655 657
f 650 657 656
f 655 659 660
f 655 660 657
f 651 658 660
f 651 660 659
f 658 653 654
f 658 654 660
f 654 657 660
f 661 664 666
f 661 666 665
f 664 668 669
f 664 669 666
f 662 667 669
f 662 669 668
f 667 671 672
f 667 672 669
f 663 670 672
f 663 672 671
f 670 665 666
f 670 666 672
f 666 669 672
f 601 577 581
f 601 581 604
f 604 581 586
f 604 586 608
f 608 586 579
f 608 579 602
f 578 589 593
f 578 593 583
f 583 593 598
f 583 598 587
f 587 598 591
f 587 591 579
f 590 613 617
f 590 617 595
f 595 617 622
f 595 622 599
f 599 622 615
f 599 615 591
f 614 603 611
f 614 611 619
f 619 611 607
f 619 607 623
f 623 607 602
f 623 602 615
f 649 601 605
f 649 605 652
f 652 605 610
f 652 610 656
f 656 610 603
f 656 603 650
f 613 661 665
f 613 665 616
f 616 665 670
f 616 670 620
f 620 670 663
f 620 663 614
f 662 651 659
f 662 659 667
f 667 659 655
f 667 655 671
f 671 655 650
f 671 650 663
f 625 649 653
f 625 653 628
f 628 653 658
f 628 658 632
f 632 658 651
f 632 651 626
f 661 637 641
f 661 641 664
f 664 641 646
f 664 646 668
f 668 646 639
f 668 639 662
f 638 627 635
f 638 635 643
f 643 635 631
f 643 631 647
f 647 631 626
f 647 626 639
f 577 625 629
f 577 629 580
f 580 629 634
f 580 634 584
f 584 634 627
f 584 627 578
f 637 590 596
f 637 596 640
f 640 596 592
f 640 592 644
f 644 592 589
f 644 589 638
f 601 649 625
f 601 625 577
f 579 591 615
f 579 615 602
f 627 638 589
f 627 589 578
f 661 613 590
f 661 590 637
f 603 614 663
f 603 663 650
f 651 662 639
f 651 639 626
