# Zoomer visual mesh, local link coordinates in metres
v -0.0070611 -0.0067870 0.0234019
v -0.0070611 -0.0067301 0.0233278
v -0.0070611 -0.0067301 0.0229698
v -0.0070611 -0.0067870 0.0228957
v -0.0070419 -0.0069506 0.0234946
v -0.0070240 -0.0068672 0.0234588
v -0.0070087 -0.0067956 0.0234019
v -0.0069969 -0.0067407 0.0233278
v -0.0069895 -0.0067061 0.0232415
v -0.0069870 -0.0066943 0.0231488
v -0.0069895 -0.0067061 0.0230562
v -0.0069969 -0.0067407 0.0229698
v -0.0070087 -0.0067956 0.0228957
v -0.0070240 -0.0068672 0.0228388
v -0.0070419 -0.0069506 0.0228030
v -0.0070240 -0.0069599 0.0234946
v -0.0069895 -0.0068851 0.0234588
v -0.0069599 -0.0068209 0.0234019
v -0.0069371 -0.0067716 0.0233278
v -0.0069228 -0.0067407 0.0232415
v -0.0069179 -0.0067301 0.0231488
v -0.0069228 -0.0067407 0.0230562
v -0.0069371 -0.0067716 0.0229698
v -0.0069599 -0.0068209 0.0228957
v -0.0069895 -0.0068851 0.0228388
v -0.0070240 -0.0069599 0.0228030
v -0.0070087 -0.0069746 0.0234946
v -0.0069599 -0.0069135 0.0234588
v -0.0069179 -0.0068611 0.0234019
v -0.0068858 -0.0068209 0.0233278
v -0.0068655 -0.0067956 0.0232415
v -0.0068587 -0.0067870 0.0231488
v -0.0068655 -0.0067956 0.0230562
v -0.0068858 -0.0068209 0.0229698
v -0.0069179 -0.0068611 0.0228957
v -0.0069599 -0.0069135 0.0228388
v -0.0070087 -0.0069746 0.0228030
v -0.0069969 -0.0069938 0.0234946
v -0.0069371 -0.0069506 0.0234588
v -0.0068858 -0.0069135 0.0234019
v -0.0068464 -0.0068851 0.0233278
v -0.0068216 -0.0068672 0.0232415
v -0.0068132 -0.0068611 0.0231488
v -0.0068216 -0.0068672 0.0230562
v -0.0068464 -0.0068851 0.0229698
v -0.0068858 -0.0069135 0.0228957
v -0.0069371 -0.0069506 0.0228388
v -0.0069969 -0.0069938 0.0228030
v -0.0069895 -0.0070161 0.0234946
v -0.0069228 -0.0069938 0.0234588
v -0.0068655 -0.0069746 0.0234019
v -0.0068216 -0.0069599 0.0233278
v -0.0067940 -0.0069506 0.0232415
v -0.0067846 -0.0069475 0.0231488
v -0.0067940 -0.0069506 0.0230562
v -0.0068216 -0.0069599 0.0229698
v -0.0068655 -0.0069746 0.0228957
v -0.0069228 -0.0069938 0.0228388
v -0.0069895 -0.0070161 0.0228030
v -0.0069870 -0.0070401 0.0234946
v -0.0069179 -0.0070401 0.0234588
v -0.0068587 -0.0070401 0.0234019
v -0.0068132 -0.0070401 0.0233278
v -0.0067846 -0.0070401 0.0232415
v -0.0067748 -0.0070401 0.0231488
v -0.0067846 -0.0070401 0.0230562
v -0.0068132 -0.0070401 0.0229698
v -0.0068587 -0.0070401 0.0228957
v -0.0069179 -0.0070401 0.0228388
v -0.0069870 -0.0070401 0.0228030
v -0.0069895 -0.0070641 0.0234946
v -0.0069228 -0.0070864 0.0234588
v -0.0068655 -0.0071056 0.0234019
v -0.0068216 -0.0071203 0.0233278
v -0.0067940 -0.0071296 0.0232415
v -0.0067846 -0.0071328 0.0231488
v -0.0067940 -0.0071296 0.0230562
v -0.0068216 -0.0071203 0.0229698
v -0.0068655 -0.0071056 0.0228957
v -0.0069228 -0.0070864 0.0228388
v -0.0069895 -0.0070641 0.0228030
v -0.0069969 -0.0070864 0.0234946
v -0.0069371 -0.0071296 0.0234588
v -0.0068858 -0.0071667 0.0234019
v -0.0068464 -0.0071951 0.0233278
v -0.0068216 -0.0072130 0.0232415
v -0.0068132 -0.0072191 0.0231488
v -0.0068216 -0.0072130 0.0230562
v -0.0068464 -0.0071951 0.0229698
v -0.0068858 -0.0071667 0.0228957
v -0.0069371 -0.0071296 0.0228388
v -0.0069969 -0.0070864 0.0228030
v -0.0070087 -0.0071056 0.0234946
v -0.0069599 -0.0071667 0.0234588
v -0.0069179 -0.0072191 0.0234019
v -0.0068858 -0.0072593 0.0233278
v -0.0068655 -0.0072846 0.0232415
v -0.0068587 -0.0072932 0.0231488
v -0.0068655 -0.0072846 0.0230562
v -0.0068858 -0.0072593 0.0229698
v -0.0069179 -0.0072191 0.0228957
v -0.0069599 -0.0071667 0.0228388
v -0.0070087 -0.0071056 0.0228030
v -0.0070240 -0.0071203 0.0234946
v -0.0069895 -0.0071951 0.0234588
v -0.0069599 -0.0072593 0.0234019
v -0.0069371 -0.0073086 0.0233278
v -0.0069228 -0.0073396 0.0232415
v -0.0069179 -0.0073501 0.0231488
v -0.0069228 -0.0073396 0.0230562
v -0.0069371 -0.0073086 0.0229698
v -0.0069599 -0.0072593 0.0228957
v -0.0069895 -0.0071951 0.0228388
v -0.0070240 -0.0071203 0.0228030
v -0.0070419 -0.0071296 0.0234946
v -0.0070240 -0.0072130 0.0234588
v -0.0070087 -0.0072846 0.0234019
v -0.0069969 -0.0073396 0.0233278
v -0.0069895 -0.0073741 0.0232415
v -0.0069870 -0.0073859 0.0231488
v -0.0069895 -0.0073741 0.0230562
v -0.0069969 -0.0073396 0.0229698
v -0.0070087 -0.0072846 0.0228957
v -0.0070240 -0.0072130 0.0228388
v -0.0070419 -0.0071296 0.0228030
v -0.0070611 -0.0071328 0.0234946
v -0.0070611 -0.0072191 0.0234588
v -0.0070611 -0.0072932 0.0234019
v -0.0070611 -0.0073501 0.0233278
v -0.0070611 -0.0073859 0.0232415
v -0.0070611 -0.0073981 0.0231488
v -0.0070611 -0.0073859 0.0230562
v -0.0070611 -0.0073501 0.0229698
v -0.0070611 -0.0072932 0.0228957
v -0.0070611 -0.0072191 0.0228388
v -0.0070611 -0.0071328 0.0228030
v -0.0070802 -0.0071296 0.0234946
v -0.0070981 -0.0072130 0.0234588
v -0.0071135 -0.0072846 0.0234019
v -0.0071252 -0.0073396 0.0233278
v -0.0071326 -0.0073741 0.0232415
v -0.0071352 -0.0073859 0.0231488
v -0.0071326 -0.0073741 0.0230562
v -0.0071252 -0.0073396 0.0229698
v -0.0071135 -0.0072846 0.0228957
v -0.0070981 -0.0072130 0.0228388
v -0.0070802 -0.0071296 0.0228030
v -0.0070611 -0.0070401 0.0227908
v -0.0070981 -0.0071203 0.0234946
v -0.0071326 -0.0071951 0.0234588
v -0.0071623 -0.0072593 0.0234019
v -0.0071850 -0.0073086 0.0233278
v -0.0071993 -0.0073396 0.0232415
v -0.0072042 -0.0073501 0.0231488
v -0.0071993 -0.0073396 0.0230562
v -0.0071850 -0.0073086 0.0229698
v -0.0071623 -0.0072593 0.0228957
v -0.0071326 -0.0071951 0.0228388
v -0.0070981 -0.0071203 0.0228030
v -0.0071135 -0.0071056 0.0234946
v -0.0071623 -0.0071667 0.0234588
v -0.0072042 -0.0072191 0.0234019
v -0.0072364 -0.0072593 0.0233278
v -0.0072566 -0.0072846 0.0232415
v -0.0072635 -0.0072932 0.0231488
v -0.0072566 -0.0072846 0.0230562
v -0.0072364 -0.0072593 0.0229698
v -0.0072042 -0.0072191 0.0228957
v -0.0071623 -0.0071667 0.0228388
v -0.0071135 -0.0071056 0.0228030
v -0.0071252 -0.0070864 0.0234946
v -0.0071850 -0.0071296 0.0234588
v -0.0072364 -0.0071667 0.0234019
v -0.0072758 -0.0071951 0.0233278
v -0.0073005 -0.0072130 0.0232415
v -0.0073090 -0.0072191 0.0231488
v -0.0073005 -0.0072130 0.0230562
v -0.0072758 -0.0071951 0.0229698
v -0.0072364 -0.0071667 0.0228957
v -0.0071850 -0.0071296 0.0228388
v -0.0071252 -0.0070864 0.0228030
v -0.0071326 -0.0070641 0.0234946
v -0.0071993 -0.0070864 0.0234588
v -0.0072566 -0.0071056 0.0234019
v -0.0073005 -0.0071203 0.0233278
v -0.0073282 -0.0071296 0.0232415
v -0.0073376 -0.0071328 0.0231488
v -0.0073282 -0.0071296 0.0230562
v -0.0073005 -0.0071203 0.0229698
v -0.0072566 -0.0071056 0.0228957
v -0.0071993 -0.0070864 0.0228388
v -0.0071326 -0.0070641 0.0228030
v -0.0070611 -0.0070401 0.0235068
v -0.0071352 -0.0070401 0.0234946
v -0.0072042 -0.0070401 0.0234588
v -0.0072635 -0.0070401 0.0234019
v -0.0073090 -0.0070401 0.0233278
v -0.0073376 -0.0070401 0.0232415
v -0.0073473 -0.0070401 0.0231488
v -0.0073376 -0.0070401 0.0230562
v -0.0073090 -0.0070401 0.0229698
v -0.0072635 -0.0070401 0.0228957
v -0.0072042 -0.0070401 0.0228388
v -0.0071352 -0.0070401 0.0228030
v -0.0071326 -0.0070161 0.0234946
v -0.0071993 -0.0069938 0.0234588
v -0.0072566 -0.0069746 0.0234019
v -0.0073005 -0.0069599 0.0233278
v -0.0073282 -0.0069506 0.0232415
v -0.0073376 -0.0069475 0.0231488
v -0.0073282 -0.0069506 0.0230562
v -0.0073005 -0.0069599 0.0229698
v -0.0072566 -0.0069746 0.0228957
v -0.0071993 -0.0069938 0.0228388
v -0.0071326 -0.0070161 0.0228030
v -0.0071252 -0.0069938 0.0234946
v -0.0071850 -0.0069506 0.0234588
v -0.0072364 -0.0069135 0.0234019
v -0.0072758 -0.0068851 0.0233278
v -0.0073005 -0.0068672 0.0232415
v -0.0073090 -0.0068611 0.0231488
v -0.0073005 -0.0068672 0.0230562
v -0.0072758 -0.0068851 0.0229698
v -0.0072364 -0.0069135 0.0228957
v -0.0071850 -0.0069506 0.0228388
v -0.0071252 -0.0069938 0.0228030
v -0.0071135 -0.0069746 0.0234946
v -0.0071623 -0.0069135 0.0234588
v -0.0072042 -0.0068611 0.0234019
v -0.0072364 -0.0068209 0.0233278
v -0.0072566 -0.0067956 0.0232415
v -0.0072635 -0.0067870 0.0231488
v -0.0072566 -0.0067956 0.0230562
v -0.0072364 -0.0068209 0.0229698
v -0.0072042 -0.0068611 0.0228957
v -0.0071623 -0.0069135 0.0228388
v -0.0071135 -0.0069746 0.0228030
v -0.0070981 -0.0069599 0.0234946
v -0.0071326 -0.0068851 0.0234588
v -0.0071623 -0.0068209 0.0234019
v -0.0071850 -0.0067716 0.0233278
v -0.0071993 -0.0067407 0.0232415
v -0.0072042 -0.0067301 0.0231488
v -0.0071993 -0.0067407 0.0230562
v -0.0071850 -0.0067716 0.0229698
v -0.0071623 -0.0068209 0.0228957
v -0.0071326 -0.0068851 0.0228388
v -0.0070981 -0.0069599 0.0228030
v -0.0070802 -0.0069506 0.0234946
v -0.0070981 -0.0068672 0.0234588
v -0.0071135 -0.0067956 0.0234019
v -0.0071252 -0.0067407 0.0233278
v -0.0071326 -0.0067061 0.0232415
v -0.0071352 -0.0066943 0.0231488
v -0.0071326 -0.0067061 0.0230562
v -0.0071252 -0.0067407 0.0229698
v -0.0071135 -0.0067956 0.0228957
v -0.0070981 -0.0068672 0.0228388
v -0.0070802 -0.0069506 0.0228030
v -0.0070611 -0.0069475 0.0234946
v -0.0070611 -0.0068611 0.0234588
v -0.0070611 -0.0066943 0.0232415
v -0.0070611 -0.0066821 0.0231488
v -0.0070611 -0.0066943 0.0230562
v -0.0070611 -0.0068611 0.0228388
v -0.0070611 -0.0069475 0.0228030
v 0.0064885 -0.0067870 0.0234019
v 0.0064885 -0.0067301 0.0233278
v 0.0064885 -0.0067301 0.0229698
v 0.0064885 -0.0067870 0.0228957
v 0.0065077 -0.0069506 0.0234946
v 0.0065256 -0.0068672 0.0234588
v 0.0065409 -0.0067956 0.0234019
v 0.0065527 -0.0067407 0.0233278
v 0.0065601 -0.0067061 0.0232415
v 0.0065626 -0.0066943 0.0231488
v 0.0065601 -0.0067061 0.0230562
v 0.0065527 -0.0067407 0.0229698
v 0.0065409 -0.0067956 0.0228957
v 0.0065256 -0.0068672 0.0228388
v 0.0065077 -0.0069506 0.0228030
v 0.0065256 -0.0069599 0.0234946
v 0.0065601 -0.0068851 0.0234588
v 0.0065898 -0.0068209 0.0234019
v 0.0066125 -0.0067716 0.0233278
v 0.0066268 -0.0067407 0.0232415
v 0.0066317 -0.0067301 0.0231488
v 0.0066268 -0.0067407 0.0230562
v 0.0066125 -0.0067716 0.0229698
v 0.0065898 -0.0068209 0.0228957
v 0.0065601 -0.0068851 0.0228388
v 0.0065256 -0.0069599 0.0228030
v 0.0065409 -0.0069746 0.0234946
v 0.0065898 -0.0069135 0.0234588
v 0.0066317 -0.0068611 0.0234019
v 0.0066638 -0.0068209 0.0233278
v 0.0066841 -0.0067956 0.0232415
v 0.0066910 -0.0067870 0.0231488
v 0.0066841 -0.0067956 0.0230562
v 0.0066638 -0.0068209 0.0229698
v 0.0066317 -0.0068611 0.0228957
v 0.0065898 -0.0069135 0.0228388
v 0.0065409 -0.0069746 0.0228030
v 0.0065527 -0.0069938 0.0234946
v 0.0066125 -0.0069506 0.0234588
v 0.0066638 -0.0069135 0.0234019
v 0.0067032 -0.0068851 0.0233278
v 0.0067280 -0.0068672 0.0232415
v 0.0067365 -0.0068611 0.0231488
v 0.0067280 -0.0068672 0.0230562
v 0.0067032 -0.0068851 0.0229698
v 0.0066638 -0.0069135 0.0228957
v 0.0066125 -0.0069506 0.0228388
v 0.0065527 -0.0069938 0.0228030
v 0.0065601 -0.0070161 0.0234946
v 0.0066268 -0.0069938 0.0234588
v 0.0066841 -0.0069746 0.0234019
v 0.0067280 -0.0069599 0.0233278
v 0.0067556 -0.0069506 0.0232415
v 0.0067651 -0.0069475 0.0231488
v 0.0067556 -0.0069506 0.0230562
v 0.0067280 -0.0069599 0.0229698
v 0.0066841 -0.0069746 0.0228957
v 0.0066268 -0.0069938 0.0228388
v 0.0065601 -0.0070161 0.0228030
v 0.0065626 -0.0070401 0.0234946
v 0.0066317 -0.0070401 0.0234588
v 0.0066910 -0.0070401 0.0234019
v 0.0067365 -0.0070401 0.0233278
v 0.0067651 -0.0070401 0.0232415
v 0.0067748 -0.0070401 0.0231488
v 0.0067651 -0.0070401 0.0230562
v 0.0067365 -0.0070401 0.0229698
v 0.0066910 -0.0070401 0.0228957
v 0.0066317 -0.0070401 0.0228388
v 0.0065626 -0.0070401 0.0228030
v 0.0065601 -0.0070641 0.0234946
v 0.0066268 -0.0070864 0.0234588
v 0.0066841 -0.0071056 0.0234019
v 0.0067280 -0.0071203 0.0233278
v 0.0067556 -0.0071296 0.0232415
v 0.0067651 -0.0071328 0.0231488
v 0.0067556 -0.0071296 0.0230562
v 0.0067280 -0.0071203 0.0229698
v 0.0066841 -0.0071056 0.0228957
v 0.0066268 -0.0070864 0.0228388
v 0.0065601 -0.0070641 0.0228030
v 0.0065527 -0.0070864 0.0234946
v 0.0066125 -0.0071296 0.0234588
v 0.0066638 -0.0071667 0.0234019
v 0.0067032 -0.0071951 0.0233278
v 0.0067280 -0.0072130 0.0232415
v 0.0067365 -0.0072191 0.0231488
v 0.0067280 -0.0072130 0.0230562
v 0.0067032 -0.0071951 0.0229698
v 0.0066638 -0.0071667 0.0228957
v 0.0066125 -0.0071296 0.0228388
v 0.0065527 -0.0070864 0.0228030
v 0.0065409 -0.0071056 0.0234946
v 0.0065898 -0.0071667 0.0234588
v 0.0066317 -0.0072191 0.0234019
v 0.0066638 -0.0072593 0.0233278
v 0.0066841 -0.0072846 0.0232415
v 0.0066910 -0.0072932 0.0231488
v 0.0066841 -0.0072846 0.0230562
v 0.0066638 -0.0072593 0.0229698
v 0.0066317 -0.0072191 0.0228957
v 0.0065898 -0.0071667 0.0228388
v 0.0065409 -0.0071056 0.0228030
v 0.0065256 -0.0071203 0.0234946
v 0.0065601 -0.0071951 0.0234588
v 0.0065898 -0.0072593 0.0234019
v 0.0066125 -0.0073086 0.0233278
v 0.0066268 -0.0073396 0.0232415
v 0.0066317 -0.0073501 0.0231488
v 0.0066268 -0.0073396 0.0230562
v 0.0066125 -0.0073086 0.0229698
v 0.0065898 -0.0072593 0.0228957
v 0.0065601 -0.0071951 0.0228388
v 0.0065256 -0.0071203 0.0228030
v 0.0065077 -0.0071296 0.0234946
v 0.0065256 -0.0072130 0.0234588
v 0.0065409 -0.0072846 0.0234019
v 0.0065527 -0.0073396 0.0233278
v 0.0065601 -0.0073741 0.0232415
v 0.0065626 -0.0073859 0.0231488
v 0.0065601 -0.0073741 0.0230562
v 0.0065527 -0.0073396 0.0229698
v 0.0065409 -0.0072846 0.0228957
v 0.0065256 -0.0072130 0.0228388
v 0.0065077 -0.0071296 0.0228030
v 0.0064885 -0.0071328 0.0234946
v 0.0064885 -0.0072191 0.0234588
v 0.0064885 -0.0072932 0.0234019
v 0.0064885 -0.0073501 0.0233278
v 0.0064885 -0.0073859 0.0232415
v 0.0064885 -0.0073981 0.0231488
v 0.0064885 -0.0073859 0.0230562
v 0.0064885 -0.0073501 0.0229698
v 0.0064885 -0.0072932 0.0228957
v 0.0064885 -0.0072191 0.0228388
v 0.0064885 -0.0071328 0.0228030
v 0.0064694 -0.0071296 0.0234946
v 0.0064515 -0.0072130 0.0234588
v 0.0064362 -0.0072846 0.0234019
v 0.0064244 -0.0073396 0.0233278
v 0.0064170 -0.0073741 0.0232415
v 0.0064145 -0.0073859 0.0231488
v 0.0064170 -0.0073741 0.0230562
v 0.0064244 -0.0073396 0.0229698
v 0.0064362 -0.0072846 0.0228957
v 0.0064515 -0.0072130 0.0228388
v 0.0064694 -0.0071296 0.0228030
v 0.0064885 -0.0070401 0.0227908
v 0.0064515 -0.0071203 0.0234946
v 0.0064170 -0.0071951 0.0234588
v 0.0063873 -0.0072593 0.0234019
v 0.0063646 -0.0073086 0.0233278
v 0.0063503 -0.0073396 0.0232415
v 0.0063454 -0.0073501 0.0231488
v 0.0063503 -0.0073396 0.0230562
v 0.0063646 -0.0073086 0.0229698
v 0.0063873 -0.0072593 0.0228957
v 0.0064170 -0.0071951 0.0228388
v 0.0064515 -0.0071203 0.0228030
v 0.0064362 -0.0071056 0.0234946
v 0.0063873 -0.0071667 0.0234588
v 0.0063454 -0.0072191 0.0234019
v 0.0063133 -0.0072593 0.0233278
v 0.0062930 -0.0072846 0.0232415
v 0.0062861 -0.0072932 0.0231488
v 0.0062930 -0.0072846 0.0230562
v 0.0063133 -0.0072593 0.0229698
v 0.0063454 -0.0072191 0.0228957
v 0.0063873 -0.0071667 0.0228388
v 0.0064362 -0.0071056 0.0228030
v 0.0064244 -0.0070864 0.0234946
v 0.0063646 -0.0071296 0.0234588
v 0.0063133 -0.0071667 0.0234019
v 0.0062739 -0.0071951 0.0233278
v 0.0062491 -0.0072130 0.0232415
v 0.0062406 -0.0072191 0.0231488
v 0.0062491 -0.0072130 0.0230562
v 0.0062739 -0.0071951 0.0229698
v 0.0063133 -0.0071667 0.0228957
v 0.0063646 -0.0071296 0.0228388
v 0.0064244 -0.0070864 0.0228030
v 0.0064170 -0.0070641 0.0234946
v 0.0063503 -0.0070864 0.0234588
v 0.0062930 -0.0071056 0.0234019
v 0.0062491 -0.0071203 0.0233278
v 0.0062215 -0.0071296 0.0232415
v 0.0062120 -0.0071328 0.0231488
v 0.0062215 -0.0071296 0.0230562
v 0.0062491 -0.0071203 0.0229698
v 0.0062930 -0.0071056 0.0228957
v 0.0063503 -0.0070864 0.0228388
v 0.0064170 -0.0070641 0.0228030
v 0.0064885 -0.0070401 0.0235068
v 0.0064145 -0.0070401 0.0234946
v 0.0063454 -0.0070401 0.0234588
v 0.0062861 -0.0070401 0.0234019
v 0.0062406 -0.0070401 0.0233278
v 0.0062120 -0.0070401 0.0232415
v 0.0062023 -0.0070401 0.0231488
v 0.0062120 -0.0070401 0.0230562
v 0.0062406 -0.0070401 0.0229698
v 0.0062861 -0.0070401 0.0228957
v 0.0063454 -0.0070401 0.0228388
v 0.0064145 -0.0070401 0.0228030
v 0.0064170 -0.0070161 0.0234946
v 0.0063503 -0.0069938 0.0234588
v 0.0062930 -0.0069746 0.0234019
v 0.0062491 -0.0069599 0.0233278
v 0.0062215 -0.0069506 0.0232415
v 0.0062120 -0.0069475 0.0231488
v 0.0062215 -0.0069506 0.0230562
v 0.0062491 -0.0069599 0.0229698
v 0.0062930 -0.0069746 0.0228957
v 0.0063503 -0.0069938 0.0228388
v 0.0064170 -0.0070161 0.0228030
v 0.0064244 -0.0069938 0.0234946
v 0.0063646 -0.0069506 0.0234588
v 0.0063133 -0.0069135 0.0234019
v 0.0062739 -0.0068851 0.0233278
v 0.0062491 -0.0068672 0.0232415
v 0.0062406 -0.0068611 0.0231488
v 0.0062491 -0.0068672 0.0230562
v 0.0062739 -0.0068851 0.0229698
v 0.0063133 -0.0069135 0.0228957
v 0.0063646 -0.0069506 0.0228388
v 0.0064244 -0.0069938 0.0228030
v 0.0064362 -0.0069746 0.0234946
v 0.0063873 -0.0069135 0.0234588
v 0.0063454 -0.0068611 0.0234019
v 0.0063133 -0.0068209 0.0233278
v 0.0062930 -0.0067956 0.0232415
v 0.0062861 -0.0067870 0.0231488
v 0.0062930 -0.0067956 0.0230562
v 0.0063133 -0.0068209 0.0229698
v 0.0063454 -0.0068611 0.0228957
v 0.0063873 -0.0069135 0.0228388
v 0.0064362 -0.0069746 0.0228030
v 0.0064515 -0.0069599 0.0234946
v 0.0064170 -0.0068851 0.0234588
v 0.0063873 -0.0068209 0.0234019
v 0.0063646 -0.0067716 0.0233278
v 0.0063503 -0.0067407 0.0232415
v 0.0063454 -0.0067301 0.0231488
v 0.0063503 -0.0067407 0.0230562
v 0.0063646 -0.0067716 0.0229698
v 0.0063873 -0.0068209 0.0228957
v 0.0064170 -0.0068851 0.0228388
v 0.0064515 -0.0069599 0.0228030
v 0.0064694 -0.0069506 0.0234946
v 0.0064515 -0.0068672 0.0234588
v 0.0064362 -0.0067956 0.0234019
v 0.0064244 -0.0067407 0.0233278
v 0.0064170 -0.0067061 0.0232415
v 0.0064145 -0.0066943 0.0231488
v 0.0064170 -0.0067061 0.0230562
v 0.0064244 -0.0067407 0.0229698
v 0.0064362 -0.0067956 0.0228957
v 0.0064515 -0.0068672 0.0228388
v 0.0064694 -0.0069506 0.0228030
v 0.0064885 -0.0069475 0.0234946
v 0.0064885 -0.0068611 0.0234588
v 0.0064885 -0.0066943 0.0232415
v 0.0064885 -0.0066821 0.0231488
v 0.0064885 -0.0066943 0.0230562
v 0.0064885 -0.0068611 0.0228388
v 0.0064885 -0.0069475 0.0228030
f 1 261 6
f 1 6 7
f 265 4 13
f 265 13 14
f 264 263 10
f 264 10 11
f 2 1 7
f 2 7 8
f 266 265 14
f 266 14 15
f 260 193 5
f 3 264 11
f 3 11 12
f 262 2 8
f 262 8 9
f 148 266 15
f 261 260 5
f 261 5 6
f 4 3 12
f 4 12 13
f 263 262 9
f 263 9 10
f 12 11 22
f 12 22 23
f 9 8 19
f 9 19 20
f 148 15 26
f 6 5 16
f 6 16 17
f 13 12 23
f 13 23 24
f 10 9 20
f 10 20 21
f 7 6 17
f 7 17 18
f 14 13 24
f 14 24 25
f 11 10 21
f 11 21 22
f 8 7 18
f 8 18 19
f 15 14 25
f 15 25 26
f 5 193 16
f 22 21 32
f 22 32 33
f 19 18 29
f 19 29 30
f 26 25 36
f 26 36 37
f 16 193 27
f 23 22 33
f 23 33 34
f 20 19 30
f 20 30 31
f 148 26 37
f 17 16 27
f 17 27 28
f 24 23 34
f 24 34 35
f 21 20 31
f 21 31 32
f 18 17 28
f 18 28 29
f 25 24 35
f 25 35 36
f 35 34 45
f 35 45 46
f 32 31 42
f 32 42 43
f 29 28 39
f 29 39 40
f 36 35 46
f 36 46 47
f 33 32 43
f 33 43 44
f 30 29 40
f 30 40 41
f 37 36 47
f 37 47 48
f 27 193 38
f 34 33 44
f 34 44 45
f 31 30 41
f 31 41 42
f 148 37 48
f 28 27 38
f 28 38 39
f 38 193 49
f 45 44 55
f 45 55 56
f 42 41 52
f 42 52 53
f 148 48 59
f 39 38 49
f 39 49 50
f 46 45 56
f 46 56 57
f 43 42 53
f 43 53 54
f 40 39 50
f 40 50 51
f 47 46 57
f 47 57 58
f 44 43 54
f 44 54 55
f 41 40 51
f 41 51 52
f 48 47 58
f 48 58 59
f 58 57 68
f 58 68 69
f 55 54 65
f 55 65 66
f 52 51 62
f 52 62 63
f 59 58 69
f 59 69 70
f 49 193 60
f 56 55 66
f 56 66 67
f 53 52 63
f 53 63 64
f 148 59 70
f 50 49 60
f 50 60 61
f 57 56 67
f 57 67 68
f 54 53 64
f 54 64 65
f 51 50 61
f 51 61 62
f 61 60 71
f 61 71 72
f 68 67 78
f 68 78 79
f 65 64 75
f 65 75 76
f 62 61 72
f 62 72 73
f 69 68 79
f 69 79 80
f 66 65 76
f 66 76 77
f 63 62 73
f 63 73 74
f 70 69 80
f 70 80 81
f 60 193 71
f 67 66 77
f 67 77 78
f 64 63 74
f 64 74 75
f 148 70 81
f 81 80 91
f 81 91 92
f 71 193 82
f 78 77 88
f 78 88 89
f 75 74 85
f 75 85 86
f 148 81 92
f 72 71 82
f 72 82 83
f 79 78 89
f 79 89 90
f 76 75 86
f 76 86 87
f 73 72 83
f 73 83 84
f 80 79 90
f 80 90 91
f 77 76 87
f 77 87 88
f 74 73 84
f 74 84 85
f 84 83 94
f 84 94 95
f 91 90 101
f 91 101 102
f 88 87 98
f 88 98 99
f 85 84 95
f 85 95 96
f 92 91 102
f 92 102 103
f 82 193 93
f 89 88 99
f 89 99 100
f 86 85 96
f 86 96 97
f 148 92 103
f 83 82 93
f 83 93 94
f 90 89 100
f 90 100 101
f 87 86 97
f 87 97 98
f 148 103 114
f 94 93 104
f 94 104 105
f 101 100 111
f 101 111 112
f 98 97 108
f 98 108 109
f 95 94 105
f 95 105 106
f 102 101 112
f 102 112 113
f 99 98 109
f 99 109 110
f 96 95 106
f 96 106 107
f 103 102 113
f 103 113 114
f 93 193 104
f 100 99 110
f 100 110 111
f 97 96 107
f 97 107 108
f 107 106 117
f 107 117 118
f 114 113 124
f 114 124 125
f 104 193 115
f 111 110 121
f 111 121 122
f 108 107 118
f 108 118 119
f 148 114 125
f 105 104 115
f 105 115 116
f 112 111 122
f 112 122 123
f 109 108 119
f 109 119 120
f 106 105 116
f 106 116 117
f 113 112 123
f 113 123 124
f 110 109 120
f 110 120 121
f 117 116 127
f 117 127 128
f 124 123 134
f 124 134 135
f 121 120 131
f 121 131 132
f 118 117 128
f 118 128 129
f 125 124 135
f 125 135 136
f 115 193 126
f 122 121 132
f 122 132 133
f 119 118 129
f 119 129 130
f 148 125 136
f 116 115 126
f 116 126 127
f 123 122 133
f 123 133 134
f 120 119 130
f 120 130 131
f 130 129 140
f 130 140 141
f 148 136 147
f 127 126 137
f 127 137 138
f 134 133 144
f 134 144 145
f 131 130 141
f 131 141 142
f 128 127 138
f 128 138 139
f 135 134 145
f 135 145 146
f 132 131 142
f 132 142 143
f 129 128 139
f 129 139 140
f 136 135 146
f 136 146 147
f 126 193 137
f 133 132 143
f 133 143 144
f 140 139 151
f 140 151 152
f 147 146 158
f 147 158 159
f 137 193 149
f 144 143 155
f 144 155 156
f 141 140 152
f 141 152 153
f 148 147 159
f 138 137 149
f 138 149 150
f 145 144 156
f 145 156 157
f 142 141 153
f 142 153 154
f 139 138 150
f 139 150 151
f 146 145 157
f 146 157 158
f 143 142 154
f 143 154 155
f 154 153 164
f 154 164 165
f 151 150 161
f 151 161 162
f 158 157 168
f 158 168 169
f 155 154 165
f 155 165 166
f 152 151 162
f 152 162 163
f 159 158 169
f 159 169 170
f 149 193 160
f 156 155 166
f 156 166 167
f 153 152 163
f 153 163 164
f 148 159 170
f 150 149 160
f 150 160 161
f 157 156 167
f 157 167 168
f 164 163 174
f 164 174 175
f 148 170 181
f 161 160 171
f 161 171 172
f 168 167 178
f 168 178 179
f 165 164 175
f 165 175 176
f 162 161 172
f 162 172 173
f 169 168 179
f 169 179 180
f 166 165 176
f 166 176 177
f 163 162 173
f 163 173 174
f 170 169 180
f 170 180 181
f 160 193 171
f 167 166 177
f 167 177 178
f 177 176 187
f 177 187 188
f 174 173 184
f 174 184 185
f 181 180 191
f 181 191 192
f 171 193 182
f 178 177 188
f 178 188 189
f 175 174 185
f 175 185 186
f 148 181 192
f 172 171 182
f 172 182 183
f 179 178 189
f 179 189 190
f 176 175 186
f 176 186 187
f 173 172 183
f 173 183 184
f 180 179 190
f 180 190 191
f 187 186 198
f 187 198 199
f 184 183 195
f 184 195 196
f 191 190 202
f 191 202 203
f 188 187 199
f 188 199 200
f 185 184 196
f 185 196 197
f 192 191 203
f 192 203 204
f 182 193 194
f 189 188 200
f 189 200 201
f 186 185 197
f 186 197 198
f 148 192 204
f 183 182 194
f 183 194 195
f 190 189 201
f 190 201 202
f 201 200 211
f 201 211 212
f 198 197 208
f 198 208 209
f 148 204 215
f 195 194 205
f 195 205 206
f 202 201 212
f 202 212 213
f 199 198 209
f 199 209 210
f 196 195 206
f 196 206 207
f 203 202 213
f 203 213 214
f 200 199 210
f 200 210 211
f 197 196 207
f 197 207 208
f 204 203 214
f 204 214 215
f 194 193 205
f 211 210 221
f 211 221 222
f 208 207 218
f 208 218 219
f 215 214 225
f 215 225 226
f 205 193 216
f 212 211 222
f 212 222 223
f 209 208 219
f 209 219 220
f 148 215 226
f 206 205 216
f 206 216 217
f 213 212 223
f 213 223 224
f 210 209 220
f 210 220 221
f 207 206 217
f 207 217 218
f 214 213 224
f 214 224 225
f 224 223 234
f 224 234 235
f 221 220 231
f 221 231 232
f 218 217 228
f 218 228 229
f 225 224 235
f 225 235 236
f 222 221 232
f 222 232 233
f 219 218 229
f 219 229 230
f 226 225 236
f 226 236 237
f 216 193 227
f 223 222 233
f 223 233 234
f 220 219 230
f 220 230 231
f 148 226 237
f 217 216 227
f 217 227 228
f 227 193 238
f 234 233 244
f 234 244 245
f 231 230 241
f 231 241 242
f 148 237 248
f 228 227 238
f 228 238 239
f 235 234 245
f 235 245 246
f 232 231 242
f 232 242 243
f 229 228 239
f 229 239 240
f 236 235 246
f 236 246 247
f 233 232 243
f 233 243 244
f 230 229 240
f 230 240 241
f 237 236 247
f 237 247 248
f 247 246 257
f 247 257 258
f 244 243 254
f 244 254 255
f 241 240 251
f 241 251 252
f 248 247 258
f 248 258 259
f 238 193 249
f 245 244 255
f 245 255 256
f 242 241 252
f 242 252 253
f 148 248 259
f 239 238 249
f 239 249 250
f 246 245 256
f 246 256 257
f 243 242 253
f 243 253 254
f 240 239 250
f 240 250 251
f 250 249 260
f 250 260 261
f 257 256 3
f 257 3 4
f 254 253 262
f 254 262 263
f 251 250 261
f 251 261 1
f 258 257 4
f 258 4 265
f 255 254 263
f 255 263 264
f 252 251 1
f 252 1 2
f 259 258 265
f 259 265 266
f 249 193 260
f 256 255 264
f 256 264 3
f 253 252 2
f 253 2 262
f 148 259 266
f 269 530 277
f 269 277 278
f 528 268 274
f 528 274 275
f 414 532 281
f 527 526 271
f 527 271 272
f 270 269 278
f 270 278 279
f 529 528 275
f 529 275 276
f 267 527 272
f 267 272 273
f 531 270 279
f 531 279 280
f 530 529 276
f 530 276 277
f 268 267 273
f 268 273 274
f 532 531 280
f 532 280 281
f 526 459 271
f 273 272 283
f 273 283 284
f 280 279 290
f 280 290 291
f 277 276 287
f 277 287 288
f 274 273 284
f 274 284 285
f 281 280 291
f 281 291 292
f 271 459 282
f 278 277 288
f 278 288 289
f 275 274 285
f 275 285 286
f 414 281 292
f 272 271 282
f 272 282 283
f 279 278 289
f 279 289 290
f 276 275 286
f 276 286 287
f 286 285 296
f 286 296 297
f 414 292 303
f 283 282 293
f 283 293 294
f 290 289 300
f 290 300 301
f 287 286 297
f 287 297 298
f 284 283 294
f 284 294 295
f 291 290 301
f 291 301 302
f 288 287 298
f 288 298 299
f 285 284 295
f 285 295 296
f 292 291 302
f 292 302 303
f 282 459 293
f 289 288 299
f 289 299 300
f 296 295 306
f 296 306 307
f 303 302 313
f 303 313 314
f 293 459 304
f 300 299 310
f 300 310 311
f 297 296 307
f 297 307 308
f 414 303 314
f 294 293 304
f 294 304 305
f 301 300 311
f 301 311 312
f 298 297 308
f 298 308 309
f 295 294 305
f 295 305 306
f 302 301 312
f 302 312 313
f 299 298 309
f 299 309 310
f 309 308 319
f 309 319 320
f 306 305 316
f 306 316 317
f 313 312 323
f 313 323 324
f 310 309 320
f 310 320 321
f 307 306 317
f 307 317 318
f 314 313 324
f 314 324 325
f 304 459 315
f 311 310 321
f 311 321 322
f 308 307 318
f 308 318 319
f 414 314 325
f 305 304 315
f 305 315 316
f 312 311 322
f 312 322 323
f 319 318 329
f 319 329 330
f 414 325 336
f 316 315 326
f 316 326 327
f 323 322 333
f 323 333 334
f 320 319 330
f 320 330 331
f 317 316 327
f 317 327 328
f 324 323 334
f 324 334 335
f 321 320 331
f 321 331 332
f 318 317 328
f 318 328 329
f 325 324 335
f 325 335 336
f 315 459 326
f 322 321 332
f 322 332 333
f 332 331 342
f 332 342 343
f 329 328 339
f 329 339 340
f 336 335 346
f 336 346 347
f 326 459 337
f 333 332 343
f 333 343 344
f 330 329 340
f 330 340 341
f 414 336 347
f 327 326 337
f 327 337 338
f 334 333 344
f 334 344 345
f 331 330 341
f 331 341 342
f 328 327 338
f 328 338 339
f 335 334 345
f 335 345 346
f 342 341 352
f 342 352 353
f 339 338 349
f 339 349 350
f 346 345 356
f 346 356 357
f 343 342 353
f 343 353 354
f 340 339 350
f 340 350 351
f 347 346 357
f 347 357 358
f 337 459 348
f 344 343 354
f 344 354 355
f 341 340 351
f 341 351 352
f 414 347 358
f 338 337 348
f 338 348 349
f 345 344 355
f 345 355 356
f 355 354 365
f 355 365 366
f 352 351 362
f 352 362 363
f 414 358 369
f 349 348 359
f 349 359 360
f 356 355 366
f 356 366 367
f 353 352 363
f 353 363 364
f 350 349 360
f 350 360 361
f 357 356 367
f 357 367 368
f 354 353 364
f 354 364 365
f 351 350 361
f 351 361 362
f 358 357 368
f 358 368 369
f 348 459 359
f 365 364 375
f 365 375 376
f 362 361 372
f 362 372 373
f 369 368 379
f 369 379 380
f 359 459 370
f 366 365 376
f 366 376 377
f 363 362 373
f 363 373 374
f 414 369 380
f 360 359 370
f 360 370 371
f 367 366 377
f 367 377 378
f 364 363 374
f 364 374 375
f 361 360 371
f 361 371 372
f 368 367 378
f 368 378 379
f 378 377 388
f 378 388 389
f 375 374 385
f 375 385 386
f 372 371 382
f 372 382 383
f 379 378 389
f 379 389 390
f 376 375 386
f 376 386 387
f 373 372 383
f 373 383 384
f 380 379 390
f 380 390 391
f 370 459 381
f 377 376 387
f 377 387 388
f 374 373 384
f 374 384 385
f 414 380 391
f 371 370 381
f 371 381 382
f 381 459 392
f 388 387 398
f 388 398 399
f 385 384 395
f 385 395 396
f 414 391 402
f 382 381 392
f 382 392 393
f 389 388 399
f 389 399 400
f 386 385 396
f 386 396 397
f 383 382 393
f 383 393 394
f 390 389 400
f 390 400 401
f 387 386 397
f 387 397 398
f 384 383 394
f 384 394 395
f 391 390 401
f 391 401 402
f 401 400 411
f 401 411 412
f 398 397 408
f 398 408 409
f 395 394 405
f 395 405 406
f 402 401 412
f 402 412 413
f 392 459 403
f 399 398 409
f 399 409 410
f 396 395 406
f 396 406 407
f 414 402 413
f 393 392 403
f 393 403 404
f 400 399 410
f 400 410 411
f 397 396 407
f 397 407 408
f 394 393 404
f 394 404 405
f 404 403 415
f 404 415 416
f 411 410 422
f 411 422 423
f 408 407 419
f 408 419 420
f 405 404 416
f 405 416 417
f 412 411 423
f 412 423 424
f 409 408 420
f 409 420 421
f 406 405 417
f 406 417 418
f 413 412 424
f 413 424 425
f 403 459 415
f 410 409 421
f 410 421 422
f 407 406 418
f 407 418 419
f 414 413 425
f 425 424 435
f 425 435 436
f 415 459 426
f 422 421 432
f 422 432 433
f 419 418 429
f 419 429 430
f 414 425 436
f 416 415 426
f 416 426 427
f 423 422 433
f 423 433 434
f 420 419 430
f 420 430 431
f 417 416 427
f 417 427 428
f 424 423 434
f 424 434 435
f 421 420 431
f 421 431 432
f 418 417 428
f 418 428 429
f 428 427 438
f 428 438 439
f 435 434 445
f 435 445 446
f 432 431 442
f 432 442 443
f 429 428 439
f 429 439 440
f 436 435 446
f 436 446 447
f 426 459 437
f 433 432 443
f 433 443 444
f 430 429 440
f 430 440 441
f 414 436 447
f 427 426 437
f 427 437 438
f 434 433 444
f 434 444 445
f 431 430 441
f 431 441 442
f 414 447 458
f 438 437 448
f 438 448 449
f 445 444 455
f 445 455 456
f 442 441 452
f 442 452 453
f 439 438 449
f 439 449 450
f 446 445 456
f 446 456 457
f 443 442 453
f 443 453 454
f 440 439 450
f 440 450 451
f 447 446 457
f 447 457 458
f 437 459 448
f 444 443 454
f 444 454 455
f 441 440 451
f 441 451 452
f 451 450 462
f 451 462 463
f 458 457 469
f 458 469 470
f 448 459 460
f 455 454 466
f 455 466 467
f 452 451 463
f 452 463 464
f 414 458 470
f 449 448 460
f 449 460 461
f 456 455 467
f 456 467 468
f 453 452 464
f 453 464 465
f 450 449 461
f 450 461 462
f 457 456 468
f 457 468 469
f 454 453 465
f 454 465 466
f 462 461 472
f 462 472 473
f 469 468 479
f 469 479 480
f 466 465 476
f 466 476 477
f 463 462 473
f 463 473 474
f 470 469 480
f 470 480 481
f 460 459 471
f 467 466 477
f 467 477 478
f 464 463 474
f 464 474 475
f 414 470 481
f 461 460 471
f 461 471 472
f 468 467 478
f 468 478 479
f 465 464 475
f 465 475 476
f 475 474 485
f 475 485 486
f 414 481 492
f 472 471 482
f 472 482 483
f 479 478 489
f 479 489 490
f 476 475 486
f 476 486 487
f 473 472 483
f 473 483 484
f 480 479 490
f 480 490 491
f 477 476 487
f 477 487 488
f 474 473 484
f 474 484 485
f 481 480 491
f 481 491 492
f 471 459 482
f 478 477 488
f 478 488 489
f 485 484 495
f 485 495 496
f 492 491 502
f 492 502 503
f 482 459 493
f 489 488 499
f 489 499 500
f 486 485 496
f 486 496 497
f 414 492 503
f 483 482 493
f 483 493 494
f 490 489 500
f 490 500 501
f 487 486 497
f 487 497 498
f 484 483 494
f 484 494 495
f 491 490 501
f 491 501 502
f 488 487 498
f 488 498 499
f 498 497 508
f 498 508 509
f 495 494 505
f 495 505 506
f 502 501 512
f 502 512 513
f 499 498 509
f 499 509 510
f 496 495 506
f 496 506 507
f 503 502 513
f 503 513 514
f 493 459 504
f 500 499 510
f 500 510 511
f 497 496 507
f 497 507 508
f 414 503 514
f 494 493 504
f 494 504 505
f 501 500 511
f 501 511 512
f 508 507 518
f 508 518 519
f 414 514 525
f 505 504 515
f 505 515 516
f 512 511 522
f 512 522 523
f 509 508 519
f 509 519 520
f 506 505 516
f 506 516 517
f 513 512 523
f 513 523 524
f 510 509 520
f 510 520 521
f 507 506 517
f 507 517 518
f 514 513 524
f 514 524 525
f 504 459 515
f 511 510 521
f 511 521 522
f 521 520 529
f 521 529 530
f 518 517 267
f 518 267 268
f 525 524 531
f 525 531 532
f 515 459 526
f 522 521 530
f 522 530 269
f 519 518 268
f 519 268 528
f 414 525 532
f 516 515 526
f 516 526 527
f 523 522 269
f 523 269 270
f 520 519 528
f 520 528 529
f 517 516 527
f 517 527 267
f 524 523 270
f 524 270 531
