# Zoomer visual mesh, local link coordinates in metres
v 0.0000000 0.0042957 0.0074403
v 0.0000000 0.0074403 0.0042957
v 0.0000000 0.0085913 0.0000000
v 0.0000000 0.0074403 -0.0042957
v 0.0004602 0.0021478 0.0082986
v 0.0008891 0.0041493 0.0074403
v 0.0012573 0.0058680 0.0060750
v 0.0015399 0.0071868 0.0042957
v 0.0017176 0.0080158 0.0022236
v 0.0017781 0.0082986 0.0000000
v 0.0017176 0.0080158 -0.0022236
v 0.0015399 0.0071868 -0.0042957
v 0.0012573 0.0058680 -0.0060750
v 0.0008891 0.0041493 -0.0074403
v 0.0004602 0.0021478 -0.0082986
v 0.0008891 0.0019257 0.0082986
v 0.0017176 0.0037201 0.0074403
v 0.0024290 0.0052611 0.0060750
v 0.0029749 0.0064435 0.0042957
v 0.0033181 0.0071868 0.0022236
v 0.0034351 0.0074403 0.0000000
v 0.0033181 0.0071868 -0.0022236
v 0.0029749 0.0064435 -0.0042957
v 0.0024290 0.0052611 -0.0060750
v 0.0017176 0.0037201 -0.0074403
v 0.0008891 0.0019257 -0.0082986
v 0.0012573 0.0015723 0.0082986
v 0.0024290 0.0030375 0.0074403
v 0.0034351 0.0042957 0.0060750
v 0.0042071 0.0052611 0.0042957
v 0.0046925 0.0058680 0.0022236
v 0.0048580 0.0060750 0.0000000
v 0.0046925 0.0058680 -0.0022236
v 0.0042071 0.0052611 -0.0042957
v 0.0034351 0.0042957 -0.0060750
v 0.0024290 0.0030375 -0.0074403
v 0.0012573 0.0015723 -0.0082986
v 0.0015399 0.0011118 0.0082986
v 0.0029749 0.0021478 0.0074403
v 0.0042071 0.0030375 0.0060750
v 0.0051527 0.0037201 0.0042957
v 0.0057471 0.0041493 0.0022236
v 0.0059498 0.0042957 0.0000000
v 0.0057471 0.0041493 -0.0022236
v 0.0051527 0.0037201 -0.0042957
v 0.0042071 0.0030375 -0.0060750
v 0.0029749 0.0021478 -0.0074403
v 0.0015399 0.0011118 -0.0082986
v 0.0000000 0.0000000 0.0085913
v 0.0017176 0.0005755 0.0082986
v 0.0033181 0.0011118 0.0074403
v 0.0046925 0.0015723 0.0060750
v 0.0057471 0.0019257 0.0042957
v 0.0064100 0.0021478 0.0022236
v 0.0066361 0.0022236 0.0000000
v 0.0064100 0.0021478 -0.0022236
v 0.0057471 0.0019257 -0.0042957
v 0.0046925 0.0015723 -0.0060750
v 0.0033181 0.0011118 -0.0074403
v 0.0017176 0.0005755 -0.0082986
v 0.0017781 0.0000000 0.0082986
v 0.0034351 -0.0000000 0.0074403
v 0.0048580 0.0000000 0.0060750
v 0.0059498 -0.0000000 0.0042957
v 0.0066361 0.0000000 0.0022236
v 0.0068702 -0.0000000 0.0000000
v 0.0066361 0.0000000 -0.0022236
v 0.0059498 -0.0000000 -0.0042957
v 0.0048580 0.0000000 -0.0060750
v 0.0034351 -0.0000000 -0.0074403
v 0.0017781 0.0000000 -0.0082986
v 0.0017176 -0.0005755 0.0082986
v 0.0033181 -0.0011118 0.0074403
v 0.0046925 -0.0015723 0.0060750
v 0.0057471 -0.0019257 0.0042957
v 0.0064100 -0.0021478 0.0022236
v 0.0066361 -0.0022236 0.0000000
v 0.0064100 -0.0021478 -0.0022236
v 0.0057471 -0.0019257 -0.0042957
v 0.0046925 -0.0015723 -0.0060750
v 0.0033181 -0.0011118 -0.0074403
v 0.0017176 -0.0005755 -0.0082986
v 0.0015399 -0.0011118 0.0082986
v 0.0029749 -0.0021478 0.0074403
v 0.0042071 -0.0030375 0.0060750
v 0.0051527 -0.0037201 0.0042957
v 0.0057471 -0.0041493 0.0022236
v 0.0059498 -0.0042957 0.0000000
v 0.0057471 -0.0041493 -0.0022236
v 0.0051527 -0.0037201 -0.0042957
v 0.0042071 -0.0030375 -0.0060750
v 0.0029749 -0.0021478 -0.0074403
v 0.0015399 -0.0011118 -0.0082986
v 0.0012573 -0.0015723 0.0082986
v 0.0024290 -0.0030375 0.0074403
v 0.0034351 -0.0042957 0.0060750
v 0.0042071 -0.0052611 0.0042957
v 0.0046925 -0.0058680 0.0022236
v 0.0048580 -0.0060750 0.0000000
v 0.0046925 -0.0058680 -0.0022236
v 0.0042071 -0.0052611 -0.0042957
v 0.0034351 -0.0042957 -0.0060750
v 0.0024290 -0.0030375 -0.0074403
v 0.0012573 -0.0015723 -0.0082986
v 0.0008891 -0.0019257 0.0082986
v 0.0017176 -0.0037201 0.0074403
v 0.0024290 -0.0052611 0.0060750
v 0.0029749 -0.0064435 0.0042957
v 0.0033181 -0.0071868 0.0022236
v 0.0034351 -0.0074403 0.0000000
v 0.0033181 -0.0071868 -0.0022236
v 0.0029749 -0.0064435 -0.0042957
v 0.0024290 -0.0052611 -0.0060750
v 0.0017176 -0.0037201 -0.0074403
v 0.0008891 -0.0019257 -0.0082986
v 0.0004602 -0.0021478 0.0082986
v 0.0008891 -0.0041493 0.0074403
v 0.0012573 -0.0058680 0.0060750
v 0.0015399 -0.0071868 0.0042957
v 0.0017176 -0.0080158 0.0022236
v 0.0017781 -0.0082986 0.0000000
v 0.0017176 -0.0080158 -0.0022236
v 0.0015399 -0.0071868 -0.0042957
v 0.0012573 -0.0058680 -0.0060750
v 0.0008891 -0.0041493 -0.0074403
v 0.0004602 -0.0021478 -0.0082986
v 0.0000000 -0.0022236 0.0082986
v -0.0000000 -0.0042957 0.0074403
v 0.0000000 -0.0060750 0.0060750
v -0.0000000 -0.0074403 0.0042957
v 0.0000000 -0.0082986 0.0022236
v -0.0000000 -0.0085913 0.0000000
v 0.0000000 -0.0082986 -0.0022236
v -0.0000000 -0.0074403 -0.0042957
v 0.0000000 -0.0060750 -0.0060750
v -0.0000000 -0.0042957 -0.0074403
v 0.0000000 -0.0022236 -0.0082986
v -0.0004602 -0.0021478 0.0082986
v -0.0008891 -0.0041493 0.0074403
v -0.0012573 -0.0058680 0.0060750
v -0.0015399 -0.0071868 0.0042957
v -0.0017176 -0.0080158 0.0022236
v -0.0017781 -0.0082986 0.0000000
v -0.0017176 -0.0080158 -0.0022236
v -0.0015399 -0.0071868 -0.0042957
v -0.0012573 -0.0058680 -0.0060750
v -0.0008891 -0.0041493 -0.0074403
v -0.0004602 -0.0021478 -0.0082986
v 0.0000000 0.0000000 -0.0085913
v -0.0008891 -0.0019257 0.0082986
v -0.0017176 -0.0037201 0.0074403
v -0.0024290 -0.0052611 0.0060750
v -0.0029749 -0.0064435 0.0042957
v -0.0033181 -0.0071868 0.0022236
v -0.0034351 -0.0074403 0.0000000
v -0.0033181 -0.0071868 -0.0022236
v -0.0029749 -0.0064435 -0.0042957
v -0.0024290 -0.0052611 -0.0060750
v -0.0017176 -0.0037201 -0.0074403
v -0.0008891 -0.0019257 -0.0082986
v -0.0012573 -0.0015723 0.0082986
v -0.0024290 -0.0030375 0.0074403
v -0.0034351 -0.0042957 0.0060750
v -0.0042071 -0.0052611 0.0042957
v -0.0046925 -0.0058680 0.0022236
v -0.0048580 -0.0060750 0.0000000
v -0.0046925 -0.0058680 -0.0022236
v -0.0042071 -0.0052611 -0.0042957
v -0.0034351 -0.0042957 -0.0060750
v -0.0024290 -0.0030375 -0.0074403
v -0.0012573 -0.0015723 -0.0082986
v -0.0015399 -0.0011118 0.0082986
v -0.0029749 -0.0021478 0.0074403
v -0.0042071 -0.0030375 0.0060750
v -0.0051527 -0.0037201 0.0042957
v -0.0057471 -0.0041493 0.0022236
v -0.0059498 -0.0042957 0.0000000
v -0.0057471 -0.0041493 -0.0022236
v -0.0051527 -0.0037201 -0.0042957
v -0.0042071 -0.0030375 -0.0060750
v -0.0029749 -0.0021478 -0.0074403
v -0.0015399 -0.0011118 -0.0082986
v -0.0017176 -0.0005755 0.0082986
v -0.0033181 -0.0011118 0.0074403
v -0.0046925 -0.0015723 0.0060750
v -0.0057471 -0.0019257 0.0042957
v -0.0064100 -0.0021478 0.0022236
v -0.0066361 -0.0022236 0.0000000
v -0.0064100 -0.0021478 -0.0022236
v -0.0057471 -0.0019257 -0.0042957
v -0.0046925 -0.0015723 -0.0060750
v -0.0033181 -0.0011118 -0.0074403
v -0.0017176 -0.0005755 -0.0082986
v -0.0017781 -0.0000000 0.0082986
v -0.0034351 0.0000000 0.0074403
v -0.0048580 -0.0000000 0.0060750
v -0.0059498 -0.0000000 0.0042957
v -0.0066361 0.0000000 0.0022236
v -0.0068702 0.0000000 0.0000000
v -0.0066361 0.0000000 -0.0022236
v -0.0059498 -0.0000000 -0.0042957
v -0.0048580 -0.0000000 -0.0060750
v -0.0034351 0.0000000 -0.0074403
v -0.0017781 -0.0000000 -0.0082986
v -0.0017176 0.0005755 0.0082986
v -0.0033181 0.0011118 0.0074403
v -0.0046925 0.0015723 0.0060750
v -0.0057471 0.0019257 0.0042957
v -0.0064100 0.0021478 0.0022236
v -0.0066361 0.0022236 0.0000000
v -0.0064100 0.0021478 -0.0022236
v -0.0057471 0.0019257 -0.0042957
v -0.0046925 0.0015723 -0.0060750
v -0.0033181 0.0011118 -0.0074403
v -0.0017176 0.0005755 -0.0082986
v -0.0015399 0.0011118 0.0082986
v -0.0029749 0.0021478 0.0074403
v -0.0042071 0.0030375 0.0060750
v -0.0051527 0.0037201 0.0042957
v -0.0057471 0.0041493 0.0022236
v -0.0059498 0.0042957 0.0000000
v -0.0057471 0.0041493 -0.0022236
v -0.0051527 0.0037201 -0.0042957
v -0.0042071 0.0030375 -0.0060750
v -0.0029749 0.0021478 -0.0074403
v -0.0015399 0.0011118 -0.0082986
v -0.0012573 0.0015723 0.0082986
v -0.0024290 0.0030375 0.0074403
v -0.0034351 0.0042957 0.0060750
v -0.0042071 0.0052611 0.0042957
v -0.0046925 0.0058680 0.0022236
v -0.0048580 0.0060750 0.0000000
v -0.0046925 0.0058680 -0.0022236
v -0.0042071 0.0052611 -0.0042957
v -0.0034351 0.0042957 -0.0060750
v -0.0024290 0.0030375 -0.0074403
v -0.0012573 0.0015723 -0.0082986
v -0.0008891 0.0019257 0.0082986
v -0.0017176 0.0037201 0.0074403
v -0.0024290 0.0052611 0.0060750
v -0.0029749 0.0064435 0.0042957
v -0.0033181 0.0071868 0.0022236
v -0.0034351 0.0074403 0.0000000
v -0.0033181 0.0071868 -0.0022236
v -0.0029749 0.0064435 -0.0042957
v -0.0024290 0.0052611 -0.0060750
v -0.0017176 0.0037201 -0.0074403
v -0.0008891 0.0019257 -0.0082986
v -0.0004602 0.0021478 0.0082986
v -0.0008891 0.0041493 0.0074403
v -0.0012573 0.0058680 0.0060750
v -0.0015399 0.0071868 0.0042957
v -0.0017176 0.0080158 0.0022236
v -0.0017781 0.0082986 0.0000000
v -0.0017176 0.0080158 -0.0022236
v -0.0015399 0.0071868 -0.0042957
v -0.0012573 0.0058680 -0.0060750
v -0.0008891 0.0041493 -0.0074403
v -0.0004602 0.0021478 -0.0082986
v -0.0000000 0.0022236 0.0082986
v -0.0000000 0.0060750 0.0060750
v 0.0000000 0.0082986 0.0022236
v 0.0000000 0.0082986 -0.0022236
v -0.0000000 0.0060750 -0.0060750
v 0.0000000 0.0042957 -0.0074403
v -0.0000000 0.0022236 -0.0082986
f 261 1 6
f 261 6 7
f 265 264 13
f 265 13 14
f 263 3 10
f 263 10 11
f 2 261 7
f 2 7 8
f 266 265 14
f 266 14 15
f 260 49 5
f 4 263 11
f 4 11 12
f 262 2 8
f 262 8 9
f 149 266 15
f 1 260 5
f 1 5 6
f 264 4 12
f 264 12 13
f 3 262 9
f 3 9 10
f 12 11 22
f 12 22 23
f 9 8 19
f 9 19 20
f 149 15 26
f 6 5 16
f 6 16 17
f 13 12 23
f 13 23 24
f 10 9 20
f 10 20 21
f 7 6 17
f 7 17 18
f 14 13 24
f 14 24 25
f 11 10 21
f 11 21 22
f 8 7 18
f 8 18 19
f 15 14 25
f 15 25 26
f 5 49 16
f 22 21 32
f 22 32 33
f 19 18 29
f 19 29 30
f 26 25 36
f 26 36 37
f 16 49 27
f 23 22 33
f 23 33 34
f 20 19 30
f 20 30 31
f 149 26 37
f 17 16 27
f 17 27 28
f 24 23 34
f 24 34 35
f 21 20 31
f 21 31 32
f 18 17 28
f 18 28 29
f 25 24 35
f 25 35 36
f 35 34 45
f 35 45 46
f 32 31 42
f 32 42 43
f 29 28 39
f 29 39 40
f 36 35 46
f 36 46 47
f 33 32 43
f 33 43 44
f 30 29 40
f 30 40 41
f 37 36 47
f 37 47 48
f 27 49 38
f 34 33 44
f 34 44 45
f 31 30 41
f 31 41 42
f 149 37 48
f 28 27 38
f 28 38 39
f 38 49 50
f 45 44 56
f 45 56 57
f 42 41 53
f 42 53 54
f 149 48 60
f 39 38 50
f 39 50 51
f 46 45 57
f 46 57 58
f 43 42 54
f 43 54 55
f 40 39 51
f 40 51 52
f 47 46 58
f 47 58 59
f 44 43 55
f 44 55 56
f 41 40 52
f 41 52 53
f 48 47 59
f 48 59 60
f 59 58 69
f 59 69 70
f 56 55 66
f 56 66 67
f 53 52 63
f 53 63 64
f 60 59 70
f 60 70 71
f 50 49 61
f 57 56 67
f 57 67 68
f 54 53 64
f 54 64 65
f 149 60 71
f 51 50 61
f 51 61 62
f 58 57 68
f 58 68 69
f 55 54 65
f 55 65 66
f 52 51 62
f 52 62 63
f 62 61 72
f 62 72 73
f 69 68 79
f 69 79 80
f 66 65 76
f 66 76 77
f 63 62 73
f 63 73 74
f 70 69 80
f 70 80 81
f 67 66 77
f 67 77 78
f 64 63 74
f 64 74 75
f 71 70 81
f 71 81 82
f 61 49 72
f 68 67 78
f 68 78 79
f 65 64 75
f 65 75 76
f 149 71 82
f 82 81 92
f 82 92 93
f 72 49 83
f 79 78 89
f 79 89 90
f 76 75 86
f 76 86 87
f 149 82 93
f 73 72 83
f 73 83 84
f 80 79 90
f 80 90 91
f 77 76 87
f 77 87 88
f 74 73 84
f 74 84 85
f 81 80 91
f 81 91 92
f 78 77 88
f 78 88 89
f 75 74 85
f 75 85 86
f 85 84 95
f 85 95 96
f 92 91 102
f 92 102 103
f 89 88 99
f 89 99 100
f 86 85 96
f 86 96 97
f 93 92 103
f 93 103 104
f 83 49 94
f 90 89 100
f 90 100 101
f 87 86 97
f 87 97 98
f 149 93 104
f 84 83 94
f 84 94 95
f 91 90 101
f 91 101 102
f 88 87 98
f 88 98 99
f 149 104 115
f 95 94 105
f 95 105 106
f 102 101 112
f 102 112 113
f 99 98 109
f 99 109 110
f 96 95 106
f 96 106 107
f 103 102 113
f 103 113 114
f 100 99 110
f 100 110 111
f 97 96 107
f 97 107 108
f 104 103 114
f 104 114 115
f 94 49 105
f 101 100 111
f 101 111 112
f 98 97 108
f 98 108 109
f 108 107 118
f 108 118 119
f 115 114 125
f 115 125 126
f 105 49 116
f 112 111 122
f 112 122 123
f 109 108 119
f 109 119 120
f 149 115 126
f 106 105 116
f 106 116 117
f 113 112 123
f 113 123 124
f 110 109 120
f 110 120 121
f 107 106 117
f 107 117 118
f 114 113 124
f 114 124 125
f 111 110 121
f 111 121 122
f 118 117 128
f 118 128 129
f 125 124 135
f 125 135 136
f 122 121 132
f 122 132 133
f 119 118 129
f 119 129 130
f 126 125 136
f 126 136 137
f 116 49 127
f 123 122 133
f 123 133 134
f 120 119 130
f 120 130 131
f 149 126 137
f 117 116 127
f 117 127 128
f 124 123 134
f 124 134 135
f 121 120 131
f 121 131 132
f 131 130 141
f 131 141 142
f 149 137 148
f 128 127 138
f 128 138 139
f 135 134 145
f 135 145 146
f 132 131 142
f 132 142 143
f 129 128 139
f 129 139 140
f 136 135 146
f 136 146 147
f 133 132 143
f 133 143 144
f 130 129 140
f 130 140 141
f 137 136 147
f 137 147 148
f 127 49 138
f 134 133 144
f 134 144 145
f 141 140 152
f 141 152 153
f 148 147 159
f 148 159 160
f 138 49 150
f 145 144 156
f 145 156 157
f 142 141 153
f 142 153 154
f 149 148 160
f 139 138 150
f 139 150 151
f 146 145 157
f 146 157 158
f 143 142 154
f 143 154 155
f 140 139 151
f 140 151 152
f 147 146 158
f 147 158 159
f 144 143 155
f 144 155 156
f 155 154 165
f 155 165 166
f 152 151 162
f 152 162 163
f 159 158 169
f 159 169 170
f 156 155 166
f 156 166 167
f 153 152 163
f 153 163 164
f 160 159 170
f 160 170 171
f 150 49 161
f 157 156 167
f 157 167 168
f 154 153 164
f 154 164 165
f 149 160 171
f 151 150 161
f 151 161 162
f 158 157 168
f 158 168 169
f 165 164 175
f 165 175 176
f 149 171 182
f 162 161 172
f 162 172 173
f 169 168 179
f 169 179 180
f 166 165 176
f 166 176 177
f 163 162 173
f 163 173 174
f 170 169 180
f 170 180 181
f 167 166 177
f 167 177 178
f 164 163 174
f 164 174 175
f 171 170 181
f 171 181 182
f 161 49 172
f 168 167 178
f 168 178 179
f 178 177 188
f 178 188 189
f 175 174 185
f 175 185 186
f 182 181 192
f 182 192 193
f 172 49 183
f 179 178 189
f 179 189 190
f 176 175 186
f 176 186 187
f 149 182 193
f 173 172 183
f 173 183 184
f 180 179 190
f 180 190 191
f 177 176 187
f 177 187 188
f 174 173 184
f 174 184 185
f 181 180 191
f 181 191 192
f 188 187 198
f 188 198 199
f 185 184 195
f 185 195 196
f 192 191 202
f 192 202 203
f 189 188 199
f 189 199 200
f 186 185 196
f 186 196 197
f 193 192 203
f 193 203 204
f 183 49 194
f 190 189 200
f 190 200 201
f 187 186 197
f 187 197 198
f 149 193 204
f 184 183 194
f 184 194 195
f 191 190 201
f 191 201 202
f 201 200 211
f 201 211 212
f 198 197 208
f 198 208 209
f 149 204 215
f 195 194 205
f 195 205 206
f 202 201 212
f 202 212 213
f 199 198 209
f 199 209 210
f 196 195 206
f 196 206 207
f 203 202 213
f 203 213 214
f 200 199 210
f 200 210 211
f 197 196 207
f 197 207 208
f 204 203 214
f 204 214 215
f 194 49 205
f 211 210 221
f 211 221 222
f 208 207 218
f 208 218 219
f 215 214 225
f 215 225 226
f 205 49 216
f 212 211 222
f 212 222 223
f 209 208 219
f 209 219 220
f 149 215 226
f 206 205 216
f 206 216 217
f 213 212 223
f 213 223 224
f 210 209 220
f 210 220 221
f 207 206 217
f 207 217 218
f 214 213 224
f 214 224 225
f 224 223 234
f 224 234 235
f 221 220 231
f 221 231 232
f 218 217 228
f 218 228 229
f 225 224 235
f 225 235 236
f 222 221 232
f 222 232 233
f 219 218 229
f 219 229 230
f 226 225 236
f 226 236 237
f 216 49 227
f 223 222 233
f 223 233 234
f 220 219 230
f 220 230 231
f 149 226 237
f 217 216 227
f 217 227 228
f 227 49 238
f 234 233 244
f 234 244 245
f 231 230 241
f 231 241 242
f 149 237 248
f 228 227 238
f 228 238 239
f 235 234 245
f 235 245 246
f 232 231 242
f 232 242 243
f 229 228 239
f 229 239 240
f 236 235 246
f 236 246 247
f 233 232 243
f 233 243 244
f 230 229 240
f 230 240 241
f 237 236 247
f 237 247 248
f 247 246 257
f 247 257 258
f 244 243 254
f 244 254 255
f 241 240 251
f 241 251 252
f 248 247 258
f 248 258 259
f 238 49 249
f 245 244 255
f 245 255 256
f 242 241 252
f 242 252 253
f 149 248 259
f 239 238 249
f 239 249 250
f 246 245 256
f 246 256 257
f 243 242 253
f 243 253 254
f 240 239 250
f 240 250 251
f 250 249 260
f 250 260 1
f 257 256 4
f 257 4 264
f 254 253 262
f 254 262 3
f 251 250 1
f 251 1 261
f 258 257 264
f 258 264 265
f 255 254 3
f 255 3 263
f 252 251 261
f 252 261 2
f 259 258 265
f 259 265 266
f 249 49 260
f 256 255 263
f 256 263 4
f 253 252 2
f 253 2 262
f 149 259 266
