# Zoomer visual mesh, local link coordinates in metres
v -0.0027672 -0.0048923 -0.0223136
v -0.0027672 -0.0083527 -0.0188532
v -0.0055344 -0.0048923 -0.0188532
v -0.0027672 -0.0066202 -0.0218513
v -0.0041489 -0.0048923 -0.0218513
v -0.0040905 -0.0065471 -0.0214022
v -0.0041489 -0.0078904 -0.0188532
v -0.0027672 -0.0078904 -0.0205811
v -0.0040905 -0.0074413 -0.0205080
v -0.0051647 -0.0048923 -0.0205811
v -0.0051647 -0.0066202 -0.0188532
v -0.0048056 -0.0065471 -0.0205080
v -0.0027672 -0.0083527 -0.0057275
v -0.0027672 -0.0048923 -0.0022672
v -0.0055344 -0.0048923 -0.0057275
v -0.0027672 -0.0078904 -0.0039996
v -0.0041489 -0.0078904 -0.0057275
v -0.0040905 -0.0074413 -0.0040727
v -0.0041489 -0.0048923 -0.0027295
v -0.0027672 -0.0066202 -0.0027295
v -0.0040905 -0.0065471 -0.0031785
v -0.0051647 -0.0066202 -0.0057275
v -0.0051647 -0.0048923 -0.0039996
v -0.0048056 -0.0065471 -0.0040727
v -0.0027672 0.0048923 -0.0223136
v -0.0055344 0.0048923 -0.0188532
v -0.0027672 0.0083527 -0.0188532
v -0.0041489 0.0048923 -0.0218513
v -0.0027672 0.0066202 -0.0218513
v -0.0040905 0.0065471 -0.0214022
v -0.0051647 0.0066202 -0.0188532
v -0.0051647 0.0048923 -0.0205811
v -0.0048056 0.0065471 -0.0205080
v -0.0027672 0.0078904 -0.0205811
v -0.0041489 0.0078904 -0.0188532
v -0.0040905 0.0074413 -0.0205080
v -0.0027672 0.0048923 -0.0022672
v -0.0027672 0.0083527 -0.0057275
v -0.0055344 0.0048923 -0.0057275
v -0.0027672 0.0066202 -0.0027295
v -0.0041489 0.0048923 -0.0027295
v -0.0040905 0.0065471 -0.0031785
v -0.0041489 0.0078904 -0.0057275
v -0.0027672 0.0078904 -0.0039996
v -0.0040905 0.0074413 -0.0040727
v -0.0051647 0.0048923 -0.0039996
v -0.0051647 0.0066202 -0.0057275
v -0.0048056 0.0065471 -0.0040727
v 0.0027672 -0.0048923 -0.0223136
v 0.0055344 -0.0048923 -0.0188532
v 0.0027672 -0.0083527 -0.0188532
v 0.0041489 -0.0048923 -0.0218513
v 0.0027672 -0.0066202 -0.0218513
v 0.0040905 -0.0065471 -0.0214022
v 0.0051647 -0.0066202 -0.0188532
v 0.0051647 -0.0048923 -0.0205811
v 0.0048056 -0.0065471 -0.0205080
v 0.0027672 -0.0078904 -0.0205811
v 0.0041489 -0.0078904 -0.0188532
v 0.0040905 -0.0074413 -0.0205080
v 0.0027672 -0.0048923 -0.0022672
v 0.0027672 -0.0083527 -0.0057275
v 0.0055344 -0.0048923 -0.0057275
v 0.0027672 -0.0066202 -0.0027295
v 0.0041489 -0.0048923 -0.0027295
v 0.0040905 -0.0065471 -0.0031785
v 0.0041489 -0.0078904 -0.0057275
v 0.0027672 -0.0078904 -0.0039996
v 0.0040905 -0.0074413 -0.0040727
v 0.0051647 -0.0048923 -0.0039996
v 0.0051647 -0.0066202 -0.0057275
v 0.0048056 -0.0065471 -0.0040727
v 0.0027672 0.0048923 -0.0223136
v 0.0027672 0.0083527 -0.0188532
v 0.0055344 0.0048923 -0.0188532
v 0.0027672 0.0066202 -0.0218513
v 0.0041489 0.0048923 -0.0218513
v 0.0040905 0.0065471 -0.0214022
v 0.0041489 0.0078904 -0.0188532
v 0.0027672 0.0078904 -0.0205811
v 0.0040905 0.0074413 -0.0205080
v 0.0051647 0.0048923 -0.0205811
v 0.0051647 0.0066202 -0.0188532
v 0.0048056 0.0065471 -0.0205080
v 0.0027672 0.0048923 -0.0022672
v 0.0055344 0.0048923 -0.0057275
v 0.0027672 0.0083527 -0.0057275
v 0.0041489 0.0048923 -0.0027295
v 0.0027672 0.0066202 -0.0027295
v 0.0040905 0.0065471 -0.0031785
v 0.0051647 0.0066202 -0.0057275
v 0.0051647 0.0048923 -0.0039996
v 0.0048056 0.0065471 -0.0040727
v 0.0027672 0.0078904 -0.0039996
v 0.0041489 0.0078904 -0.0057275
v 0.0040905 0.0074413 -0.0040727
f 1 4 6
f 1 6 5
f 4 8 9
f 4 9 6
f 2 7 9
f 2 9 8
f 7 11 12
f 7 12 9
f 3 10 12
f 3 12 11
f 10 5 6
f 10 6 12
f 6 9 12
f 13 16 18
f 13 18 17
f 16 20 21
f 16 21 18
f 14 19 21
f 14 21 20
f 19 23 24
f 19 24 21
f 15 22 24
f 15 24 23
f 22 17 18
f 22 18 24
f 18 21 24
f 25 28 30
f 25 30 29
f 28 32 33
f 28 33 30
f 26 31 33
f 26 33 32
f 31 35 36
f 31 36 33
f 27 34 36
f 27 36 35
f 34 29 30
f 34 30 36
f 30 33 36
f 37 40 42
f 37 42 41
f 40 44 45
f 40 45 42
f 38 43 45
f 38 45 44
f 43 47 48
f 43 48 45
f 39 46 48
f 39 48 47
f 46 41 42
f 46 42 48
f 42 45 48
f 49 52 54
f 49 54 53
f 52 56 57
f 52 57 54
f 50 55 57
f 50 57 56
f 55 59 60
f 55 60 57
f 51 58 60
f 51 60 59
f 58 53 54
f 58 54 60
f 54 57 60
f 61 64 66
f 61 66 65
f 64 68 69
f 64 69 66
f 62 67 69
f 62 69 68
f 67 71 72
f 67 72 69
f 63 70 72
f 63 72 71
f 70 65 66
f 70 66 72
f 66 69 72
f 73 76 78
f 73 78 77
f 76 80 81
f 76 81 78
f 74 79 81
f 74 81 80
f 79 83 84
f 79 84 81
f 75 82 84
f 75 84 83
f 82 77 78
f 82 78 84
f 78 81 84
f 85 88 90
f 85 90 89
f 88 92 93
f 88 93 90
f 86 91 93
f 86 93 92
f 91 95 96
f 91 96 93
f 87 94 96
f 87 96 95
f 94 89 90
f 94 90 96
f 90 93 96
f 25 1 5
f 25 5 28
f 28 5 10
f 28 10 32
f 32 10 3
f 32 3 26
f 2 13 17
f 2 17 7
f 7 17 22
f 7 22 11
f 11 22 15
f 11 15 3
f 14 37 41
f 14 41 19
f 19 41 46
f 19 46 23
f 23 46 39
f 23 39 15
f 38 27 35
f 38 35 43
f 43 35 31
f 43 31 47
f 47 31 26
f 47 26 39
f 73 25 29
f 73 29 76
f 76 29 34
f 76 34 80
f 80 34 27
f 80 27 74
f 37 85 89
f 37 89 40
f 40 89 94
f 40 94 44
f 44 94 87
f 44 87 38
f 86 75 83
f 86 83 91
f 91 83 79
f 91 79 95
f 95 79 74
f 95 74 87
f 49 73 77
f 49 77 52
f 52 77 82
f 52 82 56
f 56 82 75
f 56 75 50
f 85 61 65
f 85 65 88
f 88 65 70
f 88 70 92
f 92 70 63
f 92 63 86
f 62 51 59
f 62 59 67
f 67 59 55
f 67 55 71
f 71 55 50
f 71 50 63
f 1 49 53
f 1 53 4
f 4 53 58
f 4 58 8
f 8 58 51
f 8 51 2
f 61 14 20
f 61 20 64
f 64 20 16
f 64 16 68
f 68 16 13
f 68 13 62
f 25 73 49
f 25 49 1
f 3 15 39
f 3 39 26
f 51 62 13
f 51 13 2
f 85 37 14
f 85 14 61
f 27 38 87
f 27 87 74
f 75 86 63
f 75 63 50
