# Zoomer visual mesh, local link coordinates in metres
v 0.0050572 0.0021353 -0.0000000
v 0.0052099 0.0023266 -0.0000000
v 0.0050777 0.0022310 -0.0000000
v 0.0051336 0.0023010 -0.0000000
v 0.0058206 0.0021353 0.0000000
v 0.0056679 0.0023266 0.0000000
v 0.0058002 0.0022310 0.0000000
v 0.0057443 0.0023010 0.0000000
v 0.0050572 0.0021170 -0.0002787
v 0.0052099 0.0023067 -0.0003037
v 0.0050777 0.0022119 -0.0002912
v 0.0051336 0.0022813 -0.0003003
v 0.0058206 0.0021170 -0.0002787
v 0.0056679 0.0023067 -0.0003037
v 0.0058002 0.0022119 -0.0002912
v 0.0057443 0.0022813 -0.0003003
v 0.0050572 0.0020625 -0.0005527
v 0.0052099 0.0022473 -0.0006022
v 0.0050777 0.0021549 -0.0005774
v 0.0051336 0.0022226 -0.0005955
v 0.0058206 0.0020625 -0.0005527
v 0.0056679 0.0022473 -0.0006022
v 0.0058002 0.0021549 -0.0005774
v 0.0057443 0.0022226 -0.0005955
v 0.0050572 0.0019727 -0.0008171
v 0.0052099 0.0021495 -0.0008904
v 0.0050777 0.0020611 -0.0008537
v 0.0051336 0.0021258 -0.0008805
v 0.0058206 0.0019727 -0.0008171
v 0.0056679 0.0021495 -0.0008904
v 0.0058002 0.0020611 -0.0008537
v 0.0057443 0.0021258 -0.0008805
v 0.0050572 0.0018492 -0.0010676
v 0.0052099 0.0020149 -0.0011633
v 0.0050777 0.0019321 -0.0011155
v 0.0051336 0.0019927 -0.0011505
v 0.0058206 0.0018492 -0.0010676
v 0.0056679 0.0020149 -0.0011633
v 0.0058002 0.0019321 -0.0011155
v 0.0057443 0.0019927 -0.0011505
v 0.0050572 0.0016940 -0.0012999
v 0.0052099 0.0018458 -0.0014164
v 0.0050777 0.0017699 -0.0013581
v 0.0051336 0.0018255 -0.0014008
v 0.0058206 0.0016940 -0.0012999
v 0.0056679 0.0018458 -0.0014164
v 0.0058002 0.0017699 -0.0013581
v 0.0057443 0.0018255 -0.0014008
v 0.0050572 0.0015099 -0.0015099
v 0.0052099 0.0016452 -0.0016452
v 0.0050777 0.0015775 -0.0015775
v 0.0051336 0.0016270 -0.0016270
v 0.0058206 0.0015099 -0.0015099
v 0.0056679 0.0016452 -0.0016452
v 0.0058002 0.0015775 -0.0015775
v 0.0057443 0.0016270 -0.0016270
v 0.0050572 0.0012999 -0.0016940
v 0.0052099 0.0014164 -0.0018458
v 0.0050777 0.0013581 -0.0017699
v 0.0051336 0.0014008 -0.0018255
v 0.0058206 0.0012999 -0.0016940
v 0.0056679 0.0014164 -0.0018458
v 0.0058002 0.0013581 -0.0017699
v 0.0057443 0.0014008 -0.0018255
v 0.0050572 0.0010676 -0.0018492
v 0.0052099 0.0011633 -0.0020149
v 0.0050777 0.0011155 -0.0019321
v 0.0051336 0.0011505 -0.0019927
v 0.0058206 0.0010676 -0.0018492
v 0.0056679 0.0011633 -0.0020149
v 0.0058002 0.0011155 -0.0019321
v 0.0057443 0.0011505 -0.0019927
v 0.0050572 0.0008171 -0.0019727
v 0.0052099 0.0008904 -0.0021495
v 0.0050777 0.0008537 -0.0020611
v 0.0051336 0.0008805 -0.0021258
v 0.0058206 0.0008171 -0.0019727
v 0.0056679 0.0008904 -0.0021495
v 0.0058002 0.0008537 -0.0020611
v 0.0057443 0.0008805 -0.0021258
v 0.0050572 0.0005527 -0.0020625
v 0.0052099 0.0006022 -0.0022473
v 0.0050777 0.0005774 -0.0021549
v 0.0051336 0.0005955 -0.0022226
v 0.0058206 0.0005527 -0.0020625
v 0.0056679 0.0006022 -0.0022473
v 0.0058002 0.0005774 -0.0021549
v 0.0057443 0.0005955 -0.0022226
v 0.0050572 0.0002787 -0.0021170
v 0.0052099 0.0003037 -0.0023067
v 0.0050777 0.0002912 -0.0022119
v 0.0051336 0.0003003 -0.0022813
v 0.0058206 0.0002787 -0.0021170
v 0.0056679 0.0003037 -0.0023067
v 0.0058002 0.0002912 -0.0022119
v 0.0057443 0.0003003 -0.0022813
v 0.0050572 0.0000000 -0.0021353
v 0.0052099 0.0000000 -0.0023266
v 0.0050777 0.0000000 -0.0022310
v 0.0051336 0.0000000 -0.0023010
v 0.0058206 -0.0000000 -0.0021353
v 0.0056679 0.0000000 -0.0023266
v 0.0058002 -0.0000000 -0.0022310
v 0.0057443 -0.0000000 -0.0023010
v 0.0050572 -0.0002787 -0.0021170
v 0.0052099 -0.0003037 -0.0023067
v 0.0050777 -0.0002912 -0.0022119
v 0.0051336 -0.0003003 -0.0022813
v 0.0058206 -0.0002787 -0.0021170
v 0.0056679 -0.0003037 -0.0023067
v 0.0058002 -0.0002912 -0.0022119
v 0.0057443 -0.0003003 -0.0022813
v 0.0050572 -0.0005527 -0.0020625
v 0.0052099 -0.0006022 -0.0022473
v 0.0050777 -0.0005774 -0.0021549
v 0.0051336 -0.0005955 -0.0022226
v 0.0058206 -0.0005527 -0.0020625
v 0.0056679 -0.0006022 -0.0022473
v 0.0058002 -0.0005774 -0.0021549
v 0.0057443 -0.0005955 -0.0022226
v 0.0050572 -0.0008171 -0.0019727
v 0.0052099 -0.0008904 -0.0021495
v 0.0050777 -0.0008537 -0.0020611
v 0.0051336 -0.0008805 -0.0021258
v 0.0058206 -0.0008171 -0.0019727
v 0.0056679 -0.0008904 -0.0021495
v 0.0058002 -0.0008537 -0.0020611
v 0.0057443 -0.0008805 -0.0021258
v 0.0050572 -0.0010676 -0.0018492
v 0.0052099 -0.0011633 -0.0020149
v 0.0050777 -0.0011155 -0.0019321
v 0.0051336 -0.0011505 -0.0019927
v 0.0058206 -0.0010676 -0.0018492
v 0.0056679 -0.0011633 -0.0020149
v 0.0058002 -0.0011155 -0.0019321
v 0.0057443 -0.0011505 -0.0019927
v 0.0050572 -0.0012999 -0.0016940
v 0.0052099 -0.0014164 -0.0018458
v 0.0050777 -0.0013581 -0.0017699
v 0.0051336 -0.0014008 -0.0018255
v 0.0058206 -0.0012999 -0.0016940
v 0.0056679 -0.0014164 -0.0018458
v 0.0058002 -0.0013581 -0.0017699
v 0.0057443 -0.0014008 -0.0018255
v 0.0050572 -0.0015099 -0.0015099
v 0.0052099 -0.0016452 -0.0016452
v 0.0050777 -0.0015775 -0.0015775
v 0.0051336 -0.0016270 -0.0016270
v 0.0058206 -0.0015099 -0.0015099
v 0.0056679 -0.0016452 -0.0016452
v 0.0058002 -0.0015775 -0.0015775
v 0.0057443 -0.0016270 -0.0016270
v 0.0050572 -0.0016940 -0.0012999
v 0.0052099 -0.0018458 -0.0014164
v 0.0050777 -0.0017699 -0.0013581
v 0.0051336 -0.0018255 -0.0014008
v 0.0058206 -0.0016940 -0.0012999
v 0.0056679 -0.0018458 -0.0014164
v 0.0058002 -0.0017699 -0.0013581
v 0.0057443 -0.0018255 -0.0014008
v 0.0050572 -0.0018492 -0.0010676
v 0.0052099 -0.0020149 -0.0011633
v 0.0050777 -0.0019321 -0.0011155
v 0.0051336 -0.0019927 -0.0011505
v 0.0058206 -0.0018492 -0.0010676
v 0.0056679 -0.0020149 -0.0011633
v 0.0058002 -0.0019321 -0.0011155
v 0.0057443 -0.0019927 -0.0011505
v 0.0050572 -0.0019727 -0.0008171
v 0.0052099 -0.0021495 -0.0008904
v 0.0050777 -0.0020611 -0.0008537
v 0.0051336 -0.0021258 -0.0008805
v 0.0058206 -0.0019727 -0.0008171
v 0.0056679 -0.0021495 -0.0008904
v 0.0058002 -0.0020611 -0.0008537
v 0.0057443 -0.0021258 -0.0008805
v 0.0050572 -0.0020625 -0.0005527
v 0.0052099 -0.0022473 -0.0006022
v 0.0050777 -0.0021549 -0.0005774
v 0.0051336 -0.0022226 -0.0005955
v 0.0058206 -0.0020625 -0.0005527
v 0.0056679 -0.0022473 -0.0006022
v 0.0058002 -0.0021549 -0.0005774
v 0.0057443 -0.0022226 -0.0005955
v 0.0050572 -0.0021170 -0.0002787
v 0.0052099 -0.0023067 -0.0003037
v 0.0050777 -0.0022119 -0.0002912
v 0.0051336 -0.0022813 -0.0003003
v 0.0058206 -0.0021170 -0.0002787
v 0.0056679 -0.0023067 -0.0003037
v 0.0058002 -0.0022119 -0.0002912
v 0.0057443 -0.0022813 -0.0003003
v 0.0050572 -0.0021353 -0.0000000
v 0.0052099 -0.0023266 -0.0000000
v 0.0050777 -0.0022310 -0.0000000
v 0.0051336 -0.0023010 -0.0000000
v 0.0058206 -0.0021353 0.0000000
v 0.0056679 -0.0023266 0.0000000
v 0.0058002 -0.0022310 0.0000000
v 0.0057443 -0.0023010 0.0000000
v 0.0050572 -0.0021170 0.0002787
v 0.0052099 -0.0023067 0.0003037
v 0.0050777 -0.0022119 0.0002912
v 0.0051336 -0.0022813 0.0003003
v 0.0058206 -0.0021170 0.0002787
v 0.0056679 -0.0023067 0.0003037
v 0.0058002 -0.0022119 0.0002912
v 0.0057443 -0.0022813 0.0003003
v 0.0050572 -0.0020625 0.0005527
v 0.0052099 -0.0022473 0.0006022
v 0.0050777 -0.0021549 0.0005774
v 0.0051336 -0.0022226 0.0005955
v 0.0058206 -0.0020625 0.0005527
v 0.0056679 -0.0022473 0.0006022
v 0.0058002 -0.0021549 0.0005774
v 0.0057443 -0.0022226 0.0005955
v 0.0050572 -0.0019727 0.0008171
v 0.0052099 -0.0021495 0.0008904
v 0.0050777 -0.0020611 0.0008537
v 0.0051336 -0.0021258 0.0008805
v 0.0058206 -0.0019727 0.0008171
v 0.0056679 -0.0021495 0.0008904
v 0.0058002 -0.0020611 0.0008537
v 0.0057443 -0.0021258 0.0008805
v 0.0050572 -0.0018492 0.0010676
v 0.0052099 -0.0020149 0.0011633
v 0.0050777 -0.0019321 0.0011155
v 0.0051336 -0.0019927 0.0011505
v 0.0058206 -0.0018492 0.0010676
v 0.0056679 -0.0020149 0.0011633
v 0.0058002 -0.0019321 0.0011155
v 0.0057443 -0.0019927 0.0011505
v 0.0050572 -0.0016940 0.0012999
v 0.0052099 -0.0018458 0.0014164
v 0.0050777 -0.0017699 0.0013581
v 0.0051336 -0.0018255 0.0014008
v 0.0058206 -0.0016940 0.0012999
v 0.0056679 -0.0018458 0.0014164
v 0.0058002 -0.0017699 0.0013581
v 0.0057443 -0.0018255 0.0014008
v 0.0050572 -0.0015099 0.0015099
v 0.0052099 -0.0016452 0.0016452
v 0.0050777 -0.0015775 0.0015775
v 0.0051336 -0.0016270 0.0016270
v 0.0058206 -0.0015099 0.0015099
v 0.0056679 -0.0016452 0.0016452
v 0.0058002 -0.0015775 0.0015775
v 0.0057443 -0.0016270 0.0016270
v 0.0050572 -0.0012999 0.0016940
v 0.0052099 -0.0014164 0.0018458
v 0.0050777 -0.0013581 0.0017699
v 0.0051336 -0.0014008 0.0018255
v 0.0058206 -0.0012999 0.0016940
v 0.0056679 -0.0014164 0.0018458
v 0.0058002 -0.0013581 0.0017699
v 0.0057443 -0.0014008 0.0018255
v 0.0050572 -0.0010676 0.0018492
v 0.0052099 -0.0011633 0.0020149
v 0.0050777 -0.0011155 0.0019321
v 0.0051336 -0.0011505 0.0019927
v 0.0058206 -0.0010676 0.0018492
v 0.0056679 -0.0011633 0.0020149
v 0.0058002 -0.0011155 0.0019321
v 0.0057443 -0.0011505 0.0019927
v 0.0050572 -0.0008171 0.0019727
v 0.0052099 -0.0008904 0.0021495
v 0.0050777 -0.0008537 0.0020611
v 0.0051336 -0.0008805 0.0021258
v 0.0058206 -0.0008171 0.0019727
v 0.0056679 -0.0008904 0.0021495
v 0.0058002 -0.0008537 0.0020611
v 0.0057443 -0.0008805 0.0021258
v 0.0050572 -0.0005527 0.0020625
v 0.0052099 -0.0006022 0.0022473
v 0.0050777 -0.0005774 0.0021549
v 0.0051336 -0.0005955 0.0022226
v 0.0058206 -0.0005527 0.0020625
v 0.0056679 -0.0006022 0.0022473
v 0.0058002 -0.0005774 0.0021549
v 0.0057443 -0.0005955 0.0022226
v 0.0050572 -0.0002787 0.0021170
v 0.0052099 -0.0003037 0.0023067
v 0.0050777 -0.0002912 0.0022119
v 0.0051336 -0.0003003 0.0022813
v 0.0058206 -0.0002787 0.0021170
v 0.0056679 -0.0003037 0.0023067
v 0.0058002 -0.0002912 0.0022119
v 0.0057443 -0.0003003 0.0022813
v 0.0050572 -0.0000000 0.0021353
v 0.0052099 0.0000000 0.0023266
v 0.0050777 -0.0000000 0.0022310
v 0.0051336 -0.0000000 0.0023010
v 0.0058206 0.0000000 0.0021353
v 0.0056679 0.0000000 0.0023266
v 0.0058002 0.0000000 0.0022310
v 0.0057443 0.0000000 0.0023010
v 0.0050572 0.0002787 0.0021170
v 0.0052099 0.0003037 0.0023067
v 0.0050777 0.0002912 0.0022119
v 0.0051336 0.0003003 0.0022813
v 0.0058206 0.0002787 0.0021170
v 0.0056679 0.0003037 0.0023067
v 0.0058002 0.0002912 0.0022119
v 0.0057443 0.0003003 0.0022813
v 0.0050572 0.0005527 0.0020625
v 0.0052099 0.0006022 0.0022473
v 0.0050777 0.0005774 0.0021549
v 0.0051336 0.0005955 0.0022226
v 0.0058206 0.0005527 0.0020625
v 0.0056679 0.0006022 0.0022473
v 0.0058002 0.0005774 0.0021549
v 0.0057443 0.0005955 0.0022226
v 0.0050572 0.0008171 0.0019727
v 0.0052099 0.0008904 0.0021495
v 0.0050777 0.0008537 0.0020611
v 0.0051336 0.0008805 0.0021258
v 0.0058206 0.0008171 0.0019727
v 0.0056679 0.0008904 0.0021495
v 0.0058002 0.0008537 0.0020611
v 0.0057443 0.0008805 0.0021258
v 0.0050572 0.0010676 0.0018492
v 0.0052099 0.0011633 0.0020149
v 0.0050777 0.0011155 0.0019321
v 0.0051336 0.0011505 0.0019927
v 0.0058206 0.0010676 0.0018492
v 0.0056679 0.0011633 0.0020149
v 0.0058002 0.0011155 0.0019321
v 0.0057443 0.0011505 0.0019927
v 0.0050572 0.0012999 0.0016940
v 0.0052099 0.0014164 0.0018458
v 0.0050777 0.0013581 0.0017699
v 0.0051336 0.0014008 0.0018255
v 0.0058206 0.0012999 0.0016940
v 0.0056679 0.0014164 0.0018458
v 0.0058002 0.0013581 0.0017699
v 0.0057443 0.0014008 0.0018255
v 0.0050572 0.0015099 0.0015099
v 0.0052099 0.0016452 0.0016452
v 0.0050777 0.0015775 0.0015775
v 0.0051336 0.0016270 0.0016270
v 0.0058206 0.0015099 0.0015099
v 0.0056679 0.0016452 0.0016452
v 0.0058002 0.0015775 0.0015775
v 0.0057443 0.0016270 0.0016270
v 0.0050572 0.0016940 0.0012999
v 0.0052099 0.0018458 0.0014164
v 0.0050777 0.0017699 0.0013581
v 0.0051336 0.0018255 0.0014008
v 0.0058206 0.0016940 0.0012999
v 0.0056679 0.0018458 0.0014164
v 0.0058002 0.0017699 0.0013581
v 0.0057443 0.0018255 0.0014008
v 0.0050572 0.0018492 0.0010676
v 0.0052099 0.0020149 0.0011633
v 0.0050777 0.0019321 0.0011155
v 0.0051336 0.0019927 0.0011505
v 0.0058206 0.0018492 0.0010676
v 0.0056679 0.0020149 0.0011633
v 0.0058002 0.0019321 0.0011155
v 0.0057443 0.0019927 0.0011505
v 0.0050572 0.0019727 0.0008171
v 0.0052099 0.0021495 0.0008904
v 0.0050777 0.0020611 0.0008537
v 0.0051336 0.0021258 0.0008805
v 0.0058206 0.0019727 0.0008171
v 0.0056679 0.0021495 0.0008904
v 0.0058002 0.0020611 0.0008537
v 0.0057443 0.0021258 0.0008805
v 0.0050572 0.0020625 0.0005527
v 0.0052099 0.0022473 0.0006022
v 0.0050777 0.0021549 0.0005774
v 0.0051336 0.0022226 0.0005955
v 0.0058206 0.0020625 0.0005527
v 0.0056679 0.0022473 0.0006022
v 0.0058002 0.0021549 0.0005774
v 0.0057443 0.0022226 0.0005955
v 0.0050572 0.0021170 0.0002787
v 0.0052099 0.0023067 0.0003037
v 0.0050777 0.0022119 0.0002912
v 0.0051336 0.0022813 0.0003003
v 0.0058206 0.0021170 0.0002787
v 0.0056679 0.0023067 0.0003037
v 0.0058002 0.0022119 0.0002912
v 0.0057443 0.0022813 0.0003003
f 2 10 12
f 2 12 4
f 4 12 11
f 4 11 3
f 3 11 9
f 3 9 1
f 14 6 8
f 14 8 16
f 16 8 7
f 16 7 15
f 15 7 5
f 15 5 13
f 10 18 20
f 10 20 12
f 12 20 19
f 12 19 11
f 11 19 17
f 11 17 9
f 22 14 16
f 22 16 24
f 24 16 15
f 24 15 23
f 23 15 13
f 23 13 21
f 18 26 28
f 18 28 20
f 20 28 27
f 20 27 19
f 19 27 25
f 19 25 17
f 30 22 24
f 30 24 32
f 32 24 23
f 32 23 31
f 31 23 21
f 31 21 29
f 26 34 36
f 26 36 28
f 28 36 35
f 28 35 27
f 27 35 33
f 27 33 25
f 38 30 32
f 38 32 40
f 40 32 31
f 40 31 39
f 39 31 29
f 39 29 37
f 34 42 44
f 34 44 36
f 36 44 43
f 36 43 35
f 35 43 41
f 35 41 33
f 46 38 40
f 46 40 48
f 48 40 39
f 48 39 47
f 47 39 37
f 47 37 45
f 42 50 52
f 42 52 44
f 44 52 51
f 44 51 43
f 43 51 49
f 43 49 41
f 54 46 48
f 54 48 56
f 56 48 47
f 56 47 55
f 55 47 45
f 55 45 53
f 50 58 60
f 50 60 52
f 52 60 59
f 52 59 51
f 51 59 57
f 51 57 49
f 62 54 56
f 62 56 64
f 64 56 55
f 64 55 63
f 63 55 53
f 63 53 61
f 58 66 68
f 58 68 60
f 60 68 67
f 60 67 59
f 59 67 65
f 59 65 57
f 70 62 64
f 70 64 72
f 72 64 63
f 72 63 71
f 71 63 61
f 71 61 69
f 66 74 76
f 66 76 68
f 68 76 75
f 68 75 67
f 67 75 73
f 67 73 65
f 78 70 72
f 78 72 80
f 80 72 71
f 80 71 79
f 79 71 69
f 79 69 77
f 74 82 84
f 74 84 76
f 76 84 83
f 76 83 75
f 75 83 81
f 75 81 73
f 86 78 80
f 86 80 88
f 88 80 79
f 88 79 87
f 87 79 77
f 87 77 85
f 82 90 92
f 82 92 84
f 84 92 91
f 84 91 83
f 83 91 89
f 83 89 81
f 94 86 88
f 94 88 96
f 96 88 87
f 96 87 95
f 95 87 85
f 95 85 93
f 90 98 100
f 90 100 92
f 92 100 99
f 92 99 91
f 91 99 97
f 91 97 89
f 102 94 96
f 102 96 104
f 104 96 95
f 104 95 103
f 103 95 93
f 103 93 101
f 98 106 108
f 98 108 100
f 100 108 107
f 100 107 99
f 99 107 105
f 99 105 97
f 110 102 104
f 110 104 112
f 112 104 103
f 112 103 111
f 111 103 101
f 111 101 109
f 106 114 116
f 106 116 108
f 108 116 115
f 108 115 107
f 107 115 113
f 107 113 105
f 118 110 112
f 118 112 120
f 120 112 111
f 120 111 119
f 119 111 109
f 119 109 117
f 114 122 124
f 114 124 116
f 116 124 123
f 116 123 115
f 115 123 121
f 115 121 113
f 126 118 120
f 126 120 128
f 128 120 119
f 128 119 127
f 127 119 117
f 127 117 125
f 122 130 132
f 122 132 124
f 124 132 131
f 124 131 123
f 123 131 129
f 123 129 121
f 134 126 128
f 134 128 136
f 136 128 127
f 136 127 135
f 135 127 125
f 135 125 133
f 130 138 140
f 130 140 132
f 132 140 139
f 132 139 131
f 131 139 137
f 131 137 129
f 142 134 136
f 142 136 144
f 144 136 135
f 144 135 143
f 143 135 133
f 143 133 141
f 138 146 148
f 138 148 140
f 140 148 147
f 140 147 139
f 139 147 145
f 139 145 137
f 150 142 144
f 150 144 152
f 152 144 143
f 152 143 151
f 151 143 141
f 151 141 149
f 146 154 156
f 146 156 148
f 148 156 155
f 148 155 147
f 147 155 153
f 147 153 145
f 158 150 152
f 158 152 160
f 160 152 151
f 160 151 159
f 159 151 149
f 159 149 157
f 154 162 164
f 154 164 156
f 156 164 163
f 156 163 155
f 155 163 161
f 155 161 153
f 166 158 160
f 166 160 168
f 168 160 159
f 168 159 167
f 167 159 157
f 167 157 165
f 162 170 172
f 162 172 164
f 164 172 171
f 164 171 163
f 163 171 169
f 163 169 161
f 174 166 168
f 174 168 176
f 176 168 167
f 176 167 175
f 175 167 165
f 175 165 173
f 170 178 180
f 170 180 172
f 172 180 179
f 172 179 171
f 171 179 177
f 171 177 169
f 182 174 176
f 182 176 184
f 184 176 175
f 184 175 183
f 183 175 173
f 183 173 181
f 178 186 188
f 178 188 180
f 180 188 187
f 180 187 179
f 179 187 185
f 179 185 177
f 190 182 184
f 190 184 192
f 192 184 183
f 192 183 191
f 191 183 181
f 191 181 189
f 186 194 196
f 186 196 188
f 188 196 195
f 188 195 187
f 187 195 193
f 187 193 185
f 198 190 192
f 198 192 200
f 200 192 191
f 200 191 199
f 199 191 189
f 199 189 197
f 194 202 204
f 194 204 196
f 196 204 203
f 196 203 195
f 195 203 201
f 195 201 193
f 206 198 200
f 206 200 208
f 208 200 199
f 208 199 207
f 207 199 197
f 207 197 205
f 202 210 212
f 202 212 204
f 204 212 211
f 204 211 203
f 203 211 209
f 203 209 201
f 214 206 208
f 214 208 216
f 216 208 207
f 216 207 215
f 215 207 205
f 215 205 213
f 210 218 220
f 210 220 212
f 212 220 219
f 212 219 211
f 211 219 217
f 211 217 209
f 222 214 216
f 222 216 224
f 224 216 215
f 224 215 223
f 223 215 213
f 223 213 221
f 218 226 228
f 218 228 220
f 220 228 227
f 220 227 219
f 219 227 225
f 219 225 217
f 230 222 224
f 230 224 232
f 232 224 223
f 232 223 231
f 231 223 221
f 231 221 229
f 226 234 236
f 226 236 228
f 228 236 235
f 228 235 227
f 227 235 233
f 227 233 225
f 238 230 232
f 238 232 240
f 240 232 231
f 240 231 239
f 239 231 229
f 239 229 237
f 234 242 244
f 234 244 236
f 236 244 243
f 236 243 235
f 235 243 241
f 235 241 233
f 246 238 240
f 246 240 248
f 248 240 239
f 248 239 247
f 247 239 237
f 247 237 245
f 242 250 252
f 242 252 244
f 244 252 251
f 244 251 243
f 243 251 249
f 243 249 241
f 254 246 248
f 254 248 256
f 256 248 247
f 256 247 255
f 255 247 245
f 255 245 253
f 250 258 260
f 250 260 252
f 252 260 259
f 252 259 251
f 251 259 257
f 251 257 249
f 262 254 256
f 262 256 264
f 264 256 255
f 264 255 263
f 263 255 253
f 263 253 261
f 258 266 268
f 258 268 260
f 260 268 267
f 260 267 259
f 259 267 265
f 259 265 257
f 270 262 264
f 270 264 272
f 272 264 263
f 272 263 271
f 271 263 261
f 271 261 269
f 266 274 276
f 266 276 268
f 268 276 275
f 268 275 267
f 267 275 273
f 267 273 265
f 278 270 272
f 278 272 280
f 280 272 271
f 280 271 279
f 279 271 269
f 279 269 277
f 274 282 284
f 274 284 276
f 276 284 283
f 276 283 275
f 275 283 281
f 275 281 273
f 286 278 280
f 286 280 288
f 288 280 279
f 288 279 287
f 287 279 277
f 287 277 285
f 282 290 292
f 282 292 284
f 284 292 291
f 284 291 283
f 283 291 289
f 283 289 281
f 294 286 288
f 294 288 296
f 296 288 287
f 296 287 295
f 295 287 285
f 295 285 293
f 290 298 300
f 290 300 292
f 292 300 299
f 292 299 291
f 291 299 297
f 291 297 289
f 302 294 296
f 302 296 304
f 304 296 295
f 304 295 303
f 303 295 293
f 303 293 301
f 298 306 308
f 298 308 300
f 300 308 307
f 300 307 299
f 299 307 305
f 299 305 297
f 310 302 304
f 310 304 312
f 312 304 303
f 312 303 311
f 311 303 301
f 311 301 309
f 306 314 316
f 306 316 308
f 308 316 315
f 308 315 307
f 307 315 313
f 307 313 305
f 318 310 312
f 318 312 320
f 320 312 311
f 320 311 319
f 319 311 309
f 319 309 317
f 314 322 324
f 314 324 316
f 316 324 323
f 316 323 315
f 315 323 321
f 315 321 313
f 326 318 320
f 326 320 328
f 328 320 319
f 328 319 327
f 327 319 317
f 327 317 325
f 322 330 332
f 322 332 324
f 324 332 331
f 324 331 323
f 323 331 329
f 323 329 321
f 334 326 328
f 334 328 336
f 336 328 327
f 336 327 335
f 335 327 325
f 335 325 333
f 330 338 340
f 330 340 332
f 332 340 339
f 332 339 331
f 331 339 337
f 331 337 329
f 342 334 336
f 342 336 344
f 344 336 335
f 344 335 343
f 343 335 333
f 343 333 341
f 338 346 348
f 338 348 340
f 340 348 347
f 340 347 339
f 339 347 345
f 339 345 337
f 350 342 344
f 350 344 352
f 352 344 343
f 352 343 351
f 351 343 341
f 351 341 349
f 346 354 356
f 346 356 348
f 348 356 355
f 348 355 347
f 347 355 353
f 347 353 345
f 358 350 352
f 358 352 360
f 360 352 351
f 360 351 359
f 359 351 349
f 359 349 357
f 354 362 364
f 354 364 356
f 356 364 363
f 356 363 355
f 355 363 361
f 355 361 353
f 366 358 360
f 366 360 368
f 368 360 359
f 368 359 367
f 367 359 357
f 367 357 365
f 362 370 372
f 362 372 364
f 364 372 371
f 364 371 363
f 363 371 369
f 363 369 361
f 374 366 368
f 374 368 376
f 376 368 367
f 376 367 375
f 375 367 365
f 375 365 373
f 370 378 380
f 370 380 372
f 372 380 379
f 372 379 371
f 371 379 377
f 371 377 369
f 382 374 376
f 382 376 384
f 384 376 375
f 384 375 383
f 383 375 373
f 383 373 381
f 378 2 4
f 378 4 380
f 380 4 3
f 380 3 379
f 379 3 1
f 379 1 377
f 6 382 384
f 6 384 8
f 8 384 383
f 8 383 7
f 7 383 381
f 7 381 5
f 377 1 9
f 9 17 25
f 25 33 41
f 41 49 57
f 57 65 73
f 73 81 89
f 89 97 105
f 105 113 121
f 121 129 137
f 137 145 153
f 153 161 169
f 169 177 185
f 185 193 201
f 201 209 217
f 217 225 233
f 233 241 249
f 249 257 265
f 265 273 281
f 281 289 297
f 297 305 313
f 313 321 329
f 329 337 345
f 345 353 361
f 361 369 377
f 377 9 25
f 25 41 57
f 57 73 89
f 89 105 121
f 121 137 153
f 153 169 185
f 185 201 217
f 217 233 249
f 249 265 281
f 281 297 313
f 313 329 345
f 345 361 377
f 377 25 57
f 57 89 121
f 121 153 185
f 185 217 249
f 249 281 313
f 313 345 377
f 377 57 121
f 121 185 249
f 249 313 377
f 121 249 377
f 2 6 14
f 2 14 10
f 378 382 6
f 378 6 2
f 21 13 5
f 5 381 373
f 373 365 357
f 357 349 341
f 341 333 325
f 325 317 309
f 309 301 293
f 293 285 277
f 277 269 261
f 261 253 245
f 245 237 229
f 229 221 213
f 213 205 197
f 197 189 181
f 181 173 165
f 165 157 149
f 149 141 133
f 133 125 117
f 117 109 101
f 101 93 85
f 85 77 69
f 69 61 53
f 53 45 37
f 37 29 21
f 21 5 373
f 373 357 341
f 341 325 309
f 309 293 277
f 277 261 245
f 245 229 213
f 213 197 181
f 181 165 149
f 149 133 117
f 117 101 85
f 85 69 53
f 53 37 21
f 21 373 341
f 341 309 277
f 277 245 213
f 213 181 149
f 149 117 85
f 85 53 21
f 21 341 277
f 277 213 149
f 149 85 21
f 277 149 21
f 10 14 22
f 10 22 18
f 18 22 30
f 18 30 26
f 26 30 38
f 26 38 34
f 34 38 46
f 34 46 42
f 42 46 54
f 42 54 50
f 50 54 62
f 50 62 58
f 58 62 70
f 58 70 66
f 66 70 78
f 66 78 74
f 74 78 86
f 74 86 82
f 82 86 94
f 82 94 90
f 90 94 102
f 90 102 98
f 98 102 110
f 98 110 106
f 106 110 118
f 106 118 114
f 114 118 126
f 114 126 122
f 122 126 134
f 122 134 130
f 130 134 142
f 130 142 138
f 138 142 150
f 138 150 146
f 146 150 158
f 146 158 154
f 154 158 166
f 154 166 162
f 162 166 174
f 162 174 170
f 170 174 182
f 170 182 178
f 178 182 190
f 178 190 186
f 186 190 198
f 186 198 194
f 194 198 206
f 194 206 202
f 202 206 214
f 202 214 210
f 210 214 222
f 210 222 218
f 218 222 230
f 218 230 226
f 226 230 238
f 226 238 234
f 234 238 246
f 234 246 242
f 242 246 254
f 242 254 250
f 250 254 262
f 250 262 258
f 258 262 270
f 258 270 266
f 266 270 278
f 266 278 274
f 274 278 286
f 274 286 282
f 282 286 294
f 282 294 290
f 290 294 302
f 290 302 298
f 298 302 310
f 298 310 306
f 306 310 318
f 306 318 314
f 314 318 326
f 314 326 322
f 322 326 334
f 322 334 330
f 330 334 342
f 330 342 338
f 338 342 350
f 338 350 346
f 346 350 358
f 346 358 354
f 354 358 366
f 354 366 362
f 362 366 374
f 362 374 370
f 370 374 382
f 370 382 378
