# Zoomer visual mesh, local link coordinates in metres
v 0.0006235 0.0006472 0.0005059
v 0.0008377 0.0008724 0.0004114
v 0.0007037 0.0007280 0.0005334
v 0.0007821 0.0008104 0.0004988
v 0.0027112 0.0031178 -0.0052942
v 0.0027785 0.0031691 -0.0049805
v 0.0027718 0.0031753 -0.0052121
v 0.0027964 0.0031941 -0.0050972
v 0.0002416 0.0009065 0.0004789
v 0.0003847 0.0011800 0.0003793
v 0.0002862 0.0010115 0.0005039
v 0.0003387 0.0011116 0.0004674
v 0.0023293 0.0033771 -0.0053212
v 0.0023255 0.0034767 -0.0050125
v 0.0023543 0.0034588 -0.0052416
v 0.0023529 0.0034952 -0.0051286
v -0.0001974 0.0010132 0.0003664
v -0.0001359 0.0013066 0.0002458
v -0.0001936 0.0011281 0.0003808
v -0.0001710 0.0012355 0.0003367
v 0.0018903 0.0034838 -0.0054338
v 0.0018049 0.0036033 -0.0051460
v 0.0018745 0.0035754 -0.0053646
v 0.0018432 0.0036191 -0.0052593
v -0.0006266 0.0009510 0.0001854
v -0.0006449 0.0012328 0.0000312
v -0.0006626 0.0010601 0.0001830
v -0.0006694 0.0011632 0.0001266
v 0.0014612 0.0034216 -0.0056147
v 0.0012959 0.0035295 -0.0053607
v 0.0014054 0.0035074 -0.0055624
v 0.0013449 0.0035469 -0.0054694
v -0.0009806 0.0007294 -0.0000364
v -0.0010648 0.0009699 -0.0002319
v -0.0010496 0.0008178 -0.0000595
v -0.0010804 0.0009059 -0.0001310
v 0.0011071 0.0032000 -0.0058366
v 0.0008760 0.0032666 -0.0056238
v 0.0010185 0.0032651 -0.0058049
v 0.0009338 0.0032895 -0.0057270
v -0.0012056 0.0003820 -0.0002654
v -0.0013316 0.0005580 -0.0005034
v -0.0012955 0.0004382 -0.0003097
v -0.0013416 0.0005026 -0.0003968
v 0.0008822 0.0028526 -0.0060655
v 0.0006091 0.0028547 -0.0058953
v 0.0007725 0.0028855 -0.0060551
v 0.0006726 0.0028862 -0.0059928
v -0.0012673 -0.0000381 -0.0004665
v -0.0014048 0.0000597 -0.0007420
v -0.0013629 -0.0000211 -0.0005296
v -0.0014133 0.0000147 -0.0006304
v 0.0008205 0.0024325 -0.0062667
v 0.0005360 0.0023563 -0.0061339
v 0.0007051 0.0024262 -0.0062750
v 0.0006010 0.0023984 -0.0062264
v -0.0011563 -0.0004671 -0.0006093
v -0.0012732 -0.0004492 -0.0009114
v -0.0012416 -0.0004900 -0.0006856
v -0.0012844 -0.0004834 -0.0007962
v 0.0009315 0.0020035 -0.0064095
v 0.0006676 0.0018475 -0.0063032
v 0.0008264 0.0019573 -0.0064311
v 0.0007299 0.0019003 -0.0063922
v -0.0008895 -0.0008397 -0.0006720
v -0.0009568 -0.0008910 -0.0009857
v -0.0009500 -0.0008972 -0.0007541
v -0.0009746 -0.0009160 -0.0008690
v 0.0011982 0.0016309 -0.0064721
v 0.0009840 0.0014057 -0.0063775
v 0.0011180 0.0015501 -0.0064996
v 0.0010396 0.0014677 -0.0064649
v -0.0005076 -0.0010990 -0.0006450
v -0.0005038 -0.0011986 -0.0009537
v -0.0005326 -0.0011806 -0.0007246
v -0.0005312 -0.0012171 -0.0008376
v 0.0015802 0.0013716 -0.0064451
v 0.0014370 0.0010981 -0.0063455
v 0.0015355 0.0012667 -0.0064700
v 0.0014831 0.0011665 -0.0064336
v -0.0000686 -0.0012057 -0.0005324
v 0.0000169 -0.0013252 -0.0008202
v -0.0000528 -0.0012973 -0.0006016
v -0.0000215 -0.0013410 -0.0007069
v 0.0020191 0.0012649 -0.0063326
v 0.0019576 0.0009715 -0.0062120
v 0.0020153 0.0011500 -0.0063470
v 0.0019928 0.0010427 -0.0063029
v 0.0003606 -0.0011435 -0.0003515
v 0.0005259 -0.0012514 -0.0006055
v 0.0004163 -0.0012293 -0.0004038
v 0.0004768 -0.0012688 -0.0004968
v 0.0024483 0.0013271 -0.0061516
v 0.0024667 0.0010453 -0.0059974
v 0.0024844 0.0012180 -0.0061492
v 0.0024911 0.0011149 -0.0060928
v 0.0007146 -0.0009219 -0.0001296
v 0.0009458 -0.0009885 -0.0003424
v 0.0008033 -0.0009870 -0.0001613
v 0.0008879 -0.0010114 -0.0002392
v 0.0028023 0.0015487 -0.0059297
v 0.0028865 0.0013082 -0.0057343
v 0.0028713 0.0014603 -0.0059067
v 0.0029022 0.0013722 -0.0058352
v 0.0009396 -0.0005745 0.0000993
v 0.0012126 -0.0005765 -0.0000709
v 0.0010492 -0.0006074 0.0000889
v 0.0011491 -0.0006081 0.0000266
v 0.0030273 0.0018961 -0.0057008
v 0.0031534 0.0017202 -0.0054627
v 0.0031172 0.0018399 -0.0056565
v 0.0031634 0.0017755 -0.0055694
v 0.0010013 -0.0001544 0.0003005
v 0.0012858 -0.0000782 0.0001677
v 0.0011166 -0.0001481 0.0003088
v 0.0012208 -0.0001203 0.0002602
v 0.0030890 0.0023162 -0.0054996
v 0.0032265 0.0022185 -0.0052242
v 0.0031847 0.0022992 -0.0054366
v 0.0032350 0.0022634 -0.0053358
v 0.0008903 0.0002746 0.0004433
v 0.0011541 0.0004306 0.0003370
v 0.0009953 0.0003208 0.0004649
v 0.0010919 0.0003779 0.0004260
v 0.0029780 0.0027452 -0.0053569
v 0.0030949 0.0027273 -0.0050548
v 0.0030634 0.0027681 -0.0052806
v 0.0031061 0.0027615 -0.0051700
f 2 10 12
f 2 12 4
f 4 12 11
f 4 11 3
f 3 11 9
f 3 9 1
f 14 6 8
f 14 8 16
f 16 8 7
f 16 7 15
f 15 7 5
f 15 5 13
f 10 18 20
f 10 20 12
f 12 20 19
f 12 19 11
f 11 19 17
f 11 17 9
f 22 14 16
f 22 16 24
f 24 16 15
f 24 15 23
f 23 15 13
f 23 13 21
f 18 26 28
f 18 28 20
f 20 28 27
f 20 27 19
f 19 27 25
f 19 25 17
f 30 22 24
f 30 24 32
f 32 24 23
f 32 23 31
f 31 23 21
f 31 21 29
f 26 34 36
f 26 36 28
f 28 36 35
f 28 35 27
f 27 35 33
f 27 33 25
f 38 30 32
f 38 32 40
f 40 32 31
f 40 31 39
f 39 31 29
f 39 29 37
f 34 42 44
f 34 44 36
f 36 44 43
f 36 43 35
f 35 43 41
f 35 41 33
f 46 38 40
f 46 40 48
f 48 40 39
f 48 39 47
f 47 39 37
f 47 37 45
f 42 50 52
f 42 52 44
f 44 52 51
f 44 51 43
f 43 51 49
f 43 49 41
f 54 46 48
f 54 48 56
f 56 48 47
f 56 47 55
f 55 47 45
f 55 45 53
f 50 58 60
f 50 60 52
f 52 60 59
f 52 59 51
f 51 59 57
f 51 57 49
f 62 54 56
f 62 56 64
f 64 56 55
f 64 55 63
f 63 55 53
f 63 53 61
f 58 66 68
f 58 68 60
f 60 68 67
f 60 67 59
f 59 67 65
f 59 65 57
f 70 62 64
f 70 64 72
f 72 64 63
f 72 63 71
f 71 63 61
f 71 61 69
f 66 74 76
f 66 76 68
f 68 76 75
f 68 75 67
f 67 75 73
f 67 73 65
f 78 70 72
f 78 72 80
f 80 72 71
f 80 71 79
f 79 71 69
f 79 69 77
f 74 82 84
f 74 84 76
f 76 84 83
f 76 83 75
f 75 83 81
f 75 81 73
f 86 78 80
f 86 80 88
f 88 80 79
f 88 79 87
f 87 79 77
f 87 77 85
f 82 90 92
f 82 92 84
f 84 92 91
f 84 91 83
f 83 91 89
f 83 89 81
f 94 86 88
f 94 88 96
f 96 88 87
f 96 87 95
f 95 87 85
f 95 85 93
f 90 98 100
f 90 100 92
f 92 100 99
f 92 99 91
f 91 99 97
f 91 97 89
f 102 94 96
f 102 96 104
f 104 96 95
f 104 95 103
f 103 95 93
f 103 93 101
f 98 106 108
f 98 108 100
f 100 108 107
f 100 107 99
f 99 107 105
f 99 105 97
f 110 102 104
f 110 104 112
f 112 104 103
f 112 103 111
f 111 103 101
f 111 101 109
f 106 114 116
f 106 116 108
f 108 116 115
f 108 115 107
f 107 115 113
f 107 113 105
f 118 110 112
f 118 112 120
f 120 112 111
f 120 111 119
f 119 111 109
f 119 109 117
f 114 122 124
f 114 124 116
f 116 124 123
f 116 123 115
f 115 123 121
f 115 121 113
f 126 118 120
f 126 120 128
f 128 120 119
f 128 119 127
f 127 119 117
f 127 117 125
f 122 2 4
f 122 4 124
f 124 4 3
f 124 3 123
f 123 3 1
f 123 1 121
f 6 126 128
f 6 128 8
f 8 128 127
f 8 127 7
f 7 127 125
f 7 125 5
f 121 1 9
f 9 17 25
f 25 33 41
f 41 49 57
f 57 65 73
f 73 81 89
f 89 97 105
f 105 113 121
f 121 9 25
f 25 41 57
f 57 73 89
f 89 105 121
f 121 25 57
f 57 89 121
f 2 6 14
f 2 14 10
f 122 126 6
f 122 6 2
f 21 13 5
f 5 125 117
f 117 109 101
f 101 93 85
f 85 77 69
f 69 61 53
f 53 45 37
f 37 29 21
f 21 5 117
f 117 101 85
f 85 69 53
f 53 37 21
f 21 117 85
f 85 53 21
f 10 14 22
f 10 22 18
f 18 22 30
f 18 30 26
f 26 30 38
f 26 38 34
f 34 38 46
f 34 46 42
f 42 46 54
f 42 54 50
f 50 54 62
f 50 62 58
f 58 62 70
f 58 70 66
f 66 70 78
f 66 78 74
f 74 78 86
f 74 86 82
f 82 86 94
f 82 94 90
f 90 94 102
f 90 102 98
f 98 102 110
f 98 110 106
f 106 110 118
f 106 118 114
f 114 118 126
f 114 126 122
