# Zoomer visual mesh, local link coordinates in metres
v -0.0020038 -0.0087060 -0.0170633
v -0.0020038 -0.0089493 -0.0168246
v -0.0020038 -0.0088276 -0.0170313
v -0.0020038 -0.0089167 -0.0169440
v -0.0020038 -0.0087060 -0.0045343
v -0.0020038 -0.0089493 -0.0047729
v -0.0020038 -0.0088276 -0.0045663
v -0.0020038 -0.0089167 -0.0046536
v -0.0020754 -0.0086882 -0.0170633
v -0.0021499 -0.0089130 -0.0168246
v -0.0021127 -0.0088006 -0.0170313
v -0.0021399 -0.0088828 -0.0169440
v -0.0020754 -0.0086882 -0.0045343
v -0.0021499 -0.0089130 -0.0047729
v -0.0021127 -0.0088006 -0.0045663
v -0.0021399 -0.0088828 -0.0046536
v -0.0021361 -0.0086374 -0.0170633
v -0.0022737 -0.0088095 -0.0168246
v -0.0022049 -0.0087235 -0.0170313
v -0.0022553 -0.0087864 -0.0169440
v -0.0021361 -0.0086374 -0.0045343
v -0.0022737 -0.0088095 -0.0047729
v -0.0022049 -0.0087235 -0.0045663
v -0.0022553 -0.0087864 -0.0046536
v -0.0021767 -0.0085615 -0.0170633
v -0.0023564 -0.0086546 -0.0168246
v -0.0022666 -0.0086081 -0.0170313
v -0.0023324 -0.0086422 -0.0169440
v -0.0021767 -0.0085615 -0.0045343
v -0.0023564 -0.0086546 -0.0047729
v -0.0022666 -0.0086081 -0.0045663
v -0.0023324 -0.0086422 -0.0046536
v -0.0021909 -0.0084720 -0.0170633
v -0.0023855 -0.0084720 -0.0168246
v -0.0022882 -0.0084720 -0.0170313
v -0.0023594 -0.0084720 -0.0169440
v -0.0021909 -0.0084720 -0.0045343
v -0.0023855 -0.0084720 -0.0047729
v -0.0022882 -0.0084720 -0.0045663
v -0.0023594 -0.0084720 -0.0046536
v -0.0021767 -0.0083825 -0.0170633
v -0.0023564 -0.0082893 -0.0168246
v -0.0022666 -0.0083359 -0.0170313
v -0.0023324 -0.0083018 -0.0169440
v -0.0021767 -0.0083825 -0.0045343
v -0.0023564 -0.0082893 -0.0047729
v -0.0022666 -0.0083359 -0.0045663
v -0.0023324 -0.0083018 -0.0046536
v -0.0021361 -0.0083065 -0.0170633
v -0.0022737 -0.0081345 -0.0168246
v -0.0022049 -0.0082205 -0.0170313
v -0.0022553 -0.0081575 -0.0169440
v -0.0021361 -0.0083065 -0.0045343
v -0.0022737 -0.0081345 -0.0047729
v -0.0022049 -0.0082205 -0.0045663
v -0.0022553 -0.0081575 -0.0046536
v -0.0020754 -0.0082558 -0.0170633
v -0.0021499 -0.0080310 -0.0168246
v -0.0021127 -0.0081434 -0.0170313
v -0.0021399 -0.0080611 -0.0169440
v -0.0020754 -0.0082558 -0.0045343
v -0.0021499 -0.0080310 -0.0047729
v -0.0021127 -0.0081434 -0.0045663
v -0.0021399 -0.0080611 -0.0046536
v -0.0020038 -0.0082380 -0.0170633
v -0.0020038 -0.0079947 -0.0168246
v -0.0020038 -0.0081164 -0.0170313
v -0.0020038 -0.0080273 -0.0169440
v -0.0020038 -0.0082380 -0.0045343
v -0.0020038 -0.0079947 -0.0047729
v -0.0020038 -0.0081164 -0.0045663
v -0.0020038 -0.0080273 -0.0046536
v -0.0019322 -0.0082558 -0.0170633
v -0.0018578 -0.0080310 -0.0168246
v -0.0018950 -0.0081434 -0.0170313
v -0.0018677 -0.0080611 -0.0169440
v -0.0019322 -0.0082558 -0.0045343
v -0.0018578 -0.0080310 -0.0047729
v -0.0018950 -0.0081434 -0.0045663
v -0.0018677 -0.0080611 -0.0046536
v -0.0018715 -0.0083065 -0.0170633
v -0.0017339 -0.0081345 -0.0168246
v -0.0018027 -0.0082205 -0.0170313
v -0.0017524 -0.0081575 -0.0169440
v -0.0018715 -0.0083065 -0.0045343
v -0.0017339 -0.0081345 -0.0047729
v -0.0018027 -0.0082205 -0.0045663
v -0.0017524 -0.0081575 -0.0046536
v -0.0018310 -0.0083825 -0.0170633
v -0.0016512 -0.0082893 -0.0168246
v -0.0017411 -0.0083359 -0.0170313
v -0.0016753 -0.0083018 -0.0169440
v -0.0018310 -0.0083825 -0.0045343
v -0.0016512 -0.0082893 -0.0047729
v -0.0017411 -0.0083359 -0.0045663
v -0.0016753 -0.0083018 -0.0046536
v -0.0018167 -0.0084720 -0.0170633
v -0.0016221 -0.0084720 -0.0168246
v -0.0017194 -0.0084720 -0.0170313
v -0.0016482 -0.0084720 -0.0169440
v -0.0018167 -0.0084720 -0.0045343
v -0.0016221 -0.0084720 -0.0047729
v -0.0017194 -0.0084720 -0.0045663
v -0.0016482 -0.0084720 -0.0046536
v -0.0018310 -0.0085615 -0.0170633
v -0.0016512 -0.0086546 -0.0168246
v -0.0017411 -0.0086081 -0.0170313
v -0.0016753 -0.0086422 -0.0169440
v -0.0018310 -0.0085615 -0.0045343
v -0.0016512 -0.0086546 -0.0047729
v -0.0017411 -0.0086081 -0.0045663
v -0.0016753 -0.0086422 -0.0046536
v -0.0018715 -0.0086374 -0.0170633
v -0.0017339 -0.0088095 -0.0168246
v -0.0018027 -0.0087235 -0.0170313
v -0.0017524 -0.0087864 -0.0169440
v -0.0018715 -0.0086374 -0.0045343
v -0.0017339 -0.0088095 -0.0047729
v -0.0018027 -0.0087235 -0.0045663
v -0.0017524 -0.0087864 -0.0046536
v -0.0019322 -0.0086882 -0.0170633
v -0.0018578 -0.0089130 -0.0168246
v -0.0018950 -0.0088006 -0.0170313
v -0.0018677 -0.0088828 -0.0169440
v -0.0019322 -0.0086882 -0.0045343
v -0.0018578 -0.0089130 -0.0047729
v -0.0018950 -0.0088006 -0.0045663
v -0.0018677 -0.0088828 -0.0046536
v 0.0020038 -0.0087060 -0.0170633
v 0.0020038 -0.0089493 -0.0168246
v 0.0020038 -0.0088276 -0.0170313
v 0.0020038 -0.0089167 -0.0169440
v 0.0020038 -0.0087060 -0.0045343
v 0.0020038 -0.0089493 -0.0047729
v 0.0020038 -0.0088276 -0.0045663
v 0.0020038 -0.0089167 -0.0046536
v 0.0019322 -0.0086882 -0.0170633
v 0.0018578 -0.0089130 -0.0168246
v 0.0018950 -0.0088006 -0.0170313
v 0.0018677 -0.0088828 -0.0169440
v 0.0019322 -0.0086882 -0.0045343
v 0.0018578 -0.0089130 -0.0047729
v 0.0018950 -0.0088006 -0.0045663
v 0.0018677 -0.0088828 -0.0046536
v 0.0018715 -0.0086374 -0.0170633
v 0.0017339 -0.0088095 -0.0168246
v 0.0018027 -0.0087235 -0.0170313
v 0.0017524 -0.0087864 -0.0169440
v 0.0018715 -0.0086374 -0.0045343
v 0.0017339 -0.0088095 -0.0047729
v 0.0018027 -0.0087235 -0.0045663
v 0.0017524 -0.0087864 -0.0046536
v 0.0018310 -0.0085615 -0.0170633
v 0.0016512 -0.0086546 -0.0168246
v 0.0017411 -0.0086081 -0.0170313
v 0.0016753 -0.0086422 -0.0169440
v 0.0018310 -0.0085615 -0.0045343
v 0.0016512 -0.0086546 -0.0047729
v 0.0017411 -0.0086081 -0.0045663
v 0.0016753 -0.0086422 -0.0046536
v 0.0018167 -0.0084720 -0.0170633
v 0.0016221 -0.0084720 -0.0168246
v 0.0017194 -0.0084720 -0.0170313
v 0.0016482 -0.0084720 -0.0169440
v 0.0018167 -0.0084720 -0.0045343
v 0.0016221 -0.0084720 -0.0047729
v 0.0017194 -0.0084720 -0.0045663
v 0.0016482 -0.0084720 -0.0046536
v 0.0018310 -0.0083825 -0.0170633
v 0.0016512 -0.0082893 -0.0168246
v 0.0017411 -0.0083359 -0.0170313
v 0.0016753 -0.0083018 -0.0169440
v 0.0018310 -0.0083825 -0.0045343
v 0.0016512 -0.0082893 -0.0047729
v 0.0017411 -0.0083359 -0.0045663
v 0.0016753 -0.0083018 -0.0046536
v 0.0018715 -0.0083065 -0.0170633
v 0.0017339 -0.0081345 -0.0168246
v 0.0018027 -0.0082205 -0.0170313
v 0.0017524 -0.0081575 -0.0169440
v 0.0018715 -0.0083065 -0.0045343
v 0.0017339 -0.0081345 -0.0047729
v 0.0018027 -0.0082205 -0.0045663
v 0.0017524 -0.0081575 -0.0046536
v 0.0019322 -0.0082558 -0.0170633
v 0.0018578 -0.0080310 -0.0168246
v 0.0018950 -0.0081434 -0.0170313
v 0.0018677 -0.0080611 -0.0169440
v 0.0019322 -0.0082558 -0.0045343
v 0.0018578 -0.0080310 -0.0047729
v 0.0018950 -0.0081434 -0.0045663
v 0.0018677 -0.0080611 -0.0046536
v 0.0020038 -0.0082380 -0.0170633
v 0.0020038 -0.0079947 -0.0168246
v 0.0020038 -0.0081164 -0.0170313
v 0.0020038 -0.0080273 -0.0169440
v 0.0020038 -0.0082380 -0.0045343
v 0.0020038 -0.0079947 -0.0047729
v 0.0020038 -0.0081164 -0.0045663
v 0.0020038 -0.0080273 -0.0046536
v 0.0020754 -0.0082558 -0.0170633
v 0.0021499 -0.0080310 -0.0168246
v 0.0021126 -0.0081434 -0.0170313
v 0.0021399 -0.0080611 -0.0169440
v 0.0020754 -0.0082558 -0.0045343
v 0.0021499 -0.0080310 -0.0047729
v 0.0021126 -0.0081434 -0.0045663
v 0.0021399 -0.0080611 -0.0046536
v 0.0021361 -0.0083065 -0.0170633
v 0.0022737 -0.0081345 -0.0168246
v 0.0022049 -0.0082205 -0.0170313
v 0.0022553 -0.0081575 -0.0169440
v 0.0021361 -0.0083065 -0.0045343
v 0.0022737 -0.0081345 -0.0047729
v 0.0022049 -0.0082205 -0.0045663
v 0.0022553 -0.0081575 -0.0046536
v 0.0021767 -0.0083825 -0.0170633
v 0.0023564 -0.0082893 -0.0168246
v 0.0022666 -0.0083359 -0.0170313
v 0.0023324 -0.0083018 -0.0169440
v 0.0021767 -0.0083825 -0.0045343
v 0.0023564 -0.0082893 -0.0047729
v 0.0022666 -0.0083359 -0.0045663
v 0.0023324 -0.0083018 -0.0046536
v 0.0021909 -0.0084720 -0.0170633
v 0.0023855 -0.0084720 -0.0168246
v 0.0022882 -0.0084720 -0.0170313
v 0.0023594 -0.0084720 -0.0169440
v 0.0021909 -0.0084720 -0.0045343
v 0.0023855 -0.0084720 -0.0047729
v 0.0022882 -0.0084720 -0.0045663
v 0.0023594 -0.0084720 -0.0046536
v 0.0021767 -0.0085615 -0.0170633
v 0.0023564 -0.0086546 -0.0168246
v 0.0022666 -0.0086081 -0.0170313
v 0.0023324 -0.0086422 -0.0169440
v 0.0021767 -0.0085615 -0.0045343
v 0.0023564 -0.0086546 -0.0047729
v 0.0022666 -0.0086081 -0.0045663
v 0.0023324 -0.0086422 -0.0046536
v 0.0021361 -0.0086374 -0.0170633
v 0.0022737 -0.0088095 -0.0168246
v 0.0022049 -0.0087235 -0.0170313
v 0.0022553 -0.0087864 -0.0169440
v 0.0021361 -0.0086374 -0.0045343
v 0.0022737 -0.0088095 -0.0047729
v 0.0022049 -0.0087235 -0.0045663
v 0.0022553 -0.0087864 -0.0046536
v 0.0020754 -0.0086882 -0.0170633
v 0.0021499 -0.0089130 -0.0168246
v 0.0021126 -0.0088006 -0.0170313
v 0.0021399 -0.0088828 -0.0169440
v 0.0020754 -0.0086882 -0.0045343
v 0.0021499 -0.0089130 -0.0047729
v 0.0021126 -0.0088006 -0.0045663
v 0.0021399 -0.0088828 -0.0046536
f 2 10 12
f 2 12 4
f 4 12 11
f 4 11 3
f 3 11 9
f 3 9 1
f 14 6 8
f 14 8 16
f 16 8 7
f 16 7 15
f 15 7 5
f 15 5 13
f 10 18 20
f 10 20 12
f 12 20 19
f 12 19 11
f 11 19 17
f 11 17 9
f 22 14 16
f 22 16 24
f 24 16 15
f 24 15 23
f 23 15 13
f 23 13 21
f 18 26 28
f 18 28 20
f 20 28 27
f 20 27 19
f 19 27 25
f 19 25 17
f 30 22 24
f 30 24 32
f 32 24 23
f 32 23 31
f 31 23 21
f 31 21 29
f 26 34 36
f 26 36 28
f 28 36 35
f 28 35 27
f 27 35 33
f 27 33 25
f 38 30 32
f 38 32 40
f 40 32 31
f 40 31 39
f 39 31 29
f 39 29 37
f 34 42 44
f 34 44 36
f 36 44 43
f 36 43 35
f 35 43 41
f 35 41 33
f 46 38 40
f 46 40 48
f 48 40 39
f 48 39 47
f 47 39 37
f 47 37 45
f 42 50 52
f 42 52 44
f 44 52 51
f 44 51 43
f 43 51 49
f 43 49 41
f 54 46 48
f 54 48 56
f 56 48 47
f 56 47 55
f 55 47 45
f 55 45 53
f 50 58 60
f 50 60 52
f 52 60 59
f 52 59 51
f 51 59 57
f 51 57 49
f 62 54 56
f 62 56 64
f 64 56 55
f 64 55 63
f 63 55 53
f 63 53 61
f 58 66 68
f 58 68 60
f 60 68 67
f 60 67 59
f 59 67 65
f 59 65 57
f 70 62 64
f 70 64 72
f 72 64 63
f 72 63 71
f 71 63 61
f 71 61 69
f 66 74 76
f 66 76 68
f 68 76 75
f 68 75 67
f 67 75 73
f 67 73 65
f 78 70 72
f 78 72 80
f 80 72 71
f 80 71 79
f 79 71 69
f 79 69 77
f 74 82 84
f 74 84 76
f 76 84 83
f 76 83 75
f 75 83 81
f 75 81 73
f 86 78 80
f 86 80 88
f 88 80 79
f 88 79 87
f 87 79 77
f 87 77 85
f 82 90 92
f 82 92 84
f 84 92 91
f 84 91 83
f 83 91 89
f 83 89 81
f 94 86 88
f 94 88 96
f 96 88 87
f 96 87 95
f 95 87 85
f 95 85 93
f 90 98 100
f 90 100 92
f 92 100 99
f 92 99 91
f 91 99 97
f 91 97 89
f 102 94 96
f 102 96 104
f 104 96 95
f 104 95 103
f 103 95 93
f 103 93 101
f 98 106 108
f 98 108 100
f 100 108 107
f 100 107 99
f 99 107 105
f 99 105 97
f 110 102 104
f 110 104 112
f 112 104 103
f 112 103 111
f 111 103 101
f 111 101 109
f 106 114 116
f 106 116 108
f 108 116 115
f 108 115 107
f 107 115 113
f 107 113 105
f 118 110 112
f 118 112 120
f 120 112 111
f 120 111 119
f 119 111 109
f 119 109 117
f 114 122 124
f 114 124 116
f 116 124 123
f 116 123 115
f 115 123 121
f 115 121 113
f 126 118 120
f 126 120 128
f 128 120 119
f 128 119 127
f 127 119 117
f 127 117 125
f 122 2 4
f 122 4 124
f 124 4 3
f 124 3 123
f 123 3 1
f 123 1 121
f 6 126 128
f 6 128 8
f 8 128 127
f 8 127 7
f 7 127 125
f 7 125 5
f 121 1 9
f 9 17 25
f 25 33 41
f 41 49 57
f 57 65 73
f 73 81 89
f 89 97 105
f 105 113 121
f 121 9 25
f 25 41 57
f 57 73 89
f 89 105 121
f 121 25 57
f 57 89 121
f 2 6 14
f 2 14 10
f 122 126 6
f 122 6 2
f 21 13 5
f 5 125 117
f 117 109 101
f 101 93 85
f 85 77 69
f 69 61 53
f 53 45 37
f 37 29 21
f 21 5 117
f 117 101 85
f 85 69 53
f 53 37 21
f 21 117 85
f 85 53 21
f 10 14 22
f 10 22 18
f 18 22 30
f 18 30 26
f 26 30 38
f 26 38 34
f 34 38 46
f 34 46 42
f 42 46 54
f 42 54 50
f 50 54 62
f 50 62 58
f 58 62 70
f 58 70 66
f 66 70 78
f 66 78 74
f 74 78 86
f 74 86 82
f 82 86 94
f 82 94 90
f 90 94 102
f 90 102 98
f 98 102 110
f 98 110 106
f 106 110 118
f 106 118 114
f 114 118 126
f 114 126 122
f 130 138 140
f 130 140 132
f 132 140 139
f 132 139 131
f 131 139 137
f 131 137 129
f 142 134 136
f 142 136 144
f 144 136 135
f 144 135 143
f 143 135 133
f 143 133 141
f 138 146 148
f 138 148 140
f 140 148 147
f 140 147 139
f 139 147 145
f 139 145 137
f 150 142 144
f 150 144 152
f 152 144 143
f 152 143 151
f 151 143 141
f 151 141 149
f 146 154 156
f 146 156 148
f 148 156 155
f 148 155 147
f 147 155 153
f 147 153 145
f 158 150 152
f 158 152 160
f 160 152 151
f 160 151 159
f 159 151 149
f 159 149 157
f 154 162 164
f 154 164 156
f 156 164 163
f 156 163 155
f 155 163 161
f 155 161 153
f 166 158 160
f 166 160 168
f 168 160 159
f 168 159 167
f 167 159 157
f 167 157 165
f 162 170 172
f 162 172 164
f 164 172 171
f 164 171 163
f 163 171 169
f 163 169 161
f 174 166 168
f 174 168 176
f 176 168 167
f 176 167 175
f 175 167 165
f 175 165 173
f 170 178 180
f 170 180 172
f 172 180 179
f 172 179 171
f 171 179 177
f 171 177 169
f 182 174 176
f 182 176 184
f 184 176 175
f 184 175 183
f 183 175 173
f 183 173 181
f 178 186 188
f 178 188 180
f 180 188 187
f 180 187 179
f 179 187 185
f 179 185 177
f 190 182 184
f 190 184 192
f 192 184 183
f 192 183 191
f 191 183 181
f 191 181 189
f 186 194 196
f 186 196 188
f 188 196 195
f 188 195 187
f 187 195 193
f 187 193 185
f 198 190 192
f 198 192 200
f 200 192 191
f 200 191 199
f 199 191 189
f 199 189 197
f 194 202 204
f 194 204 196
f 196 204 203
f 196 203 195
f 195 203 201
f 195 201 193
f 206 198 200
f 206 200 208
f 208 200 199
f 208 199 207
f 207 199 197
f 207 197 205
f 202 210 212
f 202 212 204
f 204 212 211
f 204 211 203
f 203 211 209
f 203 209 201
f 214 206 208
f 214 208 216
f 216 208 207
f 216 207 215
f 215 207 205
f 215 205 213
f 210 218 220
f 210 220 212
f 212 220 219
f 212 219 211
f 211 219 217
f 211 217 209
f 222 214 216
f 222 216 224
f 224 216 215
f 224 215 223
f 223 215 213
f 223 213 221
f 218 226 228
f 218 228 220
f 220 228 227
f 220 227 219
f 219 227 225
f 219 225 217
f 230 222 224
f 230 224 232
f 232 224 223
f 232 223 231
f 231 223 221
f 231 221 229
f 226 234 236
f 226 236 228
f 228 236 235
f 228 235 227
f 227 235 233
f 227 233 225
f 238 230 232
f 238 232 240
f 240 232 231
f 240 231 239
f 239 231 229
f 239 229 237
f 234 242 244
f 234 244 236
f 236 244 243
f 236 243 235
f 235 243 241
f 235 241 233
f 246 238 240
f 246 240 248
f 248 240 239
f 248 239 247
f 247 239 237
f 247 237 245
f 242 250 252
f 242 252 244
f 244 252 251
f 244 251 243
f 243 251 249
f 243 249 241
f 254 246 248
f 254 248 256
f 256 248 247
f 256 247 255
f 255 247 245
f 255 245 253
f 250 130 132
f 250 132 252
f 252 132 131
f 252 131 251
f 251 131 129
f 251 129 249
f 134 254 256
f 134 256 136
f 136 256 255
f 136 255 135
f 135 255 253
f 135 253 133
f 249 129 137
f 137 145 153
f 153 161 169
f 169 177 185
f 185 193 201
f 201 209 217
f 217 225 233
f 233 241 249
f 249 137 153
f 153 169 185
f 185 201 217
f 217 233 249
f 249 153 185
f 185 217 249
f 130 134 142
f 130 142 138
f 250 254 134
f 250 134 130
f 149 141 133
f 133 253 245
f 245 237 229
f 229 221 213
f 213 205 197
f 197 189 181
f 181 173 165
f 165 157 149
f 149 133 245
f 245 229 213
f 213 197 181
f 181 165 149
f 149 245 213
f 213 181 149
f 138 142 150
f 138 150 146
f 146 150 158
f 146 158 154
f 154 158 166
f 154 166 162
f 162 166 174
f 162 174 170
f 170 174 182
f 170 182 178
f 178 182 190
f 178 190 186
f 186 190 198
f 186 198 194
f 194 198 206
f 194 206 202
f 202 206 214
f 202 214 210
f 210 214 222
f 210 222 218
f 218 222 230
f 218 230 226
f 226 230 238
f 226 238 234
f 234 238 246
f 234 246 242
f 242 246 254
f 242 254 250
