# Zoomer visual mesh, local link coordinates in metres
v -0.0036260 0.0000000 -0.0101425
v -0.0032334 0.0000000 -0.0099830
v -0.0029907 0.0000000 -0.0095654
v -0.0029907 0.0000000 -0.0090491
v -0.0032334 0.0000000 -0.0086315
v -0.0036260 0.0000000 -0.0084720
v -0.0040186 0.0000000 -0.0086315
v -0.0042612 0.0000000 -0.0090491
v -0.0042612 0.0000000 -0.0095654
v -0.0040186 0.0000000 -0.0099830
v -0.0036260 0.0013239 -0.0100558
v -0.0032334 0.0013030 -0.0098976
v -0.0029907 0.0012485 -0.0094835
v -0.0029907 0.0011812 -0.0089717
v -0.0032334 0.0011266 -0.0085577
v -0.0036260 0.0011058 -0.0083995
v -0.0040186 0.0011266 -0.0085577
v -0.0042612 0.0011812 -0.0089717
v -0.0042612 0.0012485 -0.0094835
v -0.0040186 0.0013030 -0.0098976
v -0.0036260 0.0026251 -0.0097969
v -0.0032334 0.0025838 -0.0096428
v -0.0029907 0.0024757 -0.0092394
v -0.0029907 0.0023421 -0.0087408
v -0.0032334 0.0022340 -0.0083374
v -0.0036260 0.0021927 -0.0081833
v -0.0040186 0.0022340 -0.0083374
v -0.0042612 0.0023421 -0.0087408
v -0.0042612 0.0024757 -0.0092394
v -0.0040186 0.0025838 -0.0096428
v -0.0036260 0.0038814 -0.0093705
v -0.0032334 0.0038203 -0.0092231
v -0.0029907 0.0036605 -0.0088373
v -0.0029907 0.0034630 -0.0083603
v -0.0032334 0.0033031 -0.0079745
v -0.0036260 0.0032421 -0.0078271
v -0.0040186 0.0033031 -0.0079745
v -0.0042612 0.0034630 -0.0083603
v -0.0042612 0.0036605 -0.0088373
v -0.0040186 0.0038203 -0.0092231
v -0.0036260 0.0050713 -0.0087837
v -0.0032334 0.0049915 -0.0086455
v -0.0029907 0.0047827 -0.0082839
v -0.0029907 0.0045246 -0.0078368
v -0.0032334 0.0043158 -0.0074751
v -0.0036260 0.0042360 -0.0073370
v -0.0040186 0.0043158 -0.0074751
v -0.0042612 0.0045246 -0.0078368
v -0.0042612 0.0047827 -0.0082839
v -0.0040186 0.0049915 -0.0086455
v -0.0036260 0.0061744 -0.0080466
v -0.0032334 0.0060773 -0.0079201
v -0.0029907 0.0058230 -0.0075887
v -0.0029907 0.0055088 -0.0071792
v -0.0032334 0.0052545 -0.0068478
v -0.0036260 0.0051574 -0.0067213
v -0.0040186 0.0052545 -0.0068478
v -0.0042612 0.0055088 -0.0071792
v -0.0042612 0.0058230 -0.0075887
v -0.0040186 0.0060773 -0.0079201
v -0.0036260 0.0071718 -0.0071718
v -0.0032334 0.0070591 -0.0070590
v -0.0029907 0.0067637 -0.0067637
v -0.0029907 0.0063987 -0.0063987
v -0.0032334 0.0061034 -0.0061034
v -0.0036260 0.0059906 -0.0059906
v -0.0040186 0.0061034 -0.0061034
v -0.0042612 0.0063987 -0.0063987
v -0.0042612 0.0067637 -0.0067637
v -0.0040186 0.0070591 -0.0070590
v -0.0036260 0.0080466 -0.0061744
v -0.0032334 0.0079200 -0.0060773
v -0.0029907 0.0075887 -0.0058230
v -0.0029907 0.0071792 -0.0055088
v -0.0032334 0.0068478 -0.0052545
v -0.0036260 0.0067213 -0.0051574
v -0.0040186 0.0068478 -0.0052545
v -0.0042612 0.0071792 -0.0055088
v -0.0042612 0.0075887 -0.0058230
v -0.0040186 0.0079200 -0.0060773
v -0.0036260 0.0087837 -0.0050713
v -0.0032334 0.0086455 -0.0049915
v -0.0029907 0.0082839 -0.0047827
v -0.0029907 0.0078368 -0.0045246
v -0.0032334 0.0074751 -0.0043158
v -0.0036260 0.0073370 -0.0042360
v -0.0040186 0.0074751 -0.0043158
v -0.0042612 0.0078368 -0.0045246
v -0.0042612 0.0082839 -0.0047827
v -0.0040186 0.0086455 -0.0049915
v -0.0036260 0.0093705 -0.0038814
v -0.0032334 0.0092231 -0.0038203
v -0.0029907 0.0088372 -0.0036605
v -0.0029907 0.0083603 -0.0034630
v -0.0032334 0.0079745 -0.0033031
v -0.0036260 0.0078271 -0.0032421
v -0.0040186 0.0079745 -0.0033031
v -0.0042612 0.0083603 -0.0034630
v -0.0042612 0.0088372 -0.0036605
v -0.0040186 0.0092231 -0.0038203
v -0.0036260 0.0097969 -0.0026251
v -0.0032334 0.0096428 -0.0025838
v -0.0029907 0.0092394 -0.0024757
v -0.0029907 0.0087408 -0.0023421
v -0.0032334 0.0083374 -0.0022340
v -0.0036260 0.0081833 -0.0021927
v -0.0040186 0.0083374 -0.0022340
v -0.0042612 0.0087408 -0.0023421
v -0.0042612 0.0092394 -0.0024757
v -0.0040186 0.0096428 -0.0025838
v -0.0036260 0.0100558 -0.0013239
v -0.0032334 0.0098976 -0.0013030
v -0.0029907 0.0094835 -0.0012485
v -0.0029907 0.0089717 -0.0011811
v -0.0032334 0.0085577 -0.0011266
v -0.0036260 0.0083995 -0.0011058
v -0.0040186 0.0085577 -0.0011266
v -0.0042612 0.0089717 -0.0011811
v -0.0042612 0.0094835 -0.0012485
v -0.0040186 0.0098976 -0.0013030
v -0.0036260 0.0101425 -0.0000000
v -0.0032334 0.0099830 -0.0000000
v -0.0029907 0.0095654 -0.0000000
v -0.0029907 0.0090491 -0.0000000
v -0.0032334 0.0086315 -0.0000000
v -0.0036260 0.0084720 -0.0000000
v -0.0040186 0.0086315 -0.0000000
v -0.0042612 0.0090491 -0.0000000
v -0.0042612 0.0095654 -0.0000000
v -0.0040186 0.0099830 -0.0000000
v -0.0036260 0.0100558 0.0013239
v -0.0032334 0.0098976 0.0013030
v -0.0029907 0.0094835 0.0012485
v -0.0029907 0.0089717 0.0011812
v -0.0032334 0.0085577 0.0011266
v -0.0036260 0.0083995 0.0011058
v -0.0040186 0.0085577 0.0011266
v -0.0042612 0.0089717 0.0011812
v -0.0042612 0.0094835 0.0012485
v -0.0040186 0.0098976 0.0013030
v -0.0036260 0.0097969 0.0026251
v -0.0032334 0.0096428 0.0025838
v -0.0029907 0.0092394 0.0024757
v -0.0029907 0.0087408 0.0023421
v -0.0032334 0.0083374 0.0022340
v -0.0036260 0.0081833 0.0021927
v -0.0040186 0.0083374 0.0022340
v -0.0042612 0.0087408 0.0023421
v -0.0042612 0.0092394 0.0024757
v -0.0040186 0.0096428 0.0025838
v -0.0036260 0.0093705 0.0038814
v -0.0032334 0.0092231 0.0038203
v -0.0029907 0.0088373 0.0036605
v -0.0029907 0.0083603 0.0034630
v -0.0032334 0.0079745 0.0033031
v -0.0036260 0.0078271 0.0032421
v -0.0040186 0.0079745 0.0033031
v -0.0042612 0.0083603 0.0034630
v -0.0042612 0.0088373 0.0036605
v -0.0040186 0.0092231 0.0038203
v -0.0036260 0.0087837 0.0050713
v -0.0032334 0.0086455 0.0049915
v -0.0029907 0.0082839 0.0047827
v -0.0029907 0.0078368 0.0045246
v -0.0032334 0.0074751 0.0043158
v -0.0036260 0.0073370 0.0042360
v -0.0040186 0.0074751 0.0043158
v -0.0042612 0.0078368 0.0045246
v -0.0042612 0.0082839 0.0047827
v -0.0040186 0.0086455 0.0049915
v -0.0036260 0.0080466 0.0061744
v -0.0032334 0.0079200 0.0060773
v -0.0029907 0.0075887 0.0058230
v -0.0029907 0.0071792 0.0055088
v -0.0032334 0.0068478 0.0052545
v -0.0036260 0.0067213 0.0051574
v -0.0040186 0.0068478 0.0052545
v -0.0042612 0.0071792 0.0055088
v -0.0042612 0.0075887 0.0058230
v -0.0040186 0.0079200 0.0060773
v -0.0036260 0.0071718 0.0071719
v -0.0032334 0.0070590 0.0070591
v -0.0029907 0.0067637 0.0067637
v -0.0029907 0.0063987 0.0063987
v -0.0032334 0.0061034 0.0061034
v -0.0036260 0.0059906 0.0059906
v -0.0040186 0.0061034 0.0061034
v -0.0042612 0.0063987 0.0063987
v -0.0042612 0.0067637 0.0067637
v -0.0040186 0.0070590 0.0070591
v -0.0036260 0.0061744 0.0080466
v -0.0032334 0.0060773 0.0079200
v -0.0029907 0.0058230 0.0075887
v -0.0029907 0.0055088 0.0071792
v -0.0032334 0.0052545 0.0068478
v -0.0036260 0.0051574 0.0067213
v -0.0040186 0.0052545 0.0068478
v -0.0042612 0.0055088 0.0071792
v -0.0042612 0.0058230 0.0075887
v -0.0040186 0.0060773 0.0079200
v -0.0036260 0.0050713 0.0087837
v -0.0032334 0.0049915 0.0086455
v -0.0029907 0.0047827 0.0082839
v -0.0029907 0.0045246 0.0078368
v -0.0032334 0.0043158 0.0074751
v -0.0036260 0.0042360 0.0073370
v -0.0040186 0.0043158 0.0074751
v -0.0042612 0.0045246 0.0078368
v -0.0042612 0.0047827 0.0082839
v -0.0040186 0.0049915 0.0086455
v -0.0036260 0.0038814 0.0093705
v -0.0032334 0.0038203 0.0092231
v -0.0029907 0.0036605 0.0088373
v -0.0029907 0.0034630 0.0083603
v -0.0032334 0.0033031 0.0079745
v -0.0036260 0.0032421 0.0078271
v -0.0040186 0.0033031 0.0079745
v -0.0042612 0.0034630 0.0083603
v -0.0042612 0.0036605 0.0088373
v -0.0040186 0.0038203 0.0092231
v -0.0036260 0.0026251 0.0097969
v -0.0032334 0.0025838 0.0096428
v -0.0029907 0.0024757 0.0092394
v -0.0029907 0.0023421 0.0087408
v -0.0032334 0.0022340 0.0083374
v -0.0036260 0.0021927 0.0081833
v -0.0040186 0.0022340 0.0083374
v -0.0042612 0.0023421 0.0087408
v -0.0042612 0.0024757 0.0092394
v -0.0040186 0.0025838 0.0096428
v -0.0036260 0.0013239 0.0100558
v -0.0032334 0.0013030 0.0098976
v -0.0029907 0.0012485 0.0094835
v -0.0029907 0.0011812 0.0089717
v -0.0032334 0.0011266 0.0085577
v -0.0036260 0.0011058 0.0083995
v -0.0040186 0.0011266 0.0085577
v -0.0042612 0.0011812 0.0089717
v -0.0042612 0.0012485 0.0094835
v -0.0040186 0.0013030 0.0098976
v -0.0036260 0.0000000 0.0101425
v -0.0032334 0.0000000 0.0099830
v -0.0029907 0.0000000 0.0095654
v -0.0029907 0.0000000 0.0090491
v -0.0032334 0.0000000 0.0086315
v -0.0036260 0.0000000 0.0084720
v -0.0040186 0.0000000 0.0086315
v -0.0042612 0.0000000 0.0090491
v -0.0042612 0.0000000 0.0095654
v -0.0040186 0.0000000 0.0099830
v -0.0036260 -0.0013239 0.0100558
v -0.0032334 -0.0013030 0.0098976
v -0.0029907 -0.0012485 0.0094835
v -0.0029907 -0.0011812 0.0089717
v -0.0032334 -0.0011266 0.0085577
v -0.0036260 -0.0011058 0.0083995
v -0.0040186 -0.0011266 0.0085577
v -0.0042612 -0.0011812 0.0089717
v -0.0042612 -0.0012485 0.0094835
v -0.0040186 -0.0013030 0.0098976
v -0.0036260 -0.0026251 0.0097969
v -0.0032334 -0.0025838 0.0096428
v -0.0029907 -0.0024757 0.0092394
v -0.0029907 -0.0023421 0.0087408
v -0.0032334 -0.0022340 0.0083374
v -0.0036260 -0.0021927 0.0081833
v -0.0040186 -0.0022340 0.0083374
v -0.0042612 -0.0023421 0.0087408
v -0.0042612 -0.0024757 0.0092394
v -0.0040186 -0.0025838 0.0096428
v -0.0036260 -0.0038814 0.0093705
v -0.0032334 -0.0038203 0.0092231
v -0.0029907 -0.0036605 0.0088373
v -0.0029907 -0.0034630 0.0083603
v -0.0032334 -0.0033031 0.0079745
v -0.0036260 -0.0032421 0.0078271
v -0.0040186 -0.0033031 0.0079745
v -0.0042612 -0.0034630 0.0083603
v -0.0042612 -0.0036605 0.0088373
v -0.0040186 -0.0038203 0.0092231
v -0.0036260 -0.0050713 0.0087837
v -0.0032334 -0.0049915 0.0086455
v -0.0029907 -0.0047827 0.0082839
v -0.0029907 -0.0045246 0.0078368
v -0.0032334 -0.0043158 0.0074751
v -0.0036260 -0.0042360 0.0073370
v -0.0040186 -0.0043158 0.0074751
v -0.0042612 -0.0045246 0.0078368
v -0.0042612 -0.0047827 0.0082839
v -0.0040186 -0.0049915 0.0086455
v -0.0036260 -0.0061744 0.0080466
v -0.0032334 -0.0060773 0.0079200
v -0.0029907 -0.0058230 0.0075887
v -0.0029907 -0.0055088 0.0071792
v -0.0032334 -0.0052545 0.0068478
v -0.0036260 -0.0051574 0.0067213
v -0.0040186 -0.0052545 0.0068478
v -0.0042612 -0.0055088 0.0071792
v -0.0042612 -0.0058230 0.0075887
v -0.0040186 -0.0060773 0.0079200
v -0.0036260 -0.0071718 0.0071719
v -0.0032334 -0.0070590 0.0070591
v -0.0029907 -0.0067637 0.0067637
v -0.0029907 -0.0063987 0.0063987
v -0.0032334 -0.0061034 0.0061034
v -0.0036260 -0.0059906 0.0059906
v -0.0040186 -0.0061034 0.0061034
v -0.0042612 -0.0063987 0.0063987
v -0.0042612 -0.0067637 0.0067637
v -0.0040186 -0.0070590 0.0070591
v -0.0036260 -0.0080466 0.0061744
v -0.0032334 -0.0079200 0.0060773
v -0.0029907 -0.0075887 0.0058230
v -0.0029907 -0.0071792 0.0055088
v -0.0032334 -0.0068478 0.0052545
v -0.0036260 -0.0067213 0.0051574
v -0.0040186 -0.0068478 0.0052545
v -0.0042612 -0.0071792 0.0055088
v -0.0042612 -0.0075887 0.0058230
v -0.0040186 -0.0079200 0.0060773
v -0.0036260 -0.0087837 0.0050713
v -0.0032334 -0.0086455 0.0049915
v -0.0029907 -0.0082839 0.0047827
v -0.0029907 -0.0078368 0.0045246
v -0.0032334 -0.0074751 0.0043158
v -0.0036260 -0.0073370 0.0042360
v -0.0040186 -0.0074751 0.0043158
v -0.0042612 -0.0078368 0.0045246
v -0.0042612 -0.0082839 0.0047827
v -0.0040186 -0.0086455 0.0049915
v -0.0036260 -0.0093705 0.0038814
v -0.0032334 -0.0092231 0.0038203
v -0.0029907 -0.0088373 0.0036605
v -0.0029907 -0.0083603 0.0034630
v -0.0032334 -0.0079745 0.0033031
v -0.0036260 -0.0078271 0.0032421
v -0.0040186 -0.0079745 0.0033031
v -0.0042612 -0.0083603 0.0034630
v -0.0042612 -0.0088373 0.0036605
v -0.0040186 -0.0092231 0.0038203
v -0.0036260 -0.0097969 0.0026251
v -0.0032334 -0.0096428 0.0025838
v -0.0029907 -0.0092394 0.0024757
v -0.0029907 -0.0087408 0.0023421
v -0.0032334 -0.0083374 0.0022340
v -0.0036260 -0.0081833 0.0021927
v -0.0040186 -0.0083374 0.0022340
v -0.0042612 -0.0087408 0.0023421
v -0.0042612 -0.0092394 0.0024757
v -0.0040186 -0.0096428 0.0025838
v -0.0036260 -0.0100558 0.0013239
v -0.0032334 -0.0098976 0.0013030
v -0.0029907 -0.0094835 0.0012485
v -0.0029907 -0.0089717 0.0011812
v -0.0032334 -0.0085577 0.0011266
v -0.0036260 -0.0083995 0.0011058
v -0.0040186 -0.0085577 0.0011266
v -0.0042612 -0.0089717 0.0011812
v -0.0042612 -0.0094835 0.0012485
v -0.0040186 -0.0098976 0.0013030
v -0.0036260 -0.0101425 -0.0000000
v -0.0032334 -0.0099830 -0.0000000
v -0.0029907 -0.0095654 -0.0000000
v -0.0029907 -0.0090491 -0.0000000
v -0.0032334 -0.0086315 -0.0000000
v -0.0036260 -0.0084720 -0.0000000
v -0.0040186 -0.0086315 -0.0000000
v -0.0042612 -0.0090491 -0.0000000
v -0.0042612 -0.0095654 -0.0000000
v -0.0040186 -0.0099830 -0.0000000
v -0.0036260 -0.0100558 -0.0013239
v -0.0032334 -0.0098976 -0.0013030
v -0.0029907 -0.0094835 -0.0012485
v -0.0029907 -0.0089717 -0.0011811
v -0.0032334 -0.0085577 -0.0011266
v -0.0036260 -0.0083995 -0.0011058
v -0.0040186 -0.0085577 -0.0011266
v -0.0042612 -0.0089717 -0.0011811
v -0.0042612 -0.0094835 -0.0012485
v -0.0040186 -0.0098976 -0.0013030
v -0.0036260 -0.0097969 -0.0026251
v -0.0032334 -0.0096428 -0.0025838
v -0.0029907 -0.0092394 -0.0024757
v -0.0029907 -0.0087408 -0.0023421
v -0.0032334 -0.0083374 -0.0022340
v -0.0036260 -0.0081833 -0.0021927
v -0.0040186 -0.0083374 -0.0022340
v -0.0042612 -0.0087408 -0.0023421
v -0.0042612 -0.0092394 -0.0024757
v -0.0040186 -0.0096428 -0.0025838
v -0.0036260 -0.0093705 -0.0038814
v -0.0032334 -0.0092231 -0.0038203
v -0.0029907 -0.0088372 -0.0036605
v -0.0029907 -0.0083603 -0.0034630
v -0.0032334 -0.0079745 -0.0033031
v -0.0036260 -0.0078271 -0.0032421
v -0.0040186 -0.0079745 -0.0033031
v -0.0042612 -0.0083603 -0.0034630
v -0.0042612 -0.0088372 -0.0036605
v -0.0040186 -0.0092231 -0.0038203
v -0.0036260 -0.0087837 -0.0050713
v -0.0032334 -0.0086455 -0.0049915
v -0.0029907 -0.0082839 -0.0047827
v -0.0029907 -0.0078368 -0.0045246
v -0.0032334 -0.0074751 -0.0043158
v -0.0036260 -0.0073370 -0.0042360
v -0.0040186 -0.0074751 -0.0043158
v -0.0042612 -0.0078368 -0.0045246
v -0.0042612 -0.0082839 -0.0047827
v -0.0040186 -0.0086455 -0.0049915
v -0.0036260 -0.0080466 -0.0061744
v -0.0032334 -0.0079201 -0.0060773
v -0.0029907 -0.0075887 -0.0058230
v -0.0029907 -0.0071792 -0.0055088
v -0.0032334 -0.0068478 -0.0052545
v -0.0036260 -0.0067213 -0.0051574
v -0.0040186 -0.0068478 -0.0052545
v -0.0042612 -0.0071792 -0.0055088
v -0.0042612 -0.0075887 -0.0058230
v -0.0040186 -0.0079201 -0.0060773
v -0.0036260 -0.0071719 -0.0071718
v -0.0032334 -0.0070591 -0.0070590
v -0.0029907 -0.0067637 -0.0067637
v -0.0029907 -0.0063987 -0.0063987
v -0.0032334 -0.0061034 -0.0061034
v -0.0036260 -0.0059906 -0.0059906
v -0.0040186 -0.0061034 -0.0061034
v -0.0042612 -0.0063987 -0.0063987
v -0.0042612 -0.0067637 -0.0067637
v -0.0040186 -0.0070591 -0.0070590
v -0.0036260 -0.0061744 -0.0080466
v -0.0032334 -0.0060773 -0.0079201
v -0.0029907 -0.0058230 -0.0075887
v -0.0029907 -0.0055088 -0.0071792
v -0.0032334 -0.0052545 -0.0068478
v -0.0036260 -0.0051574 -0.0067213
v -0.0040186 -0.0052545 -0.0068478
v -0.0042612 -0.0055088 -0.0071792
v -0.0042612 -0.0058230 -0.0075887
v -0.0040186 -0.0060773 -0.0079201
v -0.0036260 -0.0050713 -0.0087837
v -0.0032334 -0.0049915 -0.0086455
v -0.0029907 -0.0047827 -0.0082839
v -0.0029907 -0.0045246 -0.0078368
v -0.0032334 -0.0043158 -0.0074751
v -0.0036260 -0.0042360 -0.0073370
v -0.0040186 -0.0043158 -0.0074751
v -0.0042612 -0.0045246 -0.0078368
v -0.0042612 -0.0047827 -0.0082839
v -0.0040186 -0.0049915 -0.0086455
v -0.0036260 -0.0038814 -0.0093705
v -0.0032334 -0.0038203 -0.0092231
v -0.0029907 -0.0036605 -0.0088372
v -0.0029907 -0.0034630 -0.0083603
v -0.0032334 -0.0033031 -0.0079745
v -0.0036260 -0.0032421 -0.0078271
v -0.0040186 -0.0033031 -0.0079745
v -0.0042612 -0.0034630 -0.0083603
v -0.0042612 -0.0036605 -0.0088372
v -0.0040186 -0.0038203 -0.0092231
v -0.0036260 -0.0026251 -0.0097969
v -0.0032334 -0.0025838 -0.0096428
v -0.0029907 -0.0024757 -0.0092394
v -0.0029907 -0.0023421 -0.0087408
v -0.0032334 -0.0022340 -0.0083374
v -0.0036260 -0.0021927 -0.0081833
v -0.0040186 -0.0022340 -0.0083374
v -0.0042612 -0.0023421 -0.0087408
v -0.0042612 -0.0024757 -0.0092394
v -0.0040186 -0.0025838 -0.0096428
v -0.0036260 -0.0013239 -0.0100558
v -0.0032334 -0.0013030 -0.0098976
v -0.0029907 -0.0012485 -0.0094835
v -0.0029907 -0.0011812 -0.0089717
v -0.0032334 -0.0011266 -0.0085577
v -0.0036260 -0.0011058 -0.0083995
v -0.0040186 -0.0011266 -0.0085577
v -0.0042612 -0.0011812 -0.0089717
v -0.0042612 -0.0012485 -0.0094835
v -0.0040186 -0.0013030 -0.0098976
v 0.0000000 0.0000000 -0.0101425
v 0.0003926 0.0000000 -0.0099830
v 0.0006352 0.0000000 -0.0095654
v 0.0006352 0.0000000 -0.0090491
v 0.0003926 0.0000000 -0.0086315
v 0.0000000 0.0000000 -0.0084720
v -0.0003926 0.0000000 -0.0086315
v -0.0006352 0.0000000 -0.0090491
v -0.0006352 0.0000000 -0.0095654
v -0.0003926 0.0000000 -0.0099830
v 0.0000000 0.0013239 -0.0100558
v 0.0003926 0.0013030 -0.0098976
v 0.0006352 0.0012485 -0.0094835
v 0.0006352 0.0011812 -0.0089717
v 0.0003926 0.0011266 -0.0085577
v 0.0000000 0.0011058 -0.0083995
v -0.0003926 0.0011266 -0.0085577
v -0.0006352 0.0011812 -0.0089717
v -0.0006352 0.0012485 -0.0094835
v -0.0003926 0.0013030 -0.0098976
v 0.0000000 0.0026251 -0.0097969
v 0.0003926 0.0025838 -0.0096428
v 0.0006352 0.0024757 -0.0092394
v 0.0006352 0.0023421 -0.0087408
v 0.0003926 0.0022340 -0.0083374
v 0.0000000 0.0021927 -0.0081833
v -0.0003926 0.0022340 -0.0083374
v -0.0006352 0.0023421 -0.0087408
v -0.0006352 0.0024757 -0.0092394
v -0.0003926 0.0025838 -0.0096428
v 0.0000000 0.0038814 -0.0093705
v 0.0003926 0.0038203 -0.0092231
v 0.0006352 0.0036605 -0.0088373
v 0.0006352 0.0034630 -0.0083603
v 0.0003926 0.0033031 -0.0079745
v 0.0000000 0.0032421 -0.0078271
v -0.0003926 0.0033031 -0.0079745
v -0.0006352 0.0034630 -0.0083603
v -0.0006352 0.0036605 -0.0088373
v -0.0003926 0.0038203 -0.0092231
v 0.0000000 0.0050713 -0.0087837
v 0.0003926 0.0049915 -0.0086455
v 0.0006352 0.0047827 -0.0082839
v 0.0006352 0.0045246 -0.0078368
v 0.0003926 0.0043158 -0.0074751
v 0.0000000 0.0042360 -0.0073370
v -0.0003926 0.0043158 -0.0074751
v -0.0006352 0.0045246 -0.0078368
v -0.0006352 0.0047827 -0.0082839
v -0.0003926 0.0049915 -0.0086455
v 0.0000000 0.0061744 -0.0080466
v 0.0003926 0.0060773 -0.0079201
v 0.0006352 0.0058230 -0.0075887
v 0.0006352 0.0055088 -0.0071792
v 0.0003926 0.0052545 -0.0068478
v 0.0000000 0.0051574 -0.0067213
v -0.0003926 0.0052545 -0.0068478
v -0.0006352 0.0055088 -0.0071792
v -0.0006352 0.0058230 -0.0075887
v -0.0003926 0.0060773 -0.0079201
v 0.0000000 0.0071718 -0.0071718
v 0.0003926 0.0070591 -0.0070590
v 0.0006352 0.0067637 -0.0067637
v 0.0006352 0.0063987 -0.0063987
v 0.0003926 0.0061034 -0.0061034
v 0.0000000 0.0059906 -0.0059906
v -0.0003926 0.0061034 -0.0061034
v -0.0006352 0.0063987 -0.0063987
v -0.0006352 0.0067637 -0.0067637
v -0.0003926 0.0070591 -0.0070590
v 0.0000000 0.0080466 -0.0061744
v 0.0003926 0.0079200 -0.0060773
v 0.0006352 0.0075887 -0.0058230
v 0.0006352 0.0071792 -0.0055088
v 0.0003926 0.0068478 -0.0052545
v 0.0000000 0.0067213 -0.0051574
v -0.0003926 0.0068478 -0.0052545
v -0.0006352 0.0071792 -0.0055088
v -0.0006352 0.0075887 -0.0058230
v -0.0003926 0.0079200 -0.0060773
v 0.0000000 0.0087837 -0.0050713
v 0.0003926 0.0086455 -0.0049915
v 0.0006352 0.0082839 -0.0047827
v 0.0006352 0.0078368 -0.0045246
v 0.0003926 0.0074751 -0.0043158
v 0.0000000 0.0073370 -0.0042360
v -0.0003926 0.0074751 -0.0043158
v -0.0006352 0.0078368 -0.0045246
v -0.0006352 0.0082839 -0.0047827
v -0.0003926 0.0086455 -0.0049915
v 0.0000000 0.0093705 -0.0038814
v 0.0003926 0.0092231 -0.0038203
v 0.0006352 0.0088372 -0.0036605
v 0.0006352 0.0083603 -0.0034630
v 0.0003926 0.0079745 -0.0033031
v 0.0000000 0.0078271 -0.0032421
v -0.0003926 0.0079745 -0.0033031
v -0.0006352 0.0083603 -0.0034630
v -0.0006352 0.0088372 -0.0036605
v -0.0003926 0.0092231 -0.0038203
v 0.0000000 0.0097969 -0.0026251
v 0.0003926 0.0096428 -0.0025838
v 0.0006352 0.0092394 -0.0024757
v 0.0006352 0.0087408 -0.0023421
v 0.0003926 0.0083374 -0.0022340
v 0.0000000 0.0081833 -0.0021927
v -0.0003926 0.0083374 -0.0022340
v -0.0006352 0.0087408 -0.0023421
v -0.0006352 0.0092394 -0.0024757
v -0.0003926 0.0096428 -0.0025838
v 0.0000000 0.0100558 -0.0013239
v 0.0003926 0.0098976 -0.0013030
v 0.0006352 0.0094835 -0.0012485
v 0.0006352 0.0089717 -0.0011811
v 0.0003926 0.0085577 -0.0011266
v 0.0000000 0.0083995 -0.0011058
v -0.0003926 0.0085577 -0.0011266
v -0.0006352 0.0089717 -0.0011811
v -0.0006352 0.0094835 -0.0012485
v -0.0003926 0.0098976 -0.0013030
v 0.0000000 0.0101425 -0.0000000
v 0.0003926 0.0099830 -0.0000000
v 0.0006352 0.0095654 -0.0000000
v 0.0006352 0.0090491 -0.0000000
v 0.0003926 0.0086315 -0.0000000
v 0.0000000 0.0084720 -0.0000000
v -0.0003926 0.0086315 -0.0000000
v -0.0006352 0.0090491 -0.0000000
v -0.0006352 0.0095654 -0.0000000
v -0.0003926 0.0099830 -0.0000000
v -0.0000000 0.0100558 0.0013239
v 0.0003926 0.0098976 0.0013030
v 0.0006352 0.0094835 0.0012485
v 0.0006352 0.0089717 0.0011812
v 0.0003926 0.0085577 0.0011266
v -0.0000000 0.0083995 0.0011058
v -0.0003926 0.0085577 0.0011266
v -0.0006352 0.0089717 0.0011812
v -0.0006352 0.0094835 0.0012485
v -0.0003926 0.0098976 0.0013030
v -0.0000000 0.0097969 0.0026251
v 0.0003926 0.0096428 0.0025838
v 0.0006352 0.0092394 0.0024757
v 0.0006352 0.0087408 0.0023421
v 0.0003926 0.0083374 0.0022340
v -0.0000000 0.0081833 0.0021927
v -0.0003926 0.0083374 0.0022340
v -0.0006352 0.0087408 0.0023421
v -0.0006352 0.0092394 0.0024757
v -0.0003926 0.0096428 0.0025838
v -0.0000000 0.0093705 0.0038814
v 0.0003926 0.0092231 0.0038203
v 0.0006352 0.0088373 0.0036605
v 0.0006352 0.0083603 0.0034630
v 0.0003926 0.0079745 0.0033031
v -0.0000000 0.0078271 0.0032421
v -0.0003926 0.0079745 0.0033031
v -0.0006352 0.0083603 0.0034630
v -0.0006352 0.0088373 0.0036605
v -0.0003926 0.0092231 0.0038203
v -0.0000000 0.0087837 0.0050713
v 0.0003926 0.0086455 0.0049915
v 0.0006352 0.0082839 0.0047827
v 0.0006352 0.0078368 0.0045246
v 0.0003926 0.0074751 0.0043158
v -0.0000000 0.0073370 0.0042360
v -0.0003926 0.0074751 0.0043158
v -0.0006352 0.0078368 0.0045246
v -0.0006352 0.0082839 0.0047827
v -0.0003926 0.0086455 0.0049915
v -0.0000000 0.0080466 0.0061744
v 0.0003926 0.0079200 0.0060773
v 0.0006352 0.0075887 0.0058230
v 0.0006352 0.0071792 0.0055088
v 0.0003926 0.0068478 0.0052545
v -0.0000000 0.0067213 0.0051574
v -0.0003926 0.0068478 0.0052545
v -0.0006352 0.0071792 0.0055088
v -0.0006352 0.0075887 0.0058230
v -0.0003926 0.0079200 0.0060773
v -0.0000000 0.0071718 0.0071719
v 0.0003926 0.0070590 0.0070591
v 0.0006352 0.0067637 0.0067637
v 0.0006352 0.0063987 0.0063987
v 0.0003926 0.0061034 0.0061034
v -0.0000000 0.0059906 0.0059906
v -0.0003926 0.0061034 0.0061034
v -0.0006352 0.0063987 0.0063987
v -0.0006352 0.0067637 0.0067637
v -0.0003926 0.0070590 0.0070591
v -0.0000000 0.0061744 0.0080466
v 0.0003926 0.0060773 0.0079200
v 0.0006352 0.0058230 0.0075887
v 0.0006352 0.0055088 0.0071792
v 0.0003926 0.0052545 0.0068478
v -0.0000000 0.0051574 0.0067213
v -0.0003926 0.0052545 0.0068478
v -0.0006352 0.0055088 0.0071792
v -0.0006352 0.0058230 0.0075887
v -0.0003926 0.0060773 0.0079200
v -0.0000000 0.0050713 0.0087837
v 0.0003926 0.0049915 0.0086455
v 0.0006352 0.0047827 0.0082839
v 0.0006352 0.0045246 0.0078368
v 0.0003926 0.0043158 0.0074751
v -0.0000000 0.0042360 0.0073370
v -0.0003926 0.0043158 0.0074751
v -0.0006352 0.0045246 0.0078368
v -0.0006352 0.0047827 0.0082839
v -0.0003926 0.0049915 0.0086455
v -0.0000000 0.0038814 0.0093705
v 0.0003926 0.0038203 0.0092231
v 0.0006352 0.0036605 0.0088373
v 0.0006352 0.0034630 0.0083603
v 0.0003926 0.0033031 0.0079745
v -0.0000000 0.0032421 0.0078271
v -0.0003926 0.0033031 0.0079745
v -0.0006352 0.0034630 0.0083603
v -0.0006352 0.0036605 0.0088373
v -0.0003926 0.0038203 0.0092231
v -0.0000000 0.0026251 0.0097969
v 0.0003926 0.0025838 0.0096428
v 0.0006352 0.0024757 0.0092394
v 0.0006352 0.0023421 0.0087408
v 0.0003926 0.0022340 0.0083374
v -0.0000000 0.0021927 0.0081833
v -0.0003926 0.0022340 0.0083374
v -0.0006352 0.0023421 0.0087408
v -0.0006352 0.0024757 0.0092394
v -0.0003926 0.0025838 0.0096428
v -0.0000000 0.0013239 0.0100558
v 0.0003926 0.0013030 0.0098976
v 0.0006352 0.0012485 0.0094835
v 0.0006352 0.0011812 0.0089717
v 0.0003926 0.0011266 0.0085577
v -0.0000000 0.0011058 0.0083995
v -0.0003926 0.0011266 0.0085577
v -0.0006352 0.0011812 0.0089717
v -0.0006352 0.0012485 0.0094835
v -0.0003926 0.0013030 0.0098976
v -0.0000000 0.0000000 0.0101425
v 0.0003926 0.0000000 0.0099830
v 0.0006352 0.0000000 0.0095654
v 0.0006352 0.0000000 0.0090491
v 0.0003926 0.0000000 0.0086315
v -0.0000000 0.0000000 0.0084720
v -0.0003926 0.0000000 0.0086315
v -0.0006352 0.0000000 0.0090491
v -0.0006352 0.0000000 0.0095654
v -0.0003926 0.0000000 0.0099830
v -0.0000000 -0.0013239 0.0100558
v 0.0003926 -0.0013030 0.0098976
v 0.0006352 -0.0012485 0.0094835
v 0.0006352 -0.0011812 0.0089717
v 0.0003926 -0.0011266 0.0085577
v -0.0000000 -0.0011058 0.0083995
v -0.0003926 -0.0011266 0.0085577
v -0.0006352 -0.0011812 0.0089717
v -0.0006352 -0.0012485 0.0094835
v -0.0003926 -0.0013030 0.0098976
v -0.0000000 -0.0026251 0.0097969
v 0.0003926 -0.0025838 0.0096428
v 0.0006352 -0.0024757 0.0092394
v 0.0006352 -0.0023421 0.0087408
v 0.0003926 -0.0022340 0.0083374
v -0.0000000 -0.0021927 0.0081833
v -0.0003926 -0.0022340 0.0083374
v -0.0006352 -0.0023421 0.0087408
v -0.0006352 -0.0024757 0.0092394
v -0.0003926 -0.0025838 0.0096428
v -0.0000000 -0.0038814 0.0093705
v 0.0003926 -0.0038203 0.0092231
v 0.0006352 -0.0036605 0.0088373
v 0.0006352 -0.0034630 0.0083603
v 0.0003926 -0.0033031 0.0079745
v -0.0000000 -0.0032421 0.0078271
v -0.0003926 -0.0033031 0.0079745
v -0.0006352 -0.0034630 0.0083603
v -0.0006352 -0.0036605 0.0088373
v -0.0003926 -0.0038203 0.0092231
v -0.0000000 -0.0050713 0.0087837
v 0.0003926 -0.0049915 0.0086455
v 0.0006352 -0.0047827 0.0082839
v 0.0006352 -0.0045246 0.0078368
v 0.0003926 -0.0043158 0.0074751
v -0.0000000 -0.0042360 0.0073370
v -0.0003926 -0.0043158 0.0074751
v -0.0006352 -0.0045246 0.0078368
v -0.0006352 -0.0047827 0.0082839
v -0.0003926 -0.0049915 0.0086455
v -0.0000000 -0.0061744 0.0080466
v 0.0003926 -0.0060773 0.0079200
v 0.0006352 -0.0058230 0.0075887
v 0.0006352 -0.0055088 0.0071792
v 0.0003926 -0.0052545 0.0068478
v -0.0000000 -0.0051574 0.0067213
v -0.0003926 -0.0052545 0.0068478
v -0.0006352 -0.0055088 0.0071792
v -0.0006352 -0.0058230 0.0075887
v -0.0003926 -0.0060773 0.0079200
v -0.0000000 -0.0071718 0.0071719
v 0.0003926 -0.0070590 0.0070591
v 0.0006352 -0.0067637 0.0067637
v 0.0006352 -0.0063987 0.0063987
v 0.0003926 -0.0061034 0.0061034
v -0.0000000 -0.0059906 0.0059906
v -0.0003926 -0.0061034 0.0061034
v -0.0006352 -0.0063987 0.0063987
v -0.0006352 -0.0067637 0.0067637
v -0.0003926 -0.0070590 0.0070591
v -0.0000000 -0.0080466 0.0061744
v 0.0003926 -0.0079200 0.0060773
v 0.0006352 -0.0075887 0.0058230
v 0.0006352 -0.0071792 0.0055088
v 0.0003926 -0.0068478 0.0052545
v -0.0000000 -0.0067213 0.0051574
v -0.0003926 -0.0068478 0.0052545
v -0.0006352 -0.0071792 0.0055088
v -0.0006352 -0.0075887 0.0058230
v -0.0003926 -0.0079200 0.0060773
v -0.0000000 -0.0087837 0.0050713
v 0.0003926 -0.0086455 0.0049915
v 0.0006352 -0.0082839 0.0047827
v 0.0006352 -0.0078368 0.0045246
v 0.0003926 -0.0074751 0.0043158
v -0.0000000 -0.0073370 0.0042360
v -0.0003926 -0.0074751 0.0043158
v -0.0006352 -0.0078368 0.0045246
v -0.0006352 -0.0082839 0.0047827
v -0.0003926 -0.0086455 0.0049915
v -0.0000000 -0.0093705 0.0038814
v 0.0003926 -0.0092231 0.0038203
v 0.0006352 -0.0088373 0.0036605
v 0.0006352 -0.0083603 0.0034630
v 0.0003926 -0.0079745 0.0033031
v -0.0000000 -0.0078271 0.0032421
v -0.0003926 -0.0079745 0.0033031
v -0.0006352 -0.0083603 0.0034630
v -0.0006352 -0.0088373 0.0036605
v -0.0003926 -0.0092231 0.0038203
v -0.0000000 -0.0097969 0.0026251
v 0.0003926 -0.0096428 0.0025838
v 0.0006352 -0.0092394 0.0024757
v 0.0006352 -0.0087408 0.0023421
v 0.0003926 -0.0083374 0.0022340
v -0.0000000 -0.0081833 0.0021927
v -0.0003926 -0.0083374 0.0022340
v -0.0006352 -0.0087408 0.0023421
v -0.0006352 -0.0092394 0.0024757
v -0.0003926 -0.0096428 0.0025838
v -0.0000000 -0.0100558 0.0013239
v 0.0003926 -0.0098976 0.0013030
v 0.0006352 -0.0094835 0.0012485
v 0.0006352 -0.0089717 0.0011812
v 0.0003926 -0.0085577 0.0011266
v -0.0000000 -0.0083995 0.0011058
v -0.0003926 -0.0085577 0.0011266
v -0.0006352 -0.0089717 0.0011812
v -0.0006352 -0.0094835 0.0012485
v -0.0003926 -0.0098976 0.0013030
v 0.0000000 -0.0101425 -0.0000000
v 0.0003926 -0.0099830 -0.0000000
v 0.0006352 -0.0095654 -0.0000000
v 0.0006352 -0.0090491 -0.0000000
v 0.0003926 -0.0086315 -0.0000000
v 0.0000000 -0.0084720 -0.0000000
v -0.0003926 -0.0086315 -0.0000000
v -0.0006352 -0.0090491 -0.0000000
v -0.0006352 -0.0095654 -0.0000000
v -0.0003926 -0.0099830 -0.0000000
v 0.0000000 -0.0100558 -0.0013239
v 0.0003926 -0.0098976 -0.0013030
v 0.0006352 -0.0094835 -0.0012485
v 0.0006352 -0.0089717 -0.0011811
v 0.0003926 -0.0085577 -0.0011266
v 0.0000000 -0.0083995 -0.0011058
v -0.0003926 -0.0085577 -0.0011266
v -0.0006352 -0.0089717 -0.0011811
v -0.0006352 -0.0094835 -0.0012485
v -0.0003926 -0.0098976 -0.0013030
v 0.0000000 -0.0097969 -0.0026251
v 0.0003926 -0.0096428 -0.0025838
v 0.0006352 -0.0092394 -0.0024757
v 0.0006352 -0.0087408 -0.0023421
v 0.0003926 -0.0083374 -0.0022340
v 0.0000000 -0.0081833 -0.0021927
v -0.0003926 -0.0083374 -0.0022340
v -0.0006352 -0.0087408 -0.0023421
v -0.0006352 -0.0092394 -0.0024757
v -0.0003926 -0.0096428 -0.0025838
v 0.0000000 -0.0093705 -0.0038814
v 0.0003926 -0.0092231 -0.0038203
v 0.0006352 -0.0088372 -0.0036605
v 0.0006352 -0.0083603 -0.0034630
v 0.0003926 -0.0079745 -0.0033031
v 0.0000000 -0.0078271 -0.0032421
v -0.0003926 -0.0079745 -0.0033031
v -0.0006352 -0.0083603 -0.0034630
v -0.0006352 -0.0088372 -0.0036605
v -0.0003926 -0.0092231 -0.0038203
v 0.0000000 -0.0087837 -0.0050713
v 0.0003926 -0.0086455 -0.0049915
v 0.0006352 -0.0082839 -0.0047827
v 0.0006352 -0.0078368 -0.0045246
v 0.0003926 -0.0074751 -0.0043158
v 0.0000000 -0.0073370 -0.0042360
v -0.0003926 -0.0074751 -0.0043158
v -0.0006352 -0.0078368 -0.0045246
v -0.0006352 -0.0082839 -0.0047827
v -0.0003926 -0.0086455 -0.0049915
v 0.0000000 -0.0080466 -0.0061744
v 0.0003926 -0.0079201 -0.0060773
v 0.0006352 -0.0075887 -0.0058230
v 0.0006352 -0.0071792 -0.0055088
v 0.0003926 -0.0068478 -0.0052545
v 0.0000000 -0.0067213 -0.0051574
v -0.0003926 -0.0068478 -0.0052545
v -0.0006352 -0.0071792 -0.0055088
v -0.0006352 -0.0075887 -0.0058230
v -0.0003926 -0.0079201 -0.0060773
v 0.0000000 -0.0071719 -0.0071718
v 0.0003926 -0.0070591 -0.0070590
v 0.0006352 -0.0067637 -0.0067637
v 0.0006352 -0.0063987 -0.0063987
v 0.0003926 -0.0061034 -0.0061034
v 0.0000000 -0.0059906 -0.0059906
v -0.0003926 -0.0061034 -0.0061034
v -0.0006352 -0.0063987 -0.0063987
v -0.0006352 -0.0067637 -0.0067637
v -0.0003926 -0.0070591 -0.0070590
v 0.0000000 -0.0061744 -0.0080466
v 0.0003926 -0.0060773 -0.0079201
v 0.0006352 -0.0058230 -0.0075887
v 0.0006352 -0.0055088 -0.0071792
v 0.0003926 -0.0052545 -0.0068478
v 0.0000000 -0.0051574 -0.0067213
v -0.0003926 -0.0052545 -0.0068478
v -0.0006352 -0.0055088 -0.0071792
v -0.0006352 -0.0058230 -0.0075887
v -0.0003926 -0.0060773 -0.0079201
v 0.0000000 -0.0050713 -0.0087837
v 0.0003926 -0.0049915 -0.0086455
v 0.0006352 -0.0047827 -0.0082839
v 0.0006352 -0.0045246 -0.0078368
v 0.0003926 -0.0043158 -0.0074751
v 0.0000000 -0.0042360 -0.0073370
v -0.0003926 -0.0043158 -0.0074751
v -0.0006352 -0.0045246 -0.0078368
v -0.0006352 -0.0047827 -0.0082839
v -0.0003926 -0.0049915 -0.0086455
v 0.0000000 -0.0038814 -0.0093705
v 0.0003926 -0.0038203 -0.0092231
v 0.0006352 -0.0036605 -0.0088372
v 0.0006352 -0.0034630 -0.0083603
v 0.0003926 -0.0033031 -0.0079745
v 0.0000000 -0.0032421 -0.0078271
v -0.0003926 -0.0033031 -0.0079745
v -0.0006352 -0.0034630 -0.0083603
v -0.0006352 -0.0036605 -0.0088372
v -0.0003926 -0.0038203 -0.0092231
v 0.0000000 -0.0026251 -0.0097969
v 0.0003926 -0.0025838 -0.0096428
v 0.0006352 -0.0024757 -0.0092394
v 0.0006352 -0.0023421 -0.0087408
v 0.0003926 -0.0022340 -0.0083374
v 0.0000000 -0.0021927 -0.0081833
v -0.0003926 -0.0022340 -0.0083374
v -0.0006352 -0.0023421 -0.0087408
v -0.0006352 -0.0024757 -0.0092394
v -0.0003926 -0.0025838 -0.0096428
v 0.0000000 -0.0013239 -0.0100558
v 0.0003926 -0.0013030 -0.0098976
v 0.0006352 -0.0012485 -0.0094835
v 0.0006352 -0.0011812 -0.0089717
v 0.0003926 -0.0011266 -0.0085577
v 0.0000000 -0.0011058 -0.0083995
v -0.0003926 -0.0011266 -0.0085577
v -0.0006352 -0.0011812 -0.0089717
v -0.0006352 -0.0012485 -0.0094835
v -0.0003926 -0.0013030 -0.0098976
v 0.0036260 0.0000000 -0.0101425
v 0.0040186 0.0000000 -0.0099830
v 0.0042612 0.0000000 -0.0095654
v 0.0042612 0.0000000 -0.0090491
v 0.0040186 0.0000000 -0.0086315
v 0.0036260 0.0000000 -0.0084720
v 0.0032334 0.0000000 -0.0086315
v 0.0029907 0.0000000 -0.0090491
v 0.0029907 0.0000000 -0.0095654
v 0.0032334 0.0000000 -0.0099830
v 0.0036260 0.0013239 -0.0100558
v 0.0040186 0.0013030 -0.0098976
v 0.0042612 0.0012485 -0.0094835
v 0.0042612 0.0011812 -0.0089717
v 0.0040186 0.0011266 -0.0085577
v 0.0036260 0.0011058 -0.0083995
v 0.0032334 0.0011266 -0.0085577
v 0.0029907 0.0011812 -0.0089717
v 0.0029907 0.0012485 -0.0094835
v 0.0032334 0.0013030 -0.0098976
v 0.0036260 0.0026251 -0.0097969
v 0.0040186 0.0025838 -0.0096428
v 0.0042612 0.0024757 -0.0092394
v 0.0042612 0.0023421 -0.0087408
v 0.0040186 0.0022340 -0.0083374
v 0.0036260 0.0021927 -0.0081833
v 0.0032334 0.0022340 -0.0083374
v 0.0029907 0.0023421 -0.0087408
v 0.0029907 0.0024757 -0.0092394
v 0.0032334 0.0025838 -0.0096428
v 0.0036260 0.0038814 -0.0093705
v 0.0040186 0.0038203 -0.0092231
v 0.0042612 0.0036605 -0.0088373
v 0.0042612 0.0034630 -0.0083603
v 0.0040186 0.0033031 -0.0079745
v 0.0036260 0.0032421 -0.0078271
v 0.0032334 0.0033031 -0.0079745
v 0.0029907 0.0034630 -0.0083603
v 0.0029907 0.0036605 -0.0088373
v 0.0032334 0.0038203 -0.0092231
v 0.0036260 0.0050713 -0.0087837
v 0.0040186 0.0049915 -0.0086455
v 0.0042612 0.0047827 -0.0082839
v 0.0042612 0.0045246 -0.0078368
v 0.0040186 0.0043158 -0.0074751
v 0.0036260 0.0042360 -0.0073370
v 0.0032334 0.0043158 -0.0074751
v 0.0029907 0.0045246 -0.0078368
v 0.0029907 0.0047827 -0.0082839
v 0.0032334 0.0049915 -0.0086455
v 0.0036260 0.0061744 -0.0080466
v 0.0040186 0.0060773 -0.0079201
v 0.0042612 0.0058230 -0.0075887
v 0.0042612 0.0055088 -0.0071792
v 0.0040186 0.0052545 -0.0068478
v 0.0036260 0.0051574 -0.0067213
v 0.0032334 0.0052545 -0.0068478
v 0.0029907 0.0055088 -0.0071792
v 0.0029907 0.0058230 -0.0075887
v 0.0032334 0.0060773 -0.0079201
v 0.0036260 0.0071718 -0.0071718
v 0.0040186 0.0070591 -0.0070590
v 0.0042612 0.0067637 -0.0067637
v 0.0042612 0.0063987 -0.0063987
v 0.0040186 0.0061034 -0.0061034
v 0.0036260 0.0059906 -0.0059906
v 0.0032334 0.0061034 -0.0061034
v 0.0029907 0.0063987 -0.0063987
v 0.0029907 0.0067637 -0.0067637
v 0.0032334 0.0070591 -0.0070590
v 0.0036260 0.0080466 -0.0061744
v 0.0040186 0.0079200 -0.0060773
v 0.0042612 0.0075887 -0.0058230
v 0.0042612 0.0071792 -0.0055088
v 0.0040186 0.0068478 -0.0052545
v 0.0036260 0.0067213 -0.0051574
v 0.0032334 0.0068478 -0.0052545
v 0.0029907 0.0071792 -0.0055088
v 0.0029907 0.0075887 -0.0058230
v 0.0032334 0.0079200 -0.0060773
v 0.0036260 0.0087837 -0.0050713
v 0.0040186 0.0086455 -0.0049915
v 0.0042612 0.0082839 -0.0047827
v 0.0042612 0.0078368 -0.0045246
v 0.0040186 0.0074751 -0.0043158
v 0.0036260 0.0073370 -0.0042360
v 0.0032334 0.0074751 -0.0043158
v 0.0029907 0.0078368 -0.0045246
v 0.0029907 0.0082839 -0.0047827
v 0.0032334 0.0086455 -0.0049915
v 0.0036260 0.0093705 -0.0038814
v 0.0040186 0.0092231 -0.0038203
v 0.0042612 0.0088372 -0.0036605
v 0.0042612 0.0083603 -0.0034630
v 0.0040186 0.0079745 -0.0033031
v 0.0036260 0.0078271 -0.0032421
v 0.0032334 0.0079745 -0.0033031
v 0.0029907 0.0083603 -0.0034630
v 0.0029907 0.0088372 -0.0036605
v 0.0032334 0.0092231 -0.0038203
v 0.0036260 0.0097969 -0.0026251
v 0.0040186 0.0096428 -0.0025838
v 0.0042612 0.0092394 -0.0024757
v 0.0042612 0.0087408 -0.0023421
v 0.0040186 0.0083374 -0.0022340
v 0.0036260 0.0081833 -0.0021927
v 0.0032334 0.0083374 -0.0022340
v 0.0029907 0.0087408 -0.0023421
v 0.0029907 0.0092394 -0.0024757
v 0.0032334 0.0096428 -0.0025838
v 0.0036260 0.0100558 -0.0013239
v 0.0040186 0.0098976 -0.0013030
v 0.0042612 0.0094835 -0.0012485
v 0.0042612 0.0089717 -0.0011811
v 0.0040186 0.0085577 -0.0011266
v 0.0036260 0.0083995 -0.0011058
v 0.0032334 0.0085577 -0.0011266
v 0.0029907 0.0089717 -0.0011811
v 0.0029907 0.0094835 -0.0012485
v 0.0032334 0.0098976 -0.0013030
v 0.0036260 0.0101425 -0.0000000
v 0.0040186 0.0099830 -0.0000000
v 0.0042612 0.0095654 -0.0000000
v 0.0042612 0.0090491 -0.0000000
v 0.0040186 0.0086315 -0.0000000
v 0.0036260 0.0084720 -0.0000000
v 0.0032334 0.0086315 -0.0000000
v 0.0029907 0.0090491 -0.0000000
v 0.0029907 0.0095654 -0.0000000
v 0.0032334 0.0099830 -0.0000000
v 0.0036260 0.0100558 0.0013239
v 0.0040186 0.0098976 0.0013030
v 0.0042612 0.0094835 0.0012485
v 0.0042612 0.0089717 0.0011812
v 0.0040186 0.0085577 0.0011266
v 0.0036260 0.0083995 0.0011058
v 0.0032334 0.0085577 0.0011266
v 0.0029907 0.0089717 0.0011812
v 0.0029907 0.0094835 0.0012485
v 0.0032334 0.0098976 0.0013030
v 0.0036260 0.0097969 0.0026251
v 0.0040186 0.0096428 0.0025838
v 0.0042612 0.0092394 0.0024757
v 0.0042612 0.0087408 0.0023421
v 0.0040186 0.0083374 0.0022340
v 0.0036260 0.0081833 0.0021927
v 0.0032334 0.0083374 0.0022340
v 0.0029907 0.0087408 0.0023421
v 0.0029907 0.0092394 0.0024757
v 0.0032334 0.0096428 0.0025838
v 0.0036260 0.0093705 0.0038814
v 0.0040186 0.0092231 0.0038203
v 0.0042612 0.0088373 0.0036605
v 0.0042612 0.0083603 0.0034630
v 0.0040186 0.0079745 0.0033031
v 0.0036260 0.0078271 0.0032421
v 0.0032334 0.0079745 0.0033031
v 0.0029907 0.0083603 0.0034630
v 0.0029907 0.0088373 0.0036605
v 0.0032334 0.0092231 0.0038203
v 0.0036260 0.0087837 0.0050713
v 0.0040186 0.0086455 0.0049915
v 0.0042612 0.0082839 0.0047827
v 0.0042612 0.0078368 0.0045246
v 0.0040186 0.0074751 0.0043158
v 0.0036260 0.0073370 0.0042360
v 0.0032334 0.0074751 0.0043158
v 0.0029907 0.0078368 0.0045246
v 0.0029907 0.0082839 0.0047827
v 0.0032334 0.0086455 0.0049915
v 0.0036260 0.0080466 0.0061744
v 0.0040186 0.0079200 0.0060773
v 0.0042612 0.0075887 0.0058230
v 0.0042612 0.0071792 0.0055088
v 0.0040186 0.0068478 0.0052545
v 0.0036260 0.0067213 0.0051574
v 0.0032334 0.0068478 0.0052545
v 0.0029907 0.0071792 0.0055088
v 0.0029907 0.0075887 0.0058230
v 0.0032334 0.0079200 0.0060773
v 0.0036260 0.0071718 0.0071719
v 0.0040186 0.0070590 0.0070591
v 0.0042612 0.0067637 0.0067637
v 0.0042612 0.0063987 0.0063987
v 0.0040186 0.0061034 0.0061034
v 0.0036260 0.0059906 0.0059906
v 0.0032334 0.0061034 0.0061034
v 0.0029907 0.0063987 0.0063987
v 0.0029907 0.0067637 0.0067637
v 0.0032334 0.0070590 0.0070591
v 0.0036260 0.0061744 0.0080466
v 0.0040186 0.0060773 0.0079200
v 0.0042612 0.0058230 0.0075887
v 0.0042612 0.0055088 0.0071792
v 0.0040186 0.0052545 0.0068478
v 0.0036260 0.0051574 0.0067213
v 0.0032334 0.0052545 0.0068478
v 0.0029907 0.0055088 0.0071792
v 0.0029907 0.0058230 0.0075887
v 0.0032334 0.0060773 0.0079200
v 0.0036260 0.0050713 0.0087837
v 0.0040186 0.0049915 0.0086455
v 0.0042612 0.0047827 0.0082839
v 0.0042612 0.0045246 0.0078368
v 0.0040186 0.0043158 0.0074751
v 0.0036260 0.0042360 0.0073370
v 0.0032334 0.0043158 0.0074751
v 0.0029907 0.0045246 0.0078368
v 0.0029907 0.0047827 0.0082839
v 0.0032334 0.0049915 0.0086455
v 0.0036260 0.0038814 0.0093705
v 0.0040186 0.0038203 0.0092231
v 0.0042612 0.0036605 0.0088373
v 0.0042612 0.0034630 0.0083603
v 0.0040186 0.0033031 0.0079745
v 0.0036260 0.0032421 0.0078271
v 0.0032334 0.0033031 0.0079745
v 0.0029907 0.0034630 0.0083603
v 0.0029907 0.0036605 0.0088373
v 0.0032334 0.0038203 0.0092231
v 0.0036260 0.0026251 0.0097969
v 0.0040186 0.0025838 0.0096428
v 0.0042612 0.0024757 0.0092394
v 0.0042612 0.0023421 0.0087408
v 0.0040186 0.0022340 0.0083374
v 0.0036260 0.0021927 0.0081833
v 0.0032334 0.0022340 0.0083374
v 0.0029907 0.0023421 0.0087408
v 0.0029907 0.0024757 0.0092394
v 0.0032334 0.0025838 0.0096428
v 0.0036260 0.0013239 0.0100558
v 0.0040186 0.0013030 0.0098976
v 0.0042612 0.0012485 0.0094835
v 0.0042612 0.0011812 0.0089717
v 0.0040186 0.0011266 0.0085577
v 0.0036260 0.0011058 0.0083995
v 0.0032334 0.0011266 0.0085577
v 0.0029907 0.0011812 0.0089717
v 0.0029907 0.0012485 0.0094835
v 0.0032334 0.0013030 0.0098976
v 0.0036260 0.0000000 0.0101425
v 0.0040186 0.0000000 0.0099830
v 0.0042612 0.0000000 0.0095654
v 0.0042612 0.0000000 0.0090491
v 0.0040186 0.0000000 0.0086315
v 0.0036260 0.0000000 0.0084720
v 0.0032334 0.0000000 0.0086315
v 0.0029907 0.0000000 0.0090491
v 0.0029907 0.0000000 0.0095654
v 0.0032334 0.0000000 0.0099830
v 0.0036260 -0.0013239 0.0100558
v 0.0040186 -0.0013030 0.0098976
v 0.0042612 -0.0012485 0.0094835
v 0.0042612 -0.0011812 0.0089717
v 0.0040186 -0.0011266 0.0085577
v 0.0036260 -0.0011058 0.0083995
v 0.0032334 -0.0011266 0.0085577
v 0.0029907 -0.0011812 0.0089717
v 0.0029907 -0.0012485 0.0094835
v 0.0032334 -0.0013030 0.0098976
v 0.0036260 -0.0026251 0.0097969
v 0.0040186 -0.0025838 0.0096428
v 0.0042612 -0.0024757 0.0092394
v 0.0042612 -0.0023421 0.0087408
v 0.0040186 -0.0022340 0.0083374
v 0.0036260 -0.0021927 0.0081833
v 0.0032334 -0.0022340 0.0083374
v 0.0029907 -0.0023421 0.0087408
v 0.0029907 -0.0024757 0.0092394
v 0.0032334 -0.0025838 0.0096428
v 0.0036260 -0.0038814 0.0093705
v 0.0040186 -0.0038203 0.0092231
v 0.0042612 -0.0036605 0.0088373
v 0.0042612 -0.0034630 0.0083603
v 0.0040186 -0.0033031 0.0079745
v 0.0036260 -0.0032421 0.0078271
v 0.0032334 -0.0033031 0.0079745
v 0.0029907 -0.0034630 0.0083603
v 0.0029907 -0.0036605 0.0088373
v 0.0032334 -0.0038203 0.0092231
v 0.0036260 -0.0050713 0.0087837
v 0.0040186 -0.0049915 0.0086455
v 0.0042612 -0.0047827 0.0082839
v 0.0042612 -0.0045246 0.0078368
v 0.0040186 -0.0043158 0.0074751
v 0.0036260 -0.0042360 0.0073370
v 0.0032334 -0.0043158 0.0074751
v 0.0029907 -0.0045246 0.0078368
v 0.0029907 -0.0047827 0.0082839
v 0.0032334 -0.0049915 0.0086455
v 0.0036260 -0.0061744 0.0080466
v 0.0040186 -0.0060773 0.0079200
v 0.0042612 -0.0058230 0.0075887
v 0.0042612 -0.0055088 0.0071792
v 0.0040186 -0.0052545 0.0068478
v 0.0036260 -0.0051574 0.0067213
v 0.0032334 -0.0052545 0.0068478
v 0.0029907 -0.0055088 0.0071792
v 0.0029907 -0.0058230 0.0075887
v 0.0032334 -0.0060773 0.0079200
v 0.0036260 -0.0071718 0.0071719
v 0.0040186 -0.0070590 0.0070591
v 0.0042612 -0.0067637 0.0067637
v 0.0042612 -0.0063987 0.0063987
v 0.0040186 -0.0061034 0.0061034
v 0.0036260 -0.0059906 0.0059906
v 0.0032334 -0.0061034 0.0061034
v 0.0029907 -0.0063987 0.0063987
v 0.0029907 -0.0067637 0.0067637
v 0.0032334 -0.0070590 0.0070591
v 0.0036260 -0.0080466 0.0061744
v 0.0040186 -0.0079200 0.0060773
v 0.0042612 -0.0075887 0.0058230
v 0.0042612 -0.0071792 0.0055088
v 0.0040186 -0.0068478 0.0052545
v 0.0036260 -0.0067213 0.0051574
v 0.0032334 -0.0068478 0.0052545
v 0.0029907 -0.0071792 0.0055088
v 0.0029907 -0.0075887 0.0058230
v 0.0032334 -0.0079200 0.0060773
v 0.0036260 -0.0087837 0.0050713
v 0.0040186 -0.0086455 0.0049915
v 0.0042612 -0.0082839 0.0047827
v 0.0042612 -0.0078368 0.0045246
v 0.0040186 -0.0074751 0.0043158
v 0.0036260 -0.0073370 0.0042360
v 0.0032334 -0.0074751 0.0043158
v 0.0029907 -0.0078368 0.0045246
v 0.0029907 -0.0082839 0.0047827
v 0.0032334 -0.0086455 0.0049915
v 0.0036260 -0.0093705 0.0038814
v 0.0040186 -0.0092231 0.0038203
v 0.0042612 -0.0088373 0.0036605
v 0.0042612 -0.0083603 0.0034630
v 0.0040186 -0.0079745 0.0033031
v 0.0036260 -0.0078271 0.0032421
v 0.0032334 -0.0079745 0.0033031
v 0.0029907 -0.0083603 0.0034630
v 0.0029907 -0.0088373 0.0036605
v 0.0032334 -0.0092231 0.0038203
v 0.0036260 -0.0097969 0.0026251
v 0.0040186 -0.0096428 0.0025838
v 0.0042612 -0.0092394 0.0024757
v 0.0042612 -0.0087408 0.0023421
v 0.0040186 -0.0083374 0.0022340
v 0.0036260 -0.0081833 0.0021927
v 0.0032334 -0.0083374 0.0022340
v 0.0029907 -0.0087408 0.0023421
v 0.0029907 -0.0092394 0.0024757
v 0.0032334 -0.0096428 0.0025838
v 0.0036260 -0.0100558 0.0013239
v 0.0040186 -0.0098976 0.0013030
v 0.0042612 -0.0094835 0.0012485
v 0.0042612 -0.0089717 0.0011812
v 0.0040186 -0.0085577 0.0011266
v 0.0036260 -0.0083995 0.0011058
v 0.0032334 -0.0085577 0.0011266
v 0.0029907 -0.0089717 0.0011812
v 0.0029907 -0.0094835 0.0012485
v 0.0032334 -0.0098976 0.0013030
v 0.0036260 -0.0101425 -0.0000000
v 0.0040186 -0.0099830 -0.0000000
v 0.0042612 -0.0095654 -0.0000000
v 0.0042612 -0.0090491 -0.0000000
v 0.0040186 -0.0086315 -0.0000000
v 0.0036260 -0.0084720 -0.0000000
v 0.0032334 -0.0086315 -0.0000000
v 0.0029907 -0.0090491 -0.0000000
v 0.0029907 -0.0095654 -0.0000000
v 0.0032334 -0.0099830 -0.0000000
v 0.0036260 -0.0100558 -0.0013239
v 0.0040186 -0.0098976 -0.0013030
v 0.0042612 -0.0094835 -0.0012485
v 0.0042612 -0.0089717 -0.0011811
v 0.0040186 -0.0085577 -0.0011266
v 0.0036260 -0.0083995 -0.0011058
v 0.0032334 -0.0085577 -0.0011266
v 0.0029907 -0.0089717 -0.0011811
v 0.0029907 -0.0094835 -0.0012485
v 0.0032334 -0.0098976 -0.0013030
v 0.0036260 -0.0097969 -0.0026251
v 0.0040186 -0.0096428 -0.0025838
v 0.0042612 -0.0092394 -0.0024757
v 0.0042612 -0.0087408 -0.0023421
v 0.0040186 -0.0083374 -0.0022340
v 0.0036260 -0.0081833 -0.0021927
v 0.0032334 -0.0083374 -0.0022340
v 0.0029907 -0.0087408 -0.0023421
v 0.0029907 -0.0092394 -0.0024757
v 0.0032334 -0.0096428 -0.0025838
v 0.0036260 -0.0093705 -0.0038814
v 0.0040186 -0.0092231 -0.0038203
v 0.0042612 -0.0088372 -0.0036605
v 0.0042612 -0.0083603 -0.0034630
v 0.0040186 -0.0079745 -0.0033031
v 0.0036260 -0.0078271 -0.0032421
v 0.0032334 -0.0079745 -0.0033031
v 0.0029907 -0.0083603 -0.0034630
v 0.0029907 -0.0088372 -0.0036605
v 0.0032334 -0.0092231 -0.0038203
v 0.0036260 -0.0087837 -0.0050713
v 0.0040186 -0.0086455 -0.0049915
v 0.0042612 -0.0082839 -0.0047827
v 0.0042612 -0.0078368 -0.0045246
v 0.0040186 -0.0074751 -0.0043158
v 0.0036260 -0.0073370 -0.0042360
v 0.0032334 -0.0074751 -0.0043158
v 0.0029907 -0.0078368 -0.0045246
v 0.0029907 -0.0082839 -0.0047827
v 0.0032334 -0.0086455 -0.0049915
v 0.0036260 -0.0080466 -0.0061744
v 0.0040186 -0.0079201 -0.0060773
v 0.0042612 -0.0075887 -0.0058230
v 0.0042612 -0.0071792 -0.0055088
v 0.0040186 -0.0068478 -0.0052545
v 0.0036260 -0.0067213 -0.0051574
v 0.0032334 -0.0068478 -0.0052545
v 0.0029907 -0.0071792 -0.0055088
v 0.0029907 -0.0075887 -0.0058230
v 0.0032334 -0.0079201 -0.0060773
v 0.0036260 -0.0071719 -0.0071718
v 0.0040186 -0.0070591 -0.0070590
v 0.0042612 -0.0067637 -0.0067637
v 0.0042612 -0.0063987 -0.0063987
v 0.0040186 -0.0061034 -0.0061034
v 0.0036260 -0.0059906 -0.0059906
v 0.0032334 -0.0061034 -0.0061034
v 0.0029907 -0.0063987 -0.0063987
v 0.0029907 -0.0067637 -0.0067637
v 0.0032334 -0.0070591 -0.0070590
v 0.0036260 -0.0061744 -0.0080466
v 0.0040186 -0.0060773 -0.0079201
v 0.0042612 -0.0058230 -0.0075887
v 0.0042612 -0.0055088 -0.0071792
v 0.0040186 -0.0052545 -0.0068478
v 0.0036260 -0.0051574 -0.0067213
v 0.0032334 -0.0052545 -0.0068478
v 0.0029907 -0.0055088 -0.0071792
v 0.0029907 -0.0058230 -0.0075887
v 0.0032334 -0.0060773 -0.0079201
v 0.0036260 -0.0050713 -0.0087837
v 0.0040186 -0.0049915 -0.0086455
v 0.0042612 -0.0047827 -0.0082839
v 0.0042612 -0.0045246 -0.0078368
v 0.0040186 -0.0043158 -0.0074751
v 0.0036260 -0.0042360 -0.0073370
v 0.0032334 -0.0043158 -0.0074751
v 0.0029907 -0.0045246 -0.0078368
v 0.0029907 -0.0047827 -0.0082839
v 0.0032334 -0.0049915 -0.0086455
v 0.0036260 -0.0038814 -0.0093705
v 0.0040186 -0.0038203 -0.0092231
v 0.0042612 -0.0036605 -0.0088372
v 0.0042612 -0.0034630 -0.0083603
v 0.0040186 -0.0033031 -0.0079745
v 0.0036260 -0.0032421 -0.0078271
v 0.0032334 -0.0033031 -0.0079745
v 0.0029907 -0.0034630 -0.0083603
v 0.0029907 -0.0036605 -0.0088372
v 0.0032334 -0.0038203 -0.0092231
v 0.0036260 -0.0026251 -0.0097969
v 0.0040186 -0.0025838 -0.0096428
v 0.0042612 -0.0024757 -0.0092394
v 0.0042612 -0.0023421 -0.0087408
v 0.0040186 -0.0022340 -0.0083374
v 0.0036260 -0.0021927 -0.0081833
v 0.0032334 -0.0022340 -0.0083374
v 0.0029907 -0.0023421 -0.0087408
v 0.0029907 -0.0024757 -0.0092394
v 0.0032334 -0.0025838 -0.0096428
v 0.0036260 -0.0013239 -0.0100558
v 0.0040186 -0.0013030 -0.0098976
v 0.0042612 -0.0012485 -0.0094835
v 0.0042612 -0.0011812 -0.0089717
v 0.0040186 -0.0011266 -0.0085577
v 0.0036260 -0.0011058 -0.0083995
v 0.0032334 -0.0011266 -0.0085577
v 0.0029907 -0.0011812 -0.0089717
v 0.0029907 -0.0012485 -0.0094835
v 0.0032334 -0.0013030 -0.0098976
f 1 11 12
f 1 12 2
f 2 12 13
f 2 13 3
f 3 13 14
f 3 14 4
f 4 14 15
f 4 15 5
f 5 15 16
f 5 16 6
f 6 16 17
f 6 17 7
f 7 17 18
f 7 18 8
f 8 18 19
f 8 19 9
f 9 19 20
f 9 20 10
f 10 20 11
f 10 11 1
f 11 21 22
f 11 22 12
f 12 22 23
f 12 23 13
f 13 23 24
f 13 24 14
f 14 24 25
f 14 25 15
f 15 25 26
f 15 26 16
f 16 26 27
f 16 27 17
f 17 27 28
f 17 28 18
f 18 28 29
f 18 29 19
f 19 29 30
f 19 30 20
f 20 30 21
f 20 21 11
f 21 31 32
f 21 32 22
f 22 32 33
f 22 33 23
f 23 33 34
f 23 34 24
f 24 34 35
f 24 35 25
f 25 35 36
f 25 36 26
f 26 36 37
f 26 37 27
f 27 37 38
f 27 38 28
f 28 38 39
f 28 39 29
f 29 39 40
f 29 40 30
f 30 40 31
f 30 31 21
f 31 41 42
f 31 42 32
f 32 42 43
f 32 43 33
f 33 43 44
f 33 44 34
f 34 44 45
f 34 45 35
f 35 45 46
f 35 46 36
f 36 46 47
f 36 47 37
f 37 47 48
f 37 48 38
f 38 48 49
f 38 49 39
f 39 49 50
f 39 50 40
f 40 50 41
f 40 41 31
f 41 51 52
f 41 52 42
f 42 52 53
f 42 53 43
f 43 53 54
f 43 54 44
f 44 54 55
f 44 55 45
f 45 55 56
f 45 56 46
f 46 56 57
f 46 57 47
f 47 57 58
f 47 58 48
f 48 58 59
f 48 59 49
f 49 59 60
f 49 60 50
f 50 60 51
f 50 51 41
f 51 61 62
f 51 62 52
f 52 62 63
f 52 63 53
f 53 63 64
f 53 64 54
f 54 64 65
f 54 65 55
f 55 65 66
f 55 66 56
f 56 66 67
f 56 67 57
f 57 67 68
f 57 68 58
f 58 68 69
f 58 69 59
f 59 69 70
f 59 70 60
f 60 70 61
f 60 61 51
f 61 71 72
f 61 72 62
f 62 72 73
f 62 73 63
f 63 73 74
f 63 74 64
f 64 74 75
f 64 75 65
f 65 75 76
f 65 76 66
f 66 76 77
f 66 77 67
f 67 77 78
f 67 78 68
f 68 78 79
f 68 79 69
f 69 79 80
f 69 80 70
f 70 80 71
f 70 71 61
f 71 81 82
f 71 82 72
f 72 82 83
f 72 83 73
f 73 83 84
f 73 84 74
f 74 84 85
f 74 85 75
f 75 85 86
f 75 86 76
f 76 86 87
f 76 87 77
f 77 87 88
f 77 88 78
f 78 88 89
f 78 89 79
f 79 89 90
f 79 90 80
f 80 90 81
f 80 81 71
f 81 91 92
f 81 92 82
f 82 92 93
f 82 93 83
f 83 93 94
f 83 94 84
f 84 94 95
f 84 95 85
f 85 95 96
f 85 96 86
f 86 96 97
f 86 97 87
f 87 97 98
f 87 98 88
f 88 98 99
f 88 99 89
f 89 99 100
f 89 100 90
f 90 100 91
f 90 91 81
f 91 101 102
f 91 102 92
f 92 102 103
f 92 103 93
f 93 103 104
f 93 104 94
f 94 104 105
f 94 105 95
f 95 105 106
f 95 106 96
f 96 106 107
f 96 107 97
f 97 107 108
f 97 108 98
f 98 108 109
f 98 109 99
f 99 109 110
f 99 110 100
f 100 110 101
f 100 101 91
f 101 111 112
f 101 112 102
f 102 112 113
f 102 113 103
f 103 113 114
f 103 114 104
f 104 114 115
f 104 115 105
f 105 115 116
f 105 116 106
f 106 116 117
f 106 117 107
f 107 117 118
f 107 118 108
f 108 118 119
f 108 119 109
f 109 119 120
f 109 120 110
f 110 120 111
f 110 111 101
f 111 121 122
f 111 122 112
f 112 122 123
f 112 123 113
f 113 123 124
f 113 124 114
f 114 124 125
f 114 125 115
f 115 125 126
f 115 126 116
f 116 126 127
f 116 127 117
f 117 127 128
f 117 128 118
f 118 128 129
f 118 129 119
f 119 129 130
f 119 130 120
f 120 130 121
f 120 121 111
f 121 131 132
f 121 132 122
f 122 132 133
f 122 133 123
f 123 133 134
f 123 134 124
f 124 134 135
f 124 135 125
f 125 135 136
f 125 136 126
f 126 136 137
f 126 137 127
f 127 137 138
f 127 138 128
f 128 138 139
f 128 139 129
f 129 139 140
f 129 140 130
f 130 140 131
f 130 131 121
f 131 141 142
f 131 142 132
f 132 142 143
f 132 143 133
f 133 143 144
f 133 144 134
f 134 144 145
f 134 145 135
f 135 145 146
f 135 146 136
f 136 146 147
f 136 147 137
f 137 147 148
f 137 148 138
f 138 148 149
f 138 149 139
f 139 149 150
f 139 150 140
f 140 150 141
f 140 141 131
f 141 151 152
f 141 152 142
f 142 152 153
f 142 153 143
f 143 153 154
f 143 154 144
f 144 154 155
f 144 155 145
f 145 155 156
f 145 156 146
f 146 156 157
f 146 157 147
f 147 157 158
f 147 158 148
f 148 158 159
f 148 159 149
f 149 159 160
f 149 160 150
f 150 160 151
f 150 151 141
f 151 161 162
f 151 162 152
f 152 162 163
f 152 163 153
f 153 163 164
f 153 164 154
f 154 164 165
f 154 165 155
f 155 165 166
f 155 166 156
f 156 166 167
f 156 167 157
f 157 167 168
f 157 168 158
f 158 168 169
f 158 169 159
f 159 169 170
f 159 170 160
f 160 170 161
f 160 161 151
f 161 171 172
f 161 172 162
f 162 172 173
f 162 173 163
f 163 173 174
f 163 174 164
f 164 174 175
f 164 175 165
f 165 175 176
f 165 176 166
f 166 176 177
f 166 177 167
f 167 177 178
f 167 178 168
f 168 178 179
f 168 179 169
f 169 179 180
f 169 180 170
f 170 180 171
f 170 171 161
f 171 181 182
f 171 182 172
f 172 182 183
f 172 183 173
f 173 183 184
f 173 184 174
f 174 184 185
f 174 185 175
f 175 185 186
f 175 186 176
f 176 186 187
f 176 187 177
f 177 187 188
f 177 188 178
f 178 188 189
f 178 189 179
f 179 189 190
f 179 190 180
f 180 190 181
f 180 181 171
f 181 191 192
f 181 192 182
f 182 192 193
f 182 193 183
f 183 193 194
f 183 194 184
f 184 194 195
f 184 195 185
f 185 195 196
f 185 196 186
f 186 196 197
f 186 197 187
f 187 197 198
f 187 198 188
f 188 198 199
f 188 199 189
f 189 199 200
f 189 200 190
f 190 200 191
f 190 191 181
f 191 201 202
f 191 202 192
f 192 202 203
f 192 203 193
f 193 203 204
f 193 204 194
f 194 204 205
f 194 205 195
f 195 205 206
f 195 206 196
f 196 206 207
f 196 207 197
f 197 207 208
f 197 208 198
f 198 208 209
f 198 209 199
f 199 209 210
f 199 210 200
f 200 210 201
f 200 201 191
f 201 211 212
f 201 212 202
f 202 212 213
f 202 213 203
f 203 213 214
f 203 214 204
f 204 214 215
f 204 215 205
f 205 215 216
f 205 216 206
f 206 216 217
f 206 217 207
f 207 217 218
f 207 218 208
f 208 218 219
f 208 219 209
f 209 219 220
f 209 220 210
f 210 220 211
f 210 211 201
f 211 221 222
f 211 222 212
f 212 222 223
f 212 223 213
f 213 223 224
f 213 224 214
f 214 224 225
f 214 225 215
f 215 225 226
f 215 226 216
f 216 226 227
f 216 227 217
f 217 227 228
f 217 228 218
f 218 228 229
f 218 229 219
f 219 229 230
f 219 230 220
f 220 230 221
f 220 221 211
f 221 231 232
f 221 232 222
f 222 232 233
f 222 233 223
f 223 233 234
f 223 234 224
f 224 234 235
f 224 235 225
f 225 235 236
f 225 236 226
f 226 236 237
f 226 237 227
f 227 237 238
f 227 238 228
f 228 238 239
f 228 239 229
f 229 239 240
f 229 240 230
f 230 240 231
f 230 231 221
f 231 241 242
f 231 242 232
f 232 242 243
f 232 243 233
f 233 243 244
f 233 244 234
f 234 244 245
f 234 245 235
f 235 245 246
f 235 246 236
f 236 246 247
f 236 247 237
f 237 247 248
f 237 248 238
f 238 248 249
f 238 249 239
f 239 249 250
f 239 250 240
f 240 250 241
f 240 241 231
f 241 251 252
f 241 252 242
f 242 252 253
f 242 253 243
f 243 253 254
f 243 254 244
f 244 254 255
f 244 255 245
f 245 255 256
f 245 256 246
f 246 256 257
f 246 257 247
f 247 257 258
f 247 258 248
f 248 258 259
f 248 259 249
f 249 259 260
f 249 260 250
f 250 260 251
f 250 251 241
f 251 261 262
f 251 262 252
f 252 262 263
f 252 263 253
f 253 263 264
f 253 264 254
f 254 264 265
f 254 265 255
f 255 265 266
f 255 266 256
f 256 266 267
f 256 267 257
f 257 267 268
f 257 268 258
f 258 268 269
f 258 269 259
f 259 269 270
f 259 270 260
f 260 270 261
f 260 261 251
f 261 271 272
f 261 272 262
f 262 272 273
f 262 273 263
f 263 273 274
f 263 274 264
f 264 274 275
f 264 275 265
f 265 275 276
f 265 276 266
f 266 276 277
f 266 277 267
f 267 277 278
f 267 278 268
f 268 278 279
f 268 279 269
f 269 279 280
f 269 280 270
f 270 280 271
f 270 271 261
f 271 281 282
f 271 282 272
f 272 282 283
f 272 283 273
f 273 283 284
f 273 284 274
f 274 284 285
f 274 285 275
f 275 285 286
f 275 286 276
f 276 286 287
f 276 287 277
f 277 287 288
f 277 288 278
f 278 288 289
f 278 289 279
f 279 289 290
f 279 290 280
f 280 290 281
f 280 281 271
f 281 291 292
f 281 292 282
f 282 292 293
f 282 293 283
f 283 293 294
f 283 294 284
f 284 294 295
f 284 295 285
f 285 295 296
f 285 296 286
f 286 296 297
f 286 297 287
f 287 297 298
f 287 298 288
f 288 298 299
f 288 299 289
f 289 299 300
f 289 300 290
f 290 300 291
f 290 291 281
f 291 301 302
f 291 302 292
f 292 302 303
f 292 303 293
f 293 303 304
f 293 304 294
f 294 304 305
f 294 305 295
f 295 305 306
f 295 306 296
f 296 306 307
f 296 307 297
f 297 307 308
f 297 308 298
f 298 308 309
f 298 309 299
f 299 309 310
f 299 310 300
f 300 310 301
f 300 301 291
f 301 311 312
f 301 312 302
f 302 312 313
f 302 313 303
f 303 313 314
f 303 314 304
f 304 314 315
f 304 315 305
f 305 315 316
f 305 316 306
f 306 316 317
f 306 317 307
f 307 317 318
f 307 318 308
f 308 318 319
f 308 319 309
f 309 319 320
f 309 320 310
f 310 320 311
f 310 311 301
f 311 321 322
f 311 322 312
f 312 322 323
f 312 323 313
f 313 323 324
f 313 324 314
f 314 324 325
f 314 325 315
f 315 325 326
f 315 326 316
f 316 326 327
f 316 327 317
f 317 327 328
f 317 328 318
f 318 328 329
f 318 329 319
f 319 329 330
f 319 330 320
f 320 330 321
f 320 321 311
f 321 331 332
f 321 332 322
f 322 332 333
f 322 333 323
f 323 333 334
f 323 334 324
f 324 334 335
f 324 335 325
f 325 335 336
f 325 336 326
f 326 336 337
f 326 337 327
f 327 337 338
f 327 338 328
f 328 338 339
f 328 339 329
f 329 339 340
f 329 340 330
f 330 340 331
f 330 331 321
f 331 341 342
f 331 342 332
f 332 342 343
f 332 343 333
f 333 343 344
f 333 344 334
f 334 344 345
f 334 345 335
f 335 345 346
f 335 346 336
f 336 346 347
f 336 347 337
f 337 347 348
f 337 348 338
f 338 348 349
f 338 349 339
f 339 349 350
f 339 350 340
f 340 350 341
f 340 341 331
f 341 351 352
f 341 352 342
f 342 352 353
f 342 353 343
f 343 353 354
f 343 354 344
f 344 354 355
f 344 355 345
f 345 355 356
f 345 356 346
f 346 356 357
f 346 357 347
f 347 357 358
f 347 358 348
f 348 358 359
f 348 359 349
f 349 359 360
f 349 360 350
f 350 360 351
f 350 351 341
f 351 361 362
f 351 362 352
f 352 362 363
f 352 363 353
f 353 363 364
f 353 364 354
f 354 364 365
f 354 365 355
f 355 365 366
f 355 366 356
f 356 366 367
f 356 367 357
f 357 367 368
f 357 368 358
f 358 368 369
f 358 369 359
f 359 369 370
f 359 370 360
f 360 370 361
f 360 361 351
f 361 371 372
f 361 372 362
f 362 372 373
f 362 373 363
f 363 373 374
f 363 374 364
f 364 374 375
f 364 375 365
f 365 375 376
f 365 376 366
f 366 376 377
f 366 377 367
f 367 377 378
f 367 378 368
f 368 378 379
f 368 379 369
f 369 379 380
f 369 380 370
f 370 380 371
f 370 371 361
f 371 381 382
f 371 382 372
f 372 382 383
f 372 383 373
f 373 383 384
f 373 384 374
f 374 384 385
f 374 385 375
f 375 385 386
f 375 386 376
f 376 386 387
f 376 387 377
f 377 387 388
f 377 388 378
f 378 388 389
f 378 389 379
f 379 389 390
f 379 390 380
f 380 390 381
f 380 381 371
f 381 391 392
f 381 392 382
f 382 392 393
f 382 393 383
f 383 393 394
f 383 394 384
f 384 394 395
f 384 395 385
f 385 395 396
f 385 396 386
f 386 396 397
f 386 397 387
f 387 397 398
f 387 398 388
f 388 398 399
f 388 399 389
f 389 399 400
f 389 400 390
f 390 400 391
f 390 391 381
f 391 401 402
f 391 402 392
f 392 402 403
f 392 403 393
f 393 403 404
f 393 404 394
f 394 404 405
f 394 405 395
f 395 405 406
f 395 406 396
f 396 406 407
f 396 407 397
f 397 407 408
f 397 408 398
f 398 408 409
f 398 409 399
f 399 409 410
f 399 410 400
f 400 410 401
f 400 401 391
f 401 411 412
f 401 412 402
f 402 412 413
f 402 413 403
f 403 413 414
f 403 414 404
f 404 414 415
f 404 415 405
f 405 415 416
f 405 416 406
f 406 416 417
f 406 417 407
f 407 417 418
f 407 418 408
f 408 418 419
f 408 419 409
f 409 419 420
f 409 420 410
f 410 420 411
f 410 411 401
f 411 421 422
f 411 422 412
f 412 422 423
f 412 423 413
f 413 423 424
f 413 424 414
f 414 424 425
f 414 425 415
f 415 425 426
f 415 426 416
f 416 426 427
f 416 427 417
f 417 427 428
f 417 428 418
f 418 428 429
f 418 429 419
f 419 429 430
f 419 430 420
f 420 430 421
f 420 421 411
f 421 431 432
f 421 432 422
f 422 432 433
f 422 433 423
f 423 433 434
f 423 434 424
f 424 434 435
f 424 435 425
f 425 435 436
f 425 436 426
f 426 436 437
f 426 437 427
f 427 437 438
f 427 438 428
f 428 438 439
f 428 439 429
f 429 439 440
f 429 440 430
f 430 440 431
f 430 431 421
f 431 441 442
f 431 442 432
f 432 442 443
f 432 443 433
f 433 443 444
f 433 444 434
f 434 444 445
f 434 445 435
f 435 445 446
f 435 446 436
f 436 446 447
f 436 447 437
f 437 447 448
f 437 448 438
f 438 448 449
f 438 449 439
f 439 449 450
f 439 450 440
f 440 450 441
f 440 441 431
f 441 451 452
f 441 452 442
f 442 452 453
f 442 453 443
f 443 453 454
f 443 454 444
f 444 454 455
f 444 455 445
f 445 455 456
f 445 456 446
f 446 456 457
f 446 457 447
f 447 457 458
f 447 458 448
f 448 458 459
f 448 459 449
f 449 459 460
f 449 460 450
f 450 460 451
f 450 451 441
f 451 461 462
f 451 462 452
f 452 462 463
f 452 463 453
f 453 463 464
f 453 464 454
f 454 464 465
f 454 465 455
f 455 465 466
f 455 466 456
f 456 466 467
f 456 467 457
f 457 467 468
f 457 468 458
f 458 468 469
f 458 469 459
f 459 469 470
f 459 470 460
f 460 470 461
f 460 461 451
f 461 471 472
f 461 472 462
f 462 472 473
f 462 473 463
f 463 473 474
f 463 474 464
f 464 474 475
f 464 475 465
f 465 475 476
f 465 476 466
f 466 476 477
f 466 477 467
f 467 477 478
f 467 478 468
f 468 478 479
f 468 479 469
f 469 479 480
f 469 480 470
f 470 480 471
f 470 471 461
f 471 1 2
f 471 2 472
f 472 2 3
f 472 3 473
f 473 3 4
f 473 4 474
f 474 4 5
f 474 5 475
f 475 5 6
f 475 6 476
f 476 6 7
f 476 7 477
f 477 7 8
f 477 8 478
f 478 8 9
f 478 9 479
f 479 9 10
f 479 10 480
f 480 10 1
f 480 1 471
f 481 491 492
f 481 492 482
f 482 492 493
f 482 493 483
f 483 493 494
f 483 494 484
f 484 494 495
f 484 495 485
f 485 495 496
f 485 496 486
f 486 496 497
f 486 497 487
f 487 497 498
f 487 498 488
f 488 498 499
f 488 499 489
f 489 499 500
f 489 500 490
f 490 500 491
f 490 491 481
f 491 501 502
f 491 502 492
f 492 502 503
f 492 503 493
f 493 503 504
f 493 504 494
f 494 504 505
f 494 505 495
f 495 505 506
f 495 506 496
f 496 506 507
f 496 507 497
f 497 507 508
f 497 508 498
f 498 508 509
f 498 509 499
f 499 509 510
f 499 510 500
f 500 510 501
f 500 501 491
f 501 511 512
f 501 512 502
f 502 512 513
f 502 513 503
f 503 513 514
f 503 514 504
f 504 514 515
f 504 515 505
f 505 515 516
f 505 516 506
f 506 516 517
f 506 517 507
f 507 517 518
f 507 518 508
f 508 518 519
f 508 519 509
f 509 519 520
f 509 520 510
f 510 520 511
f 510 511 501
f 511 521 522
f 511 522 512
f 512 522 523
f 512 523 513
f 513 523 524
f 513 524 514
f 514 524 525
f 514 525 515
f 515 525 526
f 515 526 516
f 516 526 527
f 516 527 517
f 517 527 528
f 517 528 518
f 518 528 529
f 518 529 519
f 519 529 530
f 519 530 520
f 520 530 521
f 520 521 511
f 521 531 532
f 521 532 522
f 522 532 533
f 522 533 523
f 523 533 534
f 523 534 524
f 524 534 535
f 524 535 525
f 525 535 536
f 525 536 526
f 526 536 537
f 526 537 527
f 527 537 538
f 527 538 528
f 528 538 539
f 528 539 529
f 529 539 540
f 529 540 530
f 530 540 531
f 530 531 521
f 531 541 542
f 531 542 532
f 532 542 543
f 532 543 533
f 533 543 544
f 533 544 534
f 534 544 545
f 534 545 535
f 535 545 546
f 535 546 536
f 536 546 547
f 536 547 537
f 537 547 548
f 537 548 538
f 538 548 549
f 538 549 539
f 539 549 550
f 539 550 540
f 540 550 541
f 540 541 531
f 541 551 552
f 541 552 542
f 542 552 553
f 542 553 543
f 543 553 554
f 543 554 544
f 544 554 555
f 544 555 545
f 545 555 556
f 545 556 546
f 546 556 557
f 546 557 547
f 547 557 558
f 547 558 548
f 548 558 559
f 548 559 549
f 549 559 560
f 549 560 550
f 550 560 551
f 550 551 541
f 551 561 562
f 551 562 552
f 552 562 563
f 552 563 553
f 553 563 564
f 553 564 554
f 554 564 565
f 554 565 555
f 555 565 566
f 555 566 556
f 556 566 567
f 556 567 557
f 557 567 568
f 557 568 558
f 558 568 569
f 558 569 559
f 559 569 570
f 559 570 560
f 560 570 561
f 560 561 551
f 561 571 572
f 561 572 562
f 562 572 573
f 562 573 563
f 563 573 574
f 563 574 564
f 564 574 575
f 564 575 565
f 565 575 576
f 565 576 566
f 566 576 577
f 566 577 567
f 567 577 578
f 567 578 568
f 568 578 579
f 568 579 569
f 569 579 580
f 569 580 570
f 570 580 571
f 570 571 561
f 571 581 582
f 571 582 572
f 572 582 583
f 572 583 573
f 573 583 584
f 573 584 574
f 574 584 585
f 574 585 575
f 575 585 586
f 575 586 576
f 576 586 587
f 576 587 577
f 577 587 588
f 577 588 578
f 578 588 589
f 578 589 579
f 579 589 590
f 579 590 580
f 580 590 581
f 580 581 571
f 581 591 592
f 581 592 582
f 582 592 593
f 582 593 583
f 583 593 594
f 583 594 584
f 584 594 595
f 584 595 585
f 585 595 596
f 585 596 586
f 586 596 597
f 586 597 587
f 587 597 598
f 587 598 588
f 588 598 599
f 588 599 589
f 589 599 600
f 589 600 590
f 590 600 591
f 590 591 581
f 591 601 602
f 591 602 592
f 592 602 603
f 592 603 593
f 593 603 604
f 593 604 594
f 594 604 605
f 594 605 595
f 595 605 606
f 595 606 596
f 596 606 607
f 596 607 597
f 597 607 608
f 597 608 598
f 598 608 609
f 598 609 599
f 599 609 610
f 599 610 600
f 600 610 601
f 600 601 591
f 601 611 612
f 601 612 602
f 602 612 613
f 602 613 603
f 603 613 614
f 603 614 604
f 604 614 615
f 604 615 605
f 605 615 616
f 605 616 606
f 606 616 617
f 606 617 607
f 607 617 618
f 607 618 608
f 608 618 619
f 608 619 609
f 609 619 620
f 609 620 610
f 610 620 611
f 610 611 601
f 611 621 622
f 611 622 612
f 612 622 623
f 612 623 613
f 613 623 624
f 613 624 614
f 614 624 625
f 614 625 615
f 615 625 626
f 615 626 616
f 616 626 627
f 616 627 617
f 617 627 628
f 617 628 618
f 618 628 629
f 618 629 619
f 619 629 630
f 619 630 620
f 620 630 621
f 620 621 611
f 621 631 632
f 621 632 622
f 622 632 633
f 622 633 623
f 623 633 634
f 623 634 624
f 624 634 635
f 624 635 625
f 625 635 636
f 625 636 626
f 626 636 637
f 626 637 627
f 627 637 638
f 627 638 628
f 628 638 639
f 628 639 629
f 629 639 640
f 629 640 630
f 630 640 631
f 630 631 621
f 631 641 642
f 631 642 632
f 632 642 643
f 632 643 633
f 633 643 644
f 633 644 634
f 634 644 645
f 634 645 635
f 635 645 646
f 635 646 636
f 636 646 647
f 636 647 637
f 637 647 648
f 637 648 638
f 638 648 649
f 638 649 639
f 639 649 650
f 639 650 640
f 640 650 641
f 640 641 631
f 641 651 652
f 641 652 642
f 642 652 653
f 642 653 643
f 643 653 654
f 643 654 644
f 644 654 655
f 644 655 645
f 645 655 656
f 645 656 646
f 646 656 657
f 646 657 647
f 647 657 658
f 647 658 648
f 648 658 659
f 648 659 649
f 649 659 660
f 649 660 650
f 650 660 651
f 650 651 641
f 651 661 662
f 651 662 652
f 652 662 663
f 652 663 653
f 653 663 664
f 653 664 654
f 654 664 665
f 654 665 655
f 655 665 666
f 655 666 656
f 656 666 667
f 656 667 657
f 657 667 668
f 657 668 658
f 658 668 669
f 658 669 659
f 659 669 670
f 659 670 660
f 660 670 661
f 660 661 651
f 661 671 672
f 661 672 662
f 662 672 673
f 662 673 663
f 663 673 674
f 663 674 664
f 664 674 675
f 664 675 665
f 665 675 676
f 665 676 666
f 666 676 677
f 666 677 667
f 667 677 678
f 667 678 668
f 668 678 679
f 668 679 669
f 669 679 680
f 669 680 670
f 670 680 671
f 670 671 661
f 671 681 682
f 671 682 672
f 672 682 683
f 672 683 673
f 673 683 684
f 673 684 674
f 674 684 685
f 674 685 675
f 675 685 686
f 675 686 676
f 676 686 687
f 676 687 677
f 677 687 688
f 677 688 678
f 678 688 689
f 678 689 679
f 679 689 690
f 679 690 680
f 680 690 681
f 680 681 671
f 681 691 692
f 681 692 682
f 682 692 693
f 682 693 683
f 683 693 694
f 683 694 684
f 684 694 695
f 684 695 685
f 685 695 696
f 685 696 686
f 686 696 697
f 686 697 687
f 687 697 698
f 687 698 688
f 688 698 699
f 688 699 689
f 689 699 700
f 689 700 690
f 690 700 691
f 690 691 681
f 691 701 702
f 691 702 692
f 692 702 703
f 692 703 693
f 693 703 704
f 693 704 694
f 694 704 705
f 694 705 695
f 695 705 706
f 695 706 696
f 696 706 707
f 696 707 697
f 697 707 708
f 697 708 698
f 698 708 709
f 698 709 699
f 699 709 710
f 699 710 700
f 700 710 701
f 700 701 691
f 701 711 712
f 701 712 702
f 702 712 713
f 702 713 703
f 703 713 714
f 703 714 704
f 704 714 715
f 704 715 705
f 705 715 716
f 705 716 706
f 706 716 717
f 706 717 707
f 707 717 718
f 707 718 708
f 708 718 719
f 708 719 709
f 709 719 720
f 709 720 710
f 710 720 711
f 710 711 701
f 711 721 722
f 711 722 712
f 712 722 723
f 712 723 713
f 713 723 724
f 713 724 714
f 714 724 725
f 714 725 715
f 715 725 726
f 715 726 716
f 716 726 727
f 716 727 717
f 717 727 728
f 717 728 718
f 718 728 729
f 718 729 719
f 719 729 730
f 719 730 720
f 720 730 721
f 720 721 711
f 721 731 732
f 721 732 722
f 722 732 733
f 722 733 723
f 723 733 734
f 723 734 724
f 724 734 735
f 724 735 725
f 725 735 736
f 725 736 726
f 726 736 737
f 726 737 727
f 727 737 738
f 727 738 728
f 728 738 739
f 728 739 729
f 729 739 740
f 729 740 730
f 730 740 731
f 730 731 721
f 731 741 742
f 731 742 732
f 732 742 743
f 732 743 733
f 733 743 744
f 733 744 734
f 734 744 745
f 734 745 735
f 735 745 746
f 735 746 736
f 736 746 747
f 736 747 737
f 737 747 748
f 737 748 738
f 738 748 749
f 738 749 739
f 739 749 750
f 739 750 740
f 740 750 741
f 740 741 731
f 741 751 752
f 741 752 742
f 742 752 753
f 742 753 743
f 743 753 754
f 743 754 744
f 744 754 755
f 744 755 745
f 745 755 756
f 745 756 746
f 746 756 757
f 746 757 747
f 747 757 758
f 747 758 748
f 748 758 759
f 748 759 749
f 749 759 760
f 749 760 750
f 750 760 751
f 750 751 741
f 751 761 762
f 751 762 752
f 752 762 763
f 752 763 753
f 753 763 764
f 753 764 754
f 754 764 765
f 754 765 755
f 755 765 766
f 755 766 756
f 756 766 767
f 756 767 757
f 757 767 768
f 757 768 758
f 758 768 769
f 758 769 759
f 759 769 770
f 759 770 760
f 760 770 761
f 760 761 751
f 761 771 772
f 761 772 762
f 762 772 773
f 762 773 763
f 763 773 774
f 763 774 764
f 764 774 775
f 764 775 765
f 765 775 776
f 765 776 766
f 766 776 777
f 766 777 767
f 767 777 778
f 767 778 768
f 768 778 779
f 768 779 769
f 769 779 780
f 769 780 770
f 770 780 771
f 770 771 761
f 771 781 782
f 771 782 772
f 772 782 783
f 772 783 773
f 773 783 784
f 773 784 774
f 774 784 785
f 774 785 775
f 775 785 786
f 775 786 776
f 776 786 787
f 776 787 777
f 777 787 788
f 777 788 778
f 778 788 789
f 778 789 779
f 779 789 790
f 779 790 780
f 780 790 781
f 780 781 771
f 781 791 792
f 781 792 782
f 782 792 793
f 782 793 783
f 783 793 794
f 783 794 784
f 784 794 795
f 784 795 785
f 785 795 796
f 785 796 786
f 786 796 797
f 786 797 787
f 787 797 798
f 787 798 788
f 788 798 799
f 788 799 789
f 789 799 800
f 789 800 790
f 790 800 791
f 790 791 781
f 791 801 802
f 791 802 792
f 792 802 803
f 792 803 793
f 793 803 804
f 793 804 794
f 794 804 805
f 794 805 795
f 795 805 806
f 795 806 796
f 796 806 807
f 796 807 797
f 797 807 808
f 797 808 798
f 798 808 809
f 798 809 799
f 799 809 810
f 799 810 800
f 800 810 801
f 800 801 791
f 801 811 812
f 801 812 802
f 802 812 813
f 802 813 803
f 803 813 814
f 803 814 804
f 804 814 815
f 804 815 805
f 805 815 816
f 805 816 806
f 806 816 817
f 806 817 807
f 807 817 818
f 807 818 808
f 808 818 819
f 808 819 809
f 809 819 820
f 809 820 810
f 810 820 811
f 810 811 801
f 811 821 822
f 811 822 812
f 812 822 823
f 812 823 813
f 813 823 824
f 813 824 814
f 814 824 825
f 814 825 815
f 815 825 826
f 815 826 816
f 816 826 827
f 816 827 817
f 817 827 828
f 817 828 818
f 818 828 829
f 818 829 819
f 819 829 830
f 819 830 820
f 820 830 821
f 820 821 811
f 821 831 832
f 821 832 822
f 822 832 833
f 822 833 823
f 823 833 834
f 823 834 824
f 824 834 835
f 824 835 825
f 825 835 836
f 825 836 826
f 826 836 837
f 826 837 827
f 827 837 838
f 827 838 828
f 828 838 839
f 828 839 829
f 829 839 840
f 829 840 830
f 830 840 831
f 830 831 821
f 831 841 842
f 831 842 832
f 832 842 843
f 832 843 833
f 833 843 844
f 833 844 834
f 834 844 845
f 834 845 835
f 835 845 846
f 835 846 836
f 836 846 847
f 836 847 837
f 837 847 848
f 837 848 838
f 838 848 849
f 838 849 839
f 839 849 850
f 839 850 840
f 840 850 841
f 840 841 831
f 841 851 852
f 841 852 842
f 842 852 853
f 842 853 843
f 843 853 854
f 843 854 844
f 844 854 855
f 844 855 845
f 845 855 856
f 845 856 846
f 846 856 857
f 846 857 847
f 847 857 858
f 847 858 848
f 848 858 859
f 848 859 849
f 849 859 860
f 849 860 850
f 850 860 851
f 850 851 841
f 851 861 862
f 851 862 852
f 852 862 863
f 852 863 853
f 853 863 864
f 853 864 854
f 854 864 865
f 854 865 855
f 855 865 866
f 855 866 856
f 856 866 867
f 856 867 857
f 857 867 868
f 857 868 858
f 858 868 869
f 858 869 859
f 859 869 870
f 859 870 860
f 860 870 861
f 860 861 851
f 861 871 872
f 861 872 862
f 862 872 873
f 862 873 863
f 863 873 874
f 863 874 864
f 864 874 875
f 864 875 865
f 865 875 876
f 865 876 866
f 866 876 877
f 866 877 867
f 867 877 878
f 867 878 868
f 868 878 879
f 868 879 869
f 869 879 880
f 869 880 870
f 870 880 871
f 870 871 861
f 871 881 882
f 871 882 872
f 872 882 883
f 872 883 873
f 873 883 884
f 873 884 874
f 874 884 885
f 874 885 875
f 875 885 886
f 875 886 876
f 876 886 887
f 876 887 877
f 877 887 888
f 877 888 878
f 878 888 889
f 878 889 879
f 879 889 890
f 879 890 880
f 880 890 881
f 880 881 871
f 881 891 892
f 881 892 882
f 882 892 893
f 882 893 883
f 883 893 894
f 883 894 884
f 884 894 895
f 884 895 885
f 885 895 896
f 885 896 886
f 886 896 897
f 886 897 887
f 887 897 898
f 887 898 888
f 888 898 899
f 888 899 889
f 889 899 900
f 889 900 890
f 890 900 891
f 890 891 881
f 891 901 902
f 891 902 892
f 892 902 903
f 892 903 893
f 893 903 904
f 893 904 894
f 894 904 905
f 894 905 895
f 895 905 906
f 895 906 896
f 896 906 907
f 896 907 897
f 897 907 908
f 897 908 898
f 898 908 909
f 898 909 899
f 899 909 910
f 899 910 900
f 900 910 901
f 900 901 891
f 901 911 912
f 901 912 902
f 902 912 913
f 902 913 903
f 903 913 914
f 903 914 904
f 904 914 915
f 904 915 905
f 905 915 916
f 905 916 906
f 906 916 917
f 906 917 907
f 907 917 918
f 907 918 908
f 908 918 919
f 908 919 909
f 909 919 920
f 909 920 910
f 910 920 911
f 910 911 901
f 911 921 922
f 911 922 912
f 912 922 923
f 912 923 913
f 913 923 924
f 913 924 914
f 914 924 925
f 914 925 915
f 915 925 926
f 915 926 916
f 916 926 927
f 916 927 917
f 917 927 928
f 917 928 918
f 918 928 929
f 918 929 919
f 919 929 930
f 919 930 920
f 920 930 921
f 920 921 911
f 921 931 932
f 921 932 922
f 922 932 933
f 922 933 923
f 923 933 934
f 923 934 924
f 924 934 935
f 924 935 925
f 925 935 936
f 925 936 926
f 926 936 937
f 926 937 927
f 927 937 938
f 927 938 928
f 928 938 939
f 928 939 929
f 929 939 940
f 929 940 930
f 930 940 931
f 930 931 921
f 931 941 942
f 931 942 932
f 932 942 943
f 932 943 933
f 933 943 944
f 933 944 934
f 934 944 945
f 934 945 935
f 935 945 946
f 935 946 936
f 936 946 947
f 936 947 937
f 937 947 948
f 937 948 938
f 938 948 949
f 938 949 939
f 939 949 950
f 939 950 940
f 940 950 941
f 940 941 931
f 941 951 952
f 941 952 942
f 942 952 953
f 942 953 943
f 943 953 954
f 943 954 944
f 944 954 955
f 944 955 945
f 945 955 956
f 945 956 946
f 946 956 957
f 946 957 947
f 947 957 958
f 947 958 948
f 948 958 959
f 948 959 949
f 949 959 960
f 949 960 950
f 950 960 951
f 950 951 941
f 951 481 482
f 951 482 952
f 952 482 483
f 952 483 953
f 953 483 484
f 953 484 954
f 954 484 485
f 954 485 955
f 955 485 486
f 955 486 956
f 956 486 487
f 956 487 957
f 957 487 488
f 957 488 958
f 958 488 489
f 958 489 959
f 959 489 490
f 959 490 960
f 960 490 481
f 960 481 951
f 961 971 972
f 961 972 962
f 962 972 973
f 962 973 963
f 963 973 974
f 963 974 964
f 964 974 975
f 964 975 965
f 965 975 976
f 965 976 966
f 966 976 977
f 966 977 967
f 967 977 978
f 967 978 968
f 968 978 979
f 968 979 969
f 969 979 980
f 969 980 970
f 970 980 971
f 970 971 961
f 971 981 982
f 971 982 972
f 972 982 983
f 972 983 973
f 973 983 984
f 973 984 974
f 974 984 985
f 974 985 975
f 975 985 986
f 975 986 976
f 976 986 987
f 976 987 977
f 977 987 988
f 977 988 978
f 978 988 989
f 978 989 979
f 979 989 990
f 979 990 980
f 980 990 981
f 980 981 971
f 981 991 992
f 981 992 982
f 982 992 993
f 982 993 983
f 983 993 994
f 983 994 984
f 984 994 995
f 984 995 985
f 985 995 996
f 985 996 986
f 986 996 997
f 986 997 987
f 987 997 998
f 987 998 988
f 988 998 999
f 988 999 989
f 989 999 1000
f 989 1000 990
f 990 1000 991
f 990 991 981
f 991 1001 1002
f 991 1002 992
f 992 1002 1003
f 992 1003 993
f 993 1003 1004
f 993 1004 994
f 994 1004 1005
f 994 1005 995
f 995 1005 1006
f 995 1006 996
f 996 1006 1007
f 996 1007 997
f 997 1007 1008
f 997 1008 998
f 998 1008 1009
f 998 1009 999
f 999 1009 1010
f 999 1010 1000
f 1000 1010 1001
f 1000 1001 991
f 1001 1011 1012
f 1001 1012 1002
f 1002 1012 1013
f 1002 1013 1003
f 1003 1013 1014
f 1003 1014 1004
f 1004 1014 1015
f 1004 1015 1005
f 1005 1015 1016
f 1005 1016 1006
f 1006 1016 1017
f 1006 1017 1007
f 1007 1017 1018
f 1007 1018 1008
f 1008 1018 1019
f 1008 1019 1009
f 1009 1019 1020
f 1009 1020 1010
f 1010 1020 1011
f 1010 1011 1001
f 1011 1021 1022
f 1011 1022 1012
f 1012 1022 1023
f 1012 1023 1013
f 1013 1023 1024
f 1013 1024 1014
f 1014 1024 1025
f 1014 1025 1015
f 1015 1025 1026
f 1015 1026 1016
f 1016 1026 1027
f 1016 1027 1017
f 1017 1027 1028
f 1017 1028 1018
f 1018 1028 1029
f 1018 1029 1019
f 1019 1029 1030
f 1019 1030 1020
f 1020 1030 1021
f 1020 1021 1011
f 1021 1031 1032
f 1021 1032 1022
f 1022 1032 1033
f 1022 1033 1023
f 1023 1033 1034
f 1023 1034 1024
f 1024 1034 1035
f 1024 1035 1025
f 1025 1035 1036
f 1025 1036 1026
f 1026 1036 1037
f 1026 1037 1027
f 1027 1037 1038
f 1027 1038 1028
f 1028 1038 1039
f 1028 1039 1029
f 1029 1039 1040
f 1029 1040 1030
f 1030 1040 1031
f 1030 1031 1021
f 1031 1041 1042
f 1031 1042 1032
f 1032 1042 1043
f 1032 1043 1033
f 1033 1043 1044
f 1033 1044 1034
f 1034 1044 1045
f 1034 1045 1035
f 1035 1045 1046
f 1035 1046 1036
f 1036 1046 1047
f 1036 1047 1037
f 1037 1047 1048
f 1037 1048 1038
f 1038 1048 1049
f 1038 1049 1039
f 1039 1049 1050
f 1039 1050 1040
f 1040 1050 1041
f 1040 1041 1031
f 1041 1051 1052
f 1041 1052 1042
f 1042 1052 1053
f 1042 1053 1043
f 1043 1053 1054
f 1043 1054 1044
f 1044 1054 1055
f 1044 1055 1045
f 1045 1055 1056
f 1045 1056 1046
f 1046 1056 1057
f 1046 1057 1047
f 1047 1057 1058
f 1047 1058 1048
f 1048 1058 1059
f 1048 1059 1049
f 1049 1059 1060
f 1049 1060 1050
f 1050 1060 1051
f 1050 1051 1041
f 1051 1061 1062
f 1051 1062 1052
f 1052 1062 1063
f 1052 1063 1053
f 1053 1063 1064
f 1053 1064 1054
f 1054 1064 1065
f 1054 1065 1055
f 1055 1065 1066
f 1055 1066 1056
f 1056 1066 1067
f 1056 1067 1057
f 1057 1067 1068
f 1057 1068 1058
f 1058 1068 1069
f 1058 1069 1059
f 1059 1069 1070
f 1059 1070 1060
f 1060 1070 1061
f 1060 1061 1051
f 1061 1071 1072
f 1061 1072 1062
f 1062 1072 1073
f 1062 1073 1063
f 1063 1073 1074
f 1063 1074 1064
f 1064 1074 1075
f 1064 1075 1065
f 1065 1075 1076
f 1065 1076 1066
f 1066 1076 1077
f 1066 1077 1067
f 1067 1077 1078
f 1067 1078 1068
f 1068 1078 1079
f 1068 1079 1069
f 1069 1079 1080
f 1069 1080 1070
f 1070 1080 1071
f 1070 1071 1061
f 1071 1081 1082
f 1071 1082 1072
f 1072 1082 1083
f 1072 1083 1073
f 1073 1083 1084
f 1073 1084 1074
f 1074 1084 1085
f 1074 1085 1075
f 1075 1085 1086
f 1075 1086 1076
f 1076 1086 1087
f 1076 1087 1077
f 1077 1087 1088
f 1077 1088 1078
f 1078 1088 1089
f 1078 1089 1079
f 1079 1089 1090
f 1079 1090 1080
f 1080 1090 1081
f 1080 1081 1071
f 1081 1091 1092
f 1081 1092 1082
f 1082 1092 1093
f 1082 1093 1083
f 1083 1093 1094
f 1083 1094 1084
f 1084 1094 1095
f 1084 1095 1085
f 1085 1095 1096
f 1085 1096 1086
f 1086 1096 1097
f 1086 1097 1087
f 1087 1097 1098
f 1087 1098 1088
f 1088 1098 1099
f 1088 1099 1089
f 1089 1099 1100
f 1089 1100 1090
f 1090 1100 1091
f 1090 1091 1081
f 1091 1101 1102
f 1091 1102 1092
f 1092 1102 1103
f 1092 1103 1093
f 1093 1103 1104
f 1093 1104 1094
f 1094 1104 1105
f 1094 1105 1095
f 1095 1105 1106
f 1095 1106 1096
f 1096 1106 1107
f 1096 1107 1097
f 1097 1107 1108
f 1097 1108 1098
f 1098 1108 1109
f 1098 1109 1099
f 1099 1109 1110
f 1099 1110 1100
f 1100 1110 1101
f 1100 1101 1091
f 1101 1111 1112
f 1101 1112 1102
f 1102 1112 1113
f 1102 1113 1103
f 1103 1113 1114
f 1103 1114 1104
f 1104 1114 1115
f 1104 1115 1105
f 1105 1115 1116
f 1105 1116 1106
f 1106 1116 1117
f 1106 1117 1107
f 1107 1117 1118
f 1107 1118 1108
f 1108 1118 1119
f 1108 1119 1109
f 1109 1119 1120
f 1109 1120 1110
f 1110 1120 1111
f 1110 1111 1101
f 1111 1121 1122
f 1111 1122 1112
f 1112 1122 1123
f 1112 1123 1113
f 1113 1123 1124
f 1113 1124 1114
f 1114 1124 1125
f 1114 1125 1115
f 1115 1125 1126
f 1115 1126 1116
f 1116 1126 1127
f 1116 1127 1117
f 1117 1127 1128
f 1117 1128 1118
f 1118 1128 1129
f 1118 1129 1119
f 1119 1129 1130
f 1119 1130 1120
f 1120 1130 1121
f 1120 1121 1111
f 1121 1131 1132
f 1121 1132 1122
f 1122 1132 1133
f 1122 1133 1123
f 1123 1133 1134
f 1123 1134 1124
f 1124 1134 1135
f 1124 1135 1125
f 1125 1135 1136
f 1125 1136 1126
f 1126 1136 1137
f 1126 1137 1127
f 1127 1137 1138
f 1127 1138 1128
f 1128 1138 1139
f 1128 1139 1129
f 1129 1139 1140
f 1129 1140 1130
f 1130 1140 1131
f 1130 1131 1121
f 1131 1141 1142
f 1131 1142 1132
f 1132 1142 1143
f 1132 1143 1133
f 1133 1143 1144
f 1133 1144 1134
f 1134 1144 1145
f 1134 1145 1135
f 1135 1145 1146
f 1135 1146 1136
f 1136 1146 1147
f 1136 1147 1137
f 1137 1147 1148
f 1137 1148 1138
f 1138 1148 1149
f 1138 1149 1139
f 1139 1149 1150
f 1139 1150 1140
f 1140 1150 1141
f 1140 1141 1131
f 1141 1151 1152
f 1141 1152 1142
f 1142 1152 1153
f 1142 1153 1143
f 1143 1153 1154
f 1143 1154 1144
f 1144 1154 1155
f 1144 1155 1145
f 1145 1155 1156
f 1145 1156 1146
f 1146 1156 1157
f 1146 1157 1147
f 1147 1157 1158
f 1147 1158 1148
f 1148 1158 1159
f 1148 1159 1149
f 1149 1159 1160
f 1149 1160 1150
f 1150 1160 1151
f 1150 1151 1141
f 1151 1161 1162
f 1151 1162 1152
f 1152 1162 1163
f 1152 1163 1153
f 1153 1163 1164
f 1153 1164 1154
f 1154 1164 1165
f 1154 1165 1155
f 1155 1165 1166
f 1155 1166 1156
f 1156 1166 1167
f 1156 1167 1157
f 1157 1167 1168
f 1157 1168 1158
f 1158 1168 1169
f 1158 1169 1159
f 1159 1169 1170
f 1159 1170 1160
f 1160 1170 1161
f 1160 1161 1151
f 1161 1171 1172
f 1161 1172 1162
f 1162 1172 1173
f 1162 1173 1163
f 1163 1173 1174
f 1163 1174 1164
f 1164 1174 1175
f 1164 1175 1165
f 1165 1175 1176
f 1165 1176 1166
f 1166 1176 1177
f 1166 1177 1167
f 1167 1177 1178
f 1167 1178 1168
f 1168 1178 1179
f 1168 1179 1169
f 1169 1179 1180
f 1169 1180 1170
f 1170 1180 1171
f 1170 1171 1161
f 1171 1181 1182
f 1171 1182 1172
f 1172 1182 1183
f 1172 1183 1173
f 1173 1183 1184
f 1173 1184 1174
f 1174 1184 1185
f 1174 1185 1175
f 1175 1185 1186
f 1175 1186 1176
f 1176 1186 1187
f 1176 1187 1177
f 1177 1187 1188
f 1177 1188 1178
f 1178 1188 1189
f 1178 1189 1179
f 1179 1189 1190
f 1179 1190 1180
f 1180 1190 1181
f 1180 1181 1171
f 1181 1191 1192
f 1181 1192 1182
f 1182 1192 1193
f 1182 1193 1183
f 1183 1193 1194
f 1183 1194 1184
f 1184 1194 1195
f 1184 1195 1185
f 1185 1195 1196
f 1185 1196 1186
f 1186 1196 1197
f 1186 1197 1187
f 1187 1197 1198
f 1187 1198 1188
f 1188 1198 1199
f 1188 1199 1189
f 1189 1199 1200
f 1189 1200 1190
f 1190 1200 1191
f 1190 1191 1181
f 1191 1201 1202
f 1191 1202 1192
f 1192 1202 1203
f 1192 1203 1193
f 1193 1203 1204
f 1193 1204 1194
f 1194 1204 1205
f 1194 1205 1195
f 1195 1205 1206
f 1195 1206 1196
f 1196 1206 1207
f 1196 1207 1197
f 1197 1207 1208
f 1197 1208 1198
f 1198 1208 1209
f 1198 1209 1199
f 1199 1209 1210
f 1199 1210 1200
f 1200 1210 1201
f 1200 1201 1191
f 1201 1211 1212
f 1201 1212 1202
f 1202 1212 1213
f 1202 1213 1203
f 1203 1213 1214
f 1203 1214 1204
f 1204 1214 1215
f 1204 1215 1205
f 1205 1215 1216
f 1205 1216 1206
f 1206 1216 1217
f 1206 1217 1207
f 1207 1217 1218
f 1207 1218 1208
f 1208 1218 1219
f 1208 1219 1209
f 1209 1219 1220
f 1209 1220 1210
f 1210 1220 1211
f 1210 1211 1201
f 1211 1221 1222
f 1211 1222 1212
f 1212 1222 1223
f 1212 1223 1213
f 1213 1223 1224
f 1213 1224 1214
f 1214 1224 1225
f 1214 1225 1215
f 1215 1225 1226
f 1215 1226 1216
f 1216 1226 1227
f 1216 1227 1217
f 1217 1227 1228
f 1217 1228 1218
f 1218 1228 1229
f 1218 1229 1219
f 1219 1229 1230
f 1219 1230 1220
f 1220 1230 1221
f 1220 1221 1211
f 1221 1231 1232
f 1221 1232 1222
f 1222 1232 1233
f 1222 1233 1223
f 1223 1233 1234
f 1223 1234 1224
f 1224 1234 1235
f 1224 1235 1225
f 1225 1235 1236
f 1225 1236 1226
f 1226 1236 1237
f 1226 1237 1227
f 1227 1237 1238
f 1227 1238 1228
f 1228 1238 1239
f 1228 1239 1229
f 1229 1239 1240
f 1229 1240 1230
f 1230 1240 1231
f 1230 1231 1221
f 1231 1241 1242
f 1231 1242 1232
f 1232 1242 1243
f 1232 1243 1233
f 1233 1243 1244
f 1233 1244 1234
f 1234 1244 1245
f 1234 1245 1235
f 1235 1245 1246
f 1235 1246 1236
f 1236 1246 1247
f 1236 1247 1237
f 1237 1247 1248
f 1237 1248 1238
f 1238 1248 1249
f 1238 1249 1239
f 1239 1249 1250
f 1239 1250 1240
f 1240 1250 1241
f 1240 1241 1231
f 1241 1251 1252
f 1241 1252 1242
f 1242 1252 1253
f 1242 1253 1243
f 1243 1253 1254
f 1243 1254 1244
f 1244 1254 1255
f 1244 1255 1245
f 1245 1255 1256
f 1245 1256 1246
f 1246 1256 1257
f 1246 1257 1247
f 1247 1257 1258
f 1247 1258 1248
f 1248 1258 1259
f 1248 1259 1249
f 1249 1259 1260
f 1249 1260 1250
f 1250 1260 1251
f 1250 1251 1241
f 1251 1261 1262
f 1251 1262 1252
f 1252 1262 1263
f 1252 1263 1253
f 1253 1263 1264
f 1253 1264 1254
f 1254 1264 1265
f 1254 1265 1255
f 1255 1265 1266
f 1255 1266 1256
f 1256 1266 1267
f 1256 1267 1257
f 1257 1267 1268
f 1257 1268 1258
f 1258 1268 1269
f 1258 1269 1259
f 1259 1269 1270
f 1259 1270 1260
f 1260 1270 1261
f 1260 1261 1251
f 1261 1271 1272
f 1261 1272 1262
f 1262 1272 1273
f 1262 1273 1263
f 1263 1273 1274
f 1263 1274 1264
f 1264 1274 1275
f 1264 1275 1265
f 1265 1275 1276
f 1265 1276 1266
f 1266 1276 1277
f 1266 1277 1267
f 1267 1277 1278
f 1267 1278 1268
f 1268 1278 1279
f 1268 1279 1269
f 1269 1279 1280
f 1269 1280 1270
f 1270 1280 1271
f 1270 1271 1261
f 1271 1281 1282
f 1271 1282 1272
f 1272 1282 1283
f 1272 1283 1273
f 1273 1283 1284
f 1273 1284 1274
f 1274 1284 1285
f 1274 1285 1275
f 1275 1285 1286
f 1275 1286 1276
f 1276 1286 1287
f 1276 1287 1277
f 1277 1287 1288
f 1277 1288 1278
f 1278 1288 1289
f 1278 1289 1279
f 1279 1289 1290
f 1279 1290 1280
f 1280 1290 1281
f 1280 1281 1271
f 1281 1291 1292
f 1281 1292 1282
f 1282 1292 1293
f 1282 1293 1283
f 1283 1293 1294
f 1283 1294 1284
f 1284 1294 1295
f 1284 1295 1285
f 1285 1295 1296
f 1285 1296 1286
f 1286 1296 1297
f 1286 1297 1287
f 1287 1297 1298
f 1287 1298 1288
f 1288 1298 1299
f 1288 1299 1289
f 1289 1299 1300
f 1289 1300 1290
f 1290 1300 1291
f 1290 1291 1281
f 1291 1301 1302
f 1291 1302 1292
f 1292 1302 1303
f 1292 1303 1293
f 1293 1303 1304
f 1293 1304 1294
f 1294 1304 1305
f 1294 1305 1295
f 1295 1305 1306
f 1295 1306 1296
f 1296 1306 1307
f 1296 1307 1297
f 1297 1307 1308
f 1297 1308 1298
f 1298 1308 1309
f 1298 1309 1299
f 1299 1309 1310
f 1299 1310 1300
f 1300 1310 1301
f 1300 1301 1291
f 1301 1311 1312
f 1301 1312 1302
f 1302 1312 1313
f 1302 1313 1303
f 1303 1313 1314
f 1303 1314 1304
f 1304 1314 1315
f 1304 1315 1305
f 1305 1315 1316
f 1305 1316 1306
f 1306 1316 1317
f 1306 1317 1307
f 1307 1317 1318
f 1307 1318 1308
f 1308 1318 1319
f 1308 1319 1309
f 1309 1319 1320
f 1309 1320 1310
f 1310 1320 1311
f 1310 1311 1301
f 1311 1321 1322
f 1311 1322 1312
f 1312 1322 1323
f 1312 1323 1313
f 1313 1323 1324
f 1313 1324 1314
f 1314 1324 1325
f 1314 1325 1315
f 1315 1325 1326
f 1315 1326 1316
f 1316 1326 1327
f 1316 1327 1317
f 1317 1327 1328
f 1317 1328 1318
f 1318 1328 1329
f 1318 1329 1319
f 1319 1329 1330
f 1319 1330 1320
f 1320 1330 1321
f 1320 1321 1311
f 1321 1331 1332
f 1321 1332 1322
f 1322 1332 1333
f 1322 1333 1323
f 1323 1333 1334
f 1323 1334 1324
f 1324 1334 1335
f 1324 1335 1325
f 1325 1335 1336
f 1325 1336 1326
f 1326 1336 1337
f 1326 1337 1327
f 1327 1337 1338
f 1327 1338 1328
f 1328 1338 1339
f 1328 1339 1329
f 1329 1339 1340
f 1329 1340 1330
f 1330 1340 1331
f 1330 1331 1321
f 1331 1341 1342
f 1331 1342 1332
f 1332 1342 1343
f 1332 1343 1333
f 1333 1343 1344
f 1333 1344 1334
f 1334 1344 1345
f 1334 1345 1335
f 1335 1345 1346
f 1335 1346 1336
f 1336 1346 1347
f 1336 1347 1337
f 1337 1347 1348
f 1337 1348 1338
f 1338 1348 1349
f 1338 1349 1339
f 1339 1349 1350
f 1339 1350 1340
f 1340 1350 1341
f 1340 1341 1331
f 1341 1351 1352
f 1341 1352 1342
f 1342 1352 1353
f 1342 1353 1343
f 1343 1353 1354
f 1343 1354 1344
f 1344 1354 1355
f 1344 1355 1345
f 1345 1355 1356
f 1345 1356 1346
f 1346 1356 1357
f 1346 1357 1347
f 1347 1357 1358
f 1347 1358 1348
f 1348 1358 1359
f 1348 1359 1349
f 1349 1359 1360
f 1349 1360 1350
f 1350 1360 1351
f 1350 1351 1341
f 1351 1361 1362
f 1351 1362 1352
f 1352 1362 1363
f 1352 1363 1353
f 1353 1363 1364
f 1353 1364 1354
f 1354 1364 1365
f 1354 1365 1355
f 1355 1365 1366
f 1355 1366 1356
f 1356 1366 1367
f 1356 1367 1357
f 1357 1367 1368
f 1357 1368 1358
f 1358 1368 1369
f 1358 1369 1359
f 1359 1369 1370
f 1359 1370 1360
f 1360 1370 1361
f 1360 1361 1351
f 1361 1371 1372
f 1361 1372 1362
f 1362 1372 1373
f 1362 1373 1363
f 1363 1373 1374
f 1363 1374 1364
f 1364 1374 1375
f 1364 1375 1365
f 1365 1375 1376
f 1365 1376 1366
f 1366 1376 1377
f 1366 1377 1367
f 1367 1377 1378
f 1367 1378 1368
f 1368 1378 1379
f 1368 1379 1369
f 1369 1379 1380
f 1369 1380 1370
f 1370 1380 1371
f 1370 1371 1361
f 1371 1381 1382
f 1371 1382 1372
f 1372 1382 1383
f 1372 1383 1373
f 1373 1383 1384
f 1373 1384 1374
f 1374 1384 1385
f 1374 1385 1375
f 1375 1385 1386
f 1375 1386 1376
f 1376 1386 1387
f 1376 1387 1377
f 1377 1387 1388
f 1377 1388 1378
f 1378 1388 1389
f 1378 1389 1379
f 1379 1389 1390
f 1379 1390 1380
f 1380 1390 1381
f 1380 1381 1371
f 1381 1391 1392
f 1381 1392 1382
f 1382 1392 1393
f 1382 1393 1383
f 1383 1393 1394
f 1383 1394 1384
f 1384 1394 1395
f 1384 1395 1385
f 1385 1395 1396
f 1385 1396 1386
f 1386 1396 1397
f 1386 1397 1387
f 1387 1397 1398
f 1387 1398 1388
f 1388 1398 1399
f 1388 1399 1389
f 1389 1399 1400
f 1389 1400 1390
f 1390 1400 1391
f 1390 1391 1381
f 1391 1401 1402
f 1391 1402 1392
f 1392 1402 1403
f 1392 1403 1393
f 1393 1403 1404
f 1393 1404 1394
f 1394 1404 1405
f 1394 1405 1395
f 1395 1405 1406
f 1395 1406 1396
f 1396 1406 1407
f 1396 1407 1397
f 1397 1407 1408
f 1397 1408 1398
f 1398 1408 1409
f 1398 1409 1399
f 1399 1409 1410
f 1399 1410 1400
f 1400 1410 1401
f 1400 1401 1391
f 1401 1411 1412
f 1401 1412 1402
f 1402 1412 1413
f 1402 1413 1403
f 1403 1413 1414
f 1403 1414 1404
f 1404 1414 1415
f 1404 1415 1405
f 1405 1415 1416
f 1405 1416 1406
f 1406 1416 1417
f 1406 1417 1407
f 1407 1417 1418
f 1407 1418 1408
f 1408 1418 1419
f 1408 1419 1409
f 1409 1419 1420
f 1409 1420 1410
f 1410 1420 1411
f 1410 1411 1401
f 1411 1421 1422
f 1411 1422 1412
f 1412 1422 1423
f 1412 1423 1413
f 1413 1423 1424
f 1413 1424 1414
f 1414 1424 1425
f 1414 1425 1415
f 1415 1425 1426
f 1415 1426 1416
f 1416 1426 1427
f 1416 1427 1417
f 1417 1427 1428
f 1417 1428 1418
f 1418 1428 1429
f 1418 1429 1419
f 1419 1429 1430
f 1419 1430 1420
f 1420 1430 1421
f 1420 1421 1411
f 1421 1431 1432
f 1421 1432 1422
f 1422 1432 1433
f 1422 1433 1423
f 1423 1433 1434
f 1423 1434 1424
f 1424 1434 1435
f 1424 1435 1425
f 1425 1435 1436
f 1425 1436 1426
f 1426 1436 1437
f 1426 1437 1427
f 1427 1437 1438
f 1427 1438 1428
f 1428 1438 1439
f 1428 1439 1429
f 1429 1439 1440
f 1429 1440 1430
f 1430 1440 1431
f 1430 1431 1421
f 1431 961 962
f 1431 962 1432
f 1432 962 963
f 1432 963 1433
f 1433 963 964
f 1433 964 1434
f 1434 964 965
f 1434 965 1435
f 1435 965 966
f 1435 966 1436
f 1436 966 967
f 1436 967 1437
f 1437 967 968
f 1437 968 1438
f 1438 968 969
f 1438 969 1439
f 1439 969 970
f 1439 970 1440
f 1440 970 961
f 1440 961 1431
