# Zoomer visual mesh, local link coordinates in metres
v 0.0029013 0.0039894 -0.0041960
v 0.0029013 0.0046153 -0.0047982
v 0.0029013 0.0048372 -0.0052801
v 0.0029013 0.0049766 -0.0058413
v 0.0029013 0.0048372 -0.0076069
v 0.0029761 0.0039771 -0.0041960
v 0.0030458 0.0043024 -0.0044284
v 0.0031056 0.0045817 -0.0047982
v 0.0031515 0.0047960 -0.0052801
v 0.0031804 0.0049307 -0.0058413
v 0.0031902 0.0049766 -0.0064435
v 0.0031804 0.0049307 -0.0070457
v 0.0031515 0.0047960 -0.0076069
v 0.0031056 0.0045817 -0.0080888
v 0.0030458 0.0043024 -0.0084586
v 0.0029761 0.0039771 -0.0086910
v 0.0030458 0.0039410 -0.0041960
v 0.0031804 0.0042326 -0.0044284
v 0.0032960 0.0044830 -0.0047982
v 0.0033847 0.0046752 -0.0052801
v 0.0034405 0.0047960 -0.0058413
v 0.0034595 0.0048372 -0.0064435
v 0.0034405 0.0047960 -0.0070457
v 0.0033847 0.0046752 -0.0076069
v 0.0032960 0.0044830 -0.0080888
v 0.0031804 0.0042326 -0.0084586
v 0.0030458 0.0039410 -0.0086910
v 0.0031056 0.0038836 -0.0041960
v 0.0032960 0.0041217 -0.0044284
v 0.0034595 0.0043262 -0.0047982
v 0.0035850 0.0044830 -0.0052801
v 0.0036638 0.0045817 -0.0058413
v 0.0036907 0.0046153 -0.0064435
v 0.0036638 0.0045817 -0.0070457
v 0.0035850 0.0044830 -0.0076069
v 0.0034595 0.0043262 -0.0080888
v 0.0032960 0.0041217 -0.0084586
v 0.0031056 0.0038836 -0.0086910
v 0.0031515 0.0038088 -0.0041960
v 0.0033847 0.0039771 -0.0044284
v 0.0035850 0.0041217 -0.0047982
v 0.0037386 0.0042326 -0.0052801
v 0.0038352 0.0043024 -0.0058413
v 0.0038681 0.0043262 -0.0064435
v 0.0038352 0.0043024 -0.0070457
v 0.0037386 0.0042326 -0.0076069
v 0.0035850 0.0041217 -0.0080888
v 0.0033847 0.0039771 -0.0084586
v 0.0031515 0.0038088 -0.0086910
v 0.0031804 0.0037216 -0.0041960
v 0.0034405 0.0038088 -0.0044284
v 0.0036638 0.0038836 -0.0047982
v 0.0038352 0.0039410 -0.0052801
v 0.0039429 0.0039771 -0.0058413
v 0.0039797 0.0039894 -0.0064435
v 0.0039429 0.0039771 -0.0070457
v 0.0038352 0.0039410 -0.0076069
v 0.0036638 0.0038836 -0.0080888
v 0.0034405 0.0038088 -0.0084586
v 0.0031804 0.0037216 -0.0086910
v 0.0031902 0.0036281 -0.0041960
v 0.0034595 0.0036281 -0.0044284
v 0.0036907 0.0036281 -0.0047982
v 0.0038681 0.0036281 -0.0052801
v 0.0039797 0.0036281 -0.0058413
v 0.0040177 0.0036281 -0.0064435
v 0.0039797 0.0036281 -0.0070457
v 0.0038681 0.0036281 -0.0076069
v 0.0036907 0.0036281 -0.0080888
v 0.0034595 0.0036281 -0.0084586
v 0.0031902 0.0036281 -0.0086910
v 0.0031804 0.0035346 -0.0041960
v 0.0034405 0.0034474 -0.0044284
v 0.0036638 0.0033726 -0.0047982
v 0.0038352 0.0033152 -0.0052801
v 0.0039429 0.0032791 -0.0058413
v 0.0039797 0.0032668 -0.0064435
v 0.0039429 0.0032791 -0.0070457
v 0.0038352 0.0033152 -0.0076069
v 0.0036638 0.0033726 -0.0080888
v 0.0034405 0.0034474 -0.0084586
v 0.0031804 0.0035346 -0.0086910
v 0.0031515 0.0034474 -0.0041960
v 0.0033847 0.0032791 -0.0044284
v 0.0035850 0.0031345 -0.0047982
v 0.0037386 0.0030236 -0.0052801
v 0.0038352 0.0029539 -0.0058413
v 0.0038681 0.0029301 -0.0064435
v 0.0038352 0.0029539 -0.0070457
v 0.0037386 0.0030236 -0.0076069
v 0.0035850 0.0031345 -0.0080888
v 0.0033847 0.0032791 -0.0084586
v 0.0031515 0.0034474 -0.0086910
v 0.0031056 0.0033726 -0.0041960
v 0.0032960 0.0031345 -0.0044284
v 0.0034595 0.0029301 -0.0047982
v 0.0035850 0.0027732 -0.0052801
v 0.0036638 0.0026746 -0.0058413
v 0.0036907 0.0026409 -0.0064435
v 0.0036638 0.0026746 -0.0070457
v 0.0035850 0.0027732 -0.0076069
v 0.0034595 0.0029301 -0.0080888
v 0.0032960 0.0031345 -0.0084586
v 0.0031056 0.0033726 -0.0086910
v 0.0030458 0.0033152 -0.0041960
v 0.0031804 0.0030236 -0.0044284
v 0.0032960 0.0027732 -0.0047982
v 0.0033847 0.0025810 -0.0052801
v 0.0034405 0.0024603 -0.0058413
v 0.0034595 0.0024191 -0.0064435
v 0.0034405 0.0024603 -0.0070457
v 0.0033847 0.0025810 -0.0076069
v 0.0032960 0.0027732 -0.0080888
v 0.0031804 0.0030236 -0.0084586
v 0.0030458 0.0033152 -0.0086910
v 0.0029761 0.0032791 -0.0041960
v 0.0030458 0.0029539 -0.0044284
v 0.0031056 0.0026746 -0.0047982
v 0.0031515 0.0024603 -0.0052801
v 0.0031804 0.0023255 -0.0058413
v 0.0031902 0.0022796 -0.0064435
v 0.0031804 0.0023255 -0.0070457
v 0.0031515 0.0024603 -0.0076069
v 0.0031056 0.0026746 -0.0080888
v 0.0030458 0.0029539 -0.0084586
v 0.0029761 0.0032791 -0.0086910
v 0.0029013 0.0032668 -0.0041960
v 0.0029013 0.0029301 -0.0044284
v 0.0029013 0.0026409 -0.0047982
v 0.0029013 0.0024191 -0.0052801
v 0.0029013 0.0022796 -0.0058413
v 0.0029013 0.0022320 -0.0064435
v 0.0029013 0.0022796 -0.0070457
v 0.0029013 0.0024191 -0.0076069
v 0.0029013 0.0026409 -0.0080888
v 0.0029013 0.0029301 -0.0084586
v 0.0029013 0.0032668 -0.0086910
v 0.0028265 0.0032791 -0.0041960
v 0.0027568 0.0029539 -0.0044284
v 0.0026970 0.0026746 -0.0047982
v 0.0026511 0.0024603 -0.0052801
v 0.0026222 0.0023255 -0.0058413
v 0.0026123 0.0022796 -0.0064435
v 0.0026222 0.0023255 -0.0070457
v 0.0026511 0.0024603 -0.0076069
v 0.0026970 0.0026746 -0.0080888
v 0.0027568 0.0029539 -0.0084586
v 0.0028265 0.0032791 -0.0086910
v 0.0027568 0.0033152 -0.0041960
v 0.0026222 0.0030236 -0.0044284
v 0.0025066 0.0027732 -0.0047982
v 0.0024179 0.0025810 -0.0052801
v 0.0023621 0.0024603 -0.0058413
v 0.0023431 0.0024191 -0.0064435
v 0.0023621 0.0024603 -0.0070457
v 0.0024179 0.0025810 -0.0076069
v 0.0025066 0.0027732 -0.0080888
v 0.0026222 0.0030236 -0.0084586
v 0.0027568 0.0033152 -0.0086910
v 0.0029013 0.0036281 -0.0041167
v 0.0026970 0.0033726 -0.0041960
v 0.0025066 0.0031345 -0.0044284
v 0.0023431 0.0029301 -0.0047982
v 0.0022176 0.0027732 -0.0052801
v 0.0021388 0.0026746 -0.0058413
v 0.0021119 0.0026409 -0.0064435
v 0.0021388 0.0026746 -0.0070457
v 0.0022176 0.0027732 -0.0076069
v 0.0023431 0.0029301 -0.0080888
v 0.0025066 0.0031345 -0.0084586
v 0.0026970 0.0033726 -0.0086910
v 0.0026511 0.0034474 -0.0041960
v 0.0024179 0.0032791 -0.0044284
v 0.0022176 0.0031345 -0.0047982
v 0.0020640 0.0030236 -0.0052801
v 0.0019674 0.0029539 -0.0058413
v 0.0019345 0.0029301 -0.0064435
v 0.0019674 0.0029539 -0.0070457
v 0.0020640 0.0030236 -0.0076069
v 0.0022176 0.0031345 -0.0080888
v 0.0024179 0.0032791 -0.0084586
v 0.0026511 0.0034474 -0.0086910
v 0.0029013 0.0036281 -0.0087703
v 0.0026222 0.0035346 -0.0041960
v 0.0023621 0.0034474 -0.0044284
v 0.0021388 0.0033726 -0.0047982
v 0.0019674 0.0033152 -0.0052801
v 0.0018597 0.0032791 -0.0058413
v 0.0018229 0.0032668 -0.0064435
v 0.0018597 0.0032791 -0.0070457
v 0.0019674 0.0033152 -0.0076069
v 0.0021388 0.0033726 -0.0080888
v 0.0023621 0.0034474 -0.0084586
v 0.0026222 0.0035346 -0.0086910
v 0.0026123 0.0036281 -0.0041960
v 0.0023431 0.0036281 -0.0044284
v 0.0021119 0.0036281 -0.0047982
v 0.0019345 0.0036281 -0.0052801
v 0.0018229 0.0036281 -0.0058413
v 0.0017849 0.0036281 -0.0064435
v 0.0018229 0.0036281 -0.0070457
v 0.0019345 0.0036281 -0.0076069
v 0.0021119 0.0036281 -0.0080888
v 0.0023431 0.0036281 -0.0084586
v 0.0026123 0.0036281 -0.0086910
v 0.0026222 0.0037216 -0.0041960
v 0.0023621 0.0038088 -0.0044284
v 0.0021388 0.0038836 -0.0047982
v 0.0019674 0.0039410 -0.0052801
v 0.0018597 0.0039771 -0.0058413
v 0.0018229 0.0039894 -0.0064435
v 0.0018597 0.0039771 -0.0070457
v 0.0019674 0.0039410 -0.0076069
v 0.0021388 0.0038836 -0.0080888
v 0.0023621 0.0038088 -0.0084586
v 0.0026222 0.0037216 -0.0086910
v 0.0026511 0.0038088 -0.0041960
v 0.0024179 0.0039771 -0.0044284
v 0.0022176 0.0041217 -0.0047982
v 0.0020640 0.0042326 -0.0052801
v 0.0019674 0.0043024 -0.0058413
v 0.0019345 0.0043262 -0.0064435
v 0.0019674 0.0043024 -0.0070457
v 0.0020640 0.0042326 -0.0076069
v 0.0022176 0.0041217 -0.0080888
v 0.0024179 0.0039771 -0.0084586
v 0.0026511 0.0038088 -0.0086910
v 0.0026970 0.0038836 -0.0041960
v 0.0025066 0.0041217 -0.0044284
v 0.0023431 0.0043262 -0.0047982
v 0.0022176 0.0044830 -0.0052801
v 0.0021388 0.0045817 -0.0058413
v 0.0021119 0.0046153 -0.0064435
v 0.0021388 0.0045817 -0.0070457
v 0.0022176 0.0044830 -0.0076069
v 0.0023431 0.0043262 -0.0080888
v 0.0025066 0.0041217 -0.0084586
v 0.0026970 0.0038836 -0.0086910
v 0.0027568 0.0039410 -0.0041960
v 0.0026222 0.0042326 -0.0044284
v 0.0025066 0.0044830 -0.0047982
v 0.0024179 0.0046752 -0.0052801
v 0.0023621 0.0047960 -0.0058413
v 0.0023431 0.0048372 -0.0064435
v 0.0023621 0.0047960 -0.0070457
v 0.0024179 0.0046752 -0.0076069
v 0.0025066 0.0044830 -0.0080888
v 0.0026222 0.0042326 -0.0084586
v 0.0027568 0.0039410 -0.0086910
v 0.0028265 0.0039771 -0.0041960
v 0.0027568 0.0043024 -0.0044284
v 0.0026970 0.0045817 -0.0047982
v 0.0026511 0.0047960 -0.0052801
v 0.0026222 0.0049307 -0.0058413
v 0.0026123 0.0049766 -0.0064435
v 0.0026222 0.0049307 -0.0070457
v 0.0026511 0.0047960 -0.0076069
v 0.0026970 0.0045817 -0.0080888
v 0.0027568 0.0043024 -0.0084586
v 0.0028265 0.0039771 -0.0086910
v 0.0029013 0.0043262 -0.0044284
v 0.0029013 0.0050242 -0.0064435
v 0.0029013 0.0049766 -0.0070457
v 0.0029013 0.0046153 -0.0080888
v 0.0029013 0.0043262 -0.0084586
v 0.0029013 0.0039894 -0.0086910
f 265 264 14
f 265 14 15
f 263 262 11
f 263 11 12
f 3 2 8
f 3 8 9
f 266 265 15
f 266 15 16
f 1 160 6
f 5 263 12
f 5 12 13
f 4 3 9
f 4 9 10
f 183 266 16
f 261 1 6
f 261 6 7
f 264 5 13
f 264 13 14
f 262 4 10
f 262 10 11
f 2 261 7
f 2 7 8
f 10 9 20
f 10 20 21
f 183 16 27
f 7 6 17
f 7 17 18
f 14 13 24
f 14 24 25
f 11 10 21
f 11 21 22
f 8 7 18
f 8 18 19
f 15 14 25
f 15 25 26
f 12 11 22
f 12 22 23
f 9 8 19
f 9 19 20
f 16 15 26
f 16 26 27
f 6 160 17
f 13 12 23
f 13 23 24
f 23 22 33
f 23 33 34
f 20 19 30
f 20 30 31
f 27 26 37
f 27 37 38
f 17 160 28
f 24 23 34
f 24 34 35
f 21 20 31
f 21 31 32
f 183 27 38
f 18 17 28
f 18 28 29
f 25 24 35
f 25 35 36
f 22 21 32
f 22 32 33
f 19 18 29
f 19 29 30
f 26 25 36
f 26 36 37
f 33 32 43
f 33 43 44
f 30 29 40
f 30 40 41
f 37 36 47
f 37 47 48
f 34 33 44
f 34 44 45
f 31 30 41
f 31 41 42
f 38 37 48
f 38 48 49
f 28 160 39
f 35 34 45
f 35 45 46
f 32 31 42
f 32 42 43
f 183 38 49
f 29 28 39
f 29 39 40
f 36 35 46
f 36 46 47
f 46 45 56
f 46 56 57
f 43 42 53
f 43 53 54
f 183 49 60
f 40 39 50
f 40 50 51
f 47 46 57
f 47 57 58
f 44 43 54
f 44 54 55
f 41 40 51
f 41 51 52
f 48 47 58
f 48 58 59
f 45 44 55
f 45 55 56
f 42 41 52
f 42 52 53
f 49 48 59
f 49 59 60
f 39 160 50
f 56 55 66
f 56 66 67
f 53 52 63
f 53 63 64
f 60 59 70
f 60 70 71
f 50 160 61
f 57 56 67
f 57 67 68
f 54 53 64
f 54 64 65
f 183 60 71
f 51 50 61
f 51 61 62
f 58 57 68
f 58 68 69
f 55 54 65
f 55 65 66
f 52 51 62
f 52 62 63
f 59 58 69
f 59 69 70
f 69 68 79
f 69 79 80
f 66 65 76
f 66 76 77
f 63 62 73
f 63 73 74
f 70 69 80
f 70 80 81
f 67 66 77
f 67 77 78
f 64 63 74
f 64 74 75
f 71 70 81
f 71 81 82
f 61 160 72
f 68 67 78
f 68 78 79
f 65 64 75
f 65 75 76
f 183 71 82
f 62 61 72
f 62 72 73
f 72 160 83
f 79 78 89
f 79 89 90
f 76 75 86
f 76 86 87
f 183 82 93
f 73 72 83
f 73 83 84
f 80 79 90
f 80 90 91
f 77 76 87
f 77 87 88
f 74 73 84
f 74 84 85
f 81 80 91
f 81 91 92
f 78 77 88
f 78 88 89
f 75 74 85
f 75 85 86
f 82 81 92
f 82 92 93
f 92 91 102
f 92 102 103
f 89 88 99
f 89 99 100
f 86 85 96
f 86 96 97
f 93 92 103
f 93 103 104
f 83 160 94
f 90 89 100
f 90 100 101
f 87 86 97
f 87 97 98
f 183 93 104
f 84 83 94
f 84 94 95
f 91 90 101
f 91 101 102
f 88 87 98
f 88 98 99
f 85 84 95
f 85 95 96
f 95 94 105
f 95 105 106
f 102 101 112
f 102 112 113
f 99 98 109
f 99 109 110
f 96 95 106
f 96 106 107
f 103 102 113
f 103 113 114
f 100 99 110
f 100 110 111
f 97 96 107
f 97 107 108
f 104 103 114
f 104 114 115
f 94 160 105
f 101 100 111
f 101 111 112
f 98 97 108
f 98 108 109
f 183 104 115
f 115 114 125
f 115 125 126
f 105 160 116
f 112 111 122
f 112 122 123
f 109 108 119
f 109 119 120
f 183 115 126
f 106 105 116
f 106 116 117
f 113 112 123
f 113 123 124
f 110 109 120
f 110 120 121
f 107 106 117
f 107 117 118
f 114 113 124
f 114 124 125
f 111 110 121
f 111 121 122
f 108 107 118
f 108 118 119
f 118 117 128
f 118 128 129
f 125 124 135
f 125 135 136
f 122 121 132
f 122 132 133
f 119 118 129
f 119 129 130
f 126 125 136
f 126 136 137
f 116 160 127
f 123 122 133
f 123 133 134
f 120 119 130
f 120 130 131
f 183 126 137
f 117 116 127
f 117 127 128
f 124 123 134
f 124 134 135
f 121 120 131
f 121 131 132
f 183 137 148
f 128 127 138
f 128 138 139
f 135 134 145
f 135 145 146
f 132 131 142
f 132 142 143
f 129 128 139
f 129 139 140
f 136 135 146
f 136 146 147
f 133 132 143
f 133 143 144
f 130 129 140
f 130 140 141
f 137 136 147
f 137 147 148
f 127 160 138
f 134 133 144
f 134 144 145
f 131 130 141
f 131 141 142
f 141 140 151
f 141 151 152
f 148 147 158
f 148 158 159
f 138 160 149
f 145 144 155
f 145 155 156
f 142 141 152
f 142 152 153
f 183 148 159
f 139 138 149
f 139 149 150
f 146 145 156
f 146 156 157
f 143 142 153
f 143 153 154
f 140 139 150
f 140 150 151
f 147 146 157
f 147 157 158
f 144 143 154
f 144 154 155
f 151 150 162
f 151 162 163
f 158 157 169
f 158 169 170
f 155 154 166
f 155 166 167
f 152 151 163
f 152 163 164
f 159 158 170
f 159 170 171
f 149 160 161
f 156 155 167
f 156 167 168
f 153 152 164
f 153 164 165
f 183 159 171
f 150 149 161
f 150 161 162
f 157 156 168
f 157 168 169
f 154 153 165
f 154 165 166
f 165 164 175
f 165 175 176
f 183 171 182
f 162 161 172
f 162 172 173
f 169 168 179
f 169 179 180
f 166 165 176
f 166 176 177
f 163 162 173
f 163 173 174
f 170 169 180
f 170 180 181
f 167 166 177
f 167 177 178
f 164 163 174
f 164 174 175
f 171 170 181
f 171 181 182
f 161 160 172
f 168 167 178
f 168 178 179
f 175 174 186
f 175 186 187
f 182 181 193
f 182 193 194
f 172 160 184
f 179 178 190
f 179 190 191
f 176 175 187
f 176 187 188
f 183 182 194
f 173 172 184
f 173 184 185
f 180 179 191
f 180 191 192
f 177 176 188
f 177 188 189
f 174 173 185
f 174 185 186
f 181 180 192
f 181 192 193
f 178 177 189
f 178 189 190
f 189 188 199
f 189 199 200
f 186 185 196
f 186 196 197
f 193 192 203
f 193 203 204
f 190 189 200
f 190 200 201
f 187 186 197
f 187 197 198
f 194 193 204
f 194 204 205
f 184 160 195
f 191 190 201
f 191 201 202
f 188 187 198
f 188 198 199
f 183 194 205
f 185 184 195
f 185 195 196
f 192 191 202
f 192 202 203
f 199 198 209
f 199 209 210
f 183 205 216
f 196 195 206
f 196 206 207
f 203 202 213
f 203 213 214
f 200 199 210
f 200 210 211
f 197 196 207
f 197 207 208
f 204 203 214
f 204 214 215
f 201 200 211
f 201 211 212
f 198 197 208
f 198 208 209
f 205 204 215
f 205 215 216
f 195 160 206
f 202 201 212
f 202 212 213
f 212 211 222
f 212 222 223
f 209 208 219
f 209 219 220
f 216 215 226
f 216 226 227
f 206 160 217
f 213 212 223
f 213 223 224
f 210 209 220
f 210 220 221
f 183 216 227
f 207 206 217
f 207 217 218
f 214 213 224
f 214 224 225
f 211 210 221
f 211 221 222
f 208 207 218
f 208 218 219
f 215 214 225
f 215 225 226
f 222 221 232
f 222 232 233
f 219 218 229
f 219 229 230
f 226 225 236
f 226 236 237
f 223 222 233
f 223 233 234
f 220 219 230
f 220 230 231
f 227 226 237
f 227 237 238
f 217 160 228
f 224 223 234
f 224 234 235
f 221 220 231
f 221 231 232
f 183 227 238
f 218 217 228
f 218 228 229
f 225 224 235
f 225 235 236
f 235 234 245
f 235 245 246
f 232 231 242
f 232 242 243
f 183 238 249
f 229 228 239
f 229 239 240
f 236 235 246
f 236 246 247
f 233 232 243
f 233 243 244
f 230 229 240
f 230 240 241
f 237 236 247
f 237 247 248
f 234 233 244
f 234 244 245
f 231 230 241
f 231 241 242
f 238 237 248
f 238 248 249
f 228 160 239
f 245 244 255
f 245 255 256
f 242 241 252
f 242 252 253
f 249 248 259
f 249 259 260
f 239 160 250
f 246 245 256
f 246 256 257
f 243 242 253
f 243 253 254
f 183 249 260
f 240 239 250
f 240 250 251
f 247 246 257
f 247 257 258
f 244 243 254
f 244 254 255
f 241 240 251
f 241 251 252
f 248 247 258
f 248 258 259
f 258 257 5
f 258 5 264
f 255 254 4
f 255 4 262
f 252 251 261
f 252 261 2
f 259 258 264
f 259 264 265
f 256 255 262
f 256 262 263
f 253 252 2
f 253 2 3
f 260 259 265
f 260 265 266
f 250 160 1
f 257 256 263
f 257 263 5
f 254 253 3
f 254 3 4
f 183 260 266
f 251 250 1
f 251 1 261
