# Zoomer visual mesh, local link coordinates in metres
v -0.0003690 -0.0004329 0.0004815
v -0.0005923 -0.0006668 0.0004497
v -0.0004458 -0.0005091 0.0005306
v -0.0005275 -0.0005948 0.0005189
v -0.0036579 -0.0042736 -0.0056448
v -0.0036906 -0.0042850 -0.0053216
v -0.0037091 -0.0043200 -0.0055481
v -0.0037211 -0.0043242 -0.0054299
v -0.0000597 -0.0006486 0.0004507
v -0.0002127 -0.0009317 0.0004119
v -0.0001013 -0.0007494 0.0004963
v -0.0001573 -0.0008530 0.0004821
v -0.0033486 -0.0044893 -0.0056755
v -0.0033110 -0.0045498 -0.0053594
v -0.0033647 -0.0045603 -0.0055824
v -0.0033509 -0.0045824 -0.0054667
v 0.0002882 -0.0007494 0.0003272
v 0.0002144 -0.0010554 0.0002603
v 0.0002861 -0.0008617 0.0003587
v 0.0002591 -0.0009737 0.0003342
v -0.0030007 -0.0045901 -0.0057991
v -0.0028840 -0.0046736 -0.0055110
v -0.0029772 -0.0046726 -0.0057200
v -0.0029345 -0.0047031 -0.0056146
v 0.0006217 -0.0007200 0.0001297
v 0.0006237 -0.0010193 0.0000178
v 0.0006576 -0.0008289 0.0001387
v 0.0006583 -0.0009384 0.0000978
v -0.0026672 -0.0045607 -0.0059966
v -0.0024746 -0.0046374 -0.0057535
v -0.0026058 -0.0046398 -0.0059400
v -0.0025353 -0.0046679 -0.0058510
v 0.0008900 -0.0005647 -0.0001117
v 0.0009532 -0.0008287 -0.0002785
v 0.0009565 -0.0006560 -0.0001301
v 0.0009796 -0.0007526 -0.0001912
v -0.0023989 -0.0044054 -0.0062380
v -0.0021452 -0.0044468 -0.0060498
v -0.0023069 -0.0044669 -0.0062089
v -0.0022140 -0.0044820 -0.0061400
v 0.0010524 -0.0003073 -0.0003602
v 0.0011525 -0.0005127 -0.0005836
v 0.0011373 -0.0003693 -0.0004070
v 0.0011740 -0.0004445 -0.0004887
v -0.0022365 -0.0041480 -0.0064865
v -0.0019458 -0.0041309 -0.0063549
v -0.0021261 -0.0041802 -0.0064857
v -0.0020197 -0.0041739 -0.0064375
v 0.0010840 0.0000131 -0.0005781
v 0.0011913 -0.0001194 -0.0008510
v 0.0011726 -0.0000125 -0.0006496
v 0.0012118 -0.0000610 -0.0007495
v -0.0022049 -0.0038276 -0.0067044
v -0.0019070 -0.0037376 -0.0066223
v -0.0020908 -0.0038233 -0.0067283
v -0.0019818 -0.0037904 -0.0066983
v 0.0009802 0.0003476 -0.0007321
v 0.0010638 0.0002913 -0.0010401
v 0.0010569 0.0003602 -0.0008211
v 0.0010875 0.0003395 -0.0009338
v -0.0023087 -0.0034931 -0.0068583
v -0.0020345 -0.0033269 -0.0068113
v -0.0022065 -0.0034507 -0.0068998
v -0.0021061 -0.0033899 -0.0068826
v 0.0007566 0.0006454 -0.0007987
v 0.0007893 0.0006569 -0.0011219
v 0.0008078 0.0006919 -0.0008953
v 0.0008198 0.0006961 -0.0010136
v -0.0025323 -0.0031952 -0.0069250
v -0.0023090 -0.0029613 -0.0068932
v -0.0024555 -0.0031190 -0.0069741
v -0.0023738 -0.0030334 -0.0069624
v 0.0004473 0.0008612 -0.0007680
v 0.0004097 0.0009217 -0.0010841
v 0.0004634 0.0009322 -0.0008611
v 0.0004496 0.0009543 -0.0009768
v -0.0028416 -0.0029795 -0.0068942
v -0.0026886 -0.0026964 -0.0068554
v -0.0028000 -0.0028787 -0.0069398
v -0.0027440 -0.0027751 -0.0069256
v 0.0000994 0.0009620 -0.0006444
v -0.0000173 0.0010455 -0.0009325
v 0.0000759 0.0010445 -0.0007235
v 0.0000332 0.0010750 -0.0008289
v -0.0031895 -0.0028787 -0.0067707
v -0.0031157 -0.0025727 -0.0067038
v -0.0031874 -0.0027664 -0.0068022
v -0.0031604 -0.0026544 -0.0067777
v -0.0002341 0.0009326 -0.0004469
v -0.0004267 0.0010093 -0.0006900
v -0.0002955 0.0010117 -0.0005035
v -0.0003660 0.0010398 -0.0005925
v -0.0035230 -0.0029081 -0.0065732
v -0.0035250 -0.0026088 -0.0064613
v -0.0035589 -0.0027992 -0.0065822
v -0.0035596 -0.0026897 -0.0065413
v -0.0005024 0.0007773 -0.0002055
v -0.0007561 0.0008187 -0.0003937
v -0.0005944 0.0008387 -0.0002346
v -0.0006873 0.0008539 -0.0003035
v -0.0037913 -0.0030634 -0.0063318
v -0.0038545 -0.0027994 -0.0061650
v -0.0038578 -0.0029721 -0.0063134
v -0.0038809 -0.0028755 -0.0062523
v -0.0006648 0.0005199 0.0000430
v -0.0009554 0.0005027 -0.0000886
v -0.0007752 0.0005521 0.0000422
v -0.0008816 0.0005458 -0.0000060
v -0.0039537 -0.0033208 -0.0060833
v -0.0040538 -0.0031154 -0.0058599
v -0.0040386 -0.0032588 -0.0060365
v -0.0040752 -0.0031836 -0.0059548
v -0.0006964 0.0001995 0.0002609
v -0.0009943 0.0001095 0.0001788
v -0.0008105 0.0001952 0.0002848
v -0.0009195 0.0001623 0.0002548
v -0.0039853 -0.0036412 -0.0058654
v -0.0040926 -0.0035087 -0.0055925
v -0.0040739 -0.0036156 -0.0057939
v -0.0041131 -0.0035671 -0.0056940
v -0.0005925 -0.0001350 0.0004148
v -0.0008668 -0.0003012 0.0003678
v -0.0006948 -0.0001774 0.0004563
v -0.0007952 -0.0002382 0.0004391
v -0.0038815 -0.0039757 -0.0057114
v -0.0039651 -0.0039194 -0.0054034
v -0.0039582 -0.0039883 -0.0056224
v -0.0039888 -0.0039677 -0.0055097
f 2 10 12
f 2 12 4
f 4 12 11
f 4 11 3
f 3 11 9
f 3 9 1
f 14 6 8
f 14 8 16
f 16 8 7
f 16 7 15
f 15 7 5
f 15 5 13
f 10 18 20
f 10 20 12
f 12 20 19
f 12 19 11
f 11 19 17
f 11 17 9
f 22 14 16
f 22 16 24
f 24 16 15
f 24 15 23
f 23 15 13
f 23 13 21
f 18 26 28
f 18 28 20
f 20 28 27
f 20 27 19
f 19 27 25
f 19 25 17
f 30 22 24
f 30 24 32
f 32 24 23
f 32 23 31
f 31 23 21
f 31 21 29
f 26 34 36
f 26 36 28
f 28 36 35
f 28 35 27
f 27 35 33
f 27 33 25
f 38 30 32
f 38 32 40
f 40 32 31
f 40 31 39
f 39 31 29
f 39 29 37
f 34 42 44
f 34 44 36
f 36 44 43
f 36 43 35
f 35 43 41
f 35 41 33
f 46 38 40
f 46 40 48
f 48 40 39
f 48 39 47
f 47 39 37
f 47 37 45
f 42 50 52
f 42 52 44
f 44 52 51
f 44 51 43
f 43 51 49
f 43 49 41
f 54 46 48
f 54 48 56
f 56 48 47
f 56 47 55
f 55 47 45
f 55 45 53
f 50 58 60
f 50 60 52
f 52 60 59
f 52 59 51
f 51 59 57
f 51 57 49
f 62 54 56
f 62 56 64
f 64 56 55
f 64 55 63
f 63 55 53
f 63 53 61
f 58 66 68
f 58 68 60
f 60 68 67
f 60 67 59
f 59 67 65
f 59 65 57
f 70 62 64
f 70 64 72
f 72 64 63
f 72 63 71
f 71 63 61
f 71 61 69
f 66 74 76
f 66 76 68
f 68 76 75
f 68 75 67
f 67 75 73
f 67 73 65
f 78 70 72
f 78 72 80
f 80 72 71
f 80 71 79
f 79 71 69
f 79 69 77
f 74 82 84
f 74 84 76
f 76 84 83
f 76 83 75
f 75 83 81
f 75 81 73
f 86 78 80
f 86 80 88
f 88 80 79
f 88 79 87
f 87 79 77
f 87 77 85
f 82 90 92
f 82 92 84
f 84 92 91
f 84 91 83
f 83 91 89
f 83 89 81
f 94 86 88
f 94 88 96
f 96 88 87
f 96 87 95
f 95 87 85
f 95 85 93
f 90 98 100
f 90 100 92
f 92 100 99
f 92 99 91
f 91 99 97
f 91 97 89
f 102 94 96
f 102 96 104
f 104 96 95
f 104 95 103
f 103 95 93
f 103 93 101
f 98 106 108
f 98 108 100
f 100 108 107
f 100 107 99
f 99 107 105
f 99 105 97
f 110 102 104
f 110 104 112
f 112 104 103
f 112 103 111
f 111 103 101
f 111 101 109
f 106 114 116
f 106 116 108
f 108 116 115
f 108 115 107
f 107 115 113
f 107 113 105
f 118 110 112
f 118 112 120
f 120 112 111
f 120 111 119
f 119 111 109
f 119 109 117
f 114 122 124
f 114 124 116
f 116 124 123
f 116 123 115
f 115 123 121
f 115 121 113
f 126 118 120
f 126 120 128
f 128 120 119
f 128 119 127
f 127 119 117
f 127 117 125
f 122 2 4
f 122 4 124
f 124 4 3
f 124 3 123
f 123 3 1
f 123 1 121
f 6 126 128
f 6 128 8
f 8 128 127
f 8 127 7
f 7 127 125
f 7 125 5
f 121 1 9
f 9 17 25
f 25 33 41
f 41 49 57
f 57 65 73
f 73 81 89
f 89 97 105
f 105 113 121
f 121 9 25
f 25 41 57
f 57 73 89
f 89 105 121
f 121 25 57
f 57 89 121
f 2 6 14
f 2 14 10
f 122 126 6
f 122 6 2
f 21 13 5
f 5 125 117
f 117 109 101
f 101 93 85
f 85 77 69
f 69 61 53
f 53 45 37
f 37 29 21
f 21 5 117
f 117 101 85
f 85 69 53
f 53 37 21
f 21 117 85
f 85 53 21
f 10 14 22
f 10 22 18
f 18 22 30
f 18 30 26
f 26 30 38
f 26 38 34
f 34 38 46
f 34 46 42
f 42 46 54
f 42 54 50
f 50 54 62
f 50 62 58
f 58 62 70
f 58 70 66
f 66 70 78
f 66 78 74
f 74 78 86
f 74 86 82
f 82 86 94
f 82 94 90
f 90 94 102
f 90 102 98
f 98 102 110
f 98 110 106
f 106 110 118
f 106 118 114
f 114 118 126
f 114 126 122
