# Zoomer visual mesh, local link coordinates in metres
v 0.0026701 -0.0240199 0.0206776
v 0.0026701 -0.0240199 0.0199635
v 0.0027944 -0.0240199 0.0199638
v 0.0029100 -0.0240199 0.0199469
v 0.0030165 -0.0240199 0.0199137
v 0.0031134 -0.0240199 0.0198654
v 0.0032004 -0.0240199 0.0198032
v 0.0032771 -0.0240199 0.0197280
v 0.0033430 -0.0240199 0.0196412
v 0.0033979 -0.0240199 0.0195437
v 0.0034412 -0.0240199 0.0194367
v 0.0034727 -0.0240199 0.0193213
v 0.0034919 -0.0240199 0.0191986
v 0.0034983 -0.0240199 0.0190697
v 0.0034919 -0.0240199 0.0189413
v 0.0034731 -0.0240199 0.0188196
v 0.0034425 -0.0240199 0.0187055
v 0.0034010 -0.0240199 0.0185998
v 0.0033491 -0.0240199 0.0185035
v 0.0032875 -0.0240199 0.0184172
v 0.0032170 -0.0240199 0.0183419
v 0.0031381 -0.0240199 0.0182784
v 0.0030517 -0.0240199 0.0182276
v 0.0029583 -0.0240199 0.0181902
v 0.0028587 -0.0240199 0.0181672
v 0.0027536 -0.0240199 0.0181593
v 0.0027051 -0.0240199 0.0181604
v 0.0026580 -0.0240199 0.0181636
v 0.0026121 -0.0240199 0.0181691
v 0.0025669 -0.0240199 0.0181769
v 0.0025224 -0.0240199 0.0181872
v 0.0024781 -0.0240199 0.0182000
v 0.0024338 -0.0240199 0.0182154
v 0.0023892 -0.0240199 0.0182336
v 0.0023440 -0.0240199 0.0182544
v 0.0022981 -0.0240199 0.0182782
v 0.0022510 -0.0240199 0.0183049
v 0.0022025 -0.0240199 0.0183347
v 0.0022025 -0.0240199 0.0187565
v 0.0022435 -0.0240199 0.0187235
v 0.0022846 -0.0240199 0.0186932
v 0.0023258 -0.0240199 0.0186658
v 0.0023672 -0.0240199 0.0186411
v 0.0024086 -0.0240199 0.0186194
v 0.0024501 -0.0240199 0.0186004
v 0.0024917 -0.0240199 0.0185844
v 0.0025333 -0.0240199 0.0185712
v 0.0025750 -0.0240199 0.0185610
v 0.0026167 -0.0240199 0.0185536
v 0.0026584 -0.0240199 0.0185492
v 0.0027001 -0.0240199 0.0185477
v 0.0027634 -0.0240199 0.0185525
v 0.0028243 -0.0240199 0.0185663
v 0.0028822 -0.0240199 0.0185886
v 0.0029365 -0.0240199 0.0186187
v 0.0029867 -0.0240199 0.0186559
v 0.0030320 -0.0240199 0.0186996
v 0.0030720 -0.0240199 0.0187491
v 0.0031061 -0.0240199 0.0188039
v 0.0031336 -0.0240199 0.0188631
v 0.0031540 -0.0240199 0.0189262
v 0.0031667 -0.0240199 0.0189925
v 0.0031710 -0.0240199 0.0190614
v 0.0031649 -0.0240199 0.0191505
v 0.0031467 -0.0240199 0.0192351
v 0.0031168 -0.0240199 0.0193141
v 0.0030754 -0.0240199 0.0193862
v 0.0030230 -0.0240199 0.0194501
v 0.0029598 -0.0240199 0.0195046
v 0.0028862 -0.0240199 0.0195484
v 0.0028024 -0.0240199 0.0195802
v 0.0027089 -0.0240199 0.0195988
v 0.0026059 -0.0240199 0.0196029
v 0.0024938 -0.0240199 0.0195912
v 0.0023729 -0.0240199 0.0195626
v 0.0023729 -0.0240199 0.0210452
v 0.0033848 -0.0240199 0.0210452
v 0.0033848 -0.0240199 0.0206776
v 0.0010403 -0.0240199 0.0181969
v 0.0010403 -0.0240199 0.0210452
v 0.0013676 -0.0240199 0.0210452
v 0.0013676 -0.0240199 0.0181969
v 0.0001969 -0.0240199 0.0183760
v 0.0001915 -0.0240199 0.0183435
v 0.0001829 -0.0240199 0.0183126
v 0.0001713 -0.0240199 0.0182837
v 0.0001568 -0.0240199 0.0182570
v 0.0001398 -0.0240199 0.0182329
v 0.0001206 -0.0240199 0.0182117
v 0.0000993 -0.0240199 0.0181936
v 0.0000761 -0.0240199 0.0181791
v 0.0000514 -0.0240199 0.0181683
v 0.0000254 -0.0240199 0.0181616
v -0.0000017 -0.0240199 0.0181593
v -0.0000288 -0.0240199 0.0181616
v -0.0000548 -0.0240199 0.0181683
v -0.0000795 -0.0240199 0.0181791
v -0.0001026 -0.0240199 0.0181936
v -0.0001239 -0.0240199 0.0182117
v -0.0001432 -0.0240199 0.0182329
v -0.0001602 -0.0240199 0.0182570
v -0.0001746 -0.0240199 0.0182837
v -0.0001862 -0.0240199 0.0183126
v -0.0001949 -0.0240199 0.0183435
v -0.0002002 -0.0240199 0.0183760
v -0.0002021 -0.0240199 0.0184099
v -0.0002002 -0.0240199 0.0184438
v -0.0001949 -0.0240199 0.0184763
v -0.0001862 -0.0240199 0.0185072
v -0.0001746 -0.0240199 0.0185361
v -0.0001602 -0.0240199 0.0185628
v -0.0001432 -0.0240199 0.0185869
v -0.0001239 -0.0240199 0.0186081
v -0.0001026 -0.0240199 0.0186261
v -0.0000795 -0.0240199 0.0186407
v -0.0000548 -0.0240199 0.0186515
v -0.0000288 -0.0240199 0.0186582
v -0.0000017 -0.0240199 0.0186605
v 0.0000254 -0.0240199 0.0186582
v 0.0000514 -0.0240199 0.0186515
v 0.0000761 -0.0240199 0.0186407
v 0.0000993 -0.0240199 0.0186261
v 0.0001206 -0.0240199 0.0186081
v 0.0001398 -0.0240199 0.0185869
v 0.0001568 -0.0240199 0.0185628
v 0.0001713 -0.0240199 0.0185361
v 0.0001829 -0.0240199 0.0185072
v 0.0001915 -0.0240199 0.0184763
v 0.0001969 -0.0240199 0.0184438
v 0.0001987 -0.0240199 0.0184099
v 0.0001969 -0.0240199 0.0198252
v 0.0001915 -0.0240199 0.0197927
v 0.0001829 -0.0240199 0.0197618
v 0.0001713 -0.0240199 0.0197329
v 0.0001568 -0.0240199 0.0197062
v 0.0001398 -0.0240199 0.0196821
v 0.0001206 -0.0240199 0.0196609
v 0.0000993 -0.0240199 0.0196428
v 0.0000761 -0.0240199 0.0196283
v 0.0000514 -0.0240199 0.0196175
v 0.0000254 -0.0240199 0.0196108
v -0.0000017 -0.0240199 0.0196085
v -0.0000288 -0.0240199 0.0196108
v -0.0000548 -0.0240199 0.0196175
v -0.0000795 -0.0240199 0.0196283
v -0.0001026 -0.0240199 0.0196428
v -0.0001239 -0.0240199 0.0196609
v -0.0001432 -0.0240199 0.0196821
v -0.0001602 -0.0240199 0.0197062
v -0.0001746 -0.0240199 0.0197329
v -0.0001862 -0.0240199 0.0197618
v -0.0001949 -0.0240199 0.0197927
v -0.0002002 -0.0240199 0.0198252
v -0.0002021 -0.0240199 0.0198591
v -0.0002002 -0.0240199 0.0198930
v -0.0001949 -0.0240199 0.0199255
v -0.0001862 -0.0240199 0.0199564
v -0.0001746 -0.0240199 0.0199853
v -0.0001602 -0.0240199 0.0200120
v -0.0001432 -0.0240199 0.0200360
v -0.0001239 -0.0240199 0.0200573
v -0.0001026 -0.0240199 0.0200753
v -0.0000795 -0.0240199 0.0200899
v -0.0000548 -0.0240199 0.0201007
v -0.0000288 -0.0240199 0.0201074
v -0.0000017 -0.0240199 0.0201097
v 0.0000254 -0.0240199 0.0201074
v 0.0000514 -0.0240199 0.0201007
v 0.0000761 -0.0240199 0.0200899
v 0.0000993 -0.0240199 0.0200753
v 0.0001206 -0.0240199 0.0200573
v 0.0001398 -0.0240199 0.0200360
v 0.0001568 -0.0240199 0.0200120
v 0.0001713 -0.0240199 0.0199853
v 0.0001829 -0.0240199 0.0199564
v 0.0001915 -0.0240199 0.0199255
v 0.0001969 -0.0240199 0.0198930
v 0.0001987 -0.0240199 0.0198591
v -0.0013077 -0.0240199 0.0181713
v -0.0014081 -0.0240199 0.0182067
v -0.0015014 -0.0240199 0.0182644
v -0.0015870 -0.0240199 0.0183434
v -0.0016645 -0.0240199 0.0184427
v -0.0017333 -0.0240199 0.0185613
v -0.0017929 -0.0240199 0.0186981
v -0.0018428 -0.0240199 0.0188523
v -0.0018825 -0.0240199 0.0190226
v -0.0019115 -0.0240199 0.0192082
v -0.0019293 -0.0240199 0.0194080
v -0.0019354 -0.0240199 0.0196210
v -0.0019293 -0.0240199 0.0198340
v -0.0019115 -0.0240199 0.0200338
v -0.0018825 -0.0240199 0.0202194
v -0.0018428 -0.0240199 0.0203898
v -0.0017929 -0.0240199 0.0205439
v -0.0017333 -0.0240199 0.0206808
v -0.0016645 -0.0240199 0.0207994
v -0.0015870 -0.0240199 0.0208987
v -0.0015014 -0.0240199 0.0209777
v -0.0014081 -0.0240199 0.0210354
v -0.0013077 -0.0240199 0.0210707
v -0.0012006 -0.0240199 0.0210827
v -0.0010936 -0.0240199 0.0210707
v -0.0009931 -0.0240199 0.0210354
v -0.0008998 -0.0240199 0.0209777
v -0.0008142 -0.0240199 0.0208987
v -0.0007367 -0.0240199 0.0207994
v -0.0006679 -0.0240199 0.0206808
v -0.0006083 -0.0240199 0.0205439
v -0.0005584 -0.0240199 0.0203898
v -0.0005187 -0.0240199 0.0202194
v -0.0004897 -0.0240199 0.0200338
v -0.0004719 -0.0240199 0.0198340
v -0.0004659 -0.0240199 0.0196210
v -0.0004719 -0.0240199 0.0194080
v -0.0004897 -0.0240199 0.0192082
v -0.0005187 -0.0240199 0.0190226
v -0.0005584 -0.0240199 0.0188523
v -0.0006083 -0.0240199 0.0186981
v -0.0006679 -0.0240199 0.0185613
v -0.0007367 -0.0240199 0.0184427
v -0.0008142 -0.0240199 0.0183434
v -0.0008998 -0.0240199 0.0182644
v -0.0009931 -0.0240199 0.0182067
v -0.0010936 -0.0240199 0.0181713
v -0.0012006 -0.0240199 0.0181593
v -0.0012620 -0.0240199 0.0206860
v -0.0013189 -0.0240199 0.0206612
v -0.0013714 -0.0240199 0.0206206
v -0.0014191 -0.0240199 0.0205646
v -0.0014618 -0.0240199 0.0204936
v -0.0014995 -0.0240199 0.0204083
v -0.0015319 -0.0240199 0.0203090
v -0.0015588 -0.0240199 0.0201963
v -0.0015801 -0.0240199 0.0200706
v -0.0015955 -0.0240199 0.0199325
v -0.0016049 -0.0240199 0.0197825
v -0.0016081 -0.0240199 0.0196210
v -0.0016049 -0.0240199 0.0194595
v -0.0015955 -0.0240199 0.0193095
v -0.0015801 -0.0240199 0.0191714
v -0.0015588 -0.0240199 0.0190458
v -0.0015319 -0.0240199 0.0189331
v -0.0014995 -0.0240199 0.0188338
v -0.0014618 -0.0240199 0.0187484
v -0.0014191 -0.0240199 0.0186775
v -0.0013714 -0.0240199 0.0186214
v -0.0013189 -0.0240199 0.0185808
v -0.0012620 -0.0240199 0.0185561
v -0.0012006 -0.0240199 0.0185477
v -0.0011393 -0.0240199 0.0185561
v -0.0010823 -0.0240199 0.0185808
v -0.0010299 -0.0240199 0.0186214
v -0.0009822 -0.0240199 0.0186775
v -0.0009394 -0.0240199 0.0187484
v -0.0009017 -0.0240199 0.0188338
v -0.0008693 -0.0240199 0.0189331
v -0.0008424 -0.0240199 0.0190458
v -0.0008211 -0.0240199 0.0191714
v -0.0008057 -0.0240199 0.0193095
v -0.0007963 -0.0240199 0.0194595
v -0.0007932 -0.0240199 0.0196210
v -0.0007963 -0.0240199 0.0197825
v -0.0008057 -0.0240199 0.0199325
v -0.0008211 -0.0240199 0.0200706
v -0.0008424 -0.0240199 0.0201963
v -0.0008693 -0.0240199 0.0203090
v -0.0009017 -0.0240199 0.0204083
v -0.0009394 -0.0240199 0.0204936
v -0.0009822 -0.0240199 0.0205646
v -0.0010299 -0.0240199 0.0206206
v -0.0010823 -0.0240199 0.0206612
v -0.0011393 -0.0240199 0.0206860
v -0.0012006 -0.0240199 0.0206943
v -0.0030308 -0.0240199 0.0181969
v -0.0030308 -0.0240199 0.0210452
v -0.0027035 -0.0240199 0.0210452
v -0.0027035 -0.0240199 0.0181969
v 0.0026701 -0.0239483 0.0206776
v 0.0026701 -0.0239483 0.0199635
v 0.0027944 -0.0239483 0.0199638
v 0.0029100 -0.0239483 0.0199469
v 0.0030165 -0.0239483 0.0199137
v 0.0031134 -0.0239483 0.0198654
v 0.0032004 -0.0239483 0.0198032
v 0.0032771 -0.0239483 0.0197280
v 0.0033430 -0.0239483 0.0196412
v 0.0033979 -0.0239483 0.0195437
v 0.0034412 -0.0239483 0.0194367
v 0.0034727 -0.0239483 0.0193213
v 0.0034919 -0.0239483 0.0191986
v 0.0034983 -0.0239483 0.0190697
v 0.0034919 -0.0239483 0.0189413
v 0.0034731 -0.0239483 0.0188196
v 0.0034425 -0.0239483 0.0187055
v 0.0034010 -0.0239483 0.0185998
v 0.0033491 -0.0239483 0.0185035
v 0.0032875 -0.0239483 0.0184172
v 0.0032170 -0.0239483 0.0183419
v 0.0031381 -0.0239483 0.0182784
v 0.0030517 -0.0239483 0.0182276
v 0.0029583 -0.0239483 0.0181902
v 0.0028587 -0.0239483 0.0181672
v 0.0027536 -0.0239483 0.0181593
v 0.0027051 -0.0239483 0.0181604
v 0.0026580 -0.0239483 0.0181636
v 0.0026121 -0.0239483 0.0181691
v 0.0025669 -0.0239483 0.0181769
v 0.0025224 -0.0239483 0.0181872
v 0.0024781 -0.0239483 0.0182000
v 0.0024338 -0.0239483 0.0182154
v 0.0023892 -0.0239483 0.0182336
v 0.0023440 -0.0239483 0.0182544
v 0.0022981 -0.0239483 0.0182782
v 0.0022510 -0.0239483 0.0183049
v 0.0022025 -0.0239483 0.0183347
v 0.0022025 -0.0239483 0.0187565
v 0.0022435 -0.0239483 0.0187235
v 0.0022846 -0.0239483 0.0186932
v 0.0023258 -0.0239483 0.0186658
v 0.0023672 -0.0239483 0.0186411
v 0.0024086 -0.0239483 0.0186194
v 0.0024501 -0.0239483 0.0186004
v 0.0024917 -0.0239483 0.0185844
v 0.0025333 -0.0239483 0.0185712
v 0.0025750 -0.0239483 0.0185610
v 0.0026167 -0.0239483 0.0185536
v 0.0026584 -0.0239483 0.0185492
v 0.0027001 -0.0239483 0.0185477
v 0.0027634 -0.0239483 0.0185525
v 0.0028243 -0.0239483 0.0185663
v 0.0028822 -0.0239483 0.0185886
v 0.0029365 -0.0239483 0.0186187
v 0.0029867 -0.0239483 0.0186559
v 0.0030320 -0.0239483 0.0186996
v 0.0030720 -0.0239483 0.0187491
v 0.0031061 -0.0239483 0.0188039
v 0.0031336 -0.0239483 0.0188631
v 0.0031540 -0.0239483 0.0189262
v 0.0031667 -0.0239483 0.0189925
v 0.0031710 -0.0239483 0.0190614
v 0.0031649 -0.0239483 0.0191505
v 0.0031467 -0.0239483 0.0192351
v 0.0031168 -0.0239483 0.0193141
v 0.0030754 -0.0239483 0.0193862
v 0.0030230 -0.0239483 0.0194501
v 0.0029598 -0.0239483 0.0195046
v 0.0028862 -0.0239483 0.0195484
v 0.0028024 -0.0239483 0.0195802
v 0.0027089 -0.0239483 0.0195988
v 0.0026059 -0.0239483 0.0196029
v 0.0024938 -0.0239483 0.0195912
v 0.0023729 -0.0239483 0.0195626
v 0.0023729 -0.0239483 0.0210452
v 0.0033848 -0.0239483 0.0210452
v 0.0033848 -0.0239483 0.0206776
v 0.0010403 -0.0239483 0.0181969
v 0.0010403 -0.0239483 0.0210452
v 0.0013676 -0.0239483 0.0210452
v 0.0013676 -0.0239483 0.0181969
v 0.0001969 -0.0239483 0.0183760
v 0.0001915 -0.0239483 0.0183435
v 0.0001829 -0.0239483 0.0183126
v 0.0001713 -0.0239483 0.0182837
v 0.0001568 -0.0239483 0.0182570
v 0.0001398 -0.0239483 0.0182329
v 0.0001206 -0.0239483 0.0182117
v 0.0000993 -0.0239483 0.0181936
v 0.0000761 -0.0239483 0.0181791
v 0.0000514 -0.0239483 0.0181683
v 0.0000254 -0.0239483 0.0181616
v -0.0000017 -0.0239483 0.0181593
v -0.0000288 -0.0239483 0.0181616
v -0.0000548 -0.0239483 0.0181683
v -0.0000795 -0.0239483 0.0181791
v -0.0001026 -0.0239483 0.0181936
v -0.0001239 -0.0239483 0.0182117
v -0.0001432 -0.0239483 0.0182329
v -0.0001602 -0.0239483 0.0182570
v -0.0001746 -0.0239483 0.0182837
v -0.0001862 -0.0239483 0.0183126
v -0.0001949 -0.0239483 0.0183435
v -0.0002002 -0.0239483 0.0183760
v -0.0002021 -0.0239483 0.0184099
v -0.0002002 -0.0239483 0.0184438
v -0.0001949 -0.0239483 0.0184763
v -0.0001862 -0.0239483 0.0185072
v -0.0001746 -0.0239483 0.0185361
v -0.0001602 -0.0239483 0.0185628
v -0.0001432 -0.0239483 0.0185869
v -0.0001239 -0.0239483 0.0186081
v -0.0001026 -0.0239483 0.0186261
v -0.0000795 -0.0239483 0.0186407
v -0.0000548 -0.0239483 0.0186515
v -0.0000288 -0.0239483 0.0186582
v -0.0000017 -0.0239483 0.0186605
v 0.0000254 -0.0239483 0.0186582
v 0.0000514 -0.0239483 0.0186515
v 0.0000761 -0.0239483 0.0186407
v 0.0000993 -0.0239483 0.0186261
v 0.0001206 -0.0239483 0.0186081
v 0.0001398 -0.0239483 0.0185869
v 0.0001568 -0.0239483 0.0185628
v 0.0001713 -0.0239483 0.0185361
v 0.0001829 -0.0239483 0.0185072
v 0.0001915 -0.0239483 0.0184763
v 0.0001969 -0.0239483 0.0184438
v 0.0001987 -0.0239483 0.0184099
v 0.0001969 -0.0239483 0.0198252
v 0.0001915 -0.0239483 0.0197927
v 0.0001829 -0.0239483 0.0197618
v 0.0001713 -0.0239483 0.0197329
v 0.0001568 -0.0239483 0.0197062
v 0.0001398 -0.0239483 0.0196821
v 0.0001206 -0.0239483 0.0196609
v 0.0000993 -0.0239483 0.0196428
v 0.0000761 -0.0239483 0.0196283
v 0.0000514 -0.0239483 0.0196175
v 0.0000254 -0.0239483 0.0196108
v -0.0000017 -0.0239483 0.0196085
v -0.0000288 -0.0239483 0.0196108
v -0.0000548 -0.0239483 0.0196175
v -0.0000795 -0.0239483 0.0196283
v -0.0001026 -0.0239483 0.0196428
v -0.0001239 -0.0239483 0.0196609
v -0.0001432 -0.0239483 0.0196821
v -0.0001602 -0.0239483 0.0197062
v -0.0001746 -0.0239483 0.0197329
v -0.0001862 -0.0239483 0.0197618
v -0.0001949 -0.0239483 0.0197927
v -0.0002002 -0.0239483 0.0198252
v -0.0002021 -0.0239483 0.0198591
v -0.0002002 -0.0239483 0.0198930
v -0.0001949 -0.0239483 0.0199255
v -0.0001862 -0.0239483 0.0199564
v -0.0001746 -0.0239483 0.0199853
v -0.0001602 -0.0239483 0.0200120
v -0.0001432 -0.0239483 0.0200360
v -0.0001239 -0.0239483 0.0200573
v -0.0001026 -0.0239483 0.0200753
v -0.0000795 -0.0239483 0.0200899
v -0.0000548 -0.0239483 0.0201007
v -0.0000288 -0.0239483 0.0201074
v -0.0000017 -0.0239483 0.0201097
v 0.0000254 -0.0239483 0.0201074
v 0.0000514 -0.0239483 0.0201007
v 0.0000761 -0.0239483 0.0200899
v 0.0000993 -0.0239483 0.0200753
v 0.0001206 -0.0239483 0.0200573
v 0.0001398 -0.0239483 0.0200360
v 0.0001568 -0.0239483 0.0200120
v 0.0001713 -0.0239483 0.0199853
v 0.0001829 -0.0239483 0.0199564
v 0.0001915 -0.0239483 0.0199255
v 0.0001969 -0.0239483 0.0198930
v 0.0001987 -0.0239483 0.0198591
v -0.0013077 -0.0239483 0.0181713
v -0.0014081 -0.0239483 0.0182067
v -0.0015014 -0.0239483 0.0182644
v -0.0015870 -0.0239483 0.0183434
v -0.0016645 -0.0239483 0.0184427
v -0.0017333 -0.0239483 0.0185613
v -0.0017929 -0.0239483 0.0186981
v -0.0018428 -0.0239483 0.0188523
v -0.0018825 -0.0239483 0.0190226
v -0.0019115 -0.0239483 0.0192082
v -0.0019293 -0.0239483 0.0194080
v -0.0019354 -0.0239483 0.0196210
v -0.0019293 -0.0239483 0.0198340
v -0.0019115 -0.0239483 0.0200338
v -0.0018825 -0.0239483 0.0202194
v -0.0018428 -0.0239483 0.0203898
v -0.0017929 -0.0239483 0.0205439
v -0.0017333 -0.0239483 0.0206808
v -0.0016645 -0.0239483 0.0207994
v -0.0015870 -0.0239483 0.0208987
v -0.0015014 -0.0239483 0.0209777
v -0.0014081 -0.0239483 0.0210354
v -0.0013077 -0.0239483 0.0210707
v -0.0012006 -0.0239483 0.0210827
v -0.0010936 -0.0239483 0.0210707
v -0.0009931 -0.0239483 0.0210354
v -0.0008998 -0.0239483 0.0209777
v -0.0008142 -0.0239483 0.0208987
v -0.0007367 -0.0239483 0.0207994
v -0.0006679 -0.0239483 0.0206808
v -0.0006083 -0.0239483 0.0205439
v -0.0005584 -0.0239483 0.0203898
v -0.0005187 -0.0239483 0.0202194
v -0.0004897 -0.0239483 0.0200338
v -0.0004719 -0.0239483 0.0198340
v -0.0004659 -0.0239483 0.0196210
v -0.0004719 -0.0239483 0.0194080
v -0.0004897 -0.0239483 0.0192082
v -0.0005187 -0.0239483 0.0190226
v -0.0005584 -0.0239483 0.0188523
v -0.0006083 -0.0239483 0.0186981
v -0.0006679 -0.0239483 0.0185613
v -0.0007367 -0.0239483 0.0184427
v -0.0008142 -0.0239483 0.0183434
v -0.0008998 -0.0239483 0.0182644
v -0.0009931 -0.0239483 0.0182067
v -0.0010936 -0.0239483 0.0181713
v -0.0012006 -0.0239483 0.0181593
v -0.0012620 -0.0239483 0.0206860
v -0.0013189 -0.0239483 0.0206612
v -0.0013714 -0.0239483 0.0206206
v -0.0014191 -0.0239483 0.0205646
v -0.0014618 -0.0239483 0.0204936
v -0.0014995 -0.0239483 0.0204083
v -0.0015319 -0.0239483 0.0203090
v -0.0015588 -0.0239483 0.0201963
v -0.0015801 -0.0239483 0.0200706
v -0.0015955 -0.0239483 0.0199325
v -0.0016049 -0.0239483 0.0197825
v -0.0016081 -0.0239483 0.0196210
v -0.0016049 -0.0239483 0.0194595
v -0.0015955 -0.0239483 0.0193095
v -0.0015801 -0.0239483 0.0191714
v -0.0015588 -0.0239483 0.0190458
v -0.0015319 -0.0239483 0.0189331
v -0.0014995 -0.0239483 0.0188338
v -0.0014618 -0.0239483 0.0187484
v -0.0014191 -0.0239483 0.0186775
v -0.0013714 -0.0239483 0.0186214
v -0.0013189 -0.0239483 0.0185808
v -0.0012620 -0.0239483 0.0185561
v -0.0012006 -0.0239483 0.0185477
v -0.0011393 -0.0239483 0.0185561
v -0.0010823 -0.0239483 0.0185808
v -0.0010299 -0.0239483 0.0186214
v -0.0009822 -0.0239483 0.0186775
v -0.0009394 -0.0239483 0.0187484
v -0.0009017 -0.0239483 0.0188338
v -0.0008693 -0.0239483 0.0189331
v -0.0008424 -0.0239483 0.0190458
v -0.0008211 -0.0239483 0.0191714
v -0.0008057 -0.0239483 0.0193095
v -0.0007963 -0.0239483 0.0194595
v -0.0007932 -0.0239483 0.0196210
v -0.0007963 -0.0239483 0.0197825
v -0.0008057 -0.0239483 0.0199325
v -0.0008211 -0.0239483 0.0200706
v -0.0008424 -0.0239483 0.0201963
v -0.0008693 -0.0239483 0.0203090
v -0.0009017 -0.0239483 0.0204083
v -0.0009394 -0.0239483 0.0204936
v -0.0009822 -0.0239483 0.0205646
v -0.0010299 -0.0239483 0.0206206
v -0.0010823 -0.0239483 0.0206612
v -0.0011393 -0.0239483 0.0206860
v -0.0012006 -0.0239483 0.0206943
v -0.0030308 -0.0239483 0.0181969
v -0.0030308 -0.0239483 0.0210452
v -0.0027035 -0.0239483 0.0210452
v -0.0027035 -0.0239483 0.0181969
v -0.0030308 -0.0239483 0.0181969
v -0.0030308 -0.0240199 0.0181969
v -0.0030308 -0.0239483 0.0210452
v -0.0030308 -0.0240199 0.0210452
v -0.0027035 -0.0239483 0.0210452
v -0.0027035 -0.0240199 0.0210452
v -0.0027035 -0.0239483 0.0181969
v -0.0027035 -0.0240199 0.0181969
v -0.0013077 -0.0239483 0.0181713
v -0.0013077 -0.0240199 0.0181713
v -0.0014081 -0.0239483 0.0182067
v -0.0014081 -0.0240199 0.0182067
v -0.0015014 -0.0239483 0.0182644
v -0.0015014 -0.0240199 0.0182644
v -0.0015870 -0.0239483 0.0183434
v -0.0015870 -0.0240199 0.0183434
v -0.0016645 -0.0239483 0.0184427
v -0.0016645 -0.0240199 0.0184427
v -0.0017333 -0.0239483 0.0185613
v -0.0017333 -0.0240199 0.0185613
v -0.0017929 -0.0239483 0.0186981
v -0.0017929 -0.0240199 0.0186981
v -0.0018428 -0.0239483 0.0188523
v -0.0018428 -0.0240199 0.0188523
v -0.0018825 -0.0239483 0.0190226
v -0.0018825 -0.0240199 0.0190226
v -0.0019115 -0.0239483 0.0192082
v -0.0019115 -0.0240199 0.0192082
v -0.0019293 -0.0239483 0.0194080
v -0.0019293 -0.0240199 0.0194080
v -0.0019354 -0.0239483 0.0196210
v -0.0019354 -0.0240199 0.0196210
v -0.0019293 -0.0239483 0.0198340
v -0.0019293 -0.0240199 0.0198340
v -0.0019115 -0.0239483 0.0200338
v -0.0019115 -0.0240199 0.0200338
v -0.0018825 -0.0239483 0.0202194
v -0.0018825 -0.0240199 0.0202194
v -0.0018428 -0.0239483 0.0203898
v -0.0018428 -0.0240199 0.0203898
v -0.0017929 -0.0239483 0.0205439
v -0.0017929 -0.0240199 0.0205439
v -0.0017333 -0.0239483 0.0206808
v -0.0017333 -0.0240199 0.0206808
v -0.0016645 -0.0239483 0.0207994
v -0.0016645 -0.0240199 0.0207994
v -0.0015870 -0.0239483 0.0208987
v -0.0015870 -0.0240199 0.0208987
v -0.0015014 -0.0239483 0.0209777
v -0.0015014 -0.0240199 0.0209777
v -0.0014081 -0.0239483 0.0210354
v -0.0014081 -0.0240199 0.0210354
v -0.0013077 -0.0239483 0.0210707
v -0.0013077 -0.0240199 0.0210707
v -0.0012006 -0.0239483 0.0210827
v -0.0012006 -0.0240199 0.0210827
v -0.0010936 -0.0239483 0.0210707
v -0.0010936 -0.0240199 0.0210707
v -0.0009931 -0.0239483 0.0210354
v -0.0009931 -0.0240199 0.0210354
v -0.0008998 -0.0239483 0.0209777
v -0.0008998 -0.0240199 0.0209777
v -0.0008142 -0.0239483 0.0208987
v -0.0008142 -0.0240199 0.0208987
v -0.0007367 -0.0239483 0.0207994
v -0.0007367 -0.0240199 0.0207994
v -0.0006679 -0.0239483 0.0206808
v -0.0006679 -0.0240199 0.0206808
v -0.0006083 -0.0239483 0.0205439
v -0.0006083 -0.0240199 0.0205439
v -0.0005584 -0.0239483 0.0203898
v -0.0005584 -0.0240199 0.0203898
v -0.0005187 -0.0239483 0.0202194
v -0.0005187 -0.0240199 0.0202194
v -0.0004897 -0.0239483 0.0200338
v -0.0004897 -0.0240199 0.0200338
v -0.0004719 -0.0239483 0.0198340
v -0.0004719 -0.0240199 0.0198340
v -0.0004659 -0.0239483 0.0196210
v -0.0004659 -0.0240199 0.0196210
v -0.0004719 -0.0239483 0.0194080
v -0.0004719 -0.0240199 0.0194080
v -0.0004897 -0.0239483 0.0192082
v -0.0004897 -0.0240199 0.0192082
v -0.0005187 -0.0239483 0.0190226
v -0.0005187 -0.0240199 0.0190226
v -0.0005584 -0.0239483 0.0188523
v -0.0005584 -0.0240199 0.0188523
v -0.0006083 -0.0239483 0.0186981
v -0.0006083 -0.0240199 0.0186981
v -0.0006679 -0.0239483 0.0185613
v -0.0006679 -0.0240199 0.0185613
v -0.0007367 -0.0239483 0.0184427
v -0.0007367 -0.0240199 0.0184427
v -0.0008142 -0.0239483 0.0183434
v -0.0008142 -0.0240199 0.0183434
v -0.0008998 -0.0239483 0.0182644
v -0.0008998 -0.0240199 0.0182644
v -0.0009931 -0.0239483 0.0182067
v -0.0009931 -0.0240199 0.0182067
v -0.0010936 -0.0239483 0.0181713
v -0.0010936 -0.0240199 0.0181713
v -0.0012006 -0.0239483 0.0181593
v -0.0012006 -0.0240199 0.0181593
v -0.0012620 -0.0239483 0.0206860
v -0.0012620 -0.0240199 0.0206860
v -0.0013189 -0.0239483 0.0206612
v -0.0013189 -0.0240199 0.0206612
v -0.0013714 -0.0239483 0.0206206
v -0.0013714 -0.0240199 0.0206206
v -0.0014191 -0.0239483 0.0205646
v -0.0014191 -0.0240199 0.0205646
v -0.0014618 -0.0239483 0.0204936
v -0.0014618 -0.0240199 0.0204936
v -0.0014995 -0.0239483 0.0204083
v -0.0014995 -0.0240199 0.0204083
v -0.0015319 -0.0239483 0.0203090
v -0.0015319 -0.0240199 0.0203090
v -0.0015588 -0.0239483 0.0201963
v -0.0015588 -0.0240199 0.0201963
v -0.0015801 -0.0239483 0.0200706
v -0.0015801 -0.0240199 0.0200706
v -0.0015955 -0.0239483 0.0199325
v -0.0015955 -0.0240199 0.0199325
v -0.0016049 -0.0239483 0.0197825
v -0.0016049 -0.0240199 0.0197825
v -0.0016081 -0.0239483 0.0196210
v -0.0016081 -0.0240199 0.0196210
v -0.0016049 -0.0239483 0.0194595
v -0.0016049 -0.0240199 0.0194595
v -0.0015955 -0.0239483 0.0193095
v -0.0015955 -0.0240199 0.0193095
v -0.0015801 -0.0239483 0.0191714
v -0.0015801 -0.0240199 0.0191714
v -0.0015588 -0.0239483 0.0190458
v -0.0015588 -0.0240199 0.0190458
v -0.0015319 -0.0239483 0.0189331
v -0.0015319 -0.0240199 0.0189331
v -0.0014995 -0.0239483 0.0188338
v -0.0014995 -0.0240199 0.0188338
v -0.0014618 -0.0239483 0.0187484
v -0.0014618 -0.0240199 0.0187484
v -0.0014191 -0.0239483 0.0186775
v -0.0014191 -0.0240199 0.0186775
v -0.0013714 -0.0239483 0.0186214
v -0.0013714 -0.0240199 0.0186214
v -0.0013189 -0.0239483 0.0185808
v -0.0013189 -0.0240199 0.0185808
v -0.0012620 -0.0239483 0.0185561
v -0.0012620 -0.0240199 0.0185561
v -0.0012006 -0.0239483 0.0185477
v -0.0012006 -0.0240199 0.0185477
v -0.0011393 -0.0239483 0.0185561
v -0.0011393 -0.0240199 0.0185561
v -0.0010823 -0.0239483 0.0185808
v -0.0010823 -0.0240199 0.0185808
v -0.0010299 -0.0239483 0.0186214
v -0.0010299 -0.0240199 0.0186214
v -0.0009822 -0.0239483 0.0186775
v -0.0009822 -0.0240199 0.0186775
v -0.0009394 -0.0239483 0.0187484
v -0.0009394 -0.0240199 0.0187484
v -0.0009017 -0.0239483 0.0188338
v -0.0009017 -0.0240199 0.0188338
v -0.0008693 -0.0239483 0.0189331
v -0.0008693 -0.0240199 0.0189331
v -0.0008424 -0.0239483 0.0190458
v -0.0008424 -0.0240199 0.0190458
v -0.0008211 -0.0239483 0.0191714
v -0.0008211 -0.0240199 0.0191714
v -0.0008057 -0.0239483 0.0193095
v -0.0008057 -0.0240199 0.0193095
v -0.0007963 -0.0239483 0.0194595
v -0.0007963 -0.0240199 0.0194595
v -0.0007932 -0.0239483 0.0196210
v -0.0007932 -0.0240199 0.0196210
v -0.0007963 -0.0239483 0.0197825
v -0.0007963 -0.0240199 0.0197825
v -0.0008057 -0.0239483 0.0199325
v -0.0008057 -0.0240199 0.0199325
v -0.0008211 -0.0239483 0.0200706
v -0.0008211 -0.0240199 0.0200706
v -0.0008424 -0.0239483 0.0201963
v -0.0008424 -0.0240199 0.0201963
v -0.0008693 -0.0239483 0.0203090
v -0.0008693 -0.0240199 0.0203090
v -0.0009017 -0.0239483 0.0204083
v -0.0009017 -0.0240199 0.0204083
v -0.0009394 -0.0239483 0.0204936
v -0.0009394 -0.0240199 0.0204936
v -0.0009822 -0.0239483 0.0205646
v -0.0009822 -0.0240199 0.0205646
v -0.0010299 -0.0239483 0.0206206
v -0.0010299 -0.0240199 0.0206206
v -0.0010823 -0.0239483 0.0206612
v -0.0010823 -0.0240199 0.0206612
v -0.0011393 -0.0239483 0.0206860
v -0.0011393 -0.0240199 0.0206860
v -0.0012006 -0.0239483 0.0206943
v -0.0012006 -0.0240199 0.0206943
v 0.0001969 -0.0239483 0.0198252
v 0.0001969 -0.0240199 0.0198252
v 0.0001915 -0.0239483 0.0197927
v 0.0001915 -0.0240199 0.0197927
v 0.0001829 -0.0239483 0.0197618
v 0.0001829 -0.0240199 0.0197618
v 0.0001713 -0.0239483 0.0197329
v 0.0001713 -0.0240199 0.0197329
v 0.0001568 -0.0239483 0.0197062
v 0.0001568 -0.0240199 0.0197062
v 0.0001398 -0.0239483 0.0196821
v 0.0001398 -0.0240199 0.0196821
v 0.0001206 -0.0239483 0.0196609
v 0.0001206 -0.0240199 0.0196609
v 0.0000993 -0.0239483 0.0196428
v 0.0000993 -0.0240199 0.0196428
v 0.0000761 -0.0239483 0.0196283
v 0.0000761 -0.0240199 0.0196283
v 0.0000514 -0.0239483 0.0196175
v 0.0000514 -0.0240199 0.0196175
v 0.0000254 -0.0239483 0.0196108
v 0.0000254 -0.0240199 0.0196108
v -0.0000017 -0.0239483 0.0196085
v -0.0000017 -0.0240199 0.0196085
v -0.0000288 -0.0239483 0.0196108
v -0.0000288 -0.0240199 0.0196108
v -0.0000548 -0.0239483 0.0196175
v -0.0000548 -0.0240199 0.0196175
v -0.0000795 -0.0239483 0.0196283
v -0.0000795 -0.0240199 0.0196283
v -0.0001026 -0.0239483 0.0196428
v -0.0001026 -0.0240199 0.0196428
v -0.0001239 -0.0239483 0.0196609
v -0.0001239 -0.0240199 0.0196609
v -0.0001432 -0.0239483 0.0196821
v -0.0001432 -0.0240199 0.0196821
v -0.0001602 -0.0239483 0.0197062
v -0.0001602 -0.0240199 0.0197062
v -0.0001746 -0.0239483 0.0197329
v -0.0001746 -0.0240199 0.0197329
v -0.0001862 -0.0239483 0.0197618
v -0.0001862 -0.0240199 0.0197618
v -0.0001949 -0.0239483 0.0197927
v -0.0001949 -0.0240199 0.0197927
v -0.0002002 -0.0239483 0.0198252
v -0.0002002 -0.0240199 0.0198252
v -0.0002021 -0.0239483 0.0198591
v -0.0002021 -0.0240199 0.0198591
v -0.0002002 -0.0239483 0.0198930
v -0.0002002 -0.0240199 0.0198930
v -0.0001949 -0.0239483 0.0199255
v -0.0001949 -0.0240199 0.0199255
v -0.0001862 -0.0239483 0.0199564
v -0.0001862 -0.0240199 0.0199564
v -0.0001746 -0.0239483 0.0199853
v -0.0001746 -0.0240199 0.0199853
v -0.0001602 -0.0239483 0.0200120
v -0.0001602 -0.0240199 0.0200120
v -0.0001432 -0.0239483 0.0200360
v -0.0001432 -0.0240199 0.0200360
v -0.0001239 -0.0239483 0.0200573
v -0.0001239 -0.0240199 0.0200573
v -0.0001026 -0.0239483 0.0200753
v -0.0001026 -0.0240199 0.0200753
v -0.0000795 -0.0239483 0.0200899
v -0.0000795 -0.0240199 0.0200899
v -0.0000548 -0.0239483 0.0201007
v -0.0000548 -0.0240199 0.0201007
v -0.0000288 -0.0239483 0.0201074
v -0.0000288 -0.0240199 0.0201074
v -0.0000017 -0.0239483 0.0201097
v -0.0000017 -0.0240199 0.0201097
v 0.0000254 -0.0239483 0.0201074
v 0.0000254 -0.0240199 0.0201074
v 0.0000514 -0.0239483 0.0201007
v 0.0000514 -0.0240199 0.0201007
v 0.0000761 -0.0239483 0.0200899
v 0.0000761 -0.0240199 0.0200899
v 0.0000993 -0.0239483 0.0200753
v 0.0000993 -0.0240199 0.0200753
v 0.0001206 -0.0239483 0.0200573
v 0.0001206 -0.0240199 0.0200573
v 0.0001398 -0.0239483 0.0200360
v 0.0001398 -0.0240199 0.0200360
v 0.0001568 -0.0239483 0.0200120
v 0.0001568 -0.0240199 0.0200120
v 0.0001713 -0.0239483 0.0199853
v 0.0001713 -0.0240199 0.0199853
v 0.0001829 -0.0239483 0.0199564
v 0.0001829 -0.0240199 0.0199564
v 0.0001915 -0.0239483 0.0199255
v 0.0001915 -0.0240199 0.0199255
v 0.0001969 -0.0239483 0.0198930
v 0.0001969 -0.0240199 0.0198930
v 0.0001987 -0.0239483 0.0198591
v 0.0001987 -0.0240199 0.0198591
v 0.0001969 -0.0239483 0.0183760
v 0.0001969 -0.0240199 0.0183760
v 0.0001915 -0.0239483 0.0183435
v 0.0001915 -0.0240199 0.0183435
v 0.0001829 -0.0239483 0.0183126
v 0.0001829 -0.0240199 0.0183126
v 0.0001713 -0.0239483 0.0182837
v 0.0001713 -0.0240199 0.0182837
v 0.0001568 -0.0239483 0.0182570
v 0.0001568 -0.0240199 0.0182570
v 0.0001398 -0.0239483 0.0182329
v 0.0001398 -0.0240199 0.0182329
v 0.0001206 -0.0239483 0.0182117
v 0.0001206 -0.0240199 0.0182117
v 0.0000993 -0.0239483 0.0181936
v 0.0000993 -0.0240199 0.0181936
v 0.0000761 -0.0239483 0.0181791
v 0.0000761 -0.0240199 0.0181791
v 0.0000514 -0.0239483 0.0181683
v 0.0000514 -0.0240199 0.0181683
v 0.0000254 -0.0239483 0.0181616
v 0.0000254 -0.0240199 0.0181616
v -0.0000017 -0.0239483 0.0181593
v -0.0000017 -0.0240199 0.0181593
v -0.0000288 -0.0239483 0.0181616
v -0.0000288 -0.0240199 0.0181616
v -0.0000548 -0.0239483 0.0181683
v -0.0000548 -0.0240199 0.0181683
v -0.0000795 -0.0239483 0.0181791
v -0.0000795 -0.0240199 0.0181791
v -0.0001026 -0.0239483 0.0181936
v -0.0001026 -0.0240199 0.0181936
v -0.0001239 -0.0239483 0.0182117
v -0.0001239 -0.0240199 0.0182117
v -0.0001432 -0.0239483 0.0182329
v -0.0001432 -0.0240199 0.0182329
v -0.0001602 -0.0239483 0.0182570
v -0.0001602 -0.0240199 0.0182570
v -0.0001746 -0.0239483 0.0182837
v -0.0001746 -0.0240199 0.0182837
v -0.0001862 -0.0239483 0.0183126
v -0.0001862 -0.0240199 0.0183126
v -0.0001949 -0.0239483 0.0183435
v -0.0001949 -0.0240199 0.0183435
v -0.0002002 -0.0239483 0.0183760
v -0.0002002 -0.0240199 0.0183760
v -0.0002021 -0.0239483 0.0184099
v -0.0002021 -0.0240199 0.0184099
v -0.0002002 -0.0239483 0.0184438
v -0.0002002 -0.0240199 0.0184438
v -0.0001949 -0.0239483 0.0184763
v -0.0001949 -0.0240199 0.0184763
v -0.0001862 -0.0239483 0.0185072
v -0.0001862 -0.0240199 0.0185072
v -0.0001746 -0.0239483 0.0185361
v -0.0001746 -0.0240199 0.0185361
v -0.0001602 -0.0239483 0.0185628
v -0.0001602 -0.0240199 0.0185628
v -0.0001432 -0.0239483 0.0185869
v -0.0001432 -0.0240199 0.0185869
v -0.0001239 -0.0239483 0.0186081
v -0.0001239 -0.0240199 0.0186081
v -0.0001026 -0.0239483 0.0186261
v -0.0001026 -0.0240199 0.0186261
v -0.0000795 -0.0239483 0.0186407
v -0.0000795 -0.0240199 0.0186407
v -0.0000548 -0.0239483 0.0186515
v -0.0000548 -0.0240199 0.0186515
v -0.0000288 -0.0239483 0.0186582
v -0.0000288 -0.0240199 0.0186582
v -0.0000017 -0.0239483 0.0186605
v -0.0000017 -0.0240199 0.0186605
v 0.0000254 -0.0239483 0.0186582
v 0.0000254 -0.0240199 0.0186582
v 0.0000514 -0.0239483 0.0186515
v 0.0000514 -0.0240199 0.0186515
v 0.0000761 -0.0239483 0.0186407
v 0.0000761 -0.0240199 0.0186407
v 0.0000993 -0.0239483 0.0186261
v 0.0000993 -0.0240199 0.0186261
v 0.0001206 -0.0239483 0.0186081
v 0.0001206 -0.0240199 0.0186081
v 0.0001398 -0.0239483 0.0185869
v 0.0001398 -0.0240199 0.0185869
v 0.0001568 -0.0239483 0.0185628
v 0.0001568 -0.0240199 0.0185628
v 0.0001713 -0.0239483 0.0185361
v 0.0001713 -0.0240199 0.0185361
v 0.0001829 -0.0239483 0.0185072
v 0.0001829 -0.0240199 0.0185072
v 0.0001915 -0.0239483 0.0184763
v 0.0001915 -0.0240199 0.0184763
v 0.0001969 -0.0239483 0.0184438
v 0.0001969 -0.0240199 0.0184438
v 0.0001987 -0.0239483 0.0184099
v 0.0001987 -0.0240199 0.0184099
v 0.0010403 -0.0239483 0.0181969
v 0.0010403 -0.0240199 0.0181969
v 0.0010403 -0.0239483 0.0210452
v 0.0010403 -0.0240199 0.0210452
v 0.0013676 -0.0239483 0.0210452
v 0.0013676 -0.0240199 0.0210452
v 0.0013676 -0.0239483 0.0181969
v 0.0013676 -0.0240199 0.0181969
v 0.0026701 -0.0239483 0.0206776
v 0.0026701 -0.0240199 0.0206776
v 0.0026701 -0.0239483 0.0199635
v 0.0026701 -0.0240199 0.0199635
v 0.0027944 -0.0239483 0.0199638
v 0.0027944 -0.0240199 0.0199638
v 0.0029100 -0.0239483 0.0199469
v 0.0029100 -0.0240199 0.0199469
v 0.0030165 -0.0239483 0.0199137
v 0.0030165 -0.0240199 0.0199137
v 0.0031134 -0.0239483 0.0198654
v 0.0031134 -0.0240199 0.0198654
v 0.0032004 -0.0239483 0.0198032
v 0.0032004 -0.0240199 0.0198032
v 0.0032771 -0.0239483 0.0197280
v 0.0032771 -0.0240199 0.0197280
v 0.0033430 -0.0239483 0.0196412
v 0.0033430 -0.0240199 0.0196412
v 0.0033979 -0.0239483 0.0195437
v 0.0033979 -0.0240199 0.0195437
v 0.0034412 -0.0239483 0.0194367
v 0.0034412 -0.0240199 0.0194367
v 0.0034727 -0.0239483 0.0193213
v 0.0034727 -0.0240199 0.0193213
v 0.0034919 -0.0239483 0.0191986
v 0.0034919 -0.0240199 0.0191986
v 0.0034983 -0.0239483 0.0190697
v 0.0034983 -0.0240199 0.0190697
v 0.0034919 -0.0239483 0.0189413
v 0.0034919 -0.0240199 0.0189413
v 0.0034731 -0.0239483 0.0188196
v 0.0034731 -0.0240199 0.0188196
v 0.0034425 -0.0239483 0.0187055
v 0.0034425 -0.0240199 0.0187055
v 0.0034010 -0.0239483 0.0185998
v 0.0034010 -0.0240199 0.0185998
v 0.0033491 -0.0239483 0.0185035
v 0.0033491 -0.0240199 0.0185035
v 0.0032875 -0.0239483 0.0184172
v 0.0032875 -0.0240199 0.0184172
v 0.0032170 -0.0239483 0.0183419
v 0.0032170 -0.0240199 0.0183419
v 0.0031381 -0.0239483 0.0182784
v 0.0031381 -0.0240199 0.0182784
v 0.0030517 -0.0239483 0.0182276
v 0.0030517 -0.0240199 0.0182276
v 0.0029583 -0.0239483 0.0181902
v 0.0029583 -0.0240199 0.0181902
v 0.0028587 -0.0239483 0.0181672
v 0.0028587 -0.0240199 0.0181672
v 0.0027536 -0.0239483 0.0181593
v 0.0027536 -0.0240199 0.0181593
v 0.0027051 -0.0239483 0.0181604
v 0.0027051 -0.0240199 0.0181604
v 0.0026580 -0.0239483 0.0181636
v 0.0026580 -0.0240199 0.0181636
v 0.0026121 -0.0239483 0.0181691
v 0.0026121 -0.0240199 0.0181691
v 0.0025669 -0.0239483 0.0181769
v 0.0025669 -0.0240199 0.0181769
v 0.0025224 -0.0239483 0.0181872
v 0.0025224 -0.0240199 0.0181872
v 0.0024781 -0.0239483 0.0182000
v 0.0024781 -0.0240199 0.0182000
v 0.0024338 -0.0239483 0.0182154
v 0.0024338 -0.0240199 0.0182154
v 0.0023892 -0.0239483 0.0182336
v 0.0023892 -0.0240199 0.0182336
v 0.0023440 -0.0239483 0.0182544
v 0.0023440 -0.0240199 0.0182544
v 0.0022981 -0.0239483 0.0182782
v 0.0022981 -0.0240199 0.0182782
v 0.0022510 -0.0239483 0.0183049
v 0.0022510 -0.0240199 0.0183049
v 0.0022025 -0.0239483 0.0183347
v 0.0022025 -0.0240199 0.0183347
v 0.0022025 -0.0239483 0.0187565
v 0.0022025 -0.0240199 0.0187565
v 0.0022435 -0.0239483 0.0187235
v 0.0022435 -0.0240199 0.0187235
v 0.0022846 -0.0239483 0.0186932
v 0.0022846 -0.0240199 0.0186932
v 0.0023258 -0.0239483 0.0186658
v 0.0023258 -0.0240199 0.0186658
v 0.0023672 -0.0239483 0.0186411
v 0.0023672 -0.0240199 0.0186411
v 0.0024086 -0.0239483 0.0186194
v 0.0024086 -0.0240199 0.0186194
v 0.0024501 -0.0239483 0.0186004
v 0.0024501 -0.0240199 0.0186004
v 0.0024917 -0.0239483 0.0185844
v 0.0024917 -0.0240199 0.0185844
v 0.0025333 -0.0239483 0.0185712
v 0.0025333 -0.0240199 0.0185712
v 0.0025750 -0.0239483 0.0185610
v 0.0025750 -0.0240199 0.0185610
v 0.0026167 -0.0239483 0.0185536
v 0.0026167 -0.0240199 0.0185536
v 0.0026584 -0.0239483 0.0185492
v 0.0026584 -0.0240199 0.0185492
v 0.0027001 -0.0239483 0.0185477
v 0.0027001 -0.0240199 0.0185477
v 0.0027634 -0.0239483 0.0185525
v 0.0027634 -0.0240199 0.0185525
v 0.0028243 -0.0239483 0.0185663
v 0.0028243 -0.0240199 0.0185663
v 0.0028822 -0.0239483 0.0185886
v 0.0028822 -0.0240199 0.0185886
v 0.0029365 -0.0239483 0.0186187
v 0.0029365 -0.0240199 0.0186187
v 0.0029867 -0.0239483 0.0186559
v 0.0029867 -0.0240199 0.0186559
v 0.0030320 -0.0239483 0.0186996
v 0.0030320 -0.0240199 0.0186996
v 0.0030720 -0.0239483 0.0187491
v 0.0030720 -0.0240199 0.0187491
v 0.0031061 -0.0239483 0.0188039
v 0.0031061 -0.0240199 0.0188039
v 0.0031336 -0.0239483 0.0188631
v 0.0031336 -0.0240199 0.0188631
v 0.0031540 -0.0239483 0.0189262
v 0.0031540 -0.0240199 0.0189262
v 0.0031667 -0.0239483 0.0189925
v 0.0031667 -0.0240199 0.0189925
v 0.0031710 -0.0239483 0.0190614
v 0.0031710 -0.0240199 0.0190614
v 0.0031649 -0.0239483 0.0191505
v 0.0031649 -0.0240199 0.0191505
v 0.0031467 -0.0239483 0.0192351
v 0.0031467 -0.0240199 0.0192351
v 0.0031168 -0.0239483 0.0193141
v 0.0031168 -0.0240199 0.0193141
v 0.0030754 -0.0239483 0.0193862
v 0.0030754 -0.0240199 0.0193862
v 0.0030230 -0.0239483 0.0194501
v 0.0030230 -0.0240199 0.0194501
v 0.0029598 -0.0239483 0.0195046
v 0.0029598 -0.0240199 0.0195046
v 0.0028862 -0.0239483 0.0195484
v 0.0028862 -0.0240199 0.0195484
v 0.0028024 -0.0239483 0.0195802
v 0.0028024 -0.0240199 0.0195802
v 0.0027089 -0.0239483 0.0195988
v 0.0027089 -0.0240199 0.0195988
v 0.0026059 -0.0239483 0.0196029
v 0.0026059 -0.0240199 0.0196029
v 0.0024938 -0.0239483 0.0195912
v 0.0024938 -0.0240199 0.0195912
v 0.0023729 -0.0239483 0.0195626
v 0.0023729 -0.0240199 0.0195626
v 0.0023729 -0.0239483 0.0210452
v 0.0023729 -0.0240199 0.0210452
v 0.0033848 -0.0239483 0.0210452
v 0.0033848 -0.0240199 0.0210452
v 0.0033848 -0.0239483 0.0206776
v 0.0033848 -0.0240199 0.0206776
f 75 1 76
f 1 77 76
f 1 78 77
f 75 2 1
f 2 4 3
f 75 4 2
f 75 5 4
f 75 6 5
f 75 7 6
f 75 74 7
f 74 8 7
f 74 73 8
f 73 9 8
f 73 72 9
f 72 10 9
f 71 10 72
f 70 10 71
f 69 10 70
f 69 11 10
f 68 11 69
f 67 11 68
f 67 12 11
f 66 12 67
f 66 13 12
f 65 13 66
f 64 13 65
f 64 14 13
f 63 14 64
f 63 15 14
f 62 15 63
f 61 15 62
f 61 16 15
f 60 16 61
f 59 16 60
f 59 17 16
f 58 17 59
f 38 40 39
f 57 17 58
f 38 41 40
f 57 18 17
f 56 18 57
f 38 42 41
f 38 43 42
f 55 18 56
f 38 44 43
f 38 45 44
f 54 18 55
f 38 46 45
f 54 19 18
f 53 19 54
f 38 47 46
f 38 48 47
f 52 19 53
f 38 49 48
f 38 50 49
f 51 19 52
f 38 51 50
f 38 19 51
f 38 20 19
f 38 21 20
f 38 22 21
f 37 22 38
f 36 22 37
f 36 23 22
f 35 23 36
f 34 23 35
f 33 23 34
f 33 24 23
f 32 24 33
f 31 24 32
f 31 25 24
f 30 25 31
f 29 25 30
f 28 25 29
f 28 26 25
f 27 26 28
f 79 81 80
f 79 82 81
f 165 167 166
f 164 167 165
f 164 168 167
f 163 168 164
f 163 169 168
f 162 169 163
f 162 170 169
f 161 170 162
f 161 171 170
f 160 171 161
f 160 172 171
f 159 172 160
f 159 173 172
f 158 173 159
f 158 174 173
f 157 174 158
f 157 175 174
f 156 175 157
f 156 176 175
f 155 176 156
f 155 177 176
f 154 177 155
f 154 178 177
f 153 178 154
f 153 131 178
f 152 131 153
f 152 132 131
f 151 132 152
f 151 133 132
f 150 133 151
f 150 134 133
f 149 134 150
f 149 135 134
f 148 135 149
f 148 136 135
f 147 136 148
f 147 137 136
f 146 137 147
f 146 138 137
f 145 138 146
f 145 139 138
f 144 139 145
f 144 140 139
f 143 140 144
f 143 141 140
f 142 141 143
f 117 119 118
f 116 119 117
f 116 120 119
f 115 120 116
f 115 121 120
f 114 121 115
f 114 122 121
f 113 122 114
f 113 123 122
f 112 123 113
f 112 124 123
f 111 124 112
f 111 125 124
f 110 125 111
f 110 126 125
f 109 126 110
f 109 127 126
f 108 127 109
f 108 128 127
f 107 128 108
f 107 129 128
f 106 129 107
f 106 130 129
f 105 130 106
f 105 83 130
f 104 83 105
f 104 84 83
f 103 84 104
f 103 85 84
f 102 85 103
f 102 86 85
f 101 86 102
f 101 87 86
f 100 87 101
f 100 88 87
f 99 88 100
f 99 89 88
f 98 89 99
f 98 90 89
f 97 90 98
f 97 91 90
f 96 91 97
f 96 92 91
f 95 92 96
f 95 93 92
f 94 93 95
f 201 203 202
f 201 204 203
f 200 204 201
f 200 205 204
f 199 205 200
f 199 206 205
f 198 206 199
f 198 207 206
f 197 207 198
f 197 208 207
f 196 274 197
f 274 208 197
f 196 227 274
f 273 208 274
f 272 208 273
f 196 228 227
f 272 209 208
f 195 228 196
f 271 209 272
f 195 229 228
f 270 209 271
f 195 230 229
f 269 209 270
f 195 231 230
f 269 210 209
f 194 231 195
f 268 210 269
f 194 232 231
f 267 210 268
f 194 233 232
f 267 211 210
f 193 233 194
f 266 211 267
f 193 234 233
f 266 212 211
f 192 234 193
f 265 212 266
f 192 235 234
f 192 236 235
f 264 212 265
f 264 213 212
f 191 236 192
f 191 237 236
f 263 213 264
f 263 214 213
f 190 237 191
f 190 238 237
f 262 214 263
f 189 238 190
f 189 239 238
f 261 214 262
f 261 215 214
f 260 215 261
f 189 240 239
f 188 240 189
f 260 216 215
f 259 216 260
f 188 241 240
f 187 241 188
f 259 217 216
f 258 217 259
f 187 242 241
f 257 217 258
f 187 243 242
f 186 243 187
f 257 218 217
f 256 218 257
f 186 244 243
f 185 244 186
f 256 219 218
f 255 219 256
f 185 245 244
f 254 219 255
f 185 246 245
f 184 246 185
f 254 220 219
f 253 220 254
f 184 247 246
f 252 220 253
f 184 248 247
f 251 220 252
f 184 249 248
f 183 249 184
f 251 221 220
f 250 221 251
f 183 250 249
f 183 221 250
f 182 221 183
f 182 222 221
f 181 222 182
f 181 223 222
f 180 223 181
f 180 224 223
f 179 224 180
f 179 225 224
f 226 225 179
f 275 277 276
f 275 278 277
f 353 354 279
f 279 354 355
f 279 355 356
f 353 279 280
f 280 281 282
f 353 280 282
f 353 282 283
f 353 283 284
f 353 284 285
f 353 285 352
f 352 285 286
f 352 286 351
f 351 286 287
f 351 287 350
f 350 287 288
f 349 350 288
f 348 349 288
f 347 348 288
f 347 288 289
f 346 347 289
f 345 346 289
f 345 289 290
f 344 345 290
f 344 290 291
f 343 344 291
f 342 343 291
f 342 291 292
f 341 342 292
f 341 292 293
f 340 341 293
f 339 340 293
f 339 293 294
f 338 339 294
f 337 338 294
f 337 294 295
f 336 337 295
f 316 317 318
f 335 336 295
f 316 318 319
f 335 295 296
f 334 335 296
f 316 319 320
f 316 320 321
f 333 334 296
f 316 321 322
f 316 322 323
f 332 333 296
f 316 323 324
f 332 296 297
f 331 332 297
f 316 324 325
f 316 325 326
f 330 331 297
f 316 326 327
f 316 327 328
f 329 330 297
f 316 328 329
f 316 329 297
f 316 297 298
f 316 298 299
f 316 299 300
f 315 316 300
f 314 315 300
f 314 300 301
f 313 314 301
f 312 313 301
f 311 312 301
f 311 301 302
f 310 311 302
f 309 310 302
f 309 302 303
f 308 309 303
f 307 308 303
f 306 307 303
f 306 303 304
f 305 306 304
f 357 358 359
f 357 359 360
f 443 444 445
f 442 443 445
f 442 445 446
f 441 442 446
f 441 446 447
f 440 441 447
f 440 447 448
f 439 440 448
f 439 448 449
f 438 439 449
f 438 449 450
f 437 438 450
f 437 450 451
f 436 437 451
f 436 451 452
f 435 436 452
f 435 452 453
f 434 435 453
f 434 453 454
f 433 434 454
f 433 454 455
f 432 433 455
f 432 455 456
f 431 432 456
f 431 456 409
f 430 431 409
f 430 409 410
f 429 430 410
f 429 410 411
f 428 429 411
f 428 411 412
f 427 428 412
f 427 412 413
f 426 427 413
f 426 413 414
f 425 426 414
f 425 414 415
f 424 425 415
f 424 415 416
f 423 424 416
f 423 416 417
f 422 423 417
f 422 417 418
f 421 422 418
f 421 418 419
f 420 421 419
f 395 396 397
f 394 395 397
f 394 397 398
f 393 394 398
f 393 398 399
f 392 393 399
f 392 399 400
f 391 392 400
f 391 400 401
f 390 391 401
f 390 401 402
f 389 390 402
f 389 402 403
f 388 389 403
f 388 403 404
f 387 388 404
f 387 404 405
f 386 387 405
f 386 405 406
f 385 386 406
f 385 406 407
f 384 385 407
f 384 407 408
f 383 384 408
f 383 408 361
f 382 383 361
f 382 361 362
f 381 382 362
f 381 362 363
f 380 381 363
f 380 363 364
f 379 380 364
f 379 364 365
f 378 379 365
f 378 365 366
f 377 378 366
f 377 366 367
f 376 377 367
f 376 367 368
f 375 376 368
f 375 368 369
f 374 375 369
f 374 369 370
f 373 374 370
f 373 370 371
f 372 373 371
f 479 480 481
f 479 481 482
f 478 479 482
f 478 482 483
f 477 478 483
f 477 483 484
f 476 477 484
f 476 484 485
f 475 476 485
f 475 485 486
f 474 475 552
f 552 475 486
f 474 552 505
f 551 552 486
f 550 551 486
f 474 505 506
f 550 486 487
f 473 474 506
f 549 550 487
f 473 506 507
f 548 549 487
f 473 507 508
f 547 548 487
f 473 508 509
f 547 487 488
f 472 473 509
f 546 547 488
f 472 509 510
f 545 546 488
f 472 510 511
f 545 488 489
f 471 472 511
f 544 545 489
f 471 511 512
f 544 489 490
f 470 471 512
f 543 544 490
f 470 512 513
f 470 513 514
f 542 543 490
f 542 490 491
f 469 470 514
f 469 514 515
f 541 542 491
f 541 491 492
f 468 469 515
f 468 515 516
f 540 541 492
f 467 468 516
f 467 516 517
f 539 540 492
f 539 492 493
f 538 539 493
f 467 517 518
f 466 467 518
f 538 493 494
f 537 538 494
f 466 518 519
f 465 466 519
f 537 494 495
f 536 537 495
f 465 519 520
f 535 536 495
f 465 520 521
f 464 465 521
f 535 495 496
f 534 535 496
f 464 521 522
f 463 464 522
f 534 496 497
f 533 534 497
f 463 522 523
f 532 533 497
f 463 523 524
f 462 463 524
f 532 497 498
f 531 532 498
f 462 524 525
f 530 531 498
f 462 525 526
f 529 530 498
f 462 526 527
f 461 462 527
f 529 498 499
f 528 529 499
f 461 527 528
f 461 528 499
f 460 461 499
f 460 499 500
f 459 460 500
f 459 500 501
f 458 459 501
f 458 501 502
f 457 458 502
f 457 502 503
f 504 457 503
f 553 554 555
f 553 555 556
f 558 560 559
f 558 559 557
f 560 562 561
f 560 561 559
f 562 564 563
f 562 563 561
f 564 558 557
f 564 557 563
f 566 568 567
f 566 567 565
f 568 570 569
f 568 569 567
f 570 572 571
f 570 571 569
f 572 574 573
f 572 573 571
f 574 576 575
f 574 575 573
f 576 578 577
f 576 577 575
f 578 580 579
f 578 579 577
f 580 582 581
f 580 581 579
f 582 584 583
f 582 583 581
f 584 586 585
f 584 585 583
f 586 588 587
f 586 587 585
f 588 590 589
f 588 589 587
f 590 592 591
f 590 591 589
f 592 594 593
f 592 593 591
f 594 596 595
f 594 595 593
f 596 598 597
f 596 597 595
f 598 600 599
f 598 599 597
f 600 602 601
f 600 601 599
f 602 604 603
f 602 603 601
f 604 606 605
f 604 605 603
f 606 608 607
f 606 607 605
f 608 610 609
f 608 609 607
f 610 612 611
f 610 611 609
f 612 614 613
f 612 613 611
f 614 616 615
f 614 615 613
f 616 618 617
f 616 617 615
f 618 620 619
f 618 619 617
f 620 622 621
f 620 621 619
f 622 624 623
f 622 623 621
f 624 626 625
f 624 625 623
f 626 628 627
f 626 627 625
f 628 630 629
f 628 629 627
f 630 632 631
f 630 631 629
f 632 634 633
f 632 633 631
f 634 636 635
f 634 635 633
f 636 638 637
f 636 637 635
f 638 640 639
f 638 639 637
f 640 642 641
f 640 641 639
f 642 644 643
f 642 643 641
f 644 646 645
f 644 645 643
f 646 648 647
f 646 647 645
f 648 650 649
f 648 649 647
f 650 652 651
f 650 651 649
f 652 654 653
f 652 653 651
f 654 656 655
f 654 655 653
f 656 658 657
f 656 657 655
f 658 660 659
f 658 659 657
f 660 566 565
f 660 565 659
f 662 664 663
f 662 663 661
f 664 666 665
f 664 665 663
f 666 668 667
f 666 667 665
f 668 670 669
f 668 669 667
f 670 672 671
f 670 671 669
f 672 674 673
f 672 673 671
f 674 676 675
f 674 675 673
f 676 678 677
f 676 677 675
f 678 680 679
f 678 679 677
f 680 682 681
f 680 681 679
f 682 684 683
f 682 683 681
f 684 686 685
f 684 685 683
f 686 688 687
f 686 687 685
f 688 690 689
f 688 689 687
f 690 692 691
f 690 691 689
f 692 694 693
f 692 693 691
f 694 696 695
f 694 695 693
f 696 698 697
f 696 697 695
f 698 700 699
f 698 699 697
f 700 702 701
f 700 701 699
f 702 704 703
f 702 703 701
f 704 706 705
f 704 705 703
f 706 708 707
f 706 707 705
f 708 710 709
f 708 709 707
f 710 712 711
f 710 711 709
f 712 714 713
f 712 713 711
f 714 716 715
f 714 715 713
f 716 718 717
f 716 717 715
f 718 720 719
f 718 719 717
f 720 722 721
f 720 721 719
f 722 724 723
f 722 723 721
f 724 726 725
f 724 725 723
f 726 728 727
f 726 727 725
f 728 730 729
f 728 729 727
f 730 732 731
f 730 731 729
f 732 734 733
f 732 733 731
f 734 736 735
f 734 735 733
f 736 738 737
f 736 737 735
f 738 740 739
f 738 739 737
f 740 742 741
f 740 741 739
f 742 744 743
f 742 743 741
f 744 746 745
f 744 745 743
f 746 748 747
f 746 747 745
f 748 750 749
f 748 749 747
f 750 752 751
f 750 751 749
f 752 754 753
f 752 753 751
f 754 756 755
f 754 755 753
f 756 662 661
f 756 661 755
f 758 760 759
f 758 759 757
f 760 762 761
f 760 761 759
f 762 764 763
f 762 763 761
f 764 766 765
f 764 765 763
f 766 768 767
f 766 767 765
f 768 770 769
f 768 769 767
f 770 772 771
f 770 771 769
f 772 774 773
f 772 773 771
f 774 776 775
f 774 775 773
f 776 778 777
f 776 777 775
f 778 780 779
f 778 779 777
f 780 782 781
f 780 781 779
f 782 784 783
f 782 783 781
f 784 786 785
f 784 785 783
f 786 788 787
f 786 787 785
f 788 790 789
f 788 789 787
f 790 792 791
f 790 791 789
f 792 794 793
f 792 793 791
f 794 796 795
f 794 795 793
f 796 798 797
f 796 797 795
f 798 800 799
f 798 799 797
f 800 802 801
f 800 801 799
f 802 804 803
f 802 803 801
f 804 806 805
f 804 805 803
f 806 808 807
f 806 807 805
f 808 810 809
f 808 809 807
f 810 812 811
f 810 811 809
f 812 814 813
f 812 813 811
f 814 816 815
f 814 815 813
f 816 818 817
f 816 817 815
f 818 820 819
f 818 819 817
f 820 822 821
f 820 821 819
f 822 824 823
f 822 823 821
f 824 826 825
f 824 825 823
f 826 828 827
f 826 827 825
f 828 830 829
f 828 829 827
f 830 832 831
f 830 831 829
f 832 834 833
f 832 833 831
f 834 836 835
f 834 835 833
f 836 838 837
f 836 837 835
f 838 840 839
f 838 839 837
f 840 842 841
f 840 841 839
f 842 844 843
f 842 843 841
f 844 846 845
f 844 845 843
f 846 848 847
f 846 847 845
f 848 850 849
f 848 849 847
f 850 852 851
f 850 851 849
f 852 758 757
f 852 757 851
f 854 856 855
f 854 855 853
f 856 858 857
f 856 857 855
f 858 860 859
f 858 859 857
f 860 862 861
f 860 861 859
f 862 864 863
f 862 863 861
f 864 866 865
f 864 865 863
f 866 868 867
f 866 867 865
f 868 870 869
f 868 869 867
f 870 872 871
f 870 871 869
f 872 874 873
f 872 873 871
f 874 876 875
f 874 875 873
f 876 878 877
f 876 877 875
f 878 880 879
f 878 879 877
f 880 882 881
f 880 881 879
f 882 884 883
f 882 883 881
f 884 886 885
f 884 885 883
f 886 888 887
f 886 887 885
f 888 890 889
f 888 889 887
f 890 892 891
f 890 891 889
f 892 894 893
f 892 893 891
f 894 896 895
f 894 895 893
f 896 898 897
f 896 897 895
f 898 900 899
f 898 899 897
f 900 902 901
f 900 901 899
f 902 904 903
f 902 903 901
f 904 906 905
f 904 905 903
f 906 908 907
f 906 907 905
f 908 910 909
f 908 909 907
f 910 912 911
f 910 911 909
f 912 914 913
f 912 913 911
f 914 916 915
f 914 915 913
f 916 918 917
f 916 917 915
f 918 920 919
f 918 919 917
f 920 922 921
f 920 921 919
f 922 924 923
f 922 923 921
f 924 926 925
f 924 925 923
f 926 928 927
f 926 927 925
f 928 930 929
f 928 929 927
f 930 932 931
f 930 931 929
f 932 934 933
f 932 933 931
f 934 936 935
f 934 935 933
f 936 938 937
f 936 937 935
f 938 940 939
f 938 939 937
f 940 942 941
f 940 941 939
f 942 944 943
f 942 943 941
f 944 946 945
f 944 945 943
f 946 948 947
f 946 947 945
f 948 854 853
f 948 853 947
f 950 952 951
f 950 951 949
f 952 954 953
f 952 953 951
f 954 956 955
f 954 955 953
f 956 950 949
f 956 949 955
f 958 960 959
f 958 959 957
f 960 962 961
f 960 961 959
f 962 964 963
f 962 963 961
f 964 966 965
f 964 965 963
f 966 968 967
f 966 967 965
f 968 970 969
f 968 969 967
f 970 972 971
f 970 971 969
f 972 974 973
f 972 973 971
f 974 976 975
f 974 975 973
f 976 978 977
f 976 977 975
f 978 980 979
f 978 979 977
f 980 982 981
f 980 981 979
f 982 984 983
f 982 983 981
f 984 986 985
f 984 985 983
f 986 988 987
f 986 987 985
f 988 990 989
f 988 989 987
f 990 992 991
f 990 991 989
f 992 994 993
f 992 993 991
f 994 996 995
f 994 995 993
f 996 998 997
f 996 997 995
f 998 1000 999
f 998 999 997
f 1000 1002 1001
f 1000 1001 999
f 1002 1004 1003
f 1002 1003 1001
f 1004 1006 1005
f 1004 1005 1003
f 1006 1008 1007
f 1006 1007 1005
f 1008 1010 1009
f 1008 1009 1007
f 1010 1012 1011
f 1010 1011 1009
f 1012 1014 1013
f 1012 1013 1011
f 1014 1016 1015
f 1014 1015 1013
f 1016 1018 1017
f 1016 1017 1015
f 1018 1020 1019
f 1018 1019 1017
f 1020 1022 1021
f 1020 1021 1019
f 1022 1024 1023
f 1022 1023 1021
f 1024 1026 1025
f 1024 1025 1023
f 1026 1028 1027
f 1026 1027 1025
f 1028 1030 1029
f 1028 1029 1027
f 1030 1032 1031
f 1030 1031 1029
f 1032 1034 1033
f 1032 1033 1031
f 1034 1036 1035
f 1034 1035 1033
f 1036 1038 1037
f 1036 1037 1035
f 1038 1040 1039
f 1038 1039 1037
f 1040 1042 1041
f 1040 1041 1039
f 1042 1044 1043
f 1042 1043 1041
f 1044 1046 1045
f 1044 1045 1043
f 1046 1048 1047
f 1046 1047 1045
f 1048 1050 1049
f 1048 1049 1047
f 1050 1052 1051
f 1050 1051 1049
f 1052 1054 1053
f 1052 1053 1051
f 1054 1056 1055
f 1054 1055 1053
f 1056 1058 1057
f 1056 1057 1055
f 1058 1060 1059
f 1058 1059 1057
f 1060 1062 1061
f 1060 1061 1059
f 1062 1064 1063
f 1062 1063 1061
f 1064 1066 1065
f 1064 1065 1063
f 1066 1068 1067
f 1066 1067 1065
f 1068 1070 1069
f 1068 1069 1067
f 1070 1072 1071
f 1070 1071 1069
f 1072 1074 1073
f 1072 1073 1071
f 1074 1076 1075
f 1074 1075 1073
f 1076 1078 1077
f 1076 1077 1075
f 1078 1080 1079
f 1078 1079 1077
f 1080 1082 1081
f 1080 1081 1079
f 1082 1084 1083
f 1082 1083 1081
f 1084 1086 1085
f 1084 1085 1083
f 1086 1088 1087
f 1086 1087 1085
f 1088 1090 1089
f 1088 1089 1087
f 1090 1092 1091
f 1090 1091 1089
f 1092 1094 1093
f 1092 1093 1091
f 1094 1096 1095
f 1094 1095 1093
f 1096 1098 1097
f 1096 1097 1095
f 1098 1100 1099
f 1098 1099 1097
f 1100 1102 1101
f 1100 1101 1099
f 1102 1104 1103
f 1102 1103 1101
f 1104 1106 1105
f 1104 1105 1103
f 1106 1108 1107
f 1106 1107 1105
f 1108 1110 1109
f 1108 1109 1107
f 1110 1112 1111
f 1110 1111 1109
f 1112 958 957
f 1112 957 1111
