# Zoomer visual mesh, local link coordinates in metres
v 0.0104008 0.0000000 0.0016705
v 0.0102368 0.0000000 0.0023018
v 0.0098074 0.0000000 0.0026919
v 0.0092766 0.0000000 0.0026919
v 0.0088472 0.0000000 0.0023018
v 0.0086832 0.0000000 0.0016705
v 0.0088472 0.0000000 0.0010393
v 0.0092766 0.0000000 0.0006492
v 0.0098074 0.0000000 0.0006492
v 0.0102368 0.0000000 0.0010393
v 0.0103118 0.0016977 0.0016705
v 0.0101492 0.0016709 0.0023018
v 0.0097235 0.0016008 0.0026919
v 0.0091972 0.0015142 0.0026919
v 0.0087715 0.0014441 0.0023018
v 0.0086089 0.0014173 0.0016705
v 0.0087715 0.0014441 0.0010393
v 0.0091972 0.0015142 0.0006492
v 0.0097235 0.0016008 0.0006492
v 0.0101492 0.0016709 0.0010393
v 0.0100464 0.0033663 0.0016705
v 0.0098879 0.0033132 0.0023018
v 0.0094732 0.0031742 0.0026919
v 0.0089605 0.0030024 0.0026919
v 0.0085458 0.0028635 0.0023018
v 0.0083873 0.0028104 0.0016705
v 0.0085458 0.0028635 0.0010393
v 0.0089605 0.0030024 0.0006492
v 0.0094732 0.0031742 0.0006492
v 0.0098879 0.0033132 0.0010393
v 0.0096091 0.0049773 0.0016705
v 0.0094575 0.0048988 0.0023018
v 0.0090608 0.0046933 0.0026919
v 0.0085705 0.0044393 0.0026919
v 0.0081738 0.0042338 0.0023018
v 0.0080222 0.0041554 0.0016705
v 0.0081738 0.0042338 0.0010393
v 0.0085705 0.0044393 0.0006492
v 0.0090608 0.0046933 0.0006492
v 0.0094575 0.0048988 0.0010393
v 0.0090073 0.0065032 0.0016705
v 0.0088653 0.0064006 0.0023018
v 0.0084934 0.0061321 0.0026919
v 0.0080338 0.0058003 0.0026919
v 0.0076619 0.0055318 0.0023018
v 0.0075199 0.0054292 0.0016705
v 0.0076619 0.0055318 0.0010393
v 0.0080338 0.0058003 0.0006492
v 0.0084934 0.0061321 0.0006492
v 0.0088653 0.0064006 0.0010393
v 0.0082515 0.0079177 0.0016705
v 0.0081214 0.0077929 0.0023018
v 0.0077807 0.0074660 0.0026919
v 0.0073596 0.0070620 0.0026919
v 0.0070190 0.0067351 0.0023018
v 0.0068889 0.0066102 0.0016705
v 0.0070190 0.0067351 0.0010393
v 0.0073596 0.0070620 0.0006492
v 0.0077807 0.0074660 0.0006492
v 0.0081214 0.0077929 0.0010393
v 0.0073544 0.0091968 0.0016705
v 0.0072385 0.0090518 0.0023018
v 0.0069349 0.0086721 0.0026919
v 0.0065596 0.0082028 0.0026919
v 0.0062559 0.0078231 0.0023018
v 0.0061400 0.0076781 0.0016705
v 0.0062559 0.0078231 0.0010393
v 0.0065596 0.0082028 0.0006492
v 0.0069349 0.0086721 0.0006492
v 0.0072385 0.0090518 0.0010393
v 0.0063316 0.0103186 0.0016705
v 0.0062317 0.0101559 0.0023018
v 0.0059703 0.0097299 0.0026919
v 0.0056472 0.0092033 0.0026919
v 0.0053858 0.0087773 0.0023018
v 0.0052860 0.0086146 0.0016705
v 0.0053858 0.0087773 0.0010393
v 0.0056472 0.0092033 0.0006492
v 0.0059703 0.0097299 0.0006492
v 0.0062317 0.0101559 0.0010393
v 0.0052004 0.0112638 0.0016705
v 0.0051184 0.0110862 0.0023018
v 0.0049037 0.0106211 0.0026919
v 0.0046383 0.0100464 0.0026919
v 0.0044236 0.0095813 0.0023018
v 0.0043416 0.0094037 0.0016705
v 0.0044236 0.0095813 0.0010393
v 0.0046383 0.0100464 0.0006492
v 0.0049037 0.0106211 0.0006492
v 0.0051184 0.0110862 0.0010393
v 0.0039802 0.0120163 0.0016705
v 0.0039174 0.0118268 0.0023018
v 0.0037531 0.0113307 0.0026919
v 0.0035500 0.0107175 0.0026919
v 0.0033857 0.0102214 0.0023018
v 0.0033229 0.0100319 0.0016705
v 0.0033857 0.0102214 0.0010393
v 0.0035500 0.0107175 0.0006492
v 0.0037531 0.0113307 0.0006492
v 0.0039174 0.0118268 0.0010393
v 0.0026919 0.0125631 0.0016705
v 0.0026495 0.0123650 0.0023018
v 0.0025383 0.0118463 0.0026919
v 0.0024010 0.0112052 0.0026919
v 0.0022898 0.0106866 0.0023018
v 0.0022474 0.0104885 0.0016705
v 0.0022898 0.0106866 0.0010393
v 0.0024010 0.0112052 0.0006492
v 0.0025383 0.0118463 0.0006492
v 0.0026495 0.0123650 0.0010393
v 0.0013576 0.0128950 0.0016705
v 0.0013362 0.0126917 0.0023018
v 0.0012801 0.0121593 0.0026919
v 0.0012108 0.0115013 0.0026919
v 0.0011548 0.0109689 0.0023018
v 0.0011334 0.0107656 0.0016705
v 0.0011548 0.0109689 0.0010393
v 0.0012108 0.0115013 0.0006492
v 0.0012801 0.0121593 0.0006492
v 0.0013362 0.0126917 0.0010393
v 0.0000000 0.0130063 0.0016705
v 0.0000000 0.0128012 0.0023018
v 0.0000000 0.0122642 0.0026919
v 0.0000000 0.0116005 0.0026919
v 0.0000000 0.0110636 0.0023018
v 0.0000000 0.0108585 0.0016705
v 0.0000000 0.0110636 0.0010393
v 0.0000000 0.0116005 0.0006492
v 0.0000000 0.0122642 0.0006492
v 0.0000000 0.0128012 0.0010393
v -0.0013576 0.0128950 0.0016705
v -0.0013362 0.0126917 0.0023018
v -0.0012801 0.0121593 0.0026919
v -0.0012108 0.0115013 0.0026919
v -0.0011548 0.0109689 0.0023018
v -0.0011334 0.0107656 0.0016705
v -0.0011548 0.0109689 0.0010393
v -0.0012108 0.0115013 0.0006492
v -0.0012801 0.0121593 0.0006492
v -0.0013362 0.0126917 0.0010393
v -0.0026919 0.0125631 0.0016705
v -0.0026495 0.0123650 0.0023018
v -0.0025383 0.0118463 0.0026919
v -0.0024010 0.0112052 0.0026919
v -0.0022898 0.0106866 0.0023018
v -0.0022474 0.0104885 0.0016705
v -0.0022898 0.0106866 0.0010393
v -0.0024010 0.0112052 0.0006492
v -0.0025383 0.0118463 0.0006492
v -0.0026495 0.0123650 0.0010393
v -0.0039802 0.0120163 0.0016705
v -0.0039174 0.0118268 0.0023018
v -0.0037531 0.0113307 0.0026919
v -0.0035500 0.0107175 0.0026919
v -0.0033857 0.0102214 0.0023018
v -0.0033229 0.0100319 0.0016705
v -0.0033857 0.0102214 0.0010393
v -0.0035500 0.0107175 0.0006492
v -0.0037531 0.0113307 0.0006492
v -0.0039174 0.0118268 0.0010393
v -0.0052004 0.0112638 0.0016705
v -0.0051184 0.0110862 0.0023018
v -0.0049037 0.0106211 0.0026919
v -0.0046383 0.0100464 0.0026919
v -0.0044236 0.0095813 0.0023018
v -0.0043416 0.0094037 0.0016705
v -0.0044236 0.0095813 0.0010393
v -0.0046383 0.0100464 0.0006492
v -0.0049037 0.0106211 0.0006492
v -0.0051184 0.0110862 0.0010393
v -0.0063316 0.0103186 0.0016705
v -0.0062317 0.0101559 0.0023018
v -0.0059703 0.0097299 0.0026919
v -0.0056472 0.0092033 0.0026919
v -0.0053858 0.0087773 0.0023018
v -0.0052860 0.0086146 0.0016705
v -0.0053858 0.0087773 0.0010393
v -0.0056472 0.0092033 0.0006492
v -0.0059703 0.0097299 0.0006492
v -0.0062317 0.0101559 0.0010393
v -0.0073545 0.0091968 0.0016705
v -0.0072385 0.0090518 0.0023018
v -0.0069349 0.0086721 0.0026919
v -0.0065596 0.0082028 0.0026919
v -0.0062559 0.0078231 0.0023018
v -0.0061400 0.0076781 0.0016705
v -0.0062559 0.0078231 0.0010393
v -0.0065596 0.0082028 0.0006492
v -0.0069349 0.0086721 0.0006492
v -0.0072385 0.0090518 0.0010393
v -0.0082515 0.0079177 0.0016705
v -0.0081214 0.0077929 0.0023018
v -0.0077807 0.0074660 0.0026919
v -0.0073596 0.0070620 0.0026919
v -0.0070190 0.0067351 0.0023018
v -0.0068889 0.0066102 0.0016705
v -0.0070190 0.0067351 0.0010393
v -0.0073596 0.0070620 0.0006492
v -0.0077807 0.0074660 0.0006492
v -0.0081214 0.0077929 0.0010393
v -0.0090073 0.0065032 0.0016705
v -0.0088653 0.0064006 0.0023018
v -0.0084934 0.0061321 0.0026919
v -0.0080338 0.0058003 0.0026919
v -0.0076619 0.0055318 0.0023018
v -0.0075199 0.0054292 0.0016705
v -0.0076619 0.0055318 0.0010393
v -0.0080338 0.0058003 0.0006492
v -0.0084934 0.0061321 0.0006492
v -0.0088653 0.0064006 0.0010393
v -0.0096091 0.0049773 0.0016705
v -0.0094575 0.0048988 0.0023018
v -0.0090608 0.0046933 0.0026919
v -0.0085705 0.0044393 0.0026919
v -0.0081738 0.0042338 0.0023018
v -0.0080222 0.0041554 0.0016705
v -0.0081738 0.0042338 0.0010393
v -0.0085705 0.0044393 0.0006492
v -0.0090608 0.0046933 0.0006492
v -0.0094575 0.0048988 0.0010393
v -0.0100464 0.0033663 0.0016705
v -0.0098879 0.0033132 0.0023018
v -0.0094732 0.0031742 0.0026919
v -0.0089605 0.0030024 0.0026919
v -0.0085458 0.0028635 0.0023018
v -0.0083873 0.0028104 0.0016705
v -0.0085458 0.0028635 0.0010393
v -0.0089605 0.0030024 0.0006492
v -0.0094732 0.0031742 0.0006492
v -0.0098879 0.0033132 0.0010393
v -0.0103118 0.0016977 0.0016705
v -0.0101492 0.0016709 0.0023018
v -0.0097235 0.0016008 0.0026919
v -0.0091972 0.0015142 0.0026919
v -0.0087715 0.0014441 0.0023018
v -0.0086089 0.0014173 0.0016705
v -0.0087715 0.0014441 0.0010393
v -0.0091972 0.0015142 0.0006492
v -0.0097235 0.0016008 0.0006492
v -0.0101492 0.0016709 0.0010393
v -0.0104008 0.0000000 0.0016705
v -0.0102368 0.0000000 0.0023018
v -0.0098074 0.0000000 0.0026919
v -0.0092766 0.0000000 0.0026919
v -0.0088472 0.0000000 0.0023018
v -0.0086832 0.0000000 0.0016705
v -0.0088472 0.0000000 0.0010393
v -0.0092766 0.0000000 0.0006492
v -0.0098074 0.0000000 0.0006492
v -0.0102368 0.0000000 0.0010393
v -0.0103118 -0.0016977 0.0016705
v -0.0101492 -0.0016709 0.0023018
v -0.0097235 -0.0016008 0.0026919
v -0.0091972 -0.0015142 0.0026919
v -0.0087715 -0.0014441 0.0023018
v -0.0086089 -0.0014173 0.0016705
v -0.0087715 -0.0014441 0.0010393
v -0.0091972 -0.0015142 0.0006492
v -0.0097235 -0.0016008 0.0006492
v -0.0101492 -0.0016709 0.0010393
v -0.0100464 -0.0033663 0.0016705
v -0.0098879 -0.0033132 0.0023018
v -0.0094732 -0.0031742 0.0026919
v -0.0089605 -0.0030024 0.0026919
v -0.0085458 -0.0028635 0.0023018
v -0.0083873 -0.0028104 0.0016705
v -0.0085458 -0.0028635 0.0010393
v -0.0089605 -0.0030024 0.0006492
v -0.0094732 -0.0031742 0.0006492
v -0.0098879 -0.0033132 0.0010393
v -0.0096091 -0.0049773 0.0016705
v -0.0094575 -0.0048988 0.0023018
v -0.0090608 -0.0046933 0.0026919
v -0.0085705 -0.0044393 0.0026919
v -0.0081738 -0.0042338 0.0023018
v -0.0080222 -0.0041554 0.0016705
v -0.0081738 -0.0042338 0.0010393
v -0.0085705 -0.0044393 0.0006492
v -0.0090608 -0.0046933 0.0006492
v -0.0094575 -0.0048988 0.0010393
v -0.0090073 -0.0065031 0.0016705
v -0.0088653 -0.0064006 0.0023018
v -0.0084934 -0.0061321 0.0026919
v -0.0080338 -0.0058003 0.0026919
v -0.0076619 -0.0055318 0.0023018
v -0.0075199 -0.0054292 0.0016705
v -0.0076619 -0.0055318 0.0010393
v -0.0080338 -0.0058003 0.0006492
v -0.0084934 -0.0061321 0.0006492
v -0.0088653 -0.0064006 0.0010393
v -0.0082515 -0.0079177 0.0016705
v -0.0081214 -0.0077929 0.0023018
v -0.0077807 -0.0074660 0.0026919
v -0.0073596 -0.0070620 0.0026919
v -0.0070190 -0.0067351 0.0023018
v -0.0068889 -0.0066102 0.0016705
v -0.0070190 -0.0067351 0.0010393
v -0.0073596 -0.0070620 0.0006492
v -0.0077807 -0.0074660 0.0006492
v -0.0081214 -0.0077929 0.0010393
v -0.0073545 -0.0091968 0.0016705
v -0.0072385 -0.0090518 0.0023018
v -0.0069349 -0.0086721 0.0026919
v -0.0065596 -0.0082028 0.0026919
v -0.0062559 -0.0078231 0.0023018
v -0.0061400 -0.0076781 0.0016705
v -0.0062559 -0.0078231 0.0010393
v -0.0065596 -0.0082028 0.0006492
v -0.0069349 -0.0086721 0.0006492
v -0.0072385 -0.0090518 0.0010393
v -0.0063316 -0.0103186 0.0016705
v -0.0062317 -0.0101559 0.0023018
v -0.0059703 -0.0097299 0.0026919
v -0.0056472 -0.0092033 0.0026919
v -0.0053858 -0.0087773 0.0023018
v -0.0052860 -0.0086146 0.0016705
v -0.0053858 -0.0087773 0.0010393
v -0.0056472 -0.0092033 0.0006492
v -0.0059703 -0.0097299 0.0006492
v -0.0062317 -0.0101559 0.0010393
v -0.0052004 -0.0112638 0.0016705
v -0.0051184 -0.0110862 0.0023018
v -0.0049037 -0.0106211 0.0026919
v -0.0046383 -0.0100464 0.0026919
v -0.0044236 -0.0095813 0.0023018
v -0.0043416 -0.0094037 0.0016705
v -0.0044236 -0.0095813 0.0010393
v -0.0046383 -0.0100464 0.0006492
v -0.0049037 -0.0106211 0.0006492
v -0.0051184 -0.0110862 0.0010393
v -0.0039802 -0.0120163 0.0016705
v -0.0039174 -0.0118268 0.0023018
v -0.0037531 -0.0113307 0.0026919
v -0.0035500 -0.0107175 0.0026919
v -0.0033857 -0.0102214 0.0023018
v -0.0033229 -0.0100319 0.0016705
v -0.0033857 -0.0102214 0.0010393
v -0.0035500 -0.0107175 0.0006492
v -0.0037531 -0.0113307 0.0006492
v -0.0039174 -0.0118268 0.0010393
v -0.0026919 -0.0125631 0.0016705
v -0.0026495 -0.0123650 0.0023018
v -0.0025383 -0.0118463 0.0026919
v -0.0024010 -0.0112052 0.0026919
v -0.0022898 -0.0106866 0.0023018
v -0.0022474 -0.0104885 0.0016705
v -0.0022898 -0.0106866 0.0010393
v -0.0024010 -0.0112052 0.0006492
v -0.0025383 -0.0118463 0.0006492
v -0.0026495 -0.0123650 0.0010393
v -0.0013576 -0.0128950 0.0016705
v -0.0013362 -0.0126917 0.0023018
v -0.0012801 -0.0121593 0.0026919
v -0.0012108 -0.0115013 0.0026919
v -0.0011548 -0.0109689 0.0023018
v -0.0011334 -0.0107656 0.0016705
v -0.0011548 -0.0109689 0.0010393
v -0.0012108 -0.0115013 0.0006492
v -0.0012801 -0.0121593 0.0006492
v -0.0013362 -0.0126917 0.0010393
v 0.0000000 -0.0130063 0.0016705
v 0.0000000 -0.0128012 0.0023018
v 0.0000000 -0.0122642 0.0026919
v 0.0000000 -0.0116005 0.0026919
v 0.0000000 -0.0110636 0.0023018
v 0.0000000 -0.0108585 0.0016705
v 0.0000000 -0.0110636 0.0010393
v 0.0000000 -0.0116005 0.0006492
v 0.0000000 -0.0122642 0.0006492
v 0.0000000 -0.0128012 0.0010393
v 0.0013576 -0.0128950 0.0016705
v 0.0013362 -0.0126917 0.0023018
v 0.0012801 -0.0121593 0.0026919
v 0.0012108 -0.0115013 0.0026919
v 0.0011548 -0.0109689 0.0023018
v 0.0011334 -0.0107656 0.0016705
v 0.0011548 -0.0109689 0.0010393
v 0.0012108 -0.0115013 0.0006492
v 0.0012801 -0.0121593 0.0006492
v 0.0013362 -0.0126917 0.0010393
v 0.0026919 -0.0125631 0.0016705
v 0.0026495 -0.0123650 0.0023018
v 0.0025383 -0.0118463 0.0026919
v 0.0024010 -0.0112052 0.0026919
v 0.0022898 -0.0106866 0.0023018
v 0.0022474 -0.0104885 0.0016705
v 0.0022898 -0.0106866 0.0010393
v 0.0024010 -0.0112052 0.0006492
v 0.0025383 -0.0118463 0.0006492
v 0.0026495 -0.0123650 0.0010393
v 0.0039802 -0.0120163 0.0016705
v 0.0039174 -0.0118268 0.0023018
v 0.0037531 -0.0113307 0.0026919
v 0.0035500 -0.0107175 0.0026919
v 0.0033857 -0.0102214 0.0023018
v 0.0033229 -0.0100319 0.0016705
v 0.0033857 -0.0102214 0.0010393
v 0.0035500 -0.0107175 0.0006492
v 0.0037531 -0.0113307 0.0006492
v 0.0039174 -0.0118268 0.0010393
v 0.0052004 -0.0112638 0.0016705
v 0.0051184 -0.0110862 0.0023018
v 0.0049037 -0.0106211 0.0026919
v 0.0046383 -0.0100464 0.0026919
v 0.0044236 -0.0095813 0.0023018
v 0.0043416 -0.0094037 0.0016705
v 0.0044236 -0.0095813 0.0010393
v 0.0046383 -0.0100464 0.0006492
v 0.0049037 -0.0106211 0.0006492
v 0.0051184 -0.0110862 0.0010393
v 0.0063316 -0.0103186 0.0016705
v 0.0062317 -0.0101559 0.0023018
v 0.0059703 -0.0097299 0.0026919
v 0.0056472 -0.0092033 0.0026919
v 0.0053858 -0.0087773 0.0023018
v 0.0052860 -0.0086146 0.0016705
v 0.0053858 -0.0087773 0.0010393
v 0.0056472 -0.0092033 0.0006492
v 0.0059703 -0.0097299 0.0006492
v 0.0062317 -0.0101559 0.0010393
v 0.0073544 -0.0091968 0.0016705
v 0.0072385 -0.0090518 0.0023018
v 0.0069348 -0.0086721 0.0026919
v 0.0065595 -0.0082028 0.0026919
v 0.0062559 -0.0078231 0.0023018
v 0.0061400 -0.0076781 0.0016705
v 0.0062559 -0.0078231 0.0010393
v 0.0065595 -0.0082028 0.0006492
v 0.0069348 -0.0086721 0.0006492
v 0.0072385 -0.0090518 0.0010393
v 0.0082515 -0.0079177 0.0016705
v 0.0081214 -0.0077929 0.0023018
v 0.0077807 -0.0074660 0.0026919
v 0.0073596 -0.0070620 0.0026919
v 0.0070190 -0.0067351 0.0023018
v 0.0068889 -0.0066102 0.0016705
v 0.0070190 -0.0067351 0.0010393
v 0.0073596 -0.0070620 0.0006492
v 0.0077807 -0.0074660 0.0006492
v 0.0081214 -0.0077929 0.0010393
v 0.0090073 -0.0065032 0.0016705
v 0.0088653 -0.0064006 0.0023018
v 0.0084934 -0.0061321 0.0026919
v 0.0080338 -0.0058003 0.0026919
v 0.0076619 -0.0055318 0.0023018
v 0.0075199 -0.0054292 0.0016705
v 0.0076619 -0.0055318 0.0010393
v 0.0080338 -0.0058003 0.0006492
v 0.0084934 -0.0061321 0.0006492
v 0.0088653 -0.0064006 0.0010393
v 0.0096091 -0.0049773 0.0016705
v 0.0094575 -0.0048988 0.0023018
v 0.0090608 -0.0046933 0.0026919
v 0.0085705 -0.0044393 0.0026919
v 0.0081738 -0.0042338 0.0023018
v 0.0080222 -0.0041554 0.0016705
v 0.0081738 -0.0042338 0.0010393
v 0.0085705 -0.0044393 0.0006492
v 0.0090608 -0.0046933 0.0006492
v 0.0094575 -0.0048988 0.0010393
v 0.0100464 -0.0033663 0.0016705
v 0.0098879 -0.0033132 0.0023018
v 0.0094732 -0.0031742 0.0026919
v 0.0089605 -0.0030024 0.0026919
v 0.0085458 -0.0028635 0.0023018
v 0.0083873 -0.0028104 0.0016705
v 0.0085458 -0.0028635 0.0010393
v 0.0089605 -0.0030024 0.0006492
v 0.0094732 -0.0031742 0.0006492
v 0.0098879 -0.0033132 0.0010393
v 0.0103118 -0.0016977 0.0016705
v 0.0101492 -0.0016709 0.0023018
v 0.0097235 -0.0016008 0.0026919
v 0.0091972 -0.0015142 0.0026919
v 0.0087715 -0.0014441 0.0023018
v 0.0086089 -0.0014173 0.0016705
v 0.0087715 -0.0014441 0.0010393
v 0.0091972 -0.0015142 0.0006492
v 0.0097235 -0.0016008 0.0006492
v 0.0101492 -0.0016709 0.0010393
f 1 11 12
f 1 12 2
f 2 12 13
f 2 13 3
f 3 13 14
f 3 14 4
f 4 14 15
f 4 15 5
f 5 15 16
f 5 16 6
f 6 16 17
f 6 17 7
f 7 17 18
f 7 18 8
f 8 18 19
f 8 19 9
f 9 19 20
f 9 20 10
f 10 20 11
f 10 11 1
f 11 21 22
f 11 22 12
f 12 22 23
f 12 23 13
f 13 23 24
f 13 24 14
f 14 24 25
f 14 25 15
f 15 25 26
f 15 26 16
f 16 26 27
f 16 27 17
f 17 27 28
f 17 28 18
f 18 28 29
f 18 29 19
f 19 29 30
f 19 30 20
f 20 30 21
f 20 21 11
f 21 31 32
f 21 32 22
f 22 32 33
f 22 33 23
f 23 33 34
f 23 34 24
f 24 34 35
f 24 35 25
f 25 35 36
f 25 36 26
f 26 36 37
f 26 37 27
f 27 37 38
f 27 38 28
f 28 38 39
f 28 39 29
f 29 39 40
f 29 40 30
f 30 40 31
f 30 31 21
f 31 41 42
f 31 42 32
f 32 42 43
f 32 43 33
f 33 43 44
f 33 44 34
f 34 44 45
f 34 45 35
f 35 45 46
f 35 46 36
f 36 46 47
f 36 47 37
f 37 47 48
f 37 48 38
f 38 48 49
f 38 49 39
f 39 49 50
f 39 50 40
f 40 50 41
f 40 41 31
f 41 51 52
f 41 52 42
f 42 52 53
f 42 53 43
f 43 53 54
f 43 54 44
f 44 54 55
f 44 55 45
f 45 55 56
f 45 56 46
f 46 56 57
f 46 57 47
f 47 57 58
f 47 58 48
f 48 58 59
f 48 59 49
f 49 59 60
f 49 60 50
f 50 60 51
f 50 51 41
f 51 61 62
f 51 62 52
f 52 62 63
f 52 63 53
f 53 63 64
f 53 64 54
f 54 64 65
f 54 65 55
f 55 65 66
f 55 66 56
f 56 66 67
f 56 67 57
f 57 67 68
f 57 68 58
f 58 68 69
f 58 69 59
f 59 69 70
f 59 70 60
f 60 70 61
f 60 61 51
f 61 71 72
f 61 72 62
f 62 72 73
f 62 73 63
f 63 73 74
f 63 74 64
f 64 74 75
f 64 75 65
f 65 75 76
f 65 76 66
f 66 76 77
f 66 77 67
f 67 77 78
f 67 78 68
f 68 78 79
f 68 79 69
f 69 79 80
f 69 80 70
f 70 80 71
f 70 71 61
f 71 81 82
f 71 82 72
f 72 82 83
f 72 83 73
f 73 83 84
f 73 84 74
f 74 84 85
f 74 85 75
f 75 85 86
f 75 86 76
f 76 86 87
f 76 87 77
f 77 87 88
f 77 88 78
f 78 88 89
f 78 89 79
f 79 89 90
f 79 90 80
f 80 90 81
f 80 81 71
f 81 91 92
f 81 92 82
f 82 92 93
f 82 93 83
f 83 93 94
f 83 94 84
f 84 94 95
f 84 95 85
f 85 95 96
f 85 96 86
f 86 96 97
f 86 97 87
f 87 97 98
f 87 98 88
f 88 98 99
f 88 99 89
f 89 99 100
f 89 100 90
f 90 100 91
f 90 91 81
f 91 101 102
f 91 102 92
f 92 102 103
f 92 103 93
f 93 103 104
f 93 104 94
f 94 104 105
f 94 105 95
f 95 105 106
f 95 106 96
f 96 106 107
f 96 107 97
f 97 107 108
f 97 108 98
f 98 108 109
f 98 109 99
f 99 109 110
f 99 110 100
f 100 110 101
f 100 101 91
f 101 111 112
f 101 112 102
f 102 112 113
f 102 113 103
f 103 113 114
f 103 114 104
f 104 114 115
f 104 115 105
f 105 115 116
f 105 116 106
f 106 116 117
f 106 117 107
f 107 117 118
f 107 118 108
f 108 118 119
f 108 119 109
f 109 119 120
f 109 120 110
f 110 120 111
f 110 111 101
f 111 121 122
f 111 122 112
f 112 122 123
f 112 123 113
f 113 123 124
f 113 124 114
f 114 124 125
f 114 125 115
f 115 125 126
f 115 126 116
f 116 126 127
f 116 127 117
f 117 127 128
f 117 128 118
f 118 128 129
f 118 129 119
f 119 129 130
f 119 130 120
f 120 130 121
f 120 121 111
f 121 131 132
f 121 132 122
f 122 132 133
f 122 133 123
f 123 133 134
f 123 134 124
f 124 134 135
f 124 135 125
f 125 135 136
f 125 136 126
f 126 136 137
f 126 137 127
f 127 137 138
f 127 138 128
f 128 138 139
f 128 139 129
f 129 139 140
f 129 140 130
f 130 140 131
f 130 131 121
f 131 141 142
f 131 142 132
f 132 142 143
f 132 143 133
f 133 143 144
f 133 144 134
f 134 144 145
f 134 145 135
f 135 145 146
f 135 146 136
f 136 146 147
f 136 147 137
f 137 147 148
f 137 148 138
f 138 148 149
f 138 149 139
f 139 149 150
f 139 150 140
f 140 150 141
f 140 141 131
f 141 151 152
f 141 152 142
f 142 152 153
f 142 153 143
f 143 153 154
f 143 154 144
f 144 154 155
f 144 155 145
f 145 155 156
f 145 156 146
f 146 156 157
f 146 157 147
f 147 157 158
f 147 158 148
f 148 158 159
f 148 159 149
f 149 159 160
f 149 160 150
f 150 160 151
f 150 151 141
f 151 161 162
f 151 162 152
f 152 162 163
f 152 163 153
f 153 163 164
f 153 164 154
f 154 164 165
f 154 165 155
f 155 165 166
f 155 166 156
f 156 166 167
f 156 167 157
f 157 167 168
f 157 168 158
f 158 168 169
f 158 169 159
f 159 169 170
f 159 170 160
f 160 170 161
f 160 161 151
f 161 171 172
f 161 172 162
f 162 172 173
f 162 173 163
f 163 173 174
f 163 174 164
f 164 174 175
f 164 175 165
f 165 175 176
f 165 176 166
f 166 176 177
f 166 177 167
f 167 177 178
f 167 178 168
f 168 178 179
f 168 179 169
f 169 179 180
f 169 180 170
f 170 180 171
f 170 171 161
f 171 181 182
f 171 182 172
f 172 182 183
f 172 183 173
f 173 183 184
f 173 184 174
f 174 184 185
f 174 185 175
f 175 185 186
f 175 186 176
f 176 186 187
f 176 187 177
f 177 187 188
f 177 188 178
f 178 188 189
f 178 189 179
f 179 189 190
f 179 190 180
f 180 190 181
f 180 181 171
f 181 191 192
f 181 192 182
f 182 192 193
f 182 193 183
f 183 193 194
f 183 194 184
f 184 194 195
f 184 195 185
f 185 195 196
f 185 196 186
f 186 196 197
f 186 197 187
f 187 197 198
f 187 198 188
f 188 198 199
f 188 199 189
f 189 199 200
f 189 200 190
f 190 200 191
f 190 191 181
f 191 201 202
f 191 202 192
f 192 202 203
f 192 203 193
f 193 203 204
f 193 204 194
f 194 204 205
f 194 205 195
f 195 205 206
f 195 206 196
f 196 206 207
f 196 207 197
f 197 207 208
f 197 208 198
f 198 208 209
f 198 209 199
f 199 209 210
f 199 210 200
f 200 210 201
f 200 201 191
f 201 211 212
f 201 212 202
f 202 212 213
f 202 213 203
f 203 213 214
f 203 214 204
f 204 214 215
f 204 215 205
f 205 215 216
f 205 216 206
f 206 216 217
f 206 217 207
f 207 217 218
f 207 218 208
f 208 218 219
f 208 219 209
f 209 219 220
f 209 220 210
f 210 220 211
f 210 211 201
f 211 221 222
f 211 222 212
f 212 222 223
f 212 223 213
f 213 223 224
f 213 224 214
f 214 224 225
f 214 225 215
f 215 225 226
f 215 226 216
f 216 226 227
f 216 227 217
f 217 227 228
f 217 228 218
f 218 228 229
f 218 229 219
f 219 229 230
f 219 230 220
f 220 230 221
f 220 221 211
f 221 231 232
f 221 232 222
f 222 232 233
f 222 233 223
f 223 233 234
f 223 234 224
f 224 234 235
f 224 235 225
f 225 235 236
f 225 236 226
f 226 236 237
f 226 237 227
f 227 237 238
f 227 238 228
f 228 238 239
f 228 239 229
f 229 239 240
f 229 240 230
f 230 240 231
f 230 231 221
f 231 241 242
f 231 242 232
f 232 242 243
f 232 243 233
f 233 243 244
f 233 244 234
f 234 244 245
f 234 245 235
f 235 245 246
f 235 246 236
f 236 246 247
f 236 247 237
f 237 247 248
f 237 248 238
f 238 248 249
f 238 249 239
f 239 249 250
f 239 250 240
f 240 250 241
f 240 241 231
f 241 251 252
f 241 252 242
f 242 252 253
f 242 253 243
f 243 253 254
f 243 254 244
f 244 254 255
f 244 255 245
f 245 255 256
f 245 256 246
f 246 256 257
f 246 257 247
f 247 257 258
f 247 258 248
f 248 258 259
f 248 259 249
f 249 259 260
f 249 260 250
f 250 260 251
f 250 251 241
f 251 261 262
f 251 262 252
f 252 262 263
f 252 263 253
f 253 263 264
f 253 264 254
f 254 264 265
f 254 265 255
f 255 265 266
f 255 266 256
f 256 266 267
f 256 267 257
f 257 267 268
f 257 268 258
f 258 268 269
f 258 269 259
f 259 269 270
f 259 270 260
f 260 270 261
f 260 261 251
f 261 271 272
f 261 272 262
f 262 272 273
f 262 273 263
f 263 273 274
f 263 274 264
f 264 274 275
f 264 275 265
f 265 275 276
f 265 276 266
f 266 276 277
f 266 277 267
f 267 277 278
f 267 278 268
f 268 278 279
f 268 279 269
f 269 279 280
f 269 280 270
f 270 280 271
f 270 271 261
f 271 281 282
f 271 282 272
f 272 282 283
f 272 283 273
f 273 283 284
f 273 284 274
f 274 284 285
f 274 285 275
f 275 285 286
f 275 286 276
f 276 286 287
f 276 287 277
f 277 287 288
f 277 288 278
f 278 288 289
f 278 289 279
f 279 289 290
f 279 290 280
f 280 290 281
f 280 281 271
f 281 291 292
f 281 292 282
f 282 292 293
f 282 293 283
f 283 293 294
f 283 294 284
f 284 294 295
f 284 295 285
f 285 295 296
f 285 296 286
f 286 296 297
f 286 297 287
f 287 297 298
f 287 298 288
f 288 298 299
f 288 299 289
f 289 299 300
f 289 300 290
f 290 300 291
f 290 291 281
f 291 301 302
f 291 302 292
f 292 302 303
f 292 303 293
f 293 303 304
f 293 304 294
f 294 304 305
f 294 305 295
f 295 305 306
f 295 306 296
f 296 306 307
f 296 307 297
f 297 307 308
f 297 308 298
f 298 308 309
f 298 309 299
f 299 309 310
f 299 310 300
f 300 310 301
f 300 301 291
f 301 311 312
f 301 312 302
f 302 312 313
f 302 313 303
f 303 313 314
f 303 314 304
f 304 314 315
f 304 315 305
f 305 315 316
f 305 316 306
f 306 316 317
f 306 317 307
f 307 317 318
f 307 318 308
f 308 318 319
f 308 319 309
f 309 319 320
f 309 320 310
f 310 320 311
f 310 311 301
f 311 321 322
f 311 322 312
f 312 322 323
f 312 323 313
f 313 323 324
f 313 324 314
f 314 324 325
f 314 325 315
f 315 325 326
f 315 326 316
f 316 326 327
f 316 327 317
f 317 327 328
f 317 328 318
f 318 328 329
f 318 329 319
f 319 329 330
f 319 330 320
f 320 330 321
f 320 321 311
f 321 331 332
f 321 332 322
f 322 332 333
f 322 333 323
f 323 333 334
f 323 334 324
f 324 334 335
f 324 335 325
f 325 335 336
f 325 336 326
f 326 336 337
f 326 337 327
f 327 337 338
f 327 338 328
f 328 338 339
f 328 339 329
f 329 339 340
f 329 340 330
f 330 340 331
f 330 331 321
f 331 341 342
f 331 342 332
f 332 342 343
f 332 343 333
f 333 343 344
f 333 344 334
f 334 344 345
f 334 345 335
f 335 345 346
f 335 346 336
f 336 346 347
f 336 347 337
f 337 347 348
f 337 348 338
f 338 348 349
f 338 349 339
f 339 349 350
f 339 350 340
f 340 350 341
f 340 341 331
f 341 351 352
f 341 352 342
f 342 352 353
f 342 353 343
f 343 353 354
f 343 354 344
f 344 354 355
f 344 355 345
f 345 355 356
f 345 356 346
f 346 356 357
f 346 357 347
f 347 357 358
f 347 358 348
f 348 358 359
f 348 359 349
f 349 359 360
f 349 360 350
f 350 360 351
f 350 351 341
f 351 361 362
f 351 362 352
f 352 362 363
f 352 363 353
f 353 363 364
f 353 364 354
f 354 364 365
f 354 365 355
f 355 365 366
f 355 366 356
f 356 366 367
f 356 367 357
f 357 367 368
f 357 368 358
f 358 368 369
f 358 369 359
f 359 369 370
f 359 370 360
f 360 370 361
f 360 361 351
f 361 371 372
f 361 372 362
f 362 372 373
f 362 373 363
f 363 373 374
f 363 374 364
f 364 374 375
f 364 375 365
f 365 375 376
f 365 376 366
f 366 376 377
f 366 377 367
f 367 377 378
f 367 378 368
f 368 378 379
f 368 379 369
f 369 379 380
f 369 380 370
f 370 380 371
f 370 371 361
f 371 381 382
f 371 382 372
f 372 382 383
f 372 383 373
f 373 383 384
f 373 384 374
f 374 384 385
f 374 385 375
f 375 385 386
f 375 386 376
f 376 386 387
f 376 387 377
f 377 387 388
f 377 388 378
f 378 388 389
f 378 389 379
f 379 389 390
f 379 390 380
f 380 390 381
f 380 381 371
f 381 391 392
f 381 392 382
f 382 392 393
f 382 393 383
f 383 393 394
f 383 394 384
f 384 394 395
f 384 395 385
f 385 395 396
f 385 396 386
f 386 396 397
f 386 397 387
f 387 397 398
f 387 398 388
f 388 398 399
f 388 399 389
f 389 399 400
f 389 400 390
f 390 400 391
f 390 391 381
f 391 401 402
f 391 402 392
f 392 402 403
f 392 403 393
f 393 403 404
f 393 404 394
f 394 404 405
f 394 405 395
f 395 405 406
f 395 406 396
f 396 406 407
f 396 407 397
f 397 407 408
f 397 408 398
f 398 408 409
f 398 409 399
f 399 409 410
f 399 410 400
f 400 410 401
f 400 401 391
f 401 411 412
f 401 412 402
f 402 412 413
f 402 413 403
f 403 413 414
f 403 414 404
f 404 414 415
f 404 415 405
f 405 415 416
f 405 416 406
f 406 416 417
f 406 417 407
f 407 417 418
f 407 418 408
f 408 418 419
f 408 419 409
f 409 419 420
f 409 420 410
f 410 420 411
f 410 411 401
f 411 421 422
f 411 422 412
f 412 422 423
f 412 423 413
f 413 423 424
f 413 424 414
f 414 424 425
f 414 425 415
f 415 425 426
f 415 426 416
f 416 426 427
f 416 427 417
f 417 427 428
f 417 428 418
f 418 428 429
f 418 429 419
f 419 429 430
f 419 430 420
f 420 430 421
f 420 421 411
f 421 431 432
f 421 432 422
f 422 432 433
f 422 433 423
f 423 433 434
f 423 434 424
f 424 434 435
f 424 435 425
f 425 435 436
f 425 436 426
f 426 436 437
f 426 437 427
f 427 437 438
f 427 438 428
f 428 438 439
f 428 439 429
f 429 439 440
f 429 440 430
f 430 440 431
f 430 431 421
f 431 441 442
f 431 442 432
f 432 442 443
f 432 443 433
f 433 443 444
f 433 444 434
f 434 444 445
f 434 445 435
f 435 445 446
f 435 446 436
f 436 446 447
f 436 447 437
f 437 447 448
f 437 448 438
f 438 448 449
f 438 449 439
f 439 449 450
f 439 450 440
f 440 450 441
f 440 441 431
f 441 451 452
f 441 452 442
f 442 452 453
f 442 453 443
f 443 453 454
f 443 454 444
f 444 454 455
f 444 455 445
f 445 455 456
f 445 456 446
f 446 456 457
f 446 457 447
f 447 457 458
f 447 458 448
f 448 458 459
f 448 459 449
f 449 459 460
f 449 460 450
f 450 460 451
f 450 451 441
f 451 461 462
f 451 462 452
f 452 462 463
f 452 463 453
f 453 463 464
f 453 464 454
f 454 464 465
f 454 465 455
f 455 465 466
f 455 466 456
f 456 466 467
f 456 467 457
f 457 467 468
f 457 468 458
f 458 468 469
f 458 469 459
f 459 469 470
f 459 470 460
f 460 470 461
f 460 461 451
f 461 471 472
f 461 472 462
f 462 472 473
f 462 473 463
f 463 473 474
f 463 474 464
f 464 474 475
f 464 475 465
f 465 475 476
f 465 476 466
f 466 476 477
f 466 477 467
f 467 477 478
f 467 478 468
f 468 478 479
f 468 479 469
f 469 479 480
f 469 480 470
f 470 480 471
f 470 471 461
f 471 1 2
f 471 2 472
f 472 2 3
f 472 3 473
f 473 3 4
f 473 4 474
f 474 4 5
f 474 5 475
f 475 5 6
f 475 6 476
f 476 6 7
f 476 7 477
f 477 7 8
f 477 8 478
f 478 8 9
f 478 9 479
f 479 9 10
f 479 10 480
f 480 10 1
f 480 1 471
