# Zoomer visual mesh, local link coordinates in metres
v -0.0292939 -0.0152734 0.0412264
v -0.0292939 -0.0174213 0.0433742
v -0.0310114 -0.0152734 0.0433742
v -0.0292939 -0.0163460 0.0415133
v -0.0301515 -0.0152734 0.0415133
v -0.0301152 -0.0163006 0.0417920
v -0.0301515 -0.0171343 0.0433742
v -0.0292939 -0.0171343 0.0423017
v -0.0301152 -0.0168556 0.0423471
v -0.0307820 -0.0152734 0.0423017
v -0.0307820 -0.0163460 0.0433742
v -0.0305591 -0.0163006 0.0423471
v -0.0292939 -0.0174213 0.0456414
v -0.0292939 -0.0152734 0.0477892
v -0.0310114 -0.0152734 0.0456414
v -0.0292939 -0.0171343 0.0467139
v -0.0301515 -0.0171343 0.0456414
v -0.0301152 -0.0168556 0.0466685
v -0.0301515 -0.0152734 0.0475022
v -0.0292939 -0.0163460 0.0475022
v -0.0301152 -0.0163006 0.0472235
v -0.0307820 -0.0163460 0.0456414
v -0.0307820 -0.0152734 0.0467139
v -0.0305591 -0.0163006 0.0466685
v -0.0292939 0.0152734 0.0412264
v -0.0310114 0.0152734 0.0433742
v -0.0292939 0.0174213 0.0433742
v -0.0301515 0.0152734 0.0415133
v -0.0292939 0.0163460 0.0415133
v -0.0301152 0.0163006 0.0417920
v -0.0307820 0.0163460 0.0433742
v -0.0307820 0.0152734 0.0423017
v -0.0305591 0.0163006 0.0423471
v -0.0292939 0.0171343 0.0423017
v -0.0301515 0.0171343 0.0433742
v -0.0301152 0.0168556 0.0423471
v -0.0292939 0.0152734 0.0477892
v -0.0292939 0.0174213 0.0456414
v -0.0310114 0.0152734 0.0456414
v -0.0292939 0.0163460 0.0475022
v -0.0301515 0.0152734 0.0475022
v -0.0301152 0.0163006 0.0472235
v -0.0301515 0.0171343 0.0456414
v -0.0292939 0.0171343 0.0467139
v -0.0301152 0.0168556 0.0466685
v -0.0307820 0.0152734 0.0467139
v -0.0307820 0.0163460 0.0456414
v -0.0305591 0.0163006 0.0466685
v 0.0292939 -0.0152734 0.0412264
v 0.0310114 -0.0152734 0.0433742
v 0.0292939 -0.0174213 0.0433742
v 0.0301515 -0.0152734 0.0415133
v 0.0292939 -0.0163460 0.0415133
v 0.0301152 -0.0163006 0.0417920
v 0.0307820 -0.0163460 0.0433742
v 0.0307820 -0.0152734 0.0423017
v 0.0305591 -0.0163006 0.0423471
v 0.0292939 -0.0171343 0.0423017
v 0.0301515 -0.0171343 0.0433742
v 0.0301152 -0.0168556 0.0423471
v 0.0292939 -0.0152734 0.0477892
v 0.0292939 -0.0174213 0.0456414
v 0.0310114 -0.0152734 0.0456414
v 0.0292939 -0.0163460 0.0475022
v 0.0301515 -0.0152734 0.0475022
v 0.0301152 -0.0163006 0.0472235
v 0.0301515 -0.0171343 0.0456414
v 0.0292939 -0.0171343 0.0467139
v 0.0301152 -0.0168556 0.0466685
v 0.0307820 -0.0152734 0.0467139
v 0.0307820 -0.0163460 0.0456414
v 0.0305591 -0.0163006 0.0466685
v 0.0292939 0.0152734 0.0412264
v 0.0292939 0.0174213 0.0433742
v 0.0310114 0.0152734 0.0433742
v 0.0292939 0.0163460 0.0415133
v 0.0301515 0.0152734 0.0415133
v 0.0301152 0.0163006 0.0417920
v 0.0301515 0.0171343 0.0433742
v 0.0292939 0.0171343 0.0423017
v 0.0301152 0.0168556 0.0423471
v 0.0307820 0.0152734 0.0423017
v 0.0307820 0.0163460 0.0433742
v 0.0305591 0.0163006 0.0423471
v 0.0292939 0.0152734 0.0477892
v 0.0310114 0.0152734 0.0456414
v 0.0292939 0.0174213 0.0456414
v 0.0301515 0.0152734 0.0475022
v 0.0292939 0.0163460 0.0475022
v 0.0301152 0.0163006 0.0472235
v 0.0307820 0.0163460 0.0456414
v 0.0307820 0.0152734 0.0467139
v 0.0305591 0.0163006 0.0466685
v 0.0292939 0.0171343 0.0467139
v 0.0301515 0.0171343 0.0456414
v 0.0301152 0.0168556 0.0466685
v -0.0135496 -0.0184952 0.0139012
v -0.0135496 -0.0200464 0.0154524
v -0.0147901 -0.0184952 0.0154524
v -0.0135496 -0.0192698 0.0141085
v -0.0141690 -0.0184952 0.0141085
v -0.0141428 -0.0192370 0.0143098
v -0.0141690 -0.0198392 0.0154524
v -0.0135496 -0.0198392 0.0146779
v -0.0141428 -0.0196379 0.0147106
v -0.0146244 -0.0184952 0.0146779
v -0.0146244 -0.0192698 0.0154524
v -0.0144634 -0.0192370 0.0147106
v -0.0135496 -0.0200464 0.0418230
v -0.0135496 -0.0184952 0.0433742
v -0.0147901 -0.0184952 0.0418230
v -0.0135496 -0.0198392 0.0425976
v -0.0141690 -0.0198392 0.0418230
v -0.0141428 -0.0196379 0.0425648
v -0.0141690 -0.0184952 0.0431670
v -0.0135496 -0.0192698 0.0431670
v -0.0141428 -0.0192370 0.0429657
v -0.0146244 -0.0192698 0.0418230
v -0.0146244 -0.0184952 0.0425976
v -0.0144634 -0.0192370 0.0425648
v -0.0135496 -0.0184952 0.0139012
v -0.0147901 -0.0184952 0.0154524
v -0.0135496 -0.0169440 0.0154524
v -0.0141690 -0.0184952 0.0141085
v -0.0135496 -0.0177206 0.0141085
v -0.0141428 -0.0177534 0.0143098
v -0.0146244 -0.0177206 0.0154524
v -0.0146244 -0.0184952 0.0146779
v -0.0144634 -0.0177534 0.0147106
v -0.0135496 -0.0171512 0.0146779
v -0.0141690 -0.0171512 0.0154524
v -0.0141428 -0.0173525 0.0147106
v -0.0135496 -0.0184952 0.0433742
v -0.0135496 -0.0169440 0.0418230
v -0.0147901 -0.0184952 0.0418230
v -0.0135496 -0.0177206 0.0431670
v -0.0141690 -0.0184952 0.0431670
v -0.0141428 -0.0177534 0.0429657
v -0.0141690 -0.0171512 0.0418230
v -0.0135496 -0.0171512 0.0425976
v -0.0141428 -0.0173525 0.0425648
v -0.0146244 -0.0184952 0.0425976
v -0.0146244 -0.0177206 0.0418230
v -0.0144634 -0.0177534 0.0425648
v 0.0135496 -0.0184952 0.0139012
v 0.0147901 -0.0184952 0.0154524
v 0.0135496 -0.0200464 0.0154524
v 0.0141690 -0.0184952 0.0141085
v 0.0135496 -0.0192698 0.0141085
v 0.0141428 -0.0192370 0.0143098
v 0.0146244 -0.0192698 0.0154524
v 0.0146244 -0.0184952 0.0146779
v 0.0144634 -0.0192370 0.0147106
v 0.0135496 -0.0198392 0.0146779
v 0.0141690 -0.0198392 0.0154524
v 0.0141428 -0.0196379 0.0147106
v 0.0135496 -0.0184952 0.0433742
v 0.0135496 -0.0200464 0.0418230
v 0.0147901 -0.0184952 0.0418230
v 0.0135496 -0.0192698 0.0431670
v 0.0141690 -0.0184952 0.0431670
v 0.0141428 -0.0192370 0.0429657
v 0.0141690 -0.0198392 0.0418230
v 0.0135496 -0.0198392 0.0425976
v 0.0141428 -0.0196379 0.0425648
v 0.0146244 -0.0184952 0.0425976
v 0.0146244 -0.0192698 0.0418230
v 0.0144634 -0.0192370 0.0425648
v 0.0135496 -0.0184952 0.0139012
v 0.0135496 -0.0169440 0.0154524
v 0.0147901 -0.0184952 0.0154524
v 0.0135496 -0.0177206 0.0141085
v 0.0141690 -0.0184952 0.0141085
v 0.0141428 -0.0177534 0.0143098
v 0.0141690 -0.0171512 0.0154524
v 0.0135496 -0.0171512 0.0146779
v 0.0141428 -0.0173525 0.0147106
v 0.0146244 -0.0184952 0.0146779
v 0.0146244 -0.0177206 0.0154524
v 0.0144634 -0.0177534 0.0147106
v 0.0135496 -0.0184952 0.0433742
v 0.0147901 -0.0184952 0.0418230
v 0.0135496 -0.0169440 0.0418230
v 0.0141690 -0.0184952 0.0431670
v 0.0135496 -0.0177206 0.0431670
v 0.0141428 -0.0177534 0.0429657
v 0.0146244 -0.0177206 0.0418230
v 0.0146244 -0.0184952 0.0425976
v 0.0144634 -0.0177534 0.0425648
v 0.0135496 -0.0171512 0.0425976
v 0.0141690 -0.0171512 0.0418230
v 0.0141428 -0.0173525 0.0425648
v 0.0064885 -0.0227909 0.0236858
v 0.0064885 -0.0230295 0.0239244
v 0.0062977 -0.0227909 0.0239244
v 0.0064885 -0.0229100 0.0237177
v 0.0063933 -0.0227909 0.0237177
v 0.0063973 -0.0229050 0.0237486
v 0.0063933 -0.0229976 0.0239244
v 0.0064885 -0.0229976 0.0238053
v 0.0063973 -0.0229666 0.0238103
v 0.0063232 -0.0227909 0.0238053
v 0.0063232 -0.0229100 0.0239244
v 0.0063480 -0.0229050 0.0238103
v 0.0064885 -0.0230295 0.0245210
v 0.0064885 -0.0227909 0.0247597
v 0.0062977 -0.0227909 0.0245210
v 0.0064885 -0.0229976 0.0246402
v 0.0063933 -0.0229976 0.0245210
v 0.0063973 -0.0229666 0.0246352
v 0.0063933 -0.0227909 0.0247278
v 0.0064885 -0.0229100 0.0247278
v 0.0063973 -0.0229050 0.0246968
v 0.0063232 -0.0229100 0.0245210
v 0.0063232 -0.0227909 0.0246402
v 0.0063480 -0.0229050 0.0246352
v 0.0064885 -0.0218363 0.0236858
v 0.0062977 -0.0218363 0.0239244
v 0.0064885 -0.0215976 0.0239244
v 0.0063933 -0.0218363 0.0237177
v 0.0064885 -0.0217171 0.0237177
v 0.0063973 -0.0217221 0.0237486
v 0.0063232 -0.0217171 0.0239244
v 0.0063232 -0.0218363 0.0238053
v 0.0063480 -0.0217221 0.0238103
v 0.0064885 -0.0216295 0.0238053
v 0.0063933 -0.0216295 0.0239244
v 0.0063973 -0.0216605 0.0238103
v 0.0064885 -0.0218363 0.0247597
v 0.0064885 -0.0215976 0.0245210
v 0.0062977 -0.0218363 0.0245210
v 0.0064885 -0.0217171 0.0247278
v 0.0063933 -0.0218363 0.0247278
v 0.0063973 -0.0217221 0.0246968
v 0.0063933 -0.0216295 0.0245210
v 0.0064885 -0.0216295 0.0246402
v 0.0063973 -0.0216605 0.0246352
v 0.0063232 -0.0218363 0.0246402
v 0.0063232 -0.0217171 0.0245210
v 0.0063480 -0.0217221 0.0246352
v 0.0082061 -0.0227909 0.0236858
v 0.0083969 -0.0227909 0.0239244
v 0.0082061 -0.0230295 0.0239244
v 0.0083014 -0.0227909 0.0237177
v 0.0082061 -0.0229100 0.0237177
v 0.0082974 -0.0229050 0.0237486
v 0.0083715 -0.0229100 0.0239244
v 0.0083715 -0.0227909 0.0238053
v 0.0083467 -0.0229050 0.0238103
v 0.0082061 -0.0229976 0.0238053
v 0.0083014 -0.0229976 0.0239244
v 0.0082974 -0.0229666 0.0238103
v 0.0082061 -0.0227909 0.0247597
v 0.0082061 -0.0230295 0.0245210
v 0.0083969 -0.0227909 0.0245210
v 0.0082061 -0.0229100 0.0247278
v 0.0083014 -0.0227909 0.0247278
v 0.0082974 -0.0229050 0.0246968
v 0.0083014 -0.0229976 0.0245210
v 0.0082061 -0.0229976 0.0246402
v 0.0082974 -0.0229666 0.0246352
v 0.0083715 -0.0227909 0.0246402
v 0.0083715 -0.0229100 0.0245210
v 0.0083467 -0.0229050 0.0246352
v 0.0082061 -0.0218363 0.0236858
v 0.0082061 -0.0215976 0.0239244
v 0.0083969 -0.0218363 0.0239244
v 0.0082061 -0.0217171 0.0237177
v 0.0083014 -0.0218363 0.0237177
v 0.0082974 -0.0217221 0.0237486
v 0.0083014 -0.0216295 0.0239244
v 0.0082061 -0.0216295 0.0238053
v 0.0082974 -0.0216605 0.0238103
v 0.0083715 -0.0218363 0.0238053
v 0.0083715 -0.0217171 0.0239244
v 0.0083467 -0.0217221 0.0238103
v 0.0082061 -0.0218363 0.0247597
v 0.0083969 -0.0218363 0.0245210
v 0.0082061 -0.0215976 0.0245210
v 0.0083014 -0.0218363 0.0247278
v 0.0082061 -0.0217171 0.0247278
v 0.0082974 -0.0217221 0.0246968
v 0.0083715 -0.0217171 0.0245210
v 0.0083715 -0.0218363 0.0246402
v 0.0083467 -0.0217221 0.0246352
v 0.0082061 -0.0216295 0.0246402
v 0.0083014 -0.0216295 0.0245210
v 0.0082974 -0.0216605 0.0246352
f 1 4 6
f 1 6 5
f 4 8 9
f 4 9 6
f 2 7 9
f 2 9 8
f 7 11 12
f 7 12 9
f 3 10 12
f 3 12 11
f 10 5 6
f 10 6 12
f 6 9 12
f 13 16 18
f 13 18 17
f 16 20 21
f 16 21 18
f 14 19 21
f 14 21 20
f 19 23 24
f 19 24 21
f 15 22 24
f 15 24 23
f 22 17 18
f 22 18 24
f 18 21 24
f 25 28 30
f 25 30 29
f 28 32 33
f 28 33 30
f 26 31 33
f 26 33 32
f 31 35 36
f 31 36 33
f 27 34 36
f 27 36 35
f 34 29 30
f 34 30 36
f 30 33 36
f 37 40 42
f 37 42 41
f 40 44 45
f 40 45 42
f 38 43 45
f 38 45 44
f 43 47 48
f 43 48 45
f 39 46 48
f 39 48 47
f 46 41 42
f 46 42 48
f 42 45 48
f 49 52 54
f 49 54 53
f 52 56 57
f 52 57 54
f 50 55 57
f 50 57 56
f 55 59 60
f 55 60 57
f 51 58 60
f 51 60 59
f 58 53 54
f 58 54 60
f 54 57 60
f 61 64 66
f 61 66 65
f 64 68 69
f 64 69 66
f 62 67 69
f 62 69 68
f 67 71 72
f 67 72 69
f 63 70 72
f 63 72 71
f 70 65 66
f 70 66 72
f 66 69 72
f 73 76 78
f 73 78 77
f 76 80 81
f 76 81 78
f 74 79 81
f 74 81 80
f 79 83 84
f 79 84 81
f 75 82 84
f 75 84 83
f 82 77 78
f 82 78 84
f 78 81 84
f 85 88 90
f 85 90 89
f 88 92 93
f 88 93 90
f 86 91 93
f 86 93 92
f 91 95 96
f 91 96 93
f 87 94 96
f 87 96 95
f 94 89 90
f 94 90 96
f 90 93 96
f 25 1 5
f 25 5 28
f 28 5 10
f 28 10 32
f 32 10 3
f 32 3 26
f 2 13 17
f 2 17 7
f 7 17 22
f 7 22 11
f 11 22 15
f 11 15 3
f 14 37 41
f 14 41 19
f 19 41 46
f 19 46 23
f 23 46 39
f 23 39 15
f 38 27 35
f 38 35 43
f 43 35 31
f 43 31 47
f 47 31 26
f 47 26 39
f 73 25 29
f 73 29 76
f 76 29 34
f 76 34 80
f 80 34 27
f 80 27 74
f 37 85 89
f 37 89 40
f 40 89 94
f 40 94 44
f 44 94 87
f 44 87 38
f 86 75 83
f 86 83 91
f 91 83 79
f 91 79 95
f 95 79 74
f 95 74 87
f 49 73 77
f 49 77 52
f 52 77 82
f 52 82 56
f 56 82 75
f 56 75 50
f 85 61 65
f 85 65 88
f 88 65 70
f 88 70 92
f 92 70 63
f 92 63 86
f 62 51 59
f 62 59 67
f 67 59 55
f 67 55 71
f 71 55 50
f 71 50 63
f 1 49 53
f 1 53 4
f 4 53 58
f 4 58 8
f 8 58 51
f 8 51 2
f 61 14 20
f 61 20 64
f 64 20 16
f 64 16 68
f 68 16 13
f 68 13 62
f 25 73 49
f 25 49 1
f 3 15 39
f 3 39 26
f 51 62 13
f 51 13 2
f 85 37 14
f 85 14 61
f 27 38 87
f 27 87 74
f 75 86 63
f 75 63 50
f 97 100 102
f 97 102 101
f 100 104 105
f 100 105 102
f 98 103 105
f 98 105 104
f 103 107 108
f 103 108 105
f 99 106 108
f 99 108 107
f 106 101 102
f 106 102 108
f 102 105 108
f 109 112 114
f 109 114 113
f 112 116 117
f 112 117 114
f 110 115 117
f 110 117 116
f 115 119 120
f 115 120 117
f 111 118 120
f 111 120 119
f 118 113 114
f 118 114 120
f 114 117 120
f 121 124 126
f 121 126 125
f 124 128 129
f 124 129 126
f 122 127 129
f 122 129 128
f 127 131 132
f 127 132 129
f 123 130 132
f 123 132 131
f 130 125 126
f 130 126 132
f 126 129 132
f 133 136 138
f 133 138 137
f 136 140 141
f 136 141 138
f 134 139 141
f 134 141 140
f 139 143 144
f 139 144 141
f 135 142 144
f 135 144 143
f 142 137 138
f 142 138 144
f 138 141 144
f 145 148 150
f 145 150 149
f 148 152 153
f 148 153 150
f 146 151 153
f 146 153 152
f 151 155 156
f 151 156 153
f 147 154 156
f 147 156 155
f 154 149 150
f 154 150 156
f 150 153 156
f 157 160 162
f 157 162 161
f 160 164 165
f 160 165 162
f 158 163 165
f 158 165 164
f 163 167 168
f 163 168 165
f 159 166 168
f 159 168 167
f 166 161 162
f 166 162 168
f 162 165 168
f 169 172 174
f 169 174 173
f 172 176 177
f 172 177 174
f 170 175 177
f 170 177 176
f 175 179 180
f 175 180 177
f 171 178 180
f 171 180 179
f 178 173 174
f 178 174 180
f 174 177 180
f 181 184 186
f 181 186 185
f 184 188 189
f 184 189 186
f 182 187 189
f 182 189 188
f 187 191 192
f 187 192 189
f 183 190 192
f 183 192 191
f 190 185 186
f 190 186 192
f 186 189 192
f 121 97 101
f 121 101 124
f 124 101 106
f 124 106 128
f 128 106 99
f 128 99 122
f 98 109 113
f 98 113 103
f 103 113 118
f 103 118 107
f 107 118 111
f 107 111 99
f 110 133 137
f 110 137 115
f 115 137 142
f 115 142 119
f 119 142 135
f 119 135 111
f 134 123 131
f 134 131 139
f 139 131 127
f 139 127 143
f 143 127 122
f 143 122 135
f 169 121 125
f 169 125 172
f 172 125 130
f 172 130 176
f 176 130 123
f 176 123 170
f 133 181 185
f 133 185 136
f 136 185 190
f 136 190 140
f 140 190 183
f 140 183 134
f 182 171 179
f 182 179 187
f 187 179 175
f 187 175 191
f 191 175 170
f 191 170 183
f 145 169 173
f 145 173 148
f 148 173 178
f 148 178 152
f 152 178 171
f 152 171 146
f 181 157 161
f 181 161 184
f 184 161 166
f 184 166 188
f 188 166 159
f 188 159 182
f 158 147 155
f 158 155 163
f 163 155 151
f 163 151 167
f 167 151 146
f 167 146 159
f 97 145 149
f 97 149 100
f 100 149 154
f 100 154 104
f 104 154 147
f 104 147 98
f 157 110 116
f 157 116 160
f 160 116 112
f 160 112 164
f 164 112 109
f 164 109 158
f 121 169 145
f 121 145 97
f 99 111 135
f 99 135 122
f 147 158 109
f 147 109 98
f 181 133 110
f 181 110 157
f 123 134 183
f 123 183 170
f 171 182 159
f 171 159 146
f 193 196 198
f 193 198 197
f 196 200 201
f 196 201 198
f 194 199 201
f 194 201 200
f 199 203 204
f 199 204 201
f 195 202 204
f 195 204 203
f 202 197 198
f 202 198 204
f 198 201 204
f 205 208 210
f 205 210 209
f 208 212 213
f 208 213 210
f 206 211 213
f 206 213 212
f 211 215 216
f 211 216 213
f 207 214 216
f 207 216 215
f 214 209 210
f 214 210 216
f 210 213 216
f 217 220 222
f 217 222 221
f 220 224 225
f 220 225 222
f 218 223 225
f 218 225 224
f 223 227 228
f 223 228 225
f 219 226 228
f 219 228 227
f 226 221 222
f 226 222 228
f 222 225 228
f 229 232 234
f 229 234 233
f 232 236 237
f 232 237 234
f 230 235 237
f 230 237 236
f 235 239 240
f 235 240 237
f 231 238 240
f 231 240 239
f 238 233 234
f 238 234 240
f 234 237 240
f 241 244 246
f 241 246 245
f 244 248 249
f 244 249 246
f 242 247 249
f 242 249 248
f 247 251 252
f 247 252 249
f 243 250 252
f 243 252 251
f 250 245 246
f 250 246 252
f 246 249 252
f 253 256 258
f 253 258 257
f 256 260 261
f 256 261 258
f 254 259 261
f 254 261 260
f 259 263 264
f 259 264 261
f 255 262 264
f 255 264 263
f 262 257 258
f 262 258 264
f 258 261 264
f 265 268 270
f 265 270 269
f 268 272 273
f 268 273 270
f 266 271 273
f 266 273 272
f 271 275 276
f 271 276 273
f 267 274 276
f 267 276 275
f 274 269 270
f 274 270 276
f 270 273 276
f 277 280 282
f 277 282 281
f 280 284 285
f 280 285 282
f 278 283 285
f 278 285 284
f 283 287 288
f 283 288 285
f 279 286 288
f 279 288 287
f 286 281 282
f 286 282 288
f 282 285 288
f 217 193 197
f 217 197 220
f 220 197 202
f 220 202 224
f 224 202 195
f 224 195 218
f 194 205 209
f 194 209 199
f 199 209 214
f 199 214 203
f 203 214 207
f 203 207 195
f 206 229 233
f 206 233 211
f 211 233 238
f 211 238 215
f 215 238 231
f 215 231 207
f 230 219 227
f 230 227 235
f 235 227 223
f 235 223 239
f 239 223 218
f 239 218 231
f 265 217 221
f 265 221 268
f 268 221 226
f 268 226 272
f 272 226 219
f 272 219 266
f 229 277 281
f 229 281 232
f 232 281 286
f 232 286 236
f 236 286 279
f 236 279 230
f 278 267 275
f 278 275 283
f 283 275 271
f 283 271 287
f 287 271 266
f 287 266 279
f 241 265 269
f 241 269 244
f 244 269 274
f 244 274 248
f 248 274 267
f 248 267 242
f 277 253 257
f 277 257 280
f 280 257 262
f 280 262 284
f 284 262 255
f 284 255 278
f 254 243 251
f 254 251 259
f 259 251 247
f 259 247 263
f 263 247 242
f 263 242 255
f 193 241 245
f 193 245 196
f 196 245 250
f 196 250 200
f 200 250 243
f 200 243 194
f 253 206 212
f 253 212 256
f 256 212 208
f 256 208 260
f 260 208 205
f 260 205 254
f 217 265 241
f 217 241 193
f 195 207 231
f 195 231 218
f 243 254 205
f 243 205 194
f 277 229 206
f 277 206 253
f 219 230 279
f 219 279 266
f 267 278 255
f 267 255 242
